<?xml version="1.0" encoding="UTF-8"?>
<!DOCTYPE svg PUBLIC "-//W3C//DTD SVG 1.1//EN" "http://www.w3.org/Graphics/SVG/1.1/DTD/svg11.dtd">
<!-- Creator: CorelDRAW -->
<svg xmlns="http://www.w3.org/2000/svg" xml:space="preserve" width="3300px" height="1010px" version="1.1" style="shape-rendering:geometricPrecision; text-rendering:geometricPrecision; image-rendering:optimizeQuality; fill-rule:evenodd; clip-rule:evenodd"
viewBox="0 0 3300 1010.47"
 xmlns:xlink="http://www.w3.org/1999/xlink"
 xmlns:xodm="http://www.corel.com/coreldraw/odm/2003">
 <defs>
  <style type="text/css">
   <![CDATA[
    .str0 {stroke:black;stroke-width:2;stroke-miterlimit:22.9256;stroke-opacity:0.850980}
    .fil0 {fill:none}
    .fil2 {fill:none}
    .fil1 {fill:#00C85F}
    .fil8 {fill:#FF6600}
    .fil9 {fill:#FF6600;fill-rule:nonzero}
    .fil6 {fill:#FF6600;fill-rule:nonzero}
    .fil7 {fill:#FFC000;fill-rule:nonzero}
    .fil3 {fill:black;fill-rule:nonzero;fill-opacity:0.850980}
    .fil4 {fill:#FF6600;fill-rule:nonzero;fill-opacity:0.850980}
    .fil5 {fill:#FFC000;fill-rule:nonzero;fill-opacity:0.850980}
   ]]>
  </style>
 </defs>
 <g id="Capa_x0020_1">
  <metadata id="CorelCorpID_0Corel-Layer"/>
  <rect class="fil0" width="3300" height="1010.47"/>
  <g>
   <polygon class="fil1" points="1104.63,389.92 1334.63,389.92 1334.63,619.92 1104.63,619.92 "/>
   <polygon id="_1" class="fil2 str0" points="1104.63,389.92 1334.63,389.92 1334.63,619.92 1104.63,619.92 "/>
  </g>
  <path class="fil3" d="M1168.4 517.11c-1.92,0.92 -4.42,1.38 -7.51,1.38 -4.02,0 -7.19,-1.18 -9.5,-3.54 -2.31,-2.37 -3.46,-5.53 -3.46,-9.47 0,-4.2 1.29,-7.61 3.89,-10.22 2.59,-2.61 5.96,-3.92 10.1,-3.92 2.56,0 4.72,0.32 6.48,0.97l0 5.7c-1.76,-1.05 -3.76,-1.58 -6.01,-1.58 -2.46,0 -4.46,0.78 -5.97,2.33 -1.51,1.55 -2.27,3.65 -2.27,6.3 0,2.54 0.72,4.56 2.15,6.07 1.42,1.5 3.35,2.26 5.77,2.26 2.3,0 4.41,-0.56 6.33,-1.69l0 5.41zm20.21 0.93l-15.64 0 0 -26.26 5.92 0 0 21.46 9.72 0 0 4.8zm9.45 0l-5.92 0 0 -26.26 5.92 0 0 26.26zm21.71 0l-15.75 0 0 -26.26 15.15 0 0 4.81 -9.23 0 0 5.85 8.59 0 0 4.79 -8.59 0 0 6.01 9.83 0 0 4.8zm27.83 0l-5.97 0 -10.82 -16.5c-0.63,-0.96 -1.07,-1.69 -1.32,-2.18l-0.07 0c0.1,0.93 0.15,2.35 0.15,4.25l0 14.43 -5.59 0 0 -26.26 6.37 0 10.42 15.98c0.48,0.73 0.91,1.44 1.32,2.15l0.08 0c-0.1,-0.61 -0.15,-1.81 -0.15,-3.61l0 -14.52 5.58 0 0 26.26zm24.45 -21.45l-7.5 0 0 21.45 -5.93 0 0 -21.45 -7.45 0 0 -4.81 20.88 0 0 4.81zm19.28 21.45l-15.75 0 0 -26.26 15.14 0 0 4.81 -9.22 0 0 5.85 8.59 0 0 4.79 -8.59 0 0 6.01 9.83 0 0 4.8z"/>
  <path class="fil4" d="M1343.12 820.35l-6.8 0 -4.08 -6.76c-0.31,-0.51 -0.6,-0.97 -0.88,-1.37 -0.28,-0.4 -0.56,-0.75 -0.85,-1.03 -0.29,-0.29 -0.59,-0.51 -0.9,-0.67 -0.31,-0.15 -0.65,-0.22 -1.01,-0.22l-1.6 0 0 10.05 -5.91 0 0 -26.26 9.37 0c6.38,0 9.56,2.38 9.56,7.14 0,0.92 -0.14,1.76 -0.42,2.54 -0.28,0.77 -0.68,1.47 -1.19,2.1 -0.51,0.62 -1.13,1.15 -1.86,1.6 -0.73,0.46 -1.53,0.81 -2.43,1.07l0 0.07c0.4,0.13 0.77,0.32 1.14,0.6 0.37,0.27 0.72,0.59 1.06,0.96 0.35,0.37 0.67,0.76 0.98,1.18 0.32,0.42 0.6,0.83 0.85,1.24l4.97 7.76zm-16.12 -21.83l0 7.31 2.57 0c1.27,0 2.28,-0.37 3.05,-1.1 0.78,-0.74 1.18,-1.67 1.18,-2.76 0,-2.3 -1.38,-3.45 -4.13,-3.45l-2.67 0zm33.92 14.1l-12.23 0c0.19,2.72 1.91,4.09 5.14,4.09 2.06,0 3.87,-0.49 5.44,-1.47l0 4.18c-1.73,0.92 -3.98,1.39 -6.76,1.39 -3.03,0 -5.37,-0.84 -7.05,-2.52 -1.67,-1.68 -2.51,-4.02 -2.51,-7.02 0,-3.11 0.9,-5.58 2.72,-7.4 1.8,-1.82 4.02,-2.73 6.66,-2.73 2.73,0 4.85,0.82 6.34,2.43 1.5,1.63 2.25,3.84 2.25,6.62l0 2.43zm-5.37 -3.55c0,-2.68 -1.08,-4.03 -3.26,-4.03 -0.92,0 -1.73,0.38 -2.4,1.15 -0.69,0.77 -1.09,1.73 -1.24,2.88l6.9 0zm7.58 10.79l0 -4.69c0.96,0.57 1.91,1 2.85,1.28 0.94,0.28 1.84,0.42 2.68,0.42 1.03,0 1.84,-0.14 2.43,-0.42 0.59,-0.28 0.88,-0.71 0.88,-1.28 0,-0.37 -0.13,-0.68 -0.4,-0.92 -0.27,-0.24 -0.61,-0.46 -1.03,-0.64 -0.42,-0.18 -0.89,-0.35 -1.39,-0.49 -0.5,-0.15 -0.98,-0.31 -1.44,-0.5 -0.74,-0.28 -1.4,-0.58 -1.97,-0.9 -0.57,-0.33 -1.04,-0.7 -1.43,-1.13 -0.38,-0.43 -0.67,-0.92 -0.87,-1.48 -0.2,-0.57 -0.31,-1.23 -0.31,-2 0,-1.05 0.23,-1.95 0.69,-2.71 0.45,-0.76 1.07,-1.38 1.83,-1.86 0.76,-0.48 1.64,-0.83 2.62,-1.06 0.98,-0.22 2,-0.34 3.07,-0.34 0.83,0 1.66,0.07 2.52,0.2 0.86,0.12 1.7,0.31 2.53,0.55l0 4.47c-0.74,-0.43 -1.52,-0.75 -2.35,-0.96 -0.84,-0.21 -1.66,-0.32 -2.47,-0.32 -0.38,0 -0.73,0.03 -1.07,0.1 -0.33,0.06 -0.63,0.16 -0.89,0.29 -0.26,0.13 -0.46,0.29 -0.6,0.5 -0.15,0.2 -0.22,0.43 -0.22,0.69 0,0.33 0.11,0.63 0.33,0.87 0.22,0.24 0.5,0.46 0.86,0.63 0.36,0.18 0.75,0.34 1.18,0.48 0.43,0.14 0.86,0.28 1.29,0.43 0.77,0.27 1.47,0.56 2.09,0.88 0.62,0.32 1.16,0.69 1.6,1.12 0.45,0.42 0.79,0.92 1.03,1.5 0.23,0.57 0.35,1.25 0.35,2.05 0,1.11 -0.23,2.06 -0.72,2.85 -0.48,0.79 -1.12,1.42 -1.92,1.92 -0.8,0.49 -1.73,0.85 -2.77,1.08 -1.04,0.22 -2.12,0.34 -3.25,0.34 -2.06,0 -3.97,-0.32 -5.73,-0.95zm23.59 -1.69l-0.08 0 0 10.81 -5.78 0 0 -27.38 5.78 0 0 2.82 0.08 0c1.43,-2.18 3.43,-3.28 6.02,-3.28 2.43,0 4.31,0.83 5.63,2.5 1.33,1.67 1.99,3.93 1.99,6.8 0,3.13 -0.77,5.63 -2.32,7.53 -1.54,1.89 -3.6,2.84 -6.16,2.84 -2.26,0 -3.98,-0.88 -5.16,-2.64zm-0.17 -7.69l0 1.5c0,1.29 0.34,2.35 1.03,3.17 0.68,0.82 1.58,1.22 2.69,1.22 1.32,0 2.34,-0.5 3.07,-1.52 0.72,-1.02 1.09,-2.46 1.09,-4.33 0,-3.3 -1.28,-4.95 -3.85,-4.95 -1.18,0 -2.15,0.45 -2.9,1.35 -0.75,0.9 -1.13,2.09 -1.13,3.56zm35.38 9.87l-5.77 0 0 -2.86 -0.09 0c-1.43,2.21 -3.33,3.32 -5.73,3.32 -4.35,0 -6.52,-2.64 -6.52,-7.9l0 -11.31 5.77 0 0 10.8c0,2.65 1.05,3.97 3.15,3.97 1.04,0 1.86,-0.36 2.49,-1.08 0.62,-0.73 0.93,-1.72 0.93,-2.96l0 -10.73 5.77 0 0 18.75zm21.72 -7.73l-12.23 0c0.19,2.72 1.91,4.09 5.14,4.09 2.06,0 3.88,-0.49 5.44,-1.47l0 4.18c-1.73,0.92 -3.98,1.39 -6.76,1.39 -3.02,0 -5.37,-0.84 -7.05,-2.52 -1.67,-1.68 -2.5,-4.02 -2.5,-7.02 0,-3.11 0.9,-5.58 2.71,-7.4 1.8,-1.82 4.02,-2.73 6.66,-2.73 2.73,0 4.85,0.82 6.34,2.43 1.5,1.63 2.25,3.84 2.25,6.62l0 2.43zm-5.36 -3.55c0,-2.68 -1.09,-4.03 -3.27,-4.03 -0.92,0 -1.73,0.38 -2.4,1.15 -0.68,0.77 -1.09,1.73 -1.24,2.88l6.91 0zm7.57 10.79l0 -4.69c0.96,0.57 1.91,1 2.85,1.28 0.94,0.28 1.84,0.42 2.68,0.42 1.03,0 1.84,-0.14 2.43,-0.42 0.59,-0.28 0.88,-0.71 0.88,-1.28 0,-0.37 -0.13,-0.68 -0.4,-0.92 -0.26,-0.24 -0.61,-0.46 -1.03,-0.64 -0.42,-0.18 -0.88,-0.35 -1.38,-0.49 -0.5,-0.15 -0.99,-0.31 -1.45,-0.5 -0.74,-0.28 -1.4,-0.58 -1.97,-0.9 -0.57,-0.33 -1.04,-0.7 -1.43,-1.13 -0.38,-0.43 -0.67,-0.92 -0.87,-1.48 -0.2,-0.57 -0.31,-1.23 -0.31,-2 0,-1.05 0.23,-1.95 0.69,-2.71 0.45,-0.76 1.07,-1.38 1.83,-1.86 0.76,-0.48 1.64,-0.83 2.62,-1.06 0.98,-0.22 2,-0.34 3.07,-0.34 0.83,0 1.67,0.07 2.52,0.2 0.86,0.12 1.7,0.31 2.53,0.55l0 4.47c-0.73,-0.43 -1.52,-0.75 -2.35,-0.96 -0.84,-0.21 -1.66,-0.32 -2.47,-0.32 -0.38,0 -0.73,0.03 -1.06,0.1 -0.34,0.06 -0.64,0.16 -0.9,0.29 -0.25,0.13 -0.45,0.29 -0.6,0.5 -0.15,0.2 -0.22,0.43 -0.22,0.69 0,0.33 0.11,0.63 0.33,0.87 0.22,0.24 0.5,0.46 0.86,0.63 0.36,0.18 0.75,0.34 1.18,0.48 0.43,0.14 0.86,0.28 1.3,0.43 0.76,0.27 1.46,0.56 2.08,0.88 0.62,0.32 1.16,0.69 1.6,1.12 0.45,0.42 0.79,0.92 1.03,1.5 0.24,0.57 0.35,1.25 0.35,2.05 0,1.11 -0.23,2.06 -0.72,2.85 -0.48,0.79 -1.12,1.42 -1.92,1.92 -0.8,0.49 -1.72,0.85 -2.77,1.08 -1.04,0.22 -2.12,0.34 -3.25,0.34 -2.06,0 -3.97,-0.32 -5.73,-0.95zm29.06 0.27c-0.85,0.45 -2.14,0.68 -3.86,0.68 -4.07,0 -6.12,-2.12 -6.12,-6.35l0 -8.59 -3.04 0 0 -4.27 3.04 0 0 -4.04 5.77 -1.65 0 5.69 4.21 0 0 4.27 -4.21 0 0 7.58c0,1.95 0.78,2.92 2.33,2.92 0.61,0 1.24,-0.17 1.88,-0.53l0 4.29zm18.87 0.22l-5.48 0 0 -2.69 -0.07 0c-1.26,2.1 -3.12,3.15 -5.59,3.15 -1.82,0 -3.25,-0.52 -4.3,-1.55 -1.04,-1.03 -1.56,-2.41 -1.56,-4.13 0,-3.64 2.16,-5.74 6.46,-6.3l5.1 -0.67c0,-2.05 -1.11,-3.08 -3.34,-3.08 -2.23,0 -4.36,0.66 -6.37,1.99l0 -4.35c0.81,-0.42 1.91,-0.78 3.31,-1.1 1.39,-0.32 2.67,-0.48 3.82,-0.48 5.34,0 8.02,2.67 8.02,8l0 11.21zm-5.44 -7.62l0 -1.26 -3.41 0.44c-1.88,0.24 -2.82,1.09 -2.82,2.55 0,0.65 0.23,1.2 0.68,1.61 0.47,0.42 1.09,0.64 1.87,0.64 1.08,0 1.97,-0.38 2.65,-1.13 0.68,-0.75 1.03,-1.7 1.03,-2.85z"/>
  <path class="fil5" d="M1332.4 195.22l0 -5.86c1.06,0.89 2.22,1.56 3.46,2 1.24,0.45 2.5,0.67 3.77,0.67 0.75,0 1.4,-0.07 1.95,-0.2 0.55,-0.13 1.02,-0.32 1.39,-0.56 0.38,-0.24 0.65,-0.52 0.83,-0.84 0.19,-0.32 0.28,-0.67 0.28,-1.05 0,-0.52 -0.15,-0.97 -0.44,-1.37 -0.29,-0.41 -0.69,-0.78 -1.2,-1.12 -0.5,-0.35 -1.1,-0.68 -1.81,-0.99 -0.69,-0.32 -1.44,-0.64 -2.25,-0.97 -2.05,-0.85 -3.58,-1.9 -4.58,-3.13 -1.01,-1.24 -1.51,-2.72 -1.51,-4.47 0,-1.37 0.27,-2.54 0.82,-3.52 0.55,-0.99 1.3,-1.8 2.24,-2.43 0.95,-0.63 2.05,-1.1 3.29,-1.4 1.24,-0.3 2.56,-0.45 3.96,-0.45 1.37,0 2.58,0.08 3.63,0.25 1.05,0.16 2.03,0.41 2.92,0.76l0 5.47c-0.44,-0.3 -0.91,-0.57 -1.43,-0.8 -0.52,-0.23 -1.06,-0.43 -1.61,-0.58 -0.54,-0.15 -1.09,-0.27 -1.64,-0.34 -0.54,-0.07 -1.05,-0.11 -1.54,-0.11 -0.68,0 -1.28,0.06 -1.83,0.19 -0.55,0.13 -1.02,0.31 -1.4,0.54 -0.37,0.23 -0.67,0.51 -0.88,0.83 -0.2,0.33 -0.3,0.69 -0.3,1.09 0,0.45 0.11,0.84 0.34,1.18 0.23,0.35 0.56,0.69 0.99,1 0.43,0.3 0.95,0.61 1.56,0.91 0.61,0.3 1.3,0.61 2.07,0.92 1.05,0.44 1.99,0.91 2.82,1.41 0.84,0.49 1.56,1.05 2.15,1.67 0.6,0.63 1.06,1.34 1.38,2.14 0.32,0.79 0.47,1.72 0.47,2.79 0,1.46 -0.27,2.69 -0.83,3.69 -0.55,0.99 -1.3,1.8 -2.26,2.41 -0.95,0.62 -2.06,1.06 -3.32,1.33 -1.27,0.27 -2.6,0.4 -4.01,0.4 -1.43,0 -2.8,-0.12 -4.1,-0.36 -1.3,-0.24 -2.43,-0.61 -3.38,-1.1zm30.59 1.46c-3.12,0 -5.58,-0.87 -7.37,-2.62 -1.79,-1.75 -2.68,-4.13 -2.68,-7.13 0,-3.1 0.93,-5.53 2.78,-7.29 1.86,-1.74 4.37,-2.62 7.53,-2.62 3.11,0 5.55,0.88 7.32,2.62 1.77,1.76 2.66,4.07 2.66,6.96 0,3.11 -0.91,5.57 -2.74,7.38 -1.82,1.8 -4.32,2.7 -7.5,2.7zm0.15 -15.23c-1.37,0 -2.43,0.47 -3.19,1.41 -0.75,0.94 -1.13,2.27 -1.13,3.99 0,3.6 1.45,5.4 4.36,5.4 2.77,0 4.15,-1.85 4.15,-5.54 0,-3.51 -1.39,-5.26 -4.19,-5.26zm19.63 14.78l-5.78 0 0 -27.76 5.78 0 0 27.76zm7.8 -21.72c-0.98,0 -1.78,-0.29 -2.4,-0.87 -0.62,-0.58 -0.93,-1.29 -0.93,-2.13 0,-0.87 0.31,-1.58 0.93,-2.13 0.62,-0.55 1.42,-0.82 2.4,-0.82 0.99,0 1.79,0.27 2.41,0.82 0.61,0.55 0.92,1.26 0.92,2.13 0,0.87 -0.31,1.6 -0.92,2.16 -0.62,0.56 -1.42,0.84 -2.41,0.84zm2.85 21.72l-5.78 0 0 -18.75 5.78 0 0 18.75zm19.08 -0.68c-1.3,0.76 -3.19,1.13 -5.65,1.13 -2.88,0 -5.21,-0.87 -7,-2.62 -1.78,-1.74 -2.67,-3.99 -2.67,-6.75 0,-3.19 0.95,-5.7 2.86,-7.53 1.91,-1.84 4.47,-2.76 7.67,-2.76 2.21,0 3.81,0.29 4.79,0.88l0 4.91c-1.2,-0.91 -2.55,-1.36 -4.04,-1.36 -1.66,0 -2.98,0.48 -3.95,1.46 -0.97,0.97 -1.46,2.3 -1.46,4.02 0,1.65 0.47,2.96 1.4,3.9 0.92,0.95 2.2,1.42 3.82,1.42 1.45,0 2.85,-0.45 4.23,-1.36l0 4.66zm6.72 -21.04c-0.97,0 -1.77,-0.29 -2.39,-0.87 -0.63,-0.58 -0.94,-1.29 -0.94,-2.13 0,-0.87 0.31,-1.58 0.94,-2.13 0.62,-0.55 1.42,-0.82 2.39,-0.82 1,0 1.8,0.27 2.41,0.82 0.62,0.55 0.93,1.26 0.93,2.13 0,0.87 -0.31,1.6 -0.93,2.16 -0.61,0.56 -1.41,0.84 -2.41,0.84zm2.86 21.72l-5.78 0 0 -18.75 5.78 0 0 18.75zm16.2 -0.22c-0.85,0.45 -2.14,0.67 -3.86,0.67 -4.07,0 -6.12,-2.12 -6.12,-6.35l0 -8.59 -3.03 0 0 -4.26 3.03 0 0 -4.05 5.77 -1.65 0 5.7 4.21 0 0 4.26 -4.21 0 0 7.59c0,1.95 0.78,2.92 2.33,2.92 0.61,0 1.24,-0.17 1.88,-0.53l0 4.29zm21.08 0.22l-5.77 0 0 -2.86 -0.09 0c-1.43,2.21 -3.33,3.31 -5.73,3.31 -4.35,0 -6.52,-2.63 -6.52,-7.89l0 -11.31 5.77 0 0 10.8c0,2.65 1.05,3.97 3.15,3.97 1.04,0 1.86,-0.36 2.49,-1.09 0.62,-0.72 0.93,-1.71 0.93,-2.95l0 -10.73 5.77 0 0 18.75zm23.22 0l-5.79 0 0 -2.58 -0.07 0c-1.32,2.02 -3.25,3.03 -5.8,3.03 -2.35,0 -4.24,-0.82 -5.66,-2.48 -1.43,-1.65 -2.14,-3.96 -2.14,-6.93 0,-3.1 0.78,-5.58 2.36,-7.45 1.57,-1.87 3.64,-2.8 6.19,-2.8 2.41,0 4.1,0.86 5.05,2.6l0.07 0 0 -11.15 5.79 0 0 27.76zm-5.68 -9.12l0 -1.41c0,-1.22 -0.35,-2.24 -1.06,-3.04 -0.71,-0.81 -1.63,-1.21 -2.76,-1.21 -1.28,0 -2.29,0.5 -3.01,1.51 -0.72,1.01 -1.08,2.39 -1.08,4.15 0,1.65 0.35,2.92 1.04,3.8 0.7,0.9 1.67,1.34 2.9,1.34 1.17,0 2.13,-0.47 2.87,-1.4 0.73,-0.95 1.1,-2.19 1.1,-3.74z"/>
  <g>
   <path id="flecha_roja" class="fil6" d="M1269.65 628.12l15 35 0 0 -0.94 -0.45 -0.94 -0.43 -0.94 -0.39 -0.93 -0.37 -0.94 -0.34 -0.94 -0.3 -0.94 -0.28 -0.93 -0.25 -0.94 -0.22 -0.94 -0.19 -0.94 -0.16 -0.93 -0.13 -0.94 -0.11 -0.94 -0.07 -0.94 -0.04 -0.93 -0.02 -0.94 0.02 -0.94 0.04 -0.94 0.07 -0.94 0.11 -0.93 0.13 -0.94 0.16 -0.94 0.19 -0.94 0.22 -0.93 0.25 -0.94 0.28 -0.94 0.3 -0.94 0.34 -0.93 0.37 -0.94 0.39 -0.94 0.43 -0.94 0.45 15.01 -35zm137.79 128.11l0 5 0 0 -7.2 -0.15 -7.1 -0.44 -7 -0.73 -6.89 -1.01 -6.77 -1.28 -6.64 -1.55 -6.5 -1.8 -6.36 -2.06 -6.2 -2.3 -6.04 -2.54 -5.87 -2.77 -5.69 -2.99 -5.49 -3.2 -5.3 -3.42 -5.1 -3.62 -4.87 -3.81 -4.65 -4 -4.42 -4.19 -4.18 -4.35 -3.92 -4.53 -3.67 -4.69 -3.39 -4.84 -3.11 -4.99 -2.83 -5.12 -2.53 -5.26 -2.22 -5.39 -1.9 -5.5 -1.58 -5.61 -1.24 -5.71 -0.9 -5.81 -0.55 -5.89 -0.18 -5.97 5 0 0.17 5.66 0.52 5.59 0.85 5.5 1.18 5.42 1.5 5.33 1.81 5.22 2.11 5.12 2.41 5.01 2.69 4.88 2.97 4.76 3.24 4.63 3.51 4.48 3.76 4.34 4 4.18 4.25 4.02 4.47 3.84 4.69 3.67 4.91 3.49 5.11 3.3 5.31 3.09 5.49 2.89 5.67 2.68 5.85 2.45 6 2.22 6.16 2 6.3 1.75 6.44 1.49 6.56 1.25 6.68 0.98 6.79 0.7 6.9 0.43 6.99 0.15 0 0zm135.29 -110.52l5 0 -0.19 5.97 -0.54 5.89 -0.9 5.81 -1.25 5.71 -1.58 5.61 -1.9 5.5 -2.22 5.39 -2.53 5.26 -2.83 5.12 -3.11 4.99 -3.39 4.84 -3.67 4.69 -3.92 4.53 -4.18 4.35 -4.42 4.19 -4.65 4 -4.87 3.81 -5.1 3.62 -5.29 3.42 -5.5 3.2 -5.69 2.99 -5.87 2.77 -6.04 2.54 -6.2 2.3 -6.36 2.06 -6.5 1.8 -6.64 1.55 -6.77 1.28 -6.89 1.01 -7 0.73 -7.1 0.44 -7.19 0.15 0 -5 6.98 -0.15 6.9 -0.43 6.79 -0.7 6.68 -0.98 6.57 -1.25 6.43 -1.49 6.3 -1.75 6.16 -2 6 -2.22 5.85 -2.45 5.67 -2.68 5.49 -2.89 5.31 -3.09 5.11 -3.3 4.91 -3.49 4.69 -3.67 4.48 -3.84 4.24 -4.02 4 -4.18 3.76 -4.34 3.51 -4.48 3.24 -4.63 2.97 -4.76 2.7 -4.88 2.4 -5.01 2.11 -5.12 1.81 -5.22 1.5 -5.33 1.18 -5.42 0.85 -5.5 0.52 -5.59 0.18 -5.66z"/>
  </g>
  <g>
   <path id="flecha_amarilla" class="fil7" d="M1545.23 362.42l-15.01 -35.01 0 0 0.94 0.46 0.94 0.42 0.94 0.4 0.93 0.36 0.94 0.34 0.94 0.31 0.94 0.28 0.93 0.25 0.94 0.22 0.94 0.19 0.94 0.16 0.93 0.13 0.94 0.1 0.94 0.08 0.94 0.04 0.94 0.01 0.93 -0.01 0.94 -0.04 0.94 -0.08 0.94 -0.1 0.93 -0.13 0.94 -0.16 0.94 -0.19 0.94 -0.22 0.93 -0.25 0.94 -0.28 0.94 -0.31 0.94 -0.34 0.93 -0.36 0.94 -0.4 0.94 -0.42 0.94 -0.46 -15 35.01zm-137.79 -128.11l0 -5 0 0 7.19 0.15 7.1 0.44 7 0.73 6.89 1.01 6.77 1.28 6.64 1.55 6.5 1.8 6.36 2.06 6.2 2.3 6.04 2.53 5.87 2.77 5.69 2.99 5.5 3.21 5.29 3.41 5.1 3.62 4.87 3.82 4.65 4 4.42 4.18 4.18 4.36 3.92 4.53 3.67 4.68 3.39 4.85 3.11 4.98 2.83 5.13 2.53 5.26 2.22 5.38 1.9 5.5 1.58 5.61 1.25 5.72 0.9 5.8 0.54 5.9 0.19 5.97 -5 0 -0.18 -5.67 -0.52 -5.58 -0.85 -5.51 -1.18 -5.42 -1.5 -5.32 -1.81 -5.23 -2.11 -5.11 -2.4 -5.01 -2.7 -4.89 -2.97 -4.76 -3.24 -4.62 -3.51 -4.48 -3.76 -4.34 -4 -4.18 -4.24 -4.02 -4.48 -3.85 -4.69 -3.67 -4.91 -3.48 -5.11 -3.3 -5.31 -3.1 -5.49 -2.88 -5.67 -2.68 -5.85 -2.45 -6 -2.23 -6.16 -1.99 -6.3 -1.75 -6.43 -1.5 -6.57 -1.24 -6.68 -0.98 -6.79 -0.71 -6.9 -0.43 -6.98 -0.14 0 0zm-135.29 110.52l-5 0 0.18 -5.97 0.55 -5.9 0.9 -5.8 1.24 -5.72 1.58 -5.61 1.9 -5.5 2.22 -5.38 2.53 -5.26 2.83 -5.13 3.11 -4.98 3.39 -4.85 3.67 -4.68 3.92 -4.53 4.18 -4.36 4.42 -4.18 4.65 -4 4.87 -3.82 5.1 -3.62 5.3 -3.41 5.49 -3.21 5.69 -2.99 5.87 -2.77 6.04 -2.53 6.2 -2.3 6.36 -2.06 6.5 -1.8 6.64 -1.55 6.77 -1.28 6.89 -1.01 7 -0.73 7.1 -0.44 7.2 -0.15 0 5 -6.99 0.14 -6.9 0.43 -6.79 0.71 -6.68 0.98 -6.56 1.24 -6.44 1.5 -6.3 1.75 -6.16 1.99 -6 2.23 -5.85 2.45 -5.67 2.68 -5.49 2.88 -5.31 3.1 -5.11 3.3 -4.91 3.48 -4.69 3.67 -4.47 3.85 -4.25 4.02 -4 4.18 -3.76 4.34 -3.51 4.48 -3.24 4.62 -2.97 4.76 -2.69 4.89 -2.41 5.01 -2.11 5.11 -1.81 5.23 -1.5 5.32 -1.18 5.42 -0.85 5.51 -0.52 5.58 -0.17 5.67z"/>
  </g>
  <g>
   <polygon class="fil8" points="1480.24,389.92 1710.24,389.92 1710.24,619.92 1480.24,619.92 "/>
   <polygon id="_1_0" class="fil2 str0" points="1480.24,389.92 1710.24,389.92 1710.24,619.92 1480.24,619.92 "/>
  </g>
  <path class="fil3" d="M1504.46 517.03l0 -5.86c1.06,0.89 2.22,1.56 3.46,2.01 1.25,0.44 2.5,0.66 3.77,0.66 0.75,0 1.4,-0.06 1.95,-0.19 0.56,-0.14 1.02,-0.32 1.4,-0.57 0.37,-0.23 0.64,-0.52 0.83,-0.83 0.18,-0.33 0.27,-0.68 0.27,-1.06 0,-0.51 -0.14,-0.97 -0.44,-1.37 -0.29,-0.41 -0.69,-0.78 -1.2,-1.12 -0.5,-0.34 -1.1,-0.67 -1.8,-0.99 -0.7,-0.31 -1.45,-0.64 -2.25,-0.97 -2.05,-0.85 -3.58,-1.89 -4.59,-3.13 -1.01,-1.23 -1.51,-2.72 -1.51,-4.46 0,-1.37 0.27,-2.55 0.82,-3.53 0.55,-0.99 1.3,-1.79 2.25,-2.43 0.95,-0.63 2.04,-1.1 3.28,-1.4 1.25,-0.3 2.57,-0.45 3.96,-0.45 1.37,0 2.58,0.09 3.64,0.25 1.05,0.16 2.02,0.42 2.92,0.76l0 5.48c-0.45,-0.31 -0.92,-0.58 -1.44,-0.81 -0.52,-0.23 -1.06,-0.42 -1.61,-0.58 -0.54,-0.15 -1.09,-0.26 -1.63,-0.34 -0.55,-0.07 -1.06,-0.1 -1.55,-0.1 -0.67,0 -1.28,0.06 -1.83,0.18 -0.55,0.13 -1.01,0.32 -1.39,0.55 -0.38,0.23 -0.67,0.5 -0.89,0.83 -0.2,0.32 -0.3,0.69 -0.3,1.09 0,0.44 0.11,0.83 0.34,1.18 0.23,0.35 0.56,0.68 1,0.99 0.42,0.31 0.94,0.61 1.55,0.91 0.61,0.3 1.3,0.61 2.07,0.93 1.05,0.44 1.99,0.9 2.83,1.4 0.83,0.49 1.55,1.05 2.15,1.67 0.6,0.63 1.05,1.34 1.37,2.14 0.32,0.79 0.48,1.73 0.48,2.79 0,1.47 -0.28,2.69 -0.84,3.69 -0.55,0.99 -1.3,1.8 -2.26,2.41 -0.95,0.62 -2.05,1.07 -3.32,1.34 -1.26,0.26 -2.6,0.39 -4,0.39 -1.44,0 -2.81,-0.11 -4.11,-0.36 -1.3,-0.24 -2.43,-0.61 -3.38,-1.1zm37.97 1.01l-15.75 0 0 -26.26 15.15 0 0 4.82 -9.23 0 0 5.84 8.59 0 0 4.79 -8.59 0 0 6.01 9.83 0 0 4.8zm26.24 0l-6.79 0 -4.08 -6.76c-0.31,-0.51 -0.6,-0.97 -0.89,-1.37 -0.28,-0.4 -0.56,-0.75 -0.84,-1.03 -0.29,-0.29 -0.59,-0.51 -0.9,-0.67 -0.32,-0.15 -0.66,-0.22 -1.02,-0.22l-1.59 0 0 10.05 -5.92 0 0 -26.26 9.37 0c6.38,0 9.57,2.38 9.57,7.14 0,0.92 -0.15,1.76 -0.43,2.54 -0.28,0.77 -0.67,1.47 -1.19,2.1 -0.51,0.62 -1.13,1.15 -1.85,1.6 -0.73,0.46 -1.54,0.81 -2.43,1.07l0 0.07c0.39,0.13 0.77,0.32 1.13,0.6 0.37,0.27 0.72,0.59 1.07,0.96 0.34,0.37 0.67,0.76 0.98,1.18 0.31,0.42 0.59,0.83 0.85,1.24l4.96 7.76zm-16.11 -21.83l0 7.31 2.56 0c1.27,0 2.29,-0.37 3.06,-1.1 0.78,-0.74 1.17,-1.67 1.17,-2.76 0,-2.3 -1.37,-3.45 -4.12,-3.45l-2.67 0zm40.43 -4.43l-9.05 26.26 -6.7 0 -8.94 -26.26 6.38 0 5.47 18.28c0.3,0.99 0.47,1.85 0.53,2.62l0.11 0c0.09,-0.82 0.27,-1.72 0.57,-2.7l5.44 -18.2 6.19 0zm9.06 26.26l-5.92 0 0 -26.26 5.92 0 0 26.26zm5.96 0l0 -26.26 9.31 0c9.32,0 13.99,4.27 13.99,12.8 0,4.09 -1.28,7.35 -3.82,9.8 -2.54,2.44 -5.93,3.66 -10.17,3.66l-9.31 0zm5.92 -21.44l0 16.64 2.93 0c2.57,0 4.57,-0.77 6.03,-2.31 1.46,-1.53 2.19,-3.63 2.19,-6.28 0,-2.5 -0.72,-4.47 -2.17,-5.9 -1.45,-1.44 -3.47,-2.15 -6.08,-2.15l-2.9 0zm32.83 21.89c-3.76,0 -6.82,-1.22 -9.19,-3.66 -2.37,-2.45 -3.55,-5.64 -3.55,-9.57 0,-4.15 1.2,-7.51 3.61,-10.07 2.4,-2.56 5.58,-3.85 9.55,-3.85 3.75,0 6.78,1.23 9.1,3.68 2.31,2.46 3.46,5.69 3.46,9.71 0,4.12 -1.2,7.45 -3.6,9.98 -2.39,2.52 -5.52,3.78 -9.38,3.78zm0.26 -22.06c-2.08,0 -3.73,0.78 -4.94,2.34 -1.22,1.56 -1.83,3.61 -1.83,6.18 0,2.6 0.61,4.65 1.83,6.17 1.21,1.51 2.81,2.27 4.79,2.27 2.04,0 3.66,-0.74 4.86,-2.21 1.19,-1.47 1.79,-3.51 1.79,-6.12 0,-2.73 -0.58,-4.85 -1.74,-6.36 -1.16,-1.51 -2.75,-2.27 -4.76,-2.27zm39.11 21.61l-6.79 0 -4.08 -6.76c-0.31,-0.51 -0.6,-0.97 -0.89,-1.37 -0.28,-0.4 -0.56,-0.75 -0.84,-1.03 -0.29,-0.29 -0.59,-0.51 -0.9,-0.67 -0.32,-0.15 -0.66,-0.22 -1.02,-0.22l-1.59 0 0 10.05 -5.92 0 0 -26.26 9.37 0c6.38,0 9.57,2.38 9.57,7.14 0,0.92 -0.15,1.76 -0.43,2.54 -0.28,0.77 -0.67,1.47 -1.19,2.1 -0.51,0.62 -1.13,1.15 -1.85,1.6 -0.73,0.46 -1.54,0.81 -2.43,1.07l0 0.07c0.39,0.13 0.77,0.32 1.13,0.6 0.37,0.27 0.72,0.59 1.07,0.96 0.34,0.37 0.67,0.76 0.98,1.18 0.31,0.42 0.59,0.83 0.85,1.24l4.96 7.76zm-16.11 -21.83l0 7.31 2.56 0c1.27,0 2.29,-0.37 3.06,-1.1 0.78,-0.74 1.17,-1.67 1.17,-2.76 0,-2.3 -1.37,-3.45 -4.12,-3.45l-2.67 0z"/>
  <g>
   <polygon class="fil1" points="1958.65,689.92 2188.65,689.92 2188.65,919.92 1958.65,919.92 "/>
   <polygon id="_1_1" class="fil2 str0" points="1958.65,689.92 2188.65,689.92 2188.65,919.92 1958.65,919.92 "/>
  </g>
  <g>
   <polygon class="fil1" points="1958.65,89.91 2188.65,89.91 2188.65,319.91 1958.65,319.91 "/>
   <polygon id="_1_2" class="fil2 str0" points="1958.65,89.91 2188.65,89.91 2188.65,319.91 1958.65,319.91 "/>
  </g>
  <path class="fil3" d="M2022.42 817.11c-1.91,0.93 -4.42,1.39 -7.51,1.39 -4.02,0 -7.19,-1.18 -9.5,-3.55 -2.31,-2.37 -3.46,-5.53 -3.46,-9.47 0,-4.2 1.29,-7.61 3.89,-10.22 2.59,-2.61 5.96,-3.92 10.1,-3.92 2.56,0 4.72,0.33 6.48,0.98l0 5.69c-1.76,-1.05 -3.76,-1.57 -6.01,-1.57 -2.46,0 -4.45,0.77 -5.97,2.32 -1.51,1.55 -2.26,3.65 -2.26,6.3 0,2.54 0.71,4.56 2.14,6.07 1.42,1.51 3.35,2.26 5.77,2.26 2.3,0 4.42,-0.56 6.33,-1.69l0 5.41zm20.21 0.93l-15.64 0 0 -26.25 5.92 0 0 21.45 9.72 0 0 4.8zm9.45 0l-5.92 0 0 -26.25 5.92 0 0 26.25zm21.71 0l-15.75 0 0 -26.25 15.15 0 0 4.81 -9.23 0 0 5.84 8.59 0 0 4.8 -8.59 0 0 6 9.83 0 0 4.8zm27.84 0l-5.97 0 -10.83 -16.5c-0.63,-0.96 -1.07,-1.69 -1.32,-2.17l-0.07 0c0.1,0.92 0.15,2.34 0.15,4.24l0 14.43 -5.59 0 0 -26.25 6.38 0 10.41 15.98c0.48,0.72 0.92,1.43 1.32,2.14l0.08 0c-0.1,-0.61 -0.15,-1.81 -0.15,-3.61l0 -14.51 5.59 0 0 26.25zm24.44 -21.44l-7.49 0 0 21.44 -5.94 0 0 -21.44 -7.45 0 0 -4.81 20.88 0 0 4.81zm19.28 21.44l-15.75 0 0 -26.25 15.15 0 0 4.81 -9.23 0 0 5.84 8.59 0 0 4.8 -8.59 0 0 6 9.83 0 0 4.8z"/>
  <path class="fil4" d="M1760.62 820.35l-6.79 0 -4.08 -6.76c-0.31,-0.51 -0.6,-0.97 -0.88,-1.37 -0.28,-0.4 -0.57,-0.75 -0.85,-1.03 -0.29,-0.29 -0.59,-0.51 -0.9,-0.67 -0.32,-0.15 -0.65,-0.22 -1.01,-0.22l-1.6 0 0 10.05 -5.92 0 0 -26.26 9.38 0c6.37,0 9.56,2.38 9.56,7.14 0,0.92 -0.14,1.76 -0.43,2.54 -0.28,0.77 -0.67,1.47 -1.18,2.1 -0.51,0.62 -1.13,1.15 -1.86,1.6 -0.73,0.46 -1.54,0.81 -2.43,1.07l0 0.07c0.39,0.13 0.77,0.32 1.14,0.6 0.37,0.27 0.72,0.59 1.06,0.96 0.34,0.37 0.67,0.76 0.98,1.18 0.31,0.42 0.6,0.83 0.85,1.24l4.96 7.76zm-16.11 -21.83l0 7.31 2.56 0c1.27,0 2.29,-0.37 3.06,-1.1 0.78,-0.74 1.17,-1.67 1.17,-2.76 0,-2.3 -1.37,-3.45 -4.12,-3.45l-2.67 0zm33.91 14.1l-12.23 0c0.2,2.72 1.91,4.09 5.15,4.09 2.06,0 3.87,-0.49 5.43,-1.47l0 4.18c-1.73,0.92 -3.98,1.39 -6.75,1.39 -3.03,0 -5.38,-0.84 -7.05,-2.52 -1.67,-1.68 -2.51,-4.02 -2.51,-7.02 0,-3.11 0.9,-5.58 2.71,-7.4 1.81,-1.82 4.03,-2.73 6.67,-2.73 2.73,0 4.85,0.82 6.34,2.43 1.49,1.63 2.24,3.84 2.24,6.62l0 2.43zm-5.36 -3.55c0,-2.68 -1.09,-4.03 -3.26,-4.03 -0.93,0 -1.73,0.38 -2.41,1.15 -0.68,0.77 -1.09,1.73 -1.24,2.88l6.91 0zm7.58 10.79l0 -4.69c0.95,0.57 1.9,1 2.85,1.28 0.94,0.28 1.83,0.42 2.68,0.42 1.02,0 1.83,-0.14 2.42,-0.42 0.6,-0.28 0.89,-0.71 0.89,-1.28 0,-0.37 -0.13,-0.68 -0.4,-0.92 -0.27,-0.24 -0.61,-0.46 -1.04,-0.64 -0.42,-0.18 -0.88,-0.35 -1.38,-0.49 -0.5,-0.15 -0.98,-0.31 -1.44,-0.5 -0.75,-0.28 -1.4,-0.58 -1.97,-0.9 -0.57,-0.33 -1.04,-0.7 -1.43,-1.13 -0.38,-0.43 -0.68,-0.92 -0.88,-1.48 -0.2,-0.57 -0.3,-1.23 -0.3,-2 0,-1.05 0.23,-1.95 0.68,-2.71 0.46,-0.76 1.07,-1.38 1.84,-1.86 0.76,-0.48 1.63,-0.83 2.61,-1.06 0.99,-0.22 2.01,-0.34 3.07,-0.34 0.83,0 1.67,0.07 2.53,0.2 0.85,0.12 1.7,0.31 2.53,0.55l0 4.47c-0.74,-0.43 -1.52,-0.75 -2.36,-0.96 -0.84,-0.21 -1.65,-0.32 -2.46,-0.32 -0.38,0 -0.74,0.03 -1.07,0.1 -0.34,0.06 -0.64,0.16 -0.89,0.29 -0.26,0.13 -0.46,0.29 -0.6,0.5 -0.15,0.2 -0.22,0.43 -0.22,0.69 0,0.33 0.11,0.63 0.32,0.87 0.23,0.24 0.51,0.46 0.87,0.63 0.35,0.18 0.75,0.34 1.18,0.48 0.43,0.14 0.86,0.28 1.29,0.43 0.77,0.27 1.46,0.56 2.09,0.88 0.62,0.32 1.16,0.69 1.6,1.12 0.44,0.42 0.79,0.92 1.02,1.5 0.24,0.57 0.36,1.25 0.36,2.05 0,1.11 -0.24,2.06 -0.73,2.85 -0.48,0.79 -1.11,1.42 -1.91,1.92 -0.8,0.49 -1.73,0.85 -2.77,1.08 -1.05,0.22 -2.13,0.34 -3.25,0.34 -2.06,0 -3.97,-0.32 -5.73,-0.95zm23.58 -1.69l-0.07 0 0 10.81 -5.78 0 0 -27.38 5.78 0 0 2.82 0.07 0c1.44,-2.18 3.44,-3.28 6.03,-3.28 2.43,0 4.3,0.83 5.63,2.5 1.33,1.67 1.99,3.93 1.99,6.8 0,3.13 -0.78,5.63 -2.32,7.53 -1.54,1.89 -3.6,2.84 -6.16,2.84 -2.26,0 -3.98,-0.88 -5.17,-2.64zm-0.16 -7.69l0 1.5c0,1.29 0.34,2.35 1.03,3.17 0.68,0.82 1.58,1.22 2.69,1.22 1.31,0 2.34,-0.5 3.06,-1.52 0.73,-1.02 1.1,-2.46 1.1,-4.33 0,-3.3 -1.29,-4.95 -3.85,-4.95 -1.19,0 -2.15,0.45 -2.9,1.35 -0.75,0.9 -1.13,2.09 -1.13,3.56zm35.38 9.87l-5.77 0 0 -2.86 -0.09 0c-1.43,2.21 -3.34,3.32 -5.73,3.32 -4.35,0 -6.52,-2.64 -6.52,-7.9l0 -11.31 5.77 0 0 10.8c0,2.65 1.05,3.97 3.15,3.97 1.04,0 1.86,-0.36 2.49,-1.08 0.62,-0.73 0.93,-1.72 0.93,-2.96l0 -10.73 5.77 0 0 18.75zm21.72 -7.73l-12.24 0c0.2,2.72 1.92,4.09 5.15,4.09 2.06,0 3.87,-0.49 5.44,-1.47l0 4.18c-1.74,0.92 -3.99,1.39 -6.76,1.39 -3.03,0 -5.38,-0.84 -7.05,-2.52 -1.67,-1.68 -2.51,-4.02 -2.51,-7.02 0,-3.11 0.9,-5.58 2.71,-7.4 1.81,-1.82 4.03,-2.73 6.67,-2.73 2.73,0 4.85,0.82 6.34,2.43 1.5,1.63 2.25,3.84 2.25,6.62l0 2.43zm-5.37 -3.55c0,-2.68 -1.08,-4.03 -3.26,-4.03 -0.93,0 -1.73,0.38 -2.41,1.15 -0.68,0.77 -1.08,1.73 -1.23,2.88l6.9 0zm7.58 10.79l0 -4.69c0.95,0.57 1.9,1 2.85,1.28 0.94,0.28 1.84,0.42 2.68,0.42 1.02,0 1.84,-0.14 2.42,-0.42 0.6,-0.28 0.89,-0.71 0.89,-1.28 0,-0.37 -0.13,-0.68 -0.4,-0.92 -0.27,-0.24 -0.61,-0.46 -1.04,-0.64 -0.42,-0.18 -0.88,-0.35 -1.38,-0.49 -0.5,-0.15 -0.98,-0.31 -1.44,-0.5 -0.75,-0.28 -1.4,-0.58 -1.97,-0.9 -0.57,-0.33 -1.04,-0.7 -1.43,-1.13 -0.38,-0.43 -0.68,-0.92 -0.88,-1.48 -0.2,-0.57 -0.3,-1.23 -0.3,-2 0,-1.05 0.23,-1.95 0.68,-2.71 0.46,-0.76 1.07,-1.38 1.84,-1.86 0.76,-0.48 1.63,-0.83 2.62,-1.06 0.98,-0.22 2,-0.34 3.06,-0.34 0.84,0 1.67,0.07 2.53,0.2 0.86,0.12 1.7,0.31 2.53,0.55l0 4.47c-0.74,-0.43 -1.52,-0.75 -2.36,-0.96 -0.83,-0.21 -1.65,-0.32 -2.46,-0.32 -0.38,0 -0.74,0.03 -1.07,0.1 -0.33,0.06 -0.63,0.16 -0.89,0.29 -0.26,0.13 -0.46,0.29 -0.6,0.5 -0.15,0.2 -0.22,0.43 -0.22,0.69 0,0.33 0.11,0.63 0.33,0.87 0.22,0.24 0.5,0.46 0.86,0.63 0.35,0.18 0.75,0.34 1.18,0.48 0.43,0.14 0.86,0.28 1.29,0.43 0.77,0.27 1.47,0.56 2.09,0.88 0.62,0.32 1.16,0.69 1.6,1.12 0.44,0.42 0.79,0.92 1.02,1.5 0.24,0.57 0.36,1.25 0.36,2.05 0,1.11 -0.24,2.06 -0.72,2.85 -0.48,0.79 -1.12,1.42 -1.92,1.92 -0.8,0.49 -1.73,0.85 -2.77,1.08 -1.04,0.22 -2.13,0.34 -3.25,0.34 -2.06,0 -3.97,-0.32 -5.73,-0.95zm29.06 0.27c-0.86,0.45 -2.14,0.68 -3.86,0.68 -4.08,0 -6.12,-2.12 -6.12,-6.35l0 -8.59 -3.04 0 0 -4.27 3.04 0 0 -4.04 5.77 -1.65 0 5.69 4.21 0 0 4.27 -4.21 0 0 7.58c0,1.95 0.77,2.92 2.32,2.92 0.62,0 1.25,-0.17 1.89,-0.53l0 4.29zm18.86 0.22l-5.47 0 0 -2.69 -0.08 0c-1.25,2.1 -3.12,3.15 -5.58,3.15 -1.82,0 -3.26,-0.52 -4.3,-1.55 -1.04,-1.03 -1.56,-2.41 -1.56,-4.13 0,-3.64 2.15,-5.74 6.46,-6.3l5.1 -0.67c0,-2.05 -1.12,-3.08 -3.34,-3.08 -2.23,0 -4.36,0.66 -6.37,1.99l0 -4.35c0.81,-0.42 1.91,-0.78 3.3,-1.1 1.4,-0.32 2.67,-0.48 3.82,-0.48 5.35,0 8.02,2.67 8.02,8l0 11.21zm-5.43 -7.62l0 -1.26 -3.41 0.44c-1.88,0.24 -2.82,1.09 -2.82,2.55 0,0.65 0.23,1.2 0.68,1.61 0.46,0.42 1.08,0.64 1.86,0.64 1.09,0 1.97,-0.38 2.66,-1.13 0.68,-0.75 1.03,-1.7 1.03,-2.85z"/>
  <path class="fil5" d="M1719.9 195.22l0 -5.86c1.07,0.89 2.22,1.56 3.47,2 1.24,0.45 2.5,0.67 3.76,0.67 0.75,0 1.41,-0.07 1.95,-0.2 0.56,-0.13 1.02,-0.32 1.4,-0.56 0.37,-0.24 0.65,-0.52 0.83,-0.84 0.19,-0.32 0.27,-0.67 0.27,-1.05 0,-0.52 -0.14,-0.97 -0.43,-1.37 -0.3,-0.41 -0.7,-0.78 -1.2,-1.12 -0.51,-0.35 -1.11,-0.68 -1.81,-0.99 -0.69,-0.32 -1.44,-0.64 -2.25,-0.97 -2.05,-0.85 -3.58,-1.9 -4.59,-3.13 -1,-1.24 -1.5,-2.72 -1.5,-4.47 0,-1.37 0.27,-2.54 0.82,-3.52 0.55,-0.99 1.3,-1.8 2.24,-2.43 0.95,-0.63 2.04,-1.1 3.29,-1.4 1.24,-0.3 2.56,-0.45 3.95,-0.45 1.37,0 2.58,0.08 3.64,0.25 1.05,0.16 2.03,0.41 2.92,0.76l0 5.47c-0.44,-0.3 -0.92,-0.57 -1.44,-0.8 -0.52,-0.23 -1.05,-0.43 -1.6,-0.58 -0.55,-0.15 -1.1,-0.27 -1.64,-0.34 -0.55,-0.07 -1.06,-0.11 -1.55,-0.11 -0.67,0 -1.28,0.06 -1.83,0.19 -0.55,0.13 -1.01,0.31 -1.39,0.54 -0.38,0.23 -0.67,0.51 -0.88,0.83 -0.21,0.33 -0.31,0.69 -0.31,1.09 0,0.45 0.12,0.84 0.35,1.18 0.23,0.35 0.56,0.69 0.99,1 0.43,0.3 0.94,0.61 1.56,0.91 0.6,0.3 1.3,0.61 2.06,0.92 1.05,0.44 1.99,0.91 2.83,1.41 0.84,0.49 1.56,1.05 2.15,1.67 0.6,0.63 1.06,1.34 1.37,2.14 0.32,0.79 0.48,1.72 0.48,2.79 0,1.46 -0.27,2.69 -0.83,3.69 -0.56,0.99 -1.31,1.8 -2.26,2.41 -0.95,0.62 -2.06,1.06 -3.32,1.33 -1.27,0.27 -2.6,0.4 -4.01,0.4 -1.44,0 -2.81,-0.12 -4.1,-0.36 -1.31,-0.24 -2.44,-0.61 -3.39,-1.1zm30.6 1.46c-3.13,0 -5.58,-0.87 -7.37,-2.62 -1.79,-1.75 -2.68,-4.13 -2.68,-7.13 0,-3.1 0.92,-5.53 2.78,-7.29 1.85,-1.74 4.37,-2.62 7.52,-2.62 3.12,0 5.56,0.88 7.33,2.62 1.77,1.76 2.65,4.07 2.65,6.96 0,3.11 -0.91,5.57 -2.73,7.38 -1.83,1.8 -4.33,2.7 -7.5,2.7zm0.15 -15.23c-1.37,0 -2.43,0.47 -3.19,1.41 -0.76,0.94 -1.14,2.27 -1.14,3.99 0,3.6 1.46,5.4 4.36,5.4 2.77,0 4.16,-1.85 4.16,-5.54 0,-3.51 -1.4,-5.26 -4.19,-5.26zm19.62 14.78l-5.78 0 0 -27.76 5.78 0 0 27.76zm7.8 -21.72c-0.97,0 -1.77,-0.29 -2.39,-0.87 -0.63,-0.58 -0.94,-1.29 -0.94,-2.13 0,-0.87 0.31,-1.58 0.94,-2.13 0.62,-0.55 1.42,-0.82 2.39,-0.82 1,0 1.8,0.27 2.41,0.82 0.62,0.55 0.93,1.26 0.93,2.13 0,0.87 -0.31,1.6 -0.93,2.16 -0.61,0.56 -1.41,0.84 -2.41,0.84zm2.86 21.72l-5.78 0 0 -18.75 5.78 0 0 18.75zm19.08 -0.68c-1.31,0.76 -3.19,1.13 -5.66,1.13 -2.88,0 -5.21,-0.87 -6.99,-2.62 -1.78,-1.74 -2.68,-3.99 -2.68,-6.75 0,-3.19 0.96,-5.7 2.87,-7.53 1.91,-1.84 4.47,-2.76 7.67,-2.76 2.2,0 3.8,0.29 4.79,0.88l0 4.91c-1.21,-0.91 -2.56,-1.36 -4.04,-1.36 -1.67,0 -2.98,0.48 -3.95,1.46 -0.97,0.97 -1.46,2.3 -1.46,4.02 0,1.65 0.47,2.96 1.39,3.9 0.93,0.95 2.21,1.42 3.83,1.42 1.44,0 2.85,-0.45 4.23,-1.36l0 4.66zm6.72 -21.04c-0.98,0 -1.78,-0.29 -2.4,-0.87 -0.62,-0.58 -0.93,-1.29 -0.93,-2.13 0,-0.87 0.31,-1.58 0.93,-2.13 0.62,-0.55 1.42,-0.82 2.4,-0.82 0.99,0 1.79,0.27 2.41,0.82 0.61,0.55 0.93,1.26 0.93,2.13 0,0.87 -0.32,1.6 -0.93,2.16 -0.62,0.56 -1.42,0.84 -2.41,0.84zm2.85 21.72l-5.78 0 0 -18.75 5.78 0 0 18.75zm16.21 -0.22c-0.86,0.45 -2.14,0.67 -3.86,0.67 -4.08,0 -6.12,-2.12 -6.12,-6.35l0 -8.59 -3.04 0 0 -4.26 3.04 0 0 -4.05 5.77 -1.65 0 5.7 4.21 0 0 4.26 -4.21 0 0 7.59c0,1.95 0.77,2.92 2.32,2.92 0.62,0 1.25,-0.17 1.89,-0.53l0 4.29zm21.08 0.22l-5.77 0 0 -2.86 -0.09 0c-1.43,2.21 -3.34,3.31 -5.73,3.31 -4.35,0 -6.52,-2.63 -6.52,-7.89l0 -11.31 5.77 0 0 10.8c0,2.65 1.05,3.97 3.15,3.97 1.04,0 1.86,-0.36 2.48,-1.09 0.63,-0.72 0.94,-1.71 0.94,-2.95l0 -10.73 5.77 0 0 18.75zm23.21 0l-5.78 0 0 -2.58 -0.07 0c-1.32,2.02 -3.26,3.03 -5.81,3.03 -2.34,0 -4.23,-0.82 -5.65,-2.48 -1.44,-1.65 -2.15,-3.96 -2.15,-6.93 0,-3.1 0.79,-5.58 2.36,-7.45 1.58,-1.87 3.64,-2.8 6.19,-2.8 2.42,0 4.1,0.86 5.06,2.6l0.07 0 0 -11.15 5.78 0 0 27.76zm-5.67 -9.12l0 -1.41c0,-1.22 -0.36,-2.24 -1.06,-3.04 -0.71,-0.81 -1.63,-1.21 -2.77,-1.21 -1.28,0 -2.28,0.5 -3,1.51 -0.72,1.01 -1.08,2.39 -1.08,4.15 0,1.65 0.35,2.92 1.04,3.8 0.7,0.9 1.66,1.34 2.89,1.34 1.18,0 2.14,-0.47 2.87,-1.4 0.74,-0.95 1.11,-2.19 1.11,-3.74z"/>
  <g>
   <path id="flecha_amarilla_3" class="fil7" d="M1673.58 361.89l-14.29 -35.3 0 0 0.93 0.48 0.93 0.44 0.93 0.41 0.93 0.39 0.93 0.35 0.93 0.33 0.93 0.3 0.93 0.26 0.94 0.24 0.93 0.21 0.93 0.18 0.94 0.15 0.93 0.12 0.94 0.1 0.93 0.06 0.94 0.03 0.94 0.01 0.94 -0.03 0.94 -0.05 0.93 -0.08 0.95 -0.12 0.94 -0.14 0.94 -0.17 0.94 -0.2 0.94 -0.23 0.94 -0.26 0.95 -0.29 0.94 -0.32 0.95 -0.34 0.94 -0.38 0.95 -0.41 0.94 -0.43 -15.7 34.69zm241.99 -124.01l-0.37 4.98 -7.3 -0.5 -7.77 -0.47 -8.19 -0.4 -8.57 -0.32 -8.9 -0.22 -9.19 -0.1 -9.43 0.04 -9.62 0.21 -9.77 0.39 -9.87 0.58 -9.92 0.81 -9.94 1.05 -9.9 1.31 -9.81 1.58 -9.68 1.89 -9.51 2.2 -9.28 2.54 -9.01 2.9 -8.7 3.26 -8.34 3.66 -7.92 4.07 -7.47 4.48 -6.98 4.93 -6.44 5.39 -5.86 5.87 -5.23 6.36 -4.58 6.88 -3.88 7.42 -3.15 7.99 -2.36 8.6 -1.53 9.22 -0.67 9.87 -4.99 -0.1 0.69 -10.35 1.62 -9.71 2.5 -9.1 3.34 -8.49 4.13 -7.9 4.86 -7.31 5.55 -6.74 6.19 -6.19 6.76 -5.67 7.3 -5.15 7.77 -4.67 8.21 -4.22 8.6 -3.77 8.93 -3.36 9.23 -2.96 9.49 -2.59 9.69 -2.25 9.84 -1.92 9.97 -1.61 10.03 -1.33 10.06 -1.06 10.04 -0.81 9.97 -0.6 9.87 -0.39 9.71 -0.2 9.5 -0.05 9.26 0.1 8.98 0.22 8.63 0.32 8.24 0.41 7.82 0.47 7.35 0.51z"/>
  </g>
  <g>
   <path id="flecha_amarilla_4" class="fil9" d="M2006.58 354.35l14.29 35.3 0 0 -0.93 -0.48 -0.93 -0.44 -0.93 -0.42 -0.93 -0.38 -0.93 -0.36 -0.93 -0.32 -0.93 -0.3 -0.93 -0.27 -0.94 -0.24 -0.93 -0.21 -0.93 -0.18 -0.94 -0.15 -0.93 -0.12 -0.94 -0.09 -0.94 -0.06 -0.93 -0.04 -0.94 0 -0.94 0.02 -0.94 0.06 -0.94 0.08 -0.94 0.12 -0.94 0.14 -0.94 0.17 -0.94 0.2 -0.94 0.23 -0.94 0.26 -0.95 0.29 -0.94 0.32 -0.95 0.34 -0.94 0.38 -0.95 0.4 -0.95 0.44 15.71 -34.69zm-241.99 124.01l0.37 -4.99 7.3 0.51 7.77 0.47 8.19 0.4 8.57 0.32 8.9 0.22 9.19 0.1 9.43 -0.05 9.62 -0.2 9.77 -0.39 9.87 -0.58 9.92 -0.81 9.94 -1.05 9.89 -1.31 9.82 -1.59 9.68 -1.88 9.51 -2.2 9.28 -2.55 9.01 -2.89 8.7 -3.27 8.33 -3.65 7.93 -4.07 7.47 -4.49 6.98 -4.93 6.44 -5.39 5.85 -5.86 5.24 -6.36 4.58 -6.88 3.88 -7.43 3.14 -7.99 2.37 -8.59 1.53 -9.22 0.66 -9.87 5 0.1 -0.69 10.34 -1.62 9.72 -2.5 9.1 -3.34 8.49 -4.13 7.89 -4.86 7.31 -5.55 6.75 -6.19 6.19 -6.76 5.66 -7.3 5.16 -7.77 4.67 -8.21 4.21 -8.6 3.78 -8.94 3.35 -9.23 2.97 -9.48 2.59 -9.69 2.25 -9.85 1.92 -9.96 1.61 -10.03 1.32 -10.06 1.06 -10.04 0.82 -9.98 0.6 -9.86 0.39 -9.71 0.2 -9.51 0.05 -9.26 -0.1 -8.97 -0.22 -8.63 -0.33 -8.25 -0.4 -7.82 -0.47 -7.34 -0.51z"/>
  </g>
  <g>
   <path id="flecha_amarilla_5" class="fil7" d="M1764.96 536.46l-0.37 -4.99 7.34 -0.51 7.82 -0.46 8.25 -0.41 8.63 -0.32 8.97 -0.22 9.26 -0.1 9.51 0.04 9.71 0.21 9.86 0.39 9.98 0.59 10.04 0.82 10.06 1.06 10.03 1.33 9.96 1.61 9.85 1.92 9.69 2.24 9.48 2.6 9.23 2.96 8.94 3.36 8.6 3.77 8.21 4.21 7.77 4.67 7.3 5.16 6.76 5.66 6.19 6.2 5.55 6.74 4.86 7.31 4.13 7.9 3.34 8.49 2.5 9.09 1.62 9.72 0.69 10.35 -5 0.1 -0.66 -9.88 -1.53 -9.22 -2.37 -8.59 -3.14 -7.99 -3.88 -7.42 -4.58 -6.88 -5.24 -6.36 -5.85 -5.87 -6.44 -5.39 -6.98 -4.93 -7.47 -4.49 -7.93 -4.06 -8.33 -3.66 -8.7 -3.27 -9.01 -2.89 -9.28 -2.54 -9.51 -2.2 -9.68 -1.89 -9.82 -1.59 -9.89 -1.31 -9.94 -1.04 -9.92 -0.81 -9.87 -0.59 -9.77 -0.38 -9.62 -0.21 -9.43 -0.04 -9.19 0.09 -8.9 0.22 -8.57 0.33 -8.19 0.4 -7.77 0.46 -7.3 0.51zm-17.73 -1.2l33.8 -17.54 -0.38 0.97 -0.35 0.97 -0.33 0.96 -0.3 0.96 -0.26 0.96 -0.24 0.96 -0.21 0.96 -0.18 0.95 -0.15 0.95 -0.12 0.95 -0.09 0.95 -0.06 0.94 -0.04 0.95 0 0.94 0.02 0.93 0.06 0.94 0.08 0.93 0.11 0.94 0.15 0.93 0.17 0.92 0.2 0.93 0.23 0.92 0.26 0.92 0.29 0.92 0.31 0.92 0.35 0.91 0.38 0.92 0.4 0.91 0.44 0.9 0.46 0.91 0.49 0.9 0.52 0.91 0 0 -36.01 -12.39z"/>
  </g>
  <g>
   <path id="flecha_amarilla_6" class="fil9" d="M1915.2 769.8l0.37 4.99 -7.35 0.51 -7.82 0.47 -8.24 0.4 -8.63 0.33 -8.98 0.22 -9.26 0.1 -9.5 -0.05 -9.71 -0.2 -9.87 -0.4 -9.97 -0.59 -10.04 -0.82 -10.06 -1.06 -10.03 -1.32 -9.97 -1.61 -9.84 -1.92 -9.69 -2.25 -9.49 -2.59 -9.23 -2.97 -8.93 -3.35 -8.6 -3.78 -8.21 -4.21 -7.77 -4.67 -7.3 -5.16 -6.76 -5.66 -6.19 -6.19 -5.55 -6.75 -4.86 -7.31 -4.13 -7.89 -3.34 -8.49 -2.5 -9.1 -1.62 -9.72 -0.69 -10.34 4.99 -0.1 0.67 9.87 1.53 9.22 2.36 8.59 3.15 7.99 3.88 7.43 4.58 6.88 5.23 6.36 5.86 5.86 6.44 5.39 6.98 4.93 7.47 4.49 7.92 4.07 8.34 3.65 8.7 3.27 9.01 2.89 9.28 2.54 9.51 2.21 9.68 1.88 9.81 1.59 9.9 1.31 9.94 1.05 9.92 0.81 9.87 0.58 9.77 0.39 9.62 0.2 9.43 0.05 9.19 -0.1 8.9 -0.22 8.57 -0.32 8.19 -0.41 7.77 -0.46 7.3 -0.51zm17.73 1.2l-33.81 17.54 0.39 -0.97 0.35 -0.96 0.33 -0.97 0.29 -0.96 0.27 -0.96 0.24 -0.96 0.21 -0.95 0.18 -0.96 0.15 -0.95 0.12 -0.95 0.09 -0.94 0.06 -0.95 0.03 -0.94 0.01 -0.94 -0.03 -0.94 -0.05 -0.94 -0.08 -0.93 -0.12 -0.93 -0.14 -0.93 -0.17 -0.93 -0.2 -0.93 -0.23 -0.92 -0.26 -0.92 -0.29 -0.92 -0.32 -0.92 -0.34 -0.91 -0.38 -0.91 -0.4 -0.91 -0.44 -0.91 -0.46 -0.91 -0.49 -0.9 -0.53 -0.9 0 0 36.02 12.38z"/>
  </g>
  <path class="fil3" d="M2022.42 217.1c-1.91,0.93 -4.42,1.39 -7.51,1.39 -4.02,0 -7.19,-1.18 -9.5,-3.55 -2.31,-2.37 -3.46,-5.52 -3.46,-9.47 0,-4.2 1.29,-7.6 3.89,-10.22 2.59,-2.61 5.96,-3.91 10.1,-3.91 2.56,0 4.72,0.32 6.48,0.97l0 5.69c-1.76,-1.05 -3.76,-1.57 -6.01,-1.57 -2.46,0 -4.45,0.77 -5.97,2.32 -1.51,1.55 -2.26,3.65 -2.26,6.3 0,2.54 0.71,4.57 2.14,6.07 1.42,1.51 3.35,2.27 5.77,2.27 2.3,0 4.42,-0.57 6.33,-1.69l0 5.4zm20.21 0.94l-15.64 0 0 -26.26 5.92 0 0 21.46 9.72 0 0 4.8zm9.45 0l-5.92 0 0 -26.26 5.92 0 0 26.26zm21.71 0l-15.75 0 0 -26.26 15.15 0 0 4.81 -9.23 0 0 5.85 8.59 0 0 4.79 -8.59 0 0 6.01 9.83 0 0 4.8zm27.84 0l-5.97 0 -10.83 -16.5c-0.63,-0.97 -1.07,-1.69 -1.32,-2.18l-0.07 0c0.1,0.93 0.15,2.34 0.15,4.24l0 14.44 -5.59 0 0 -26.26 6.38 0 10.41 15.98c0.48,0.72 0.92,1.44 1.32,2.14l0.08 0c-0.1,-0.6 -0.15,-1.81 -0.15,-3.6l0 -14.52 5.59 0 0 26.26zm24.44 -21.45l-7.49 0 0 21.45 -5.94 0 0 -21.45 -7.45 0 0 -4.81 20.88 0 0 4.81zm19.28 21.45l-15.75 0 0 -26.26 15.15 0 0 4.81 -9.23 0 0 5.85 8.59 0 0 4.79 -8.59 0 0 6.01 9.83 0 0 4.8z"/>
  <path class="fil5" d="M2022.78 570.24l0 -5.87c1.06,0.9 2.21,1.57 3.46,2.01 1.24,0.45 2.5,0.67 3.77,0.67 0.75,0 1.4,-0.07 1.95,-0.2 0.55,-0.14 1.02,-0.32 1.39,-0.56 0.38,-0.24 0.65,-0.52 0.83,-0.84 0.19,-0.33 0.28,-0.67 0.28,-1.06 0,-0.51 -0.15,-0.96 -0.44,-1.37 -0.29,-0.4 -0.69,-0.78 -1.2,-1.11 -0.51,-0.35 -1.11,-0.68 -1.81,-0.99 -0.69,-0.32 -1.44,-0.64 -2.25,-0.98 -2.05,-0.85 -3.58,-1.89 -4.58,-3.13 -1.01,-1.23 -1.51,-2.72 -1.51,-4.46 0,-1.37 0.27,-2.54 0.82,-3.52 0.55,-0.99 1.3,-1.8 2.24,-2.44 0.95,-0.63 2.05,-1.1 3.29,-1.4 1.24,-0.3 2.56,-0.45 3.96,-0.45 1.37,0 2.58,0.09 3.63,0.25 1.05,0.17 2.03,0.42 2.92,0.77l0 5.47c-0.44,-0.31 -0.92,-0.57 -1.43,-0.8 -0.52,-0.24 -1.06,-0.43 -1.61,-0.59 -0.55,-0.15 -1.09,-0.26 -1.64,-0.33 -0.54,-0.07 -1.06,-0.11 -1.54,-0.11 -0.68,0 -1.28,0.06 -1.83,0.19 -0.55,0.13 -1.02,0.31 -1.4,0.54 -0.37,0.23 -0.67,0.51 -0.88,0.83 -0.21,0.33 -0.31,0.69 -0.31,1.09 0,0.44 0.12,0.84 0.35,1.18 0.23,0.35 0.56,0.68 0.99,0.99 0.43,0.31 0.95,0.62 1.56,0.92 0.61,0.3 1.3,0.6 2.07,0.92 1.05,0.44 1.99,0.91 2.82,1.4 0.84,0.5 1.56,1.06 2.15,1.68 0.6,0.62 1.06,1.34 1.38,2.13 0.32,0.8 0.47,1.73 0.47,2.79 0,1.47 -0.27,2.7 -0.83,3.7 -0.55,0.99 -1.3,1.8 -2.26,2.41 -0.95,0.62 -2.06,1.06 -3.32,1.33 -1.27,0.27 -2.6,0.4 -4.01,0.4 -1.43,0 -2.8,-0.12 -4.1,-0.36 -1.3,-0.25 -2.43,-0.61 -3.38,-1.1zm30.59 1.46c-3.12,0 -5.58,-0.88 -7.37,-2.62 -1.79,-1.75 -2.68,-4.14 -2.68,-7.14 0,-3.1 0.93,-5.53 2.78,-7.28 1.86,-1.75 4.37,-2.62 7.53,-2.62 3.11,0 5.55,0.87 7.32,2.62 1.77,1.75 2.66,4.07 2.66,6.95 0,3.12 -0.91,5.58 -2.74,7.38 -1.83,1.81 -4.32,2.71 -7.5,2.71zm0.15 -15.23c-1.37,0 -2.43,0.47 -3.19,1.41 -0.75,0.94 -1.13,2.27 -1.13,3.99 0,3.6 1.45,5.4 4.36,5.4 2.77,0 4.15,-1.85 4.15,-5.54 0,-3.51 -1.4,-5.26 -4.19,-5.26zm19.63 14.77l-5.79 0 0 -27.75 5.79 0 0 27.75zm7.79 -21.72c-0.97,0 -1.77,-0.28 -2.39,-0.86 -0.62,-0.58 -0.94,-1.29 -0.94,-2.14 0,-0.86 0.32,-1.57 0.94,-2.12 0.62,-0.55 1.42,-0.82 2.39,-0.82 1,0 1.8,0.27 2.42,0.82 0.61,0.55 0.92,1.26 0.92,2.12 0,0.88 -0.31,1.61 -0.92,2.17 -0.62,0.55 -1.42,0.83 -2.42,0.83zm2.86 21.72l-5.78 0 0 -18.75 5.78 0 0 18.75zm19.08 -0.67c-1.3,0.76 -3.19,1.13 -5.65,1.13 -2.89,0 -5.22,-0.87 -7,-2.62 -1.78,-1.74 -2.67,-3.99 -2.67,-6.75 0,-3.19 0.95,-5.7 2.86,-7.54 1.91,-1.83 4.47,-2.75 7.67,-2.75 2.2,0 3.8,0.29 4.79,0.87l0 4.92c-1.2,-0.91 -2.55,-1.36 -4.04,-1.36 -1.66,0 -2.98,0.48 -3.95,1.45 -0.97,0.97 -1.46,2.31 -1.46,4.02 0,1.66 0.47,2.97 1.4,3.91 0.92,0.95 2.2,1.42 3.82,1.42 1.44,0 2.85,-0.45 4.23,-1.36l0 4.66zm6.72 -21.05c-0.97,0 -1.77,-0.28 -2.39,-0.86 -0.63,-0.58 -0.94,-1.29 -0.94,-2.14 0,-0.86 0.31,-1.57 0.94,-2.12 0.62,-0.55 1.42,-0.82 2.39,-0.82 0.99,0 1.79,0.27 2.41,0.82 0.62,0.55 0.93,1.26 0.93,2.12 0,0.88 -0.31,1.61 -0.93,2.17 -0.62,0.55 -1.42,0.83 -2.41,0.83zm2.86 21.72l-5.78 0 0 -18.75 5.78 0 0 18.75zm16.2 -0.21c-0.85,0.45 -2.14,0.67 -3.86,0.67 -4.07,0 -6.12,-2.12 -6.12,-6.35l0 -8.59 -3.04 0 0 -4.27 3.04 0 0 -4.04 5.77 -1.65 0 5.69 4.21 0 0 4.27 -4.21 0 0 7.58c0,1.95 0.78,2.93 2.32,2.93 0.62,0 1.25,-0.18 1.89,-0.53l0 4.29zm21.08 0.21l-5.77 0 0 -2.85 -0.09 0c-1.43,2.2 -3.34,3.31 -5.73,3.31 -4.35,0 -6.52,-2.63 -6.52,-7.89l0 -11.32 5.77 0 0 10.8c0,2.65 1.05,3.98 3.15,3.98 1.04,0 1.86,-0.36 2.49,-1.09 0.62,-0.72 0.93,-1.71 0.93,-2.95l0 -10.74 5.77 0 0 18.75zm23.22 0l-5.79 0 0 -2.58 -0.07 0c-1.32,2.03 -3.26,3.04 -5.81,3.04 -2.34,0 -4.23,-0.82 -5.65,-2.48 -1.43,-1.65 -2.15,-3.96 -2.15,-6.93 0,-3.1 0.79,-5.58 2.37,-7.45 1.57,-1.87 3.63,-2.8 6.18,-2.8 2.42,0 4.1,0.86 5.06,2.6l0.07 0 0 -11.15 5.79 0 0 27.75zm-5.68 -9.12l0 -1.41c0,-1.22 -0.35,-2.23 -1.06,-3.03 -0.71,-0.81 -1.63,-1.21 -2.76,-1.21 -1.28,0 -2.29,0.5 -3.01,1.51 -0.72,1.01 -1.08,2.39 -1.08,4.14 0,1.65 0.35,2.92 1.04,3.81 0.7,0.9 1.67,1.34 2.9,1.34 1.17,0 2.13,-0.47 2.87,-1.41 0.73,-0.94 1.1,-2.18 1.1,-3.74z"/>
  <path class="fil4" d="M2044.7 464.39l-6.79 0 -4.08 -6.76c-0.31,-0.51 -0.6,-0.97 -0.88,-1.37 -0.29,-0.4 -0.57,-0.75 -0.85,-1.03 -0.29,-0.29 -0.59,-0.51 -0.9,-0.67 -0.32,-0.15 -0.65,-0.22 -1.02,-0.22l-1.59 0 0 10.05 -5.92 0 0 -26.26 9.38 0c6.37,0 9.56,2.38 9.56,7.14 0,0.92 -0.15,1.76 -0.43,2.54 -0.28,0.77 -0.67,1.47 -1.18,2.1 -0.52,0.62 -1.14,1.15 -1.86,1.6 -0.73,0.46 -1.54,0.81 -2.43,1.07l0 0.07c0.39,0.13 0.77,0.32 1.14,0.6 0.36,0.27 0.71,0.59 1.06,0.96 0.34,0.37 0.67,0.76 0.98,1.18 0.31,0.42 0.59,0.83 0.85,1.24l4.96 7.76zm-16.11 -21.83l0 7.31 2.56 0c1.27,0 2.29,-0.37 3.06,-1.1 0.78,-0.74 1.17,-1.67 1.17,-2.76 0,-2.3 -1.37,-3.45 -4.12,-3.45l-2.67 0zm33.91 14.1l-12.23 0c0.19,2.72 1.91,4.09 5.14,4.09 2.07,0 3.88,-0.49 5.44,-1.47l0 4.18c-1.73,0.92 -3.98,1.39 -6.75,1.39 -3.03,0 -5.38,-0.84 -7.05,-2.52 -1.67,-1.68 -2.51,-4.02 -2.51,-7.02 0,-3.11 0.9,-5.58 2.71,-7.4 1.81,-1.82 4.03,-2.73 6.66,-2.73 2.74,0 4.85,0.82 6.35,2.43 1.49,1.63 2.24,3.84 2.24,6.62l0 2.43zm-5.36 -3.55c0,-2.68 -1.09,-4.03 -3.26,-4.03 -0.93,0 -1.73,0.38 -2.41,1.15 -0.68,0.77 -1.09,1.73 -1.24,2.88l6.91 0zm7.57 10.79l0 -4.69c0.96,0.57 1.91,1 2.85,1.28 0.95,0.28 1.84,0.42 2.68,0.42 1.03,0 1.84,-0.14 2.43,-0.42 0.59,-0.28 0.89,-0.71 0.89,-1.28 0,-0.37 -0.13,-0.68 -0.4,-0.92 -0.27,-0.24 -0.61,-0.46 -1.04,-0.64 -0.42,-0.18 -0.88,-0.35 -1.38,-0.49 -0.5,-0.15 -0.98,-0.31 -1.44,-0.5 -0.75,-0.28 -1.4,-0.58 -1.97,-0.9 -0.57,-0.33 -1.05,-0.7 -1.44,-1.13 -0.38,-0.43 -0.67,-0.92 -0.87,-1.48 -0.2,-0.57 -0.31,-1.23 -0.31,-2 0,-1.05 0.24,-1.95 0.69,-2.71 0.46,-0.76 1.07,-1.38 1.83,-1.86 0.76,-0.48 1.64,-0.83 2.62,-1.06 0.98,-0.22 2.01,-0.34 3.07,-0.34 0.83,0 1.67,0.07 2.53,0.2 0.85,0.12 1.69,0.31 2.53,0.55l0 4.47c-0.74,-0.43 -1.52,-0.75 -2.36,-0.96 -0.84,-0.21 -1.66,-0.32 -2.46,-0.32 -0.38,0 -0.74,0.03 -1.07,0.1 -0.34,0.06 -0.64,0.16 -0.89,0.29 -0.26,0.13 -0.46,0.29 -0.6,0.5 -0.15,0.2 -0.22,0.43 -0.22,0.69 0,0.33 0.1,0.63 0.32,0.87 0.23,0.24 0.51,0.46 0.86,0.63 0.36,0.18 0.75,0.34 1.19,0.48 0.43,0.14 0.86,0.28 1.29,0.43 0.77,0.27 1.46,0.56 2.09,0.88 0.62,0.32 1.15,0.69 1.6,1.12 0.44,0.42 0.78,0.92 1.02,1.5 0.24,0.57 0.36,1.25 0.36,2.05 0,1.11 -0.24,2.06 -0.73,2.85 -0.48,0.79 -1.12,1.42 -1.92,1.92 -0.8,0.49 -1.72,0.85 -2.77,1.08 -1.04,0.22 -2.12,0.34 -3.24,0.34 -2.07,0 -3.97,-0.32 -5.74,-0.95zm23.59 -1.69l-0.07 0 0 10.81 -5.78 0 0 -27.38 5.78 0 0 2.82 0.07 0c1.43,-2.18 3.44,-3.28 6.03,-3.28 2.43,0 4.3,0.83 5.63,2.5 1.32,1.67 1.99,3.93 1.99,6.8 0,3.13 -0.78,5.63 -2.32,7.53 -1.55,1.89 -3.6,2.84 -6.17,2.84 -2.25,0 -3.97,-0.88 -5.16,-2.64zm-0.16 -7.69l0 1.5c0,1.29 0.34,2.35 1.02,3.17 0.69,0.82 1.59,1.22 2.7,1.22 1.31,0 2.34,-0.5 3.06,-1.52 0.73,-1.02 1.09,-2.46 1.09,-4.33 0,-3.3 -1.28,-4.95 -3.85,-4.95 -1.18,0 -2.15,0.45 -2.9,1.35 -0.75,0.9 -1.12,2.09 -1.12,3.56zm35.37 9.87l-5.76 0 0 -2.86 -0.09 0c-1.43,2.21 -3.34,3.32 -5.73,3.32 -4.35,0 -6.52,-2.64 -6.52,-7.9l0 -11.31 5.77 0 0 10.8c0,2.65 1.05,3.97 3.15,3.97 1.03,0 1.86,-0.36 2.48,-1.08 0.63,-0.73 0.94,-1.72 0.94,-2.96l0 -10.73 5.76 0 0 18.75zm21.72 -7.73l-12.23 0c0.2,2.72 1.91,4.09 5.15,4.09 2.06,0 3.87,-0.49 5.43,-1.47l0 4.18c-1.73,0.92 -3.98,1.39 -6.75,1.39 -3.03,0 -5.38,-0.84 -7.05,-2.52 -1.67,-1.68 -2.51,-4.02 -2.51,-7.02 0,-3.11 0.9,-5.58 2.71,-7.4 1.81,-1.82 4.03,-2.73 6.67,-2.73 2.73,0 4.84,0.82 6.34,2.43 1.49,1.63 2.24,3.84 2.24,6.62l0 2.43zm-5.36 -3.55c0,-2.68 -1.09,-4.03 -3.26,-4.03 -0.93,0 -1.73,0.38 -2.41,1.15 -0.68,0.77 -1.09,1.73 -1.24,2.88l6.91 0zm7.58 10.79l0 -4.69c0.95,0.57 1.9,1 2.85,1.28 0.94,0.28 1.83,0.42 2.68,0.42 1.02,0 1.83,-0.14 2.42,-0.42 0.6,-0.28 0.89,-0.71 0.89,-1.28 0,-0.37 -0.13,-0.68 -0.4,-0.92 -0.27,-0.24 -0.61,-0.46 -1.04,-0.64 -0.42,-0.18 -0.88,-0.35 -1.38,-0.49 -0.5,-0.15 -0.98,-0.31 -1.44,-0.5 -0.75,-0.28 -1.4,-0.58 -1.97,-0.9 -0.57,-0.33 -1.05,-0.7 -1.43,-1.13 -0.38,-0.43 -0.68,-0.92 -0.88,-1.48 -0.2,-0.57 -0.3,-1.23 -0.3,-2 0,-1.05 0.23,-1.95 0.68,-2.71 0.46,-0.76 1.07,-1.38 1.83,-1.86 0.77,-0.48 1.64,-0.83 2.62,-1.06 0.98,-0.22 2.01,-0.34 3.07,-0.34 0.83,0 1.67,0.07 2.53,0.2 0.85,0.12 1.7,0.31 2.53,0.55l0 4.47c-0.74,-0.43 -1.52,-0.75 -2.36,-0.96 -0.84,-0.21 -1.65,-0.32 -2.46,-0.32 -0.38,0 -0.74,0.03 -1.07,0.1 -0.34,0.06 -0.64,0.16 -0.89,0.29 -0.26,0.13 -0.46,0.29 -0.6,0.5 -0.15,0.2 -0.22,0.43 -0.22,0.69 0,0.33 0.1,0.63 0.32,0.87 0.23,0.24 0.51,0.46 0.87,0.63 0.35,0.18 0.75,0.34 1.18,0.48 0.43,0.14 0.86,0.28 1.29,0.43 0.77,0.27 1.46,0.56 2.09,0.88 0.62,0.32 1.15,0.69 1.6,1.12 0.44,0.42 0.79,0.92 1.02,1.5 0.24,0.57 0.36,1.25 0.36,2.05 0,1.11 -0.24,2.06 -0.73,2.85 -0.48,0.79 -1.11,1.42 -1.91,1.92 -0.8,0.49 -1.73,0.85 -2.77,1.08 -1.05,0.22 -2.13,0.34 -3.25,0.34 -2.07,0 -3.97,-0.32 -5.73,-0.95zm29.06 0.27c-0.86,0.45 -2.15,0.68 -3.86,0.68 -4.08,0 -6.12,-2.12 -6.12,-6.35l0 -8.59 -3.04 0 0 -4.27 3.04 0 0 -4.04 5.77 -1.65 0 5.69 4.21 0 0 4.27 -4.21 0 0 7.58c0,1.95 0.77,2.92 2.32,2.92 0.61,0 1.24,-0.17 1.89,-0.53l0 4.29zm18.86 0.22l-5.47 0 0 -2.69 -0.08 0c-1.26,2.1 -3.12,3.15 -5.59,3.15 -1.82,0 -3.25,-0.52 -4.29,-1.55 -1.04,-1.03 -1.56,-2.41 -1.56,-4.13 0,-3.64 2.15,-5.74 6.46,-6.3l5.09 -0.67c0,-2.05 -1.11,-3.08 -3.33,-3.08 -2.24,0 -4.36,0.66 -6.37,1.99l0 -4.35c0.8,-0.42 1.9,-0.78 3.3,-1.1 1.4,-0.32 2.67,-0.48 3.82,-0.48 5.35,0 8.02,2.67 8.02,8l0 11.21zm-5.44 -7.62l0 -1.26 -3.4 0.44c-1.88,0.24 -2.82,1.09 -2.82,2.55 0,0.65 0.22,1.2 0.68,1.61 0.46,0.42 1.08,0.64 1.86,0.64 1.09,0 1.97,-0.38 2.66,-1.13 0.68,-0.75 1.02,-1.7 1.02,-2.85z"/>
 </g>
</svg>
