<?xml version="1.0" encoding="UTF-8"?>
<!DOCTYPE svg PUBLIC "-//W3C//DTD SVG 1.1//EN" "http://www.w3.org/Graphics/SVG/1.1/DTD/svg11.dtd">
<!-- Creator: CorelDRAW -->
<svg xmlns="http://www.w3.org/2000/svg" xml:space="preserve" width="3300px" height="1397px" version="1.1" style="shape-rendering:geometricPrecision; text-rendering:geometricPrecision; image-rendering:optimizeQuality; fill-rule:evenodd; clip-rule:evenodd"
viewBox="0 0 3300 1397.3"
 xmlns:xlink="http://www.w3.org/1999/xlink"
 xmlns:xodm="http://www.corel.com/coreldraw/odm/2003">
 <defs>
  <style type="text/css">
   <![CDATA[
    .str0 {stroke:black;stroke-width:2;stroke-miterlimit:22.9256;stroke-opacity:0.850980}
    .fil0 {fill:none}
    .fil2 {fill:none}
    .fil1 {fill:#00C85F}
    .fil8 {fill:#FF6600}
    .fil6 {fill:#FF6600;fill-rule:nonzero}
    .fil7 {fill:#FFC000;fill-rule:nonzero}
    .fil10 {fill:#FFCA26;fill-rule:nonzero}
    .fil3 {fill:black;fill-rule:nonzero;fill-opacity:0.850980}
    .fil4 {fill:#FF6600;fill-rule:nonzero;fill-opacity:0.850980}
    .fil5 {fill:#FFC000;fill-rule:nonzero;fill-opacity:0.850980}
    .fil9 {fill:white;fill-rule:nonzero;fill-opacity:0.850980}
   ]]>
  </style>
 </defs>
 <g id="Capa_x0020_1">
  <metadata id="CorelCorpID_0Corel-Layer"/>
  <g id="_2229972863040">
   <rect class="fil0" width="3300" height="1397.3"/>
   <g>
    <g>
     <polygon class="fil1" points="859.24,521.13 1171.59,521.13 1171.59,833.48 859.24,833.48 "/>
     <polygon id="_1" class="fil2 str0" points="859.24,521.13 1171.59,521.13 1171.59,833.48 859.24,833.48 "/>
    </g>
    <path class="fil3" d="M945.84 693.86c-2.6,1.26 -6,1.88 -10.2,1.88 -5.46,0 -9.77,-1.6 -12.9,-4.82 -3.14,-3.21 -4.7,-7.5 -4.7,-12.86 0,-5.7 1.76,-10.33 5.28,-13.87 3.52,-3.55 8.1,-5.32 13.72,-5.32 3.47,0 6.41,0.44 8.8,1.32l0 7.73c-2.39,-1.42 -5.1,-2.14 -8.16,-2.14 -3.34,0 -6.05,1.06 -8.11,3.16 -2.05,2.1 -3.08,4.96 -3.08,8.55 0,3.45 0.97,6.2 2.92,8.25 1.93,2.04 4.54,3.07 7.83,3.07 3.13,0 6,-0.76 8.6,-2.29l0 7.34zm27.45 1.26l-21.24 0 0 -35.65 8.04 0 0 29.14 13.2 0 0 6.51zm12.83 0l-8.04 0 0 -35.65 8.04 0 0 35.65zm29.48 0l-21.38 0 0 -35.65 20.56 0 0 6.53 -12.53 0 0 7.94 11.67 0 0 6.51 -11.67 0 0 8.16 13.35 0 0 6.51zm37.8 0l-8.11 0 -14.7 -22.4c-0.85,-1.31 -1.46,-2.3 -1.79,-2.96l-0.09 0c0.13,1.26 0.2,3.19 0.2,5.77l0 19.59 -7.59 0 0 -35.65 8.65 0 14.15 21.7c0.65,0.99 1.24,1.95 1.79,2.91l0.11 0c-0.14,-0.82 -0.21,-2.46 -0.21,-4.9l0 -19.71 7.59 0 0 35.65zm33.19 -29.12l-10.17 0 0 29.12 -8.06 0 0 -29.12 -10.11 0 0 -6.53 28.34 0 0 6.53zm26.19 29.12l-21.39 0 0 -35.65 20.57 0 0 6.53 -12.53 0 0 7.94 11.66 0 0 6.51 -11.66 0 0 8.16 13.35 0 0 6.51z"/>
    <path class="fil4" d="M1183.12 1105.68l-9.23 0 -5.54 -9.17c-0.42,-0.7 -0.82,-1.32 -1.2,-1.87 -0.38,-0.54 -0.76,-1.01 -1.15,-1.4 -0.39,-0.39 -0.8,-0.69 -1.22,-0.9 -0.43,-0.2 -0.89,-0.3 -1.38,-0.3l-2.16 0 0 13.64 -8.04 0 0 -35.65 12.73 0c8.66,0 12.99,3.23 12.99,9.69 0,1.25 -0.2,2.39 -0.58,3.45 -0.38,1.05 -0.92,2 -1.61,2.85 -0.7,0.84 -1.54,1.57 -2.52,2.18 -1,0.62 -2.09,1.09 -3.31,1.44l0 0.1c0.54,0.17 1.05,0.44 1.55,0.81 0.5,0.37 0.97,0.81 1.44,1.31 0.47,0.5 0.91,1.03 1.33,1.6 0.43,0.57 0.81,1.13 1.16,1.68l6.74 10.54zm-21.88 -29.63l0 9.92 3.48 0c1.72,0 3.1,-0.5 4.15,-1.5 1.06,-1.01 1.59,-2.26 1.59,-3.75 0,-3.12 -1.86,-4.67 -5.6,-4.67l-3.62 0zm46.05 19.14l-16.61 0c0.26,3.7 2.6,5.55 6.98,5.55 2.81,0 5.27,-0.67 7.39,-1.99l0 5.67c-2.35,1.26 -5.41,1.88 -9.18,1.88 -4.1,0 -7.3,-1.13 -9.57,-3.42 -2.27,-2.27 -3.4,-5.45 -3.4,-9.53 0,-4.23 1.22,-7.58 3.68,-10.05 2.45,-2.47 5.47,-3.7 9.05,-3.7 3.71,0 6.58,1.1 8.61,3.3 2.03,2.21 3.05,5.21 3.05,8.98l0 3.31zm-7.28 -4.83c0,-3.64 -1.48,-5.46 -4.43,-5.46 -1.26,0 -2.35,0.51 -3.27,1.56 -0.93,1.04 -1.48,2.35 -1.68,3.9l9.38 0zm10.28 14.65l0 -6.36c1.3,0.78 2.59,1.36 3.87,1.74 1.29,0.38 2.5,0.57 3.65,0.57 1.39,0 2.49,-0.19 3.29,-0.57 0.81,-0.38 1.2,-0.96 1.2,-1.74 0,-0.5 -0.17,-0.92 -0.54,-1.25 -0.36,-0.33 -0.83,-0.62 -1.41,-0.87 -0.57,-0.24 -1.2,-0.47 -1.87,-0.67 -0.68,-0.2 -1.34,-0.42 -1.96,-0.67 -1.01,-0.38 -1.91,-0.8 -2.68,-1.23 -0.77,-0.44 -1.42,-0.95 -1.94,-1.53 -0.52,-0.58 -0.92,-1.25 -1.19,-2.02 -0.27,-0.76 -0.42,-1.66 -0.42,-2.7 0,-1.43 0.32,-2.66 0.94,-3.69 0.62,-1.02 1.45,-1.86 2.48,-2.52 1.04,-0.65 2.23,-1.13 3.56,-1.44 1.33,-0.31 2.73,-0.46 4.17,-0.46 1.13,0 2.26,0.09 3.43,0.26 1.16,0.17 2.31,0.43 3.43,0.76l0 6.07c-1,-0.59 -2.06,-1.02 -3.19,-1.31 -1.14,-0.29 -2.25,-0.43 -3.35,-0.43 -0.52,0 -1,0.04 -1.45,0.13 -0.46,0.09 -0.87,0.23 -1.21,0.4 -0.35,0.17 -0.62,0.39 -0.82,0.67 -0.2,0.28 -0.3,0.59 -0.3,0.94 0,0.46 0.15,0.85 0.44,1.19 0.31,0.33 0.69,0.62 1.18,0.85 0.48,0.25 1.01,0.46 1.6,0.65 0.59,0.19 1.17,0.39 1.76,0.58 1.04,0.37 1.98,0.77 2.83,1.2 0.84,0.43 1.57,0.93 2.18,1.52 0.6,0.58 1.06,1.26 1.39,2.04 0.32,0.78 0.48,1.7 0.48,2.78 0,1.51 -0.32,2.8 -0.98,3.87 -0.66,1.07 -1.52,1.94 -2.61,2.61 -1.09,0.67 -2.34,1.16 -3.76,1.47 -1.42,0.3 -2.89,0.45 -4.41,0.45 -2.8,0 -5.39,-0.43 -7.79,-1.29zm32.04 -2.29l-0.11 0 0 14.68 -7.85 0 0 -37.18 7.85 0 0 3.83 0.11 0c1.94,-2.96 4.66,-4.45 8.18,-4.45 3.3,0 5.85,1.13 7.64,3.4 1.8,2.25 2.7,5.33 2.7,9.23 0,4.24 -1.05,7.65 -3.15,10.22 -2.09,2.57 -4.88,3.85 -8.36,3.85 -3.07,0 -5.4,-1.18 -7.01,-3.58zm-0.23 -10.44l0 2.04c0,1.76 0.46,3.19 1.4,4.3 0.92,1.11 2.14,1.67 3.66,1.67 1.78,0 3.17,-0.69 4.15,-2.08 0.99,-1.38 1.49,-3.34 1.49,-5.88 0,-4.48 -1.74,-6.71 -5.23,-6.71 -1.6,0 -2.92,0.6 -3.94,1.82 -1.02,1.23 -1.53,2.84 -1.53,4.84zm48.05 13.4l-7.84 0 0 -3.87 -0.12 0c-1.94,2.99 -4.53,4.49 -7.78,4.49 -5.91,0 -8.85,-3.57 -8.85,-10.72l0 -15.36 7.83 0 0 14.67c0,3.6 1.43,5.4 4.28,5.4 1.41,0 2.53,-0.5 3.38,-1.48 0.85,-0.99 1.26,-2.33 1.26,-4.02l0 -14.57 7.84 0 0 25.46zm29.49 -10.49l-16.61 0c0.26,3.7 2.6,5.55 6.98,5.55 2.81,0 5.27,-0.67 7.39,-1.99l0 5.67c-2.35,1.26 -5.41,1.88 -9.18,1.88 -4.1,0 -7.3,-1.13 -9.57,-3.42 -2.27,-2.27 -3.4,-5.45 -3.4,-9.53 0,-4.23 1.22,-7.58 3.68,-10.05 2.45,-2.47 5.47,-3.7 9.05,-3.7 3.71,0 6.58,1.1 8.61,3.3 2.03,2.21 3.05,5.21 3.05,8.98l0 3.31zm-7.28 -4.83c0,-3.64 -1.48,-5.46 -4.43,-5.46 -1.26,0 -2.35,0.51 -3.27,1.56 -0.93,1.04 -1.48,2.35 -1.68,3.9l9.38 0zm10.28 14.65l0 -6.36c1.3,0.78 2.59,1.36 3.87,1.74 1.29,0.38 2.5,0.57 3.65,0.57 1.39,0 2.49,-0.19 3.29,-0.57 0.81,-0.38 1.2,-0.96 1.2,-1.74 0,-0.5 -0.17,-0.92 -0.54,-1.25 -0.36,-0.33 -0.83,-0.62 -1.41,-0.87 -0.57,-0.24 -1.2,-0.47 -1.87,-0.67 -0.68,-0.2 -1.34,-0.42 -1.96,-0.67 -1.01,-0.38 -1.91,-0.8 -2.68,-1.23 -0.77,-0.44 -1.42,-0.95 -1.94,-1.53 -0.52,-0.58 -0.92,-1.25 -1.19,-2.02 -0.27,-0.76 -0.42,-1.66 -0.42,-2.7 0,-1.43 0.32,-2.66 0.94,-3.69 0.62,-1.02 1.45,-1.86 2.48,-2.52 1.04,-0.65 2.23,-1.13 3.56,-1.44 1.33,-0.31 2.73,-0.46 4.17,-0.46 1.13,0 2.26,0.09 3.43,0.26 1.16,0.17 2.31,0.43 3.43,0.76l0 6.07c-1,-0.59 -2.06,-1.02 -3.19,-1.31 -1.14,-0.29 -2.25,-0.43 -3.35,-0.43 -0.52,0 -1,0.04 -1.45,0.13 -0.46,0.09 -0.87,0.23 -1.21,0.4 -0.35,0.17 -0.62,0.39 -0.82,0.67 -0.2,0.28 -0.3,0.59 -0.3,0.94 0,0.46 0.15,0.85 0.44,1.19 0.31,0.33 0.69,0.62 1.18,0.85 0.48,0.25 1.01,0.46 1.6,0.65 0.59,0.19 1.17,0.39 1.76,0.58 1.04,0.37 1.98,0.77 2.83,1.2 0.84,0.43 1.57,0.93 2.18,1.52 0.6,0.58 1.06,1.26 1.39,2.04 0.32,0.78 0.48,1.7 0.48,2.78 0,1.51 -0.32,2.8 -0.98,3.87 -0.66,1.07 -1.52,1.94 -2.61,2.61 -1.09,0.67 -2.34,1.16 -3.76,1.47 -1.42,0.3 -2.89,0.45 -4.41,0.45 -2.8,0 -5.39,-0.43 -7.79,-1.29zm39.47 0.38c-1.16,0.61 -2.91,0.91 -5.24,0.91 -5.54,0 -8.31,-2.87 -8.31,-8.62l0 -11.66 -4.13 0 0 -5.8 4.13 0 0 -5.49 7.83 -2.24 0 7.73 5.72 0 0 5.8 -5.72 0 0 10.29c0,2.65 1.05,3.98 3.16,3.98 0.83,0 1.69,-0.24 2.56,-0.73l0 5.83zm25.62 0.29l-7.44 0 0 -3.65 -0.1 0c-1.71,2.85 -4.24,4.27 -7.59,4.27 -2.47,0 -4.41,-0.69 -5.83,-2.09 -1.42,-1.4 -2.12,-3.28 -2.12,-5.61 0,-4.94 2.93,-7.79 8.78,-8.56l6.91 -0.92c0,-2.78 -1.51,-4.17 -4.53,-4.17 -3.03,0 -5.92,0.9 -8.65,2.71l0 -5.92c1.1,-0.57 2.59,-1.06 4.49,-1.49 1.89,-0.44 3.63,-0.65 5.19,-0.65 7.25,0 10.89,3.63 10.89,10.87l0 15.21zm-7.39 -10.34l0 -1.72 -4.62 0.6c-2.56,0.33 -3.83,1.48 -3.83,3.46 0,0.89 0.31,1.63 0.92,2.2 0.63,0.57 1.47,0.86 2.53,0.86 1.48,0 2.68,-0.51 3.61,-1.53 0.93,-1.02 1.39,-2.31 1.39,-3.87z"/>
    <path class="fil5" d="M1168.56 256.71l0 -7.96c1.44,1.21 3.02,2.12 4.7,2.72 1.69,0.61 3.4,0.91 5.12,0.91 1.02,0 1.9,-0.09 2.65,-0.27 0.75,-0.19 1.38,-0.43 1.89,-0.76 0.51,-0.33 0.89,-0.71 1.13,-1.14 0.26,-0.44 0.37,-0.92 0.37,-1.43 0,-0.7 -0.19,-1.32 -0.59,-1.86 -0.4,-0.55 -0.94,-1.06 -1.63,-1.52 -0.69,-0.47 -1.5,-0.92 -2.45,-1.34 -0.94,-0.44 -1.96,-0.88 -3.06,-1.33 -2.78,-1.15 -4.86,-2.57 -6.23,-4.25 -1.36,-1.67 -2.04,-3.69 -2.04,-6.06 0,-1.86 0.36,-3.45 1.11,-4.79 0.75,-1.34 1.76,-2.43 3.05,-3.3 1.29,-0.86 2.77,-1.49 4.46,-1.9 1.69,-0.41 3.48,-0.61 5.37,-0.61 1.86,0 3.51,0.12 4.94,0.34 1.43,0.22 2.75,0.57 3.97,1.03l0 7.44c-0.61,-0.42 -1.25,-0.78 -1.95,-1.1 -0.71,-0.31 -1.44,-0.57 -2.19,-0.78 -0.73,-0.21 -1.48,-0.36 -2.22,-0.46 -0.74,-0.1 -1.43,-0.15 -2.1,-0.15 -0.91,0 -1.74,0.09 -2.48,0.26 -0.75,0.18 -1.38,0.42 -1.9,0.74 -0.51,0.31 -0.9,0.68 -1.19,1.12 -0.28,0.45 -0.42,0.94 -0.42,1.48 0,0.6 0.15,1.14 0.47,1.61 0.31,0.47 0.76,0.92 1.35,1.34 0.57,0.42 1.28,0.84 2.11,1.24 0.82,0.41 1.77,0.83 2.81,1.26 1.43,0.59 2.7,1.23 3.84,1.9 1.13,0.67 2.11,1.44 2.92,2.28 0.81,0.84 1.43,1.81 1.86,2.9 0.44,1.08 0.65,2.34 0.65,3.78 0,2 -0.37,3.66 -1.13,5.02 -0.76,1.35 -1.77,2.45 -3.07,3.28 -1.29,0.84 -2.8,1.44 -4.51,1.8 -1.72,0.37 -3.53,0.55 -5.44,0.55 -1.95,0 -3.81,-0.16 -5.58,-0.49 -1.76,-0.34 -3.3,-0.84 -4.59,-1.5zm41.55 1.99c-4.24,0 -7.58,-1.19 -10.01,-3.57 -2.43,-2.37 -3.64,-5.61 -3.64,-9.68 0,-4.21 1.26,-7.51 3.78,-9.89 2.52,-2.38 5.93,-3.56 10.22,-3.56 4.22,0 7.54,1.18 9.94,3.56 2.41,2.38 3.61,5.53 3.61,9.44 0,4.23 -1.24,7.57 -3.72,10.02 -2.47,2.46 -5.87,3.68 -10.18,3.68zm0.2 -20.69c-1.86,0 -3.3,0.64 -4.33,1.91 -1.02,1.28 -1.54,3.09 -1.54,5.43 0,4.89 1.98,7.33 5.92,7.33 3.76,0 5.65,-2.51 5.65,-7.53 0,-4.76 -1.9,-7.14 -5.7,-7.14zm26.65 20.07l-7.85 0 0 -37.7 7.85 0 0 37.7zm10.6 -29.5c-1.33,0 -2.42,-0.39 -3.26,-1.18 -0.84,-0.79 -1.27,-1.74 -1.27,-2.89 0,-1.18 0.43,-2.14 1.27,-2.89 0.84,-0.74 1.93,-1.12 3.26,-1.12 1.34,0 2.43,0.38 3.27,1.12 0.83,0.75 1.26,1.71 1.26,2.89 0,1.19 -0.43,2.17 -1.26,2.94 -0.84,0.75 -1.93,1.13 -3.27,1.13zm3.87 29.5l-7.85 0 0 -25.46 7.85 0 0 25.46zm25.92 -0.92c-1.78,1.03 -4.34,1.54 -7.69,1.54 -3.91,0 -7.07,-1.18 -9.49,-3.56 -2.42,-2.37 -3.64,-5.42 -3.64,-9.17 0,-4.33 1.3,-7.74 3.89,-10.23 2.6,-2.5 6.07,-3.74 10.42,-3.74 2.99,0 5.16,0.4 6.51,1.18l0 6.67c-1.64,-1.23 -3.47,-1.84 -5.5,-1.84 -2.25,0 -4.03,0.66 -5.36,1.98 -1.31,1.32 -1.98,3.13 -1.98,5.46 0,2.25 0.64,4.02 1.9,5.3 1.25,1.29 2.99,1.93 5.19,1.93 1.96,0 3.87,-0.61 5.75,-1.84l0 6.32zm9.12 -28.58c-1.32,0 -2.41,-0.39 -3.25,-1.18 -0.85,-0.79 -1.27,-1.74 -1.27,-2.89 0,-1.18 0.42,-2.14 1.27,-2.89 0.84,-0.74 1.93,-1.12 3.25,-1.12 1.35,0 2.44,0.38 3.28,1.12 0.83,0.75 1.25,1.71 1.25,2.89 0,1.19 -0.42,2.17 -1.25,2.94 -0.84,0.75 -1.93,1.13 -3.28,1.13zm3.88 29.5l-7.85 0 0 -25.46 7.85 0 0 25.46zm22.01 -0.3c-1.17,0.61 -2.91,0.92 -5.25,0.92 -5.53,0 -8.31,-2.88 -8.31,-8.63l0 -11.66 -4.12 0 0 -5.79 4.12 0 0 -5.5 7.84 -2.24 0 7.74 5.72 0 0 5.79 -5.72 0 0 10.3c0,2.65 1.05,3.97 3.15,3.97 0.84,0 1.69,-0.24 2.57,-0.72l0 5.82zm28.62 0.3l-7.84 0 0 -3.88 -0.12 0c-1.94,3 -4.53,4.5 -7.78,4.5 -5.91,0 -8.85,-3.58 -8.85,-10.72l0 -15.36 7.83 0 0 14.66c0,3.6 1.43,5.4 4.28,5.4 1.41,0 2.53,-0.49 3.38,-1.48 0.85,-0.98 1.26,-2.32 1.26,-4.01l0 -14.57 7.84 0 0 25.46zm31.53 0l-7.86 0 0 -3.51 -0.09 0c-1.79,2.75 -4.43,4.13 -7.89,4.13 -3.18,0 -5.74,-1.12 -7.68,-3.37 -1.94,-2.24 -2.91,-5.38 -2.91,-9.41 0,-4.21 1.07,-7.58 3.21,-10.12 2.14,-2.54 4.94,-3.8 8.4,-3.8 3.28,0 5.57,1.17 6.87,3.53l0.09 0 0 -15.15 7.86 0 0 37.7zm-7.71 -12.39l0 -1.91c0,-1.66 -0.48,-3.03 -1.44,-4.13 -0.96,-1.09 -2.22,-1.64 -3.75,-1.64 -1.74,0 -3.11,0.68 -4.09,2.05 -0.97,1.37 -1.46,3.25 -1.46,5.63 0,2.25 0.47,3.97 1.41,5.17 0.95,1.22 2.26,1.82 3.93,1.82 1.6,0 2.9,-0.64 3.9,-1.91 1,-1.28 1.5,-2.97 1.5,-5.08z"/>
    <g>
     <path id="flecha_roja" class="fil6" d="M1083.34 850.92l15 35 0 0 -0.93 -0.45 -0.94 -0.43 -0.94 -0.39 -0.94 -0.37 -0.93 -0.34 -0.94 -0.3 -0.94 -0.28 -0.94 -0.25 -0.94 -0.22 -0.93 -0.19 -0.94 -0.16 -0.94 -0.13 -0.94 -0.11 -0.93 -0.07 -0.94 -0.04 -0.94 -0.02 -0.94 0.02 -0.93 0.04 -0.94 0.07 -0.94 0.11 -0.94 0.13 -0.93 0.16 -0.94 0.19 -0.94 0.22 -0.94 0.25 -0.94 0.28 -0.93 0.3 -0.94 0.34 -0.94 0.37 -0.94 0.39 -0.93 0.43 -0.94 0.45 15 -35zm187.13 168.58l0 5 0 0 -9.73 -0.2 -9.61 -0.6 -9.47 -0.99 -9.32 -1.36 -9.15 -1.74 -8.99 -2.09 -8.79 -2.44 -8.6 -2.78 -8.39 -3.11 -8.16 -3.43 -7.94 -3.75 -7.69 -4.04 -7.43 -4.33 -7.16 -4.62 -6.89 -4.89 -6.59 -5.15 -6.28 -5.41 -5.97 -5.65 -5.64 -5.89 -5.3 -6.11 -4.95 -6.33 -4.58 -6.54 -4.2 -6.73 -3.82 -6.92 -3.41 -7.1 -2.99 -7.26 -2.57 -7.42 -2.13 -7.57 -1.68 -7.71 -1.21 -7.83 -0.74 -7.95 -0.25 -8.05 5 0 0.24 7.74 0.71 7.65 1.17 7.53 1.61 7.41 2.05 7.28 2.47 7.15 2.89 7 3.29 6.84 3.68 6.68 4.06 6.5 4.43 6.32 4.79 6.13 5.13 5.92 5.47 5.71 5.8 5.49 6.1 5.25 6.41 5.01 6.7 4.76 6.97 4.5 7.25 4.22 7.49 3.94 7.74 3.65 7.97 3.35 8.19 3.03 8.4 2.72 8.59 2.39 8.78 2.04 8.95 1.7 9.11 1.33 9.26 0.97 9.4 0.58 9.53 0.2 0 0zm184.63 -150.99l5 0 -0.25 8.05 -0.74 7.95 -1.21 7.83 -1.68 7.71 -2.13 7.57 -2.57 7.42 -2.99 7.26 -3.42 7.1 -3.81 6.92 -4.2 6.73 -4.58 6.54 -4.95 6.33 -5.3 6.11 -5.64 5.89 -5.97 5.65 -6.28 5.41 -6.6 5.15 -6.88 4.89 -7.16 4.62 -7.43 4.33 -7.69 4.04 -7.94 3.75 -8.16 3.43 -8.39 3.11 -8.6 2.78 -8.8 2.44 -8.98 2.09 -9.15 1.74 -9.32 1.36 -9.47 0.99 -9.61 0.6 -9.73 0.2 0 -5 9.52 -0.2 9.41 -0.58 9.26 -0.97 9.11 -1.33 8.95 -1.7 8.78 -2.04 8.59 -2.39 8.4 -2.72 8.19 -3.03 7.97 -3.35 7.74 -3.65 7.49 -3.94 7.24 -4.22 6.98 -4.5 6.7 -4.76 6.41 -5.01 6.1 -5.25 5.79 -5.49 5.48 -5.71 5.13 -5.92 4.79 -6.13 4.43 -6.32 4.06 -6.5 3.68 -6.68 3.29 -6.84 2.89 -7 2.47 -7.15 2.05 -7.28 1.61 -7.41 1.17 -7.53 0.71 -7.65 0.24 -7.74z"/>
    </g>
    <g>
     <path id="flecha_amarilla" class="fil7" d="M1457.6 477.48l-15 -35 0 0 0.93 0.45 0.94 0.42 0.94 0.4 0.94 0.37 0.93 0.33 0.94 0.31 0.94 0.28 0.94 0.25 0.93 0.22 0.94 0.19 0.94 0.16 0.94 0.13 0.93 0.1 0.94 0.08 0.94 0.04 0.94 0.02 0.94 -0.02 0.93 -0.04 0.94 -0.08 0.94 -0.1 0.94 -0.13 0.93 -0.16 0.94 -0.19 0.94 -0.22 0.94 -0.25 0.94 -0.28 0.93 -0.31 0.94 -0.33 0.94 -0.37 0.94 -0.4 0.93 -0.42 0.94 -0.45 -15 35zm-187.13 -168.58l0 -5 0 0 9.73 0.2 9.61 0.6 9.47 0.99 9.32 1.36 9.15 1.74 8.98 2.09 8.8 2.44 8.6 2.78 8.39 3.11 8.16 3.43 7.94 3.74 7.69 4.05 7.43 4.33 7.16 4.62 6.88 4.89 6.6 5.15 6.28 5.41 5.97 5.65 5.64 5.89 5.3 6.11 4.95 6.33 4.58 6.54 4.2 6.73 3.81 6.92 3.42 7.1 2.99 7.26 2.57 7.42 2.13 7.57 1.68 7.71 1.21 7.83 0.74 7.95 0.25 8.05 -5 0 -0.24 -7.75 -0.71 -7.64 -1.17 -7.53 -1.61 -7.41 -2.05 -7.28 -2.47 -7.15 -2.89 -7 -3.29 -6.84 -3.68 -6.68 -4.06 -6.5 -4.43 -6.32 -4.79 -6.13 -5.13 -5.92 -5.48 -5.71 -5.79 -5.49 -6.1 -5.25 -6.41 -5.01 -6.7 -4.76 -6.98 -4.5 -7.24 -4.22 -7.49 -3.94 -7.74 -3.65 -7.97 -3.35 -8.19 -3.04 -8.4 -2.71 -8.59 -2.39 -8.78 -2.04 -8.95 -1.7 -9.11 -1.33 -9.26 -0.97 -9.41 -0.58 -9.52 -0.2 0 0zm-184.63 150.99l-5 0 0.25 -8.05 0.74 -7.95 1.21 -7.83 1.68 -7.71 2.13 -7.57 2.57 -7.42 2.99 -7.26 3.41 -7.1 3.82 -6.92 4.2 -6.73 4.58 -6.54 4.95 -6.33 5.3 -6.11 5.64 -5.89 5.97 -5.65 6.28 -5.41 6.59 -5.15 6.89 -4.89 7.16 -4.62 7.43 -4.33 7.69 -4.05 7.94 -3.74 8.16 -3.43 8.39 -3.11 8.6 -2.78 8.79 -2.44 8.99 -2.09 9.15 -1.74 9.32 -1.36 9.47 -0.99 9.61 -0.6 9.73 -0.2 0 5 -9.53 0.2 -9.4 0.58 -9.26 0.97 -9.11 1.33 -8.95 1.7 -8.78 2.04 -8.59 2.39 -8.4 2.71 -8.19 3.04 -7.97 3.35 -7.74 3.65 -7.49 3.94 -7.25 4.22 -6.97 4.5 -6.7 4.76 -6.41 5.01 -6.1 5.25 -5.8 5.49 -5.47 5.71 -5.13 5.92 -4.79 6.13 -4.43 6.32 -4.06 6.5 -3.68 6.68 -3.29 6.84 -2.89 7 -2.47 7.15 -2.05 7.28 -1.61 7.41 -1.17 7.53 -0.71 7.64 -0.24 7.75z"/>
    </g>
    <g>
     <polygon class="fil8" points="1369.35,521.13 1681.7,521.13 1681.7,833.48 1369.35,833.48 "/>
     <polygon id="_1_0" class="fil2 str0" points="1369.35,521.13 1681.7,521.13 1681.7,833.48 1369.35,833.48 "/>
    </g>
    <path class="fil3" d="M1426.3 695.12l-6.81 0 -1.97 -6.17 -9.86 0 -1.96 6.17 -6.77 0 10.1 -27.73 7.41 0 9.86 27.73zm-10.22 -10.96l-2.97 -9.32c-0.22,-0.7 -0.38,-1.53 -0.47,-2.5l-0.15 0c-0.07,0.81 -0.23,1.62 -0.48,2.42l-3.02 9.4 7.09 0zm36.06 9.11c-2.71,1.56 -6.08,2.34 -10.11,2.34 -4.45,0 -7.97,-1.24 -10.54,-3.71 -2.57,-2.47 -3.86,-5.87 -3.86,-10.2 0,-4.35 1.41,-7.91 4.22,-10.65 2.81,-2.75 6.55,-4.13 11.21,-4.13 2.94,0 5.54,0.41 7.78,1.22l0 5.87c-2.14,-1.25 -4.76,-1.86 -7.85,-1.86 -2.6,0 -4.7,0.84 -6.34,2.52 -1.63,1.69 -2.44,3.93 -2.44,6.74 0,2.85 0.73,5.05 2.19,6.62 1.46,1.56 3.44,2.33 5.93,2.33 1.49,0 2.68,-0.21 3.55,-0.63l0 -5.42 -5.54 0 0 -4.99 11.8 0 0 13.95zm28.66 1.85l-7.18 0 -4.31 -7.13c-0.32,-0.54 -0.63,-1.02 -0.93,-1.45 -0.3,-0.43 -0.59,-0.79 -0.9,-1.09 -0.3,-0.31 -0.62,-0.54 -0.95,-0.7 -0.33,-0.16 -0.68,-0.24 -1.07,-0.24l-1.68 0 0 10.61 -6.25 0 0 -27.73 9.9 0c6.73,0 10.1,2.52 10.1,7.54 0,0.97 -0.15,1.86 -0.45,2.68 -0.3,0.82 -0.71,1.56 -1.25,2.22 -0.54,0.65 -1.2,1.22 -1.96,1.69 -0.78,0.49 -1.63,0.86 -2.57,1.13l0 0.08c0.41,0.13 0.81,0.33 1.2,0.62 0.39,0.29 0.76,0.63 1.12,1.02 0.37,0.39 0.71,0.81 1.04,1.25 0.33,0.44 0.63,0.88 0.9,1.3l5.24 8.2zm-17.02 -23.05l0 7.72 2.71 0c1.34,0 2.41,-0.39 3.22,-1.16 0.83,-0.79 1.25,-1.77 1.25,-2.92 0,-2.43 -1.46,-3.64 -4.36,-3.64l-2.82 0zm36.24 23.05l-16.63 0 0 -27.73 15.99 0 0 5.09 -9.74 0 0 6.17 9.07 0 0 5.06 -9.07 0 0 6.34 10.38 0 0 5.07zm27.21 -1.85c-2.7,1.56 -6.07,2.34 -10.1,2.34 -4.45,0 -7.97,-1.24 -10.55,-3.71 -2.56,-2.47 -3.85,-5.87 -3.85,-10.2 0,-4.35 1.4,-7.91 4.22,-10.65 2.8,-2.75 6.55,-4.13 11.21,-4.13 2.94,0 5.53,0.41 7.77,1.22l0 5.87c-2.14,-1.25 -4.75,-1.86 -7.85,-1.86 -2.59,0 -4.7,0.84 -6.33,2.52 -1.64,1.69 -2.45,3.93 -2.45,6.74 0,2.85 0.74,5.05 2.19,6.62 1.47,1.56 3.44,2.33 5.93,2.33 1.5,0 2.69,-0.21 3.56,-0.63l0 -5.42 -5.54 0 0 -4.99 11.79 0 0 13.95zm29.79 1.85l-6.81 0 -1.97 -6.17 -9.86 0 -1.96 6.17 -6.77 0 10.1 -27.73 7.41 0 9.86 27.73zm-10.22 -10.96l-2.97 -9.32c-0.22,-0.7 -0.38,-1.53 -0.47,-2.5l-0.15 0c-0.07,0.81 -0.23,1.62 -0.48,2.42l-3.02 9.4 7.09 0zm32.96 9.98c-2.02,0.98 -4.67,1.47 -7.93,1.47 -4.25,0 -7.6,-1.25 -10.03,-3.75 -2.45,-2.51 -3.66,-5.84 -3.66,-10 0,-4.44 1.37,-8.04 4.11,-10.8 2.74,-2.76 6.29,-4.14 10.66,-4.14 2.71,0 4.99,0.35 6.85,1.03l0 6.02c-1.86,-1.11 -3.97,-1.67 -6.35,-1.67 -2.6,0 -4.7,0.82 -6.3,2.46 -1.6,1.64 -2.4,3.85 -2.4,6.65 0,2.68 0.76,4.82 2.27,6.41 1.5,1.59 3.54,2.39 6.09,2.39 2.44,0 4.67,-0.59 6.69,-1.78l0 5.71zm11.08 0.98l-6.25 0 0 -27.73 6.25 0 0 27.73zm18.02 0.49c-3.97,0 -7.2,-1.3 -9.71,-3.88 -2.5,-2.59 -3.75,-5.95 -3.75,-10.11 0,-4.38 1.27,-7.92 3.81,-10.63 2.55,-2.71 5.91,-4.07 10.1,-4.07 3.96,0 7.16,1.3 9.6,3.89 2.44,2.6 3.67,6.02 3.67,10.25 0,4.36 -1.27,7.88 -3.81,10.55 -2.52,2.66 -5.83,4 -9.91,4zm0.28 -23.31c-2.2,0 -3.94,0.82 -5.23,2.47 -1.28,1.65 -1.93,3.82 -1.93,6.52 0,2.75 0.65,4.92 1.93,6.53 1.29,1.59 2.98,2.39 5.07,2.39 2.16,0 3.86,-0.78 5.13,-2.33 1.26,-1.56 1.89,-3.71 1.89,-6.47 0,-2.88 -0.61,-5.11 -1.83,-6.71 -1.23,-1.6 -2.91,-2.4 -5.03,-2.4zm6.3 -13.73l-6.05 6.25 -4.41 0 5.03 -6.25 5.43 0zm36.67 36.55l-6.3 0 -11.44 -17.42c-0.66,-1.02 -1.13,-1.79 -1.39,-2.3l-0.07 0c0.1,0.98 0.15,2.48 0.15,4.48l0 15.24 -5.9 0 0 -27.73 6.73 0 11.01 16.88c0.5,0.77 0.96,1.52 1.39,2.27l0.08 0c-0.11,-0.65 -0.16,-1.92 -0.16,-3.81l0 -15.34 5.9 0 0 27.73z"/>
    <g>
     <path class="fil4" d="M1817.7 777.63l-9.22 0 -5.55 -9.17c-0.41,-0.7 -0.81,-1.32 -1.19,-1.87 -0.39,-0.54 -0.77,-1.01 -1.16,-1.4 -0.39,-0.39 -0.79,-0.69 -1.22,-0.9 -0.42,-0.2 -0.88,-0.3 -1.37,-0.3l-2.17 0 0 13.64 -8.04 0 0 -35.65 12.74 0c8.65,0 12.98,3.23 12.98,9.69 0,1.25 -0.19,2.39 -0.58,3.45 -0.38,1.05 -0.91,2 -1.61,2.85 -0.7,0.84 -1.54,1.57 -2.52,2.18 -0.99,0.62 -2.09,1.09 -3.3,1.44l0 0.1c0.53,0.17 1.04,0.44 1.54,0.81 0.5,0.37 0.98,0.81 1.45,1.31 0.46,0.5 0.9,1.03 1.33,1.6 0.42,0.57 0.8,1.13 1.15,1.68l6.74 10.54zm-21.88 -29.63l0 9.92 3.48 0c1.72,0 3.11,-0.5 4.15,-1.5 1.06,-1.01 1.6,-2.26 1.6,-3.75 0,-3.12 -1.87,-4.67 -5.61,-4.67l-3.62 0zm46.05 19.14l-16.61 0c0.27,3.7 2.6,5.54 6.99,5.54 2.8,0 5.26,-0.66 7.38,-1.98l0 5.67c-2.35,1.26 -5.4,1.88 -9.17,1.88 -4.11,0 -7.3,-1.13 -9.58,-3.42 -2.26,-2.27 -3.4,-5.45 -3.4,-9.53 0,-4.23 1.22,-7.58 3.68,-10.05 2.46,-2.47 5.47,-3.7 9.05,-3.7 3.71,0 6.59,1.1 8.62,3.3 2.03,2.21 3.04,5.21 3.04,8.98l0 3.31zm-7.28 -4.83c0,-3.64 -1.48,-5.46 -4.43,-5.46 -1.25,0 -2.35,0.51 -3.27,1.56 -0.92,1.04 -1.47,2.35 -1.68,3.9l9.38 0zm10.29 14.65l0 -6.36c1.3,0.78 2.59,1.35 3.87,1.74 1.28,0.38 2.49,0.57 3.64,0.57 1.39,0 2.49,-0.19 3.29,-0.57 0.81,-0.39 1.21,-0.96 1.21,-1.74 0,-0.5 -0.18,-0.92 -0.55,-1.25 -0.36,-0.33 -0.83,-0.62 -1.4,-0.87 -0.57,-0.24 -1.2,-0.47 -1.88,-0.67 -0.68,-0.2 -1.33,-0.42 -1.96,-0.67 -1.01,-0.38 -1.9,-0.8 -2.67,-1.23 -0.78,-0.44 -1.42,-0.95 -1.95,-1.53 -0.51,-0.58 -0.91,-1.25 -1.19,-2.02 -0.27,-0.76 -0.41,-1.66 -0.41,-2.7 0,-1.43 0.31,-2.66 0.93,-3.69 0.62,-1.02 1.45,-1.86 2.49,-2.52 1.03,-0.65 2.22,-1.13 3.56,-1.44 1.33,-0.31 2.72,-0.46 4.16,-0.46 1.13,0 2.27,0.09 3.43,0.26 1.16,0.17 2.31,0.43 3.44,0.76l0 6.07c-1,-0.59 -2.06,-1.02 -3.2,-1.31 -1.14,-0.29 -2.25,-0.43 -3.35,-0.43 -0.51,0 -1,0.04 -1.45,0.13 -0.45,0.09 -0.86,0.22 -1.21,0.4 -0.35,0.17 -0.62,0.39 -0.81,0.67 -0.21,0.28 -0.3,0.59 -0.3,0.94 0,0.46 0.14,0.85 0.44,1.19 0.31,0.33 0.69,0.62 1.17,0.85 0.49,0.25 1.02,0.46 1.6,0.65 0.59,0.19 1.18,0.39 1.76,0.58 1.05,0.37 1.99,0.77 2.84,1.2 0.84,0.43 1.57,0.93 2.17,1.52 0.6,0.58 1.07,1.26 1.39,2.04 0.32,0.78 0.49,1.7 0.49,2.78 0,1.51 -0.33,2.8 -0.99,3.87 -0.65,1.07 -1.52,1.94 -2.6,2.61 -1.09,0.67 -2.35,1.16 -3.77,1.47 -1.41,0.3 -2.88,0.45 -4.41,0.45 -2.8,0 -5.39,-0.43 -7.78,-1.29zm32.03 -2.29l-0.1 0 0 14.68 -7.85 0 0 -37.18 7.85 0 0 3.83 0.1 0c1.94,-2.96 4.67,-4.45 8.18,-4.45 3.3,0 5.85,1.13 7.65,3.4 1.8,2.25 2.7,5.33 2.7,9.23 0,4.24 -1.05,7.65 -3.15,10.22 -2.1,2.57 -4.89,3.85 -8.37,3.85 -3.06,0 -5.4,-1.18 -7.01,-3.58zm-0.22 -10.44l0 2.04c0,1.76 0.46,3.19 1.39,4.3 0.93,1.11 2.15,1.67 3.66,1.67 1.78,0 3.17,-0.69 4.16,-2.08 0.98,-1.38 1.48,-3.34 1.48,-5.88 0,-4.48 -1.74,-6.71 -5.22,-6.71 -1.61,0 -2.92,0.6 -3.94,1.82 -1.02,1.23 -1.53,2.84 -1.53,4.84zm48.04 13.4l-7.83 0 0 -3.88 -0.12 0c-1.95,3 -4.54,4.5 -7.79,4.5 -5.9,0 -8.85,-3.57 -8.85,-10.72l0 -15.36 7.84 0 0 14.67c0,3.6 1.42,5.4 4.27,5.4 1.41,0 2.53,-0.5 3.38,-1.48 0.85,-0.99 1.27,-2.33 1.27,-4.02l0 -14.57 7.83 0 0 25.46zm29.49 -10.49l-16.61 0c0.27,3.7 2.6,5.54 6.99,5.54 2.8,0 5.26,-0.66 7.38,-1.98l0 5.67c-2.35,1.26 -5.4,1.88 -9.17,1.88 -4.11,0 -7.3,-1.13 -9.58,-3.42 -2.26,-2.27 -3.4,-5.45 -3.4,-9.53 0,-4.23 1.22,-7.58 3.68,-10.05 2.46,-2.47 5.47,-3.7 9.05,-3.7 3.71,0 6.59,1.1 8.62,3.3 2.03,2.21 3.04,5.21 3.04,8.98l0 3.31zm-7.28 -4.83c0,-3.64 -1.48,-5.46 -4.43,-5.46 -1.25,0 -2.35,0.51 -3.27,1.56 -0.92,1.04 -1.47,2.35 -1.68,3.9l9.38 0zm10.29 14.65l0 -6.36c1.3,0.78 2.59,1.35 3.87,1.74 1.28,0.38 2.49,0.57 3.64,0.57 1.39,0 2.49,-0.19 3.29,-0.57 0.81,-0.39 1.21,-0.96 1.21,-1.74 0,-0.5 -0.18,-0.92 -0.55,-1.25 -0.36,-0.33 -0.83,-0.62 -1.4,-0.87 -0.57,-0.24 -1.2,-0.47 -1.88,-0.67 -0.68,-0.2 -1.33,-0.42 -1.96,-0.67 -1.01,-0.38 -1.9,-0.8 -2.67,-1.23 -0.78,-0.44 -1.42,-0.95 -1.95,-1.53 -0.51,-0.58 -0.91,-1.25 -1.19,-2.02 -0.27,-0.76 -0.41,-1.66 -0.41,-2.7 0,-1.43 0.31,-2.66 0.93,-3.69 0.62,-1.02 1.45,-1.86 2.49,-2.52 1.03,-0.65 2.22,-1.13 3.56,-1.44 1.33,-0.31 2.72,-0.46 4.16,-0.46 1.13,0 2.27,0.09 3.43,0.26 1.16,0.17 2.31,0.43 3.44,0.76l0 6.07c-1,-0.59 -2.06,-1.02 -3.2,-1.31 -1.14,-0.29 -2.25,-0.43 -3.35,-0.43 -0.51,0 -1,0.04 -1.45,0.13 -0.45,0.09 -0.86,0.22 -1.21,0.4 -0.35,0.17 -0.62,0.39 -0.81,0.67 -0.21,0.28 -0.3,0.59 -0.3,0.94 0,0.46 0.14,0.85 0.44,1.19 0.31,0.33 0.69,0.62 1.17,0.85 0.49,0.25 1.02,0.46 1.6,0.65 0.59,0.19 1.18,0.39 1.76,0.58 1.05,0.37 1.99,0.77 2.84,1.2 0.84,0.43 1.57,0.93 2.17,1.52 0.6,0.58 1.07,1.26 1.39,2.04 0.32,0.78 0.49,1.7 0.49,2.78 0,1.51 -0.33,2.8 -0.99,3.87 -0.65,1.07 -1.52,1.94 -2.6,2.61 -1.09,0.67 -2.35,1.16 -3.77,1.47 -1.41,0.3 -2.88,0.45 -4.41,0.45 -2.8,0 -5.39,-0.43 -7.78,-1.29zm39.47 0.38c-1.17,0.61 -2.92,0.91 -5.25,0.91 -5.53,0 -8.31,-2.87 -8.31,-8.62l0 -11.66 -4.12 0 0 -5.8 4.12 0 0 -5.49 7.84 -2.24 0 7.73 5.72 0 0 5.8 -5.72 0 0 10.29c0,2.65 1.05,3.98 3.15,3.98 0.83,0 1.69,-0.24 2.57,-0.73l0 5.83zm25.61 0.29l-7.43 0 0 -3.65 -0.11 0c-1.7,2.85 -4.23,4.27 -7.58,4.27 -2.47,0 -4.42,-0.69 -5.83,-2.09 -1.42,-1.4 -2.13,-3.28 -2.13,-5.61 0,-4.94 2.93,-7.79 8.78,-8.56l6.92 -0.92c0,-2.78 -1.51,-4.17 -4.54,-4.17 -3.03,0 -5.91,0.9 -8.64,2.71l0 -5.92c1.09,-0.57 2.58,-1.06 4.49,-1.49 1.89,-0.44 3.62,-0.65 5.18,-0.65 7.26,0 10.89,3.62 10.89,10.87l0 15.21zm-7.38 -10.34l0 -1.72 -4.63 0.6c-2.55,0.33 -3.83,1.48 -3.83,3.46 0,0.89 0.31,1.63 0.93,2.2 0.63,0.57 1.47,0.85 2.53,0.85 1.47,0 2.67,-0.5 3.61,-1.52 0.92,-1.02 1.39,-2.31 1.39,-3.87z"/>
     <path class="fil5" d="M1803.15 622.88l0 -7.96c1.44,1.21 3.01,2.12 4.7,2.72 1.69,0.6 3.39,0.91 5.12,0.91 1.02,0 1.9,-0.09 2.65,-0.27 0.75,-0.19 1.38,-0.44 1.89,-0.77 0.51,-0.32 0.88,-0.7 1.13,-1.13 0.25,-0.45 0.37,-0.92 0.37,-1.44 0,-0.69 -0.19,-1.31 -0.59,-1.86 -0.4,-0.55 -0.95,-1.06 -1.63,-1.52 -0.69,-0.46 -1.51,-0.91 -2.46,-1.34 -0.94,-0.43 -1.96,-0.87 -3.05,-1.32 -2.79,-1.16 -4.87,-2.57 -6.23,-4.25 -1.37,-1.68 -2.05,-3.7 -2.05,-6.06 0,-1.86 0.37,-3.46 1.12,-4.79 0.74,-1.34 1.76,-2.44 3.04,-3.3 1.29,-0.86 2.78,-1.5 4.47,-1.9 1.68,-0.41 3.48,-0.61 5.37,-0.61 1.86,0 3.5,0.11 4.94,0.33 1.42,0.22 2.75,0.57 3.96,1.04l0 7.43c-0.6,-0.41 -1.25,-0.78 -1.95,-1.09 -0.7,-0.31 -1.43,-0.58 -2.18,-0.79 -0.74,-0.2 -1.49,-0.36 -2.22,-0.46 -0.74,-0.09 -1.44,-0.14 -2.1,-0.14 -0.92,0 -1.74,0.08 -2.49,0.25 -0.75,0.18 -1.37,0.43 -1.89,0.74 -0.51,0.31 -0.91,0.69 -1.2,1.13 -0.28,0.44 -0.41,0.93 -0.41,1.48 0,0.6 0.15,1.13 0.46,1.6 0.32,0.48 0.77,0.93 1.35,1.35 0.58,0.42 1.28,0.83 2.12,1.24 0.82,0.41 1.76,0.82 2.81,1.26 1.42,0.59 2.7,1.23 3.83,1.9 1.14,0.67 2.12,1.43 2.92,2.27 0.82,0.85 1.44,1.82 1.87,2.9 0.43,1.08 0.64,2.35 0.64,3.79 0,1.99 -0.37,3.66 -1.12,5.02 -0.76,1.35 -1.78,2.44 -3.08,3.27 -1.29,0.84 -2.79,1.45 -4.5,1.81 -1.73,0.37 -3.54,0.54 -5.45,0.54 -1.95,0 -3.81,-0.16 -5.57,-0.49 -1.77,-0.33 -3.3,-0.83 -4.59,-1.49zm41.54 1.98c-4.24,0 -7.58,-1.18 -10,-3.56 -2.43,-2.38 -3.64,-5.61 -3.64,-9.69 0,-4.21 1.25,-7.51 3.77,-9.88 2.52,-2.38 5.94,-3.57 10.22,-3.57 4.23,0 7.55,1.19 9.95,3.57 2.4,2.37 3.61,5.52 3.61,9.43 0,4.23 -1.24,7.58 -3.72,10.03 -2.48,2.45 -5.87,3.67 -10.19,3.67zm0.21 -20.68c-1.86,0 -3.3,0.64 -4.33,1.91 -1.03,1.28 -1.55,3.09 -1.55,5.42 0,4.89 1.98,7.34 5.93,7.34 3.76,0 5.64,-2.52 5.64,-7.53 0,-4.76 -1.9,-7.14 -5.69,-7.14zm26.65 20.06l-7.85 0 0 -37.69 7.85 0 0 37.69zm10.59 -29.49c-1.32,0 -2.41,-0.39 -3.25,-1.18 -0.85,-0.79 -1.27,-1.75 -1.27,-2.89 0,-1.18 0.42,-2.14 1.27,-2.89 0.84,-0.75 1.93,-1.12 3.25,-1.12 1.35,0 2.44,0.37 3.28,1.12 0.83,0.75 1.25,1.71 1.25,2.89 0,1.18 -0.42,2.17 -1.25,2.93 -0.84,0.76 -1.93,1.14 -3.28,1.14zm3.88 29.49l-7.85 0 0 -25.46 7.85 0 0 25.46zm25.91 -0.91c-1.77,1.02 -4.33,1.53 -7.68,1.53 -3.91,0 -7.08,-1.18 -9.5,-3.55 -2.42,-2.37 -3.63,-5.43 -3.63,-9.18 0,-4.33 1.3,-7.73 3.89,-10.23 2.6,-2.49 6.07,-3.74 10.41,-3.74 3,0 5.17,0.4 6.51,1.19l0 6.67c-1.64,-1.23 -3.47,-1.84 -5.49,-1.84 -2.26,0 -4.04,0.65 -5.36,1.98 -1.32,1.31 -1.98,3.13 -1.98,5.45 0,2.25 0.63,4.03 1.89,5.31 1.26,1.29 3,1.93 5.2,1.93 1.96,0 3.87,-0.62 5.74,-1.85l0 6.33zm9.13 -28.58c-1.33,0 -2.41,-0.39 -3.26,-1.18 -0.84,-0.79 -1.27,-1.75 -1.27,-2.89 0,-1.18 0.43,-2.14 1.27,-2.89 0.85,-0.75 1.93,-1.12 3.26,-1.12 1.34,0 2.43,0.37 3.27,1.12 0.83,0.75 1.26,1.71 1.26,2.89 0,1.18 -0.43,2.17 -1.26,2.93 -0.84,0.76 -1.93,1.14 -3.27,1.14zm3.87 29.49l-7.85 0 0 -25.46 7.85 0 0 25.46zm22.01 -0.29c-1.16,0.61 -2.91,0.91 -5.24,0.91 -5.54,0 -8.31,-2.87 -8.31,-8.62l0 -11.66 -4.13 0 0 -5.8 4.13 0 0 -5.49 7.83 -2.24 0 7.73 5.72 0 0 5.8 -5.72 0 0 10.29c0,2.65 1.05,3.98 3.16,3.98 0.83,0 1.69,-0.24 2.56,-0.73l0 5.83zm28.62 0.29l-7.83 0 0 -3.87 -0.12 0c-1.94,2.99 -4.53,4.49 -7.78,4.49 -5.91,0 -8.86,-3.57 -8.86,-10.72l0 -15.36 7.84 0 0 14.67c0,3.6 1.42,5.4 4.28,5.4 1.4,0 2.53,-0.5 3.37,-1.48 0.85,-0.99 1.27,-2.33 1.27,-4.02l0 -14.57 7.83 0 0 25.46zm31.53 0l-7.85 0 0 -3.5 -0.1 0c-1.79,2.75 -4.42,4.12 -7.88,4.12 -3.19,0 -5.75,-1.12 -7.68,-3.37 -1.95,-2.24 -2.92,-5.38 -2.92,-9.41 0,-4.21 1.07,-7.58 3.21,-10.12 2.14,-2.53 4.94,-3.8 8.41,-3.8 3.28,0 5.56,1.17 6.86,3.53l0.1 0 0 -15.14 7.85 0 0 37.69zm-7.7 -12.38l0 -1.92c0,-1.65 -0.49,-3.03 -1.45,-4.12 -0.95,-1.1 -2.21,-1.64 -3.75,-1.64 -1.74,0 -3.1,0.68 -4.08,2.04 -0.98,1.38 -1.47,3.26 -1.47,5.64 0,2.24 0.48,3.96 1.42,5.17 0.95,1.21 2.26,1.82 3.93,1.82 1.6,0 2.89,-0.64 3.9,-1.91 1,-1.29 1.5,-2.97 1.5,-5.08z"/>
     <path class="fil4" d="M1817.7 375.62l-9.22 0 -5.55 -9.18c-0.41,-0.69 -0.81,-1.31 -1.19,-1.86 -0.39,-0.55 -0.77,-1.01 -1.16,-1.4 -0.39,-0.39 -0.79,-0.69 -1.22,-0.9 -0.42,-0.21 -0.88,-0.31 -1.37,-0.31l-2.17 0 0 13.65 -8.04 0 0 -35.66 12.74 0c8.65,0 12.98,3.24 12.98,9.69 0,1.25 -0.19,2.4 -0.58,3.45 -0.38,1.05 -0.91,2 -1.61,2.85 -0.7,0.84 -1.54,1.57 -2.52,2.18 -0.99,0.62 -2.09,1.1 -3.3,1.45l0 0.1c0.53,0.17 1.04,0.43 1.54,0.8 0.5,0.38 0.98,0.81 1.45,1.31 0.46,0.5 0.9,1.04 1.33,1.61 0.42,0.56 0.8,1.13 1.15,1.68l6.74 10.54zm-21.88 -29.64l0 9.92 3.48 0c1.72,0 3.11,-0.5 4.15,-1.49 1.06,-1.01 1.6,-2.27 1.6,-3.75 0,-3.13 -1.87,-4.68 -5.61,-4.68l-3.62 0zm46.05 19.15l-16.61 0c0.27,3.69 2.6,5.54 6.99,5.54 2.8,0 5.26,-0.66 7.38,-1.99l0 5.67c-2.35,1.26 -5.4,1.89 -9.17,1.89 -4.11,0 -7.3,-1.14 -9.58,-3.42 -2.26,-2.28 -3.4,-5.46 -3.4,-9.53 0,-4.23 1.22,-7.58 3.68,-10.05 2.46,-2.47 5.47,-3.7 9.05,-3.7 3.71,0 6.59,1.1 8.62,3.3 2.03,2.2 3.04,5.2 3.04,8.98l0 3.31zm-7.28 -4.83c0,-3.64 -1.48,-5.47 -4.43,-5.47 -1.25,0 -2.35,0.52 -3.27,1.56 -0.92,1.05 -1.47,2.35 -1.68,3.91l9.38 0zm10.29 14.65l0 -6.37c1.3,0.78 2.59,1.36 3.87,1.74 1.28,0.38 2.49,0.57 3.64,0.57 1.39,0 2.49,-0.19 3.29,-0.57 0.81,-0.38 1.21,-0.96 1.21,-1.74 0,-0.5 -0.18,-0.91 -0.55,-1.25 -0.36,-0.33 -0.83,-0.62 -1.4,-0.86 -0.57,-0.25 -1.2,-0.48 -1.88,-0.67 -0.68,-0.21 -1.33,-0.43 -1.96,-0.67 -1.01,-0.38 -1.9,-0.8 -2.67,-1.23 -0.78,-0.45 -1.42,-0.95 -1.95,-1.54 -0.51,-0.58 -0.91,-1.25 -1.19,-2.01 -0.27,-0.77 -0.41,-1.66 -0.41,-2.71 0,-1.43 0.31,-2.66 0.93,-3.68 0.62,-1.03 1.45,-1.87 2.49,-2.52 1.03,-0.66 2.22,-1.14 3.56,-1.45 1.33,-0.3 2.72,-0.45 4.16,-0.45 1.13,0 2.27,0.08 3.43,0.26 1.16,0.17 2.31,0.42 3.44,0.75l0 6.07c-1,-0.58 -2.06,-1.02 -3.2,-1.3 -1.14,-0.29 -2.25,-0.44 -3.35,-0.44 -0.51,0 -1,0.05 -1.45,0.14 -0.45,0.08 -0.86,0.22 -1.21,0.4 -0.35,0.17 -0.62,0.39 -0.81,0.67 -0.21,0.27 -0.3,0.58 -0.3,0.93 0,0.46 0.14,0.86 0.44,1.19 0.31,0.33 0.69,0.62 1.17,0.86 0.49,0.24 1.02,0.46 1.6,0.64 0.59,0.2 1.18,0.39 1.76,0.59 1.05,0.36 1.99,0.76 2.84,1.19 0.84,0.44 1.57,0.94 2.17,1.52 0.6,0.58 1.07,1.26 1.39,2.04 0.32,0.78 0.49,1.71 0.49,2.78 0,1.52 -0.33,2.81 -0.99,3.87 -0.65,1.08 -1.52,1.94 -2.6,2.61 -1.09,0.67 -2.35,1.16 -3.77,1.47 -1.41,0.3 -2.88,0.46 -4.41,0.46 -2.8,0 -5.39,-0.44 -7.78,-1.29zm32.03 -2.29l-0.1 0 0 14.67 -7.85 0 0 -37.17 7.85 0 0 3.82 0.1 0c1.94,-2.96 4.67,-4.44 8.18,-4.44 3.3,0 5.85,1.12 7.65,3.39 1.8,2.26 2.7,5.34 2.7,9.24 0,4.24 -1.05,7.64 -3.15,10.21 -2.1,2.58 -4.89,3.86 -8.37,3.86 -3.06,0 -5.4,-1.19 -7.01,-3.58zm-0.22 -10.44l0 2.03c0,1.76 0.46,3.19 1.39,4.31 0.93,1.11 2.15,1.66 3.66,1.66 1.78,0 3.17,-0.69 4.16,-2.07 0.98,-1.38 1.48,-3.35 1.48,-5.88 0,-4.48 -1.74,-6.72 -5.22,-6.72 -1.61,0 -2.92,0.61 -3.94,1.83 -1.02,1.22 -1.53,2.83 -1.53,4.84zm48.04 13.4l-7.83 0 0 -3.88 -0.12 0c-1.95,3 -4.54,4.5 -7.79,4.5 -5.9,0 -8.85,-3.58 -8.85,-10.72l0 -15.36 7.84 0 0 14.66c0,3.6 1.42,5.4 4.27,5.4 1.41,0 2.53,-0.49 3.38,-1.48 0.85,-0.98 1.27,-2.32 1.27,-4.01l0 -14.57 7.83 0 0 25.46zm29.49 -10.49l-16.61 0c0.27,3.69 2.6,5.54 6.99,5.54 2.8,0 5.26,-0.66 7.38,-1.99l0 5.67c-2.35,1.26 -5.4,1.89 -9.17,1.89 -4.11,0 -7.3,-1.14 -9.58,-3.42 -2.26,-2.28 -3.4,-5.46 -3.4,-9.53 0,-4.23 1.22,-7.58 3.68,-10.05 2.46,-2.47 5.47,-3.7 9.05,-3.7 3.71,0 6.59,1.1 8.62,3.3 2.03,2.2 3.04,5.2 3.04,8.98l0 3.31zm-7.28 -4.83c0,-3.64 -1.48,-5.47 -4.43,-5.47 -1.25,0 -2.35,0.52 -3.27,1.56 -0.92,1.05 -1.47,2.35 -1.68,3.91l9.38 0zm10.29 14.65l0 -6.37c1.3,0.78 2.59,1.36 3.87,1.74 1.28,0.38 2.49,0.57 3.64,0.57 1.39,0 2.49,-0.19 3.29,-0.57 0.81,-0.38 1.21,-0.96 1.21,-1.74 0,-0.5 -0.18,-0.91 -0.55,-1.25 -0.36,-0.33 -0.83,-0.62 -1.4,-0.86 -0.57,-0.25 -1.2,-0.48 -1.88,-0.67 -0.68,-0.21 -1.33,-0.43 -1.96,-0.67 -1.01,-0.38 -1.9,-0.8 -2.67,-1.23 -0.78,-0.45 -1.42,-0.95 -1.95,-1.54 -0.51,-0.58 -0.91,-1.25 -1.19,-2.01 -0.27,-0.77 -0.41,-1.66 -0.41,-2.71 0,-1.43 0.31,-2.66 0.93,-3.68 0.62,-1.03 1.45,-1.87 2.49,-2.52 1.03,-0.66 2.22,-1.14 3.56,-1.45 1.33,-0.3 2.72,-0.45 4.16,-0.45 1.13,0 2.27,0.08 3.43,0.26 1.16,0.17 2.31,0.42 3.44,0.75l0 6.07c-1,-0.58 -2.06,-1.02 -3.2,-1.3 -1.14,-0.29 -2.25,-0.44 -3.35,-0.44 -0.51,0 -1,0.05 -1.45,0.14 -0.45,0.08 -0.86,0.22 -1.21,0.4 -0.35,0.17 -0.62,0.39 -0.81,0.67 -0.21,0.27 -0.3,0.58 -0.3,0.93 0,0.46 0.14,0.86 0.44,1.19 0.31,0.33 0.69,0.62 1.17,0.86 0.49,0.24 1.02,0.46 1.6,0.64 0.59,0.2 1.18,0.39 1.76,0.59 1.05,0.36 1.99,0.76 2.84,1.19 0.84,0.44 1.57,0.94 2.17,1.52 0.6,0.58 1.07,1.26 1.39,2.04 0.32,0.78 0.49,1.71 0.49,2.78 0,1.52 -0.33,2.81 -0.99,3.87 -0.65,1.08 -1.52,1.94 -2.6,2.61 -1.09,0.67 -2.35,1.16 -3.77,1.47 -1.41,0.3 -2.88,0.46 -4.41,0.46 -2.8,0 -5.39,-0.44 -7.78,-1.29zm39.47 0.37c-1.17,0.61 -2.92,0.92 -5.25,0.92 -5.53,0 -8.31,-2.88 -8.31,-8.63l0 -11.66 -4.12 0 0 -5.79 4.12 0 0 -5.5 7.84 -2.24 0 7.74 5.72 0 0 5.79 -5.72 0 0 10.3c0,2.65 1.05,3.97 3.15,3.97 0.83,0 1.69,-0.24 2.57,-0.72l0 5.82zm25.61 0.3l-7.43 0 0 -3.66 -0.11 0c-1.7,2.85 -4.23,4.28 -7.58,4.28 -2.47,0 -4.42,-0.7 -5.83,-2.1 -1.42,-1.4 -2.13,-3.27 -2.13,-5.61 0,-4.94 2.93,-7.79 8.78,-8.55l6.92 -0.92c0,-2.78 -1.51,-4.18 -4.54,-4.18 -3.03,0 -5.91,0.9 -8.64,2.71l0 -5.92c1.09,-0.56 2.58,-1.06 4.49,-1.49 1.89,-0.43 3.62,-0.64 5.18,-0.64 7.26,0 10.89,3.62 10.89,10.86l0 15.22zm-7.38 -10.35l0 -1.71 -4.63 0.59c-2.55,0.33 -3.83,1.49 -3.83,3.46 0,0.9 0.31,1.63 0.93,2.2 0.63,0.57 1.47,0.86 2.53,0.86 1.47,0 2.67,-0.51 3.61,-1.53 0.92,-1.02 1.39,-2.31 1.39,-3.87z"/>
     <path class="fil5" d="M1803.15 172.15l0 -7.96c1.44,1.22 3.01,2.12 4.7,2.73 1.69,0.6 3.39,0.9 5.12,0.9 1.02,0 1.9,-0.09 2.65,-0.27 0.75,-0.18 1.38,-0.43 1.89,-0.76 0.51,-0.32 0.88,-0.71 1.13,-1.14 0.25,-0.44 0.37,-0.92 0.37,-1.43 0,-0.7 -0.19,-1.32 -0.59,-1.86 -0.4,-0.55 -0.95,-1.06 -1.63,-1.52 -0.69,-0.47 -1.51,-0.92 -2.46,-1.34 -0.94,-0.43 -1.96,-0.88 -3.05,-1.33 -2.79,-1.15 -4.87,-2.57 -6.23,-4.25 -1.37,-1.67 -2.05,-3.69 -2.05,-6.06 0,-1.86 0.37,-3.45 1.12,-4.79 0.74,-1.34 1.76,-2.43 3.04,-3.3 1.29,-0.85 2.78,-1.49 4.47,-1.9 1.68,-0.41 3.48,-0.61 5.37,-0.61 1.86,0 3.5,0.12 4.94,0.34 1.42,0.22 2.75,0.57 3.96,1.04l0 7.43c-0.6,-0.42 -1.25,-0.78 -1.95,-1.09 -0.7,-0.32 -1.43,-0.58 -2.18,-0.79 -0.74,-0.21 -1.49,-0.36 -2.22,-0.46 -0.74,-0.09 -1.44,-0.15 -2.1,-0.15 -0.92,0 -1.74,0.09 -2.49,0.26 -0.75,0.18 -1.37,0.42 -1.89,0.74 -0.51,0.31 -0.91,0.68 -1.2,1.13 -0.28,0.44 -0.41,0.93 -0.41,1.47 0,0.61 0.15,1.14 0.46,1.61 0.32,0.47 0.77,0.92 1.35,1.35 0.58,0.41 1.28,0.83 2.12,1.23 0.82,0.41 1.76,0.83 2.81,1.26 1.42,0.6 2.7,1.23 3.83,1.9 1.14,0.67 2.12,1.44 2.92,2.28 0.82,0.85 1.44,1.81 1.87,2.9 0.43,1.08 0.64,2.34 0.64,3.79 0,1.99 -0.37,3.65 -1.12,5.01 -0.76,1.35 -1.78,2.45 -3.08,3.28 -1.29,0.84 -2.79,1.44 -4.5,1.81 -1.73,0.36 -3.54,0.54 -5.45,0.54 -1.95,0 -3.81,-0.16 -5.57,-0.49 -1.77,-0.33 -3.3,-0.83 -4.59,-1.5zm41.54 1.99c-4.24,0 -7.58,-1.19 -10,-3.57 -2.43,-2.37 -3.64,-5.61 -3.64,-9.68 0,-4.21 1.25,-7.51 3.77,-9.89 2.52,-2.37 5.94,-3.56 10.22,-3.56 4.23,0 7.55,1.19 9.95,3.56 2.4,2.38 3.61,5.53 3.61,9.44 0,4.23 -1.24,7.57 -3.72,10.02 -2.48,2.46 -5.87,3.68 -10.19,3.68zm0.21 -20.69c-1.86,0 -3.3,0.64 -4.33,1.91 -1.03,1.29 -1.55,3.09 -1.55,5.43 0,4.89 1.98,7.33 5.93,7.33 3.76,0 5.64,-2.51 5.64,-7.53 0,-4.76 -1.9,-7.14 -5.69,-7.14zm26.65 20.07l-7.85 0 0 -37.69 7.85 0 0 37.69zm10.59 -29.5c-1.32,0 -2.41,-0.38 -3.25,-1.18 -0.85,-0.78 -1.27,-1.74 -1.27,-2.89 0,-1.18 0.42,-2.14 1.27,-2.89 0.84,-0.74 1.93,-1.12 3.25,-1.12 1.35,0 2.44,0.38 3.28,1.12 0.83,0.75 1.25,1.71 1.25,2.89 0,1.19 -0.42,2.17 -1.25,2.94 -0.84,0.75 -1.93,1.13 -3.28,1.13zm3.88 29.5l-7.85 0 0 -25.46 7.85 0 0 25.46zm25.91 -0.92c-1.77,1.03 -4.33,1.54 -7.68,1.54 -3.91,0 -7.08,-1.18 -9.5,-3.56 -2.42,-2.36 -3.63,-5.42 -3.63,-9.17 0,-4.33 1.3,-7.73 3.89,-10.23 2.6,-2.5 6.07,-3.74 10.41,-3.74 3,0 5.17,0.4 6.51,1.19l0 6.67c-1.64,-1.23 -3.47,-1.85 -5.49,-1.85 -2.26,0 -4.04,0.66 -5.36,1.98 -1.32,1.32 -1.98,3.13 -1.98,5.46 0,2.25 0.63,4.02 1.89,5.3 1.26,1.3 3,1.93 5.2,1.93 1.96,0 3.87,-0.61 5.74,-1.84l0 6.32zm9.13 -28.58c-1.33,0 -2.41,-0.38 -3.26,-1.18 -0.84,-0.78 -1.27,-1.74 -1.27,-2.89 0,-1.18 0.43,-2.14 1.27,-2.89 0.85,-0.74 1.93,-1.12 3.26,-1.12 1.34,0 2.43,0.38 3.27,1.12 0.83,0.75 1.26,1.71 1.26,2.89 0,1.19 -0.43,2.17 -1.26,2.94 -0.84,0.75 -1.93,1.13 -3.27,1.13zm3.87 29.5l-7.85 0 0 -25.46 7.85 0 0 25.46zm22.01 -0.3c-1.16,0.61 -2.91,0.92 -5.24,0.92 -5.54,0 -8.31,-2.88 -8.31,-8.62l0 -11.67 -4.13 0 0 -5.79 4.13 0 0 -5.49 7.83 -2.25 0 7.74 5.72 0 0 5.79 -5.72 0 0 10.3c0,2.65 1.05,3.97 3.16,3.97 0.83,0 1.69,-0.24 2.56,-0.72l0 5.82zm28.62 0.3l-7.83 0 0 -3.88 -0.12 0c-1.94,3 -4.53,4.5 -7.78,4.5 -5.91,0 -8.86,-3.57 -8.86,-10.72l0 -15.36 7.84 0 0 14.66c0,3.6 1.42,5.4 4.28,5.4 1.4,0 2.53,-0.49 3.37,-1.48 0.85,-0.98 1.27,-2.32 1.27,-4.01l0 -14.57 7.83 0 0 25.46zm31.53 0l-7.85 0 0 -3.51 -0.1 0c-1.79,2.75 -4.42,4.13 -7.88,4.13 -3.19,0 -5.75,-1.12 -7.68,-3.37 -1.95,-2.24 -2.92,-5.38 -2.92,-9.41 0,-4.21 1.07,-7.58 3.21,-10.12 2.14,-2.54 4.94,-3.8 8.41,-3.8 3.28,0 5.56,1.17 6.86,3.53l0.1 0 0 -15.14 7.85 0 0 37.69zm-7.7 -12.38l0 -1.92c0,-1.66 -0.49,-3.03 -1.45,-4.13 -0.95,-1.09 -2.21,-1.64 -3.75,-1.64 -1.74,0 -3.1,0.68 -4.08,2.05 -0.98,1.38 -1.47,3.25 -1.47,5.64 0,2.24 0.48,3.96 1.42,5.17 0.95,1.21 2.26,1.81 3.93,1.81 1.6,0 2.89,-0.63 3.9,-1.91 1,-1.28 1.5,-2.97 1.5,-5.07z"/>
     <path class="fil4" d="M1817.7 989.48l-9.22 0 -5.55 -9.18c-0.41,-0.69 -0.81,-1.31 -1.19,-1.86 -0.39,-0.55 -0.77,-1.01 -1.16,-1.4 -0.39,-0.39 -0.79,-0.69 -1.22,-0.9 -0.42,-0.21 -0.88,-0.31 -1.37,-0.31l-2.17 0 0 13.65 -8.04 0 0 -35.66 12.74 0c8.65,0 12.98,3.24 12.98,9.7 0,1.24 -0.19,2.39 -0.58,3.44 -0.38,1.05 -0.91,2 -1.61,2.85 -0.7,0.84 -1.54,1.57 -2.52,2.18 -0.99,0.62 -2.09,1.1 -3.3,1.45l0 0.1c0.53,0.17 1.04,0.43 1.54,0.81 0.5,0.37 0.98,0.8 1.45,1.3 0.46,0.5 0.9,1.04 1.33,1.61 0.42,0.56 0.8,1.13 1.15,1.68l6.74 10.54zm-21.88 -29.64l0 9.92 3.48 0c1.72,0 3.11,-0.5 4.15,-1.49 1.06,-1.01 1.6,-2.27 1.6,-3.75 0,-3.13 -1.87,-4.68 -5.61,-4.68l-3.62 0zm46.05 19.15l-16.61 0c0.27,3.69 2.6,5.54 6.99,5.54 2.8,0 5.26,-0.66 7.38,-1.99l0 5.67c-2.35,1.26 -5.4,1.89 -9.17,1.89 -4.11,0 -7.3,-1.14 -9.58,-3.42 -2.26,-2.28 -3.4,-5.46 -3.4,-9.53 0,-4.23 1.22,-7.58 3.68,-10.05 2.46,-2.47 5.47,-3.7 9.05,-3.7 3.71,0 6.59,1.1 8.62,3.3 2.03,2.21 3.04,5.2 3.04,8.98l0 3.31zm-7.28 -4.83c0,-3.64 -1.48,-5.47 -4.43,-5.47 -1.25,0 -2.35,0.52 -3.27,1.56 -0.92,1.05 -1.47,2.36 -1.68,3.91l9.38 0zm10.29 14.65l0 -6.37c1.3,0.78 2.59,1.36 3.87,1.74 1.28,0.38 2.49,0.57 3.64,0.57 1.39,0 2.49,-0.19 3.29,-0.57 0.81,-0.38 1.21,-0.96 1.21,-1.74 0,-0.5 -0.18,-0.91 -0.55,-1.25 -0.36,-0.33 -0.83,-0.61 -1.4,-0.86 -0.57,-0.25 -1.2,-0.48 -1.88,-0.67 -0.68,-0.21 -1.33,-0.43 -1.96,-0.67 -1.01,-0.38 -1.9,-0.8 -2.67,-1.23 -0.78,-0.44 -1.42,-0.95 -1.95,-1.54 -0.51,-0.58 -0.91,-1.25 -1.19,-2.01 -0.27,-0.76 -0.41,-1.66 -0.41,-2.71 0,-1.42 0.31,-2.66 0.93,-3.68 0.62,-1.03 1.45,-1.87 2.49,-2.52 1.03,-0.66 2.22,-1.14 3.56,-1.45 1.33,-0.3 2.72,-0.45 4.16,-0.45 1.13,0 2.27,0.08 3.43,0.26 1.16,0.17 2.31,0.42 3.44,0.75l0 6.07c-1,-0.58 -2.06,-1.02 -3.2,-1.3 -1.14,-0.29 -2.25,-0.44 -3.35,-0.44 -0.51,0 -1,0.05 -1.45,0.14 -0.45,0.08 -0.86,0.22 -1.21,0.4 -0.35,0.17 -0.62,0.39 -0.81,0.67 -0.21,0.27 -0.3,0.58 -0.3,0.93 0,0.46 0.14,0.86 0.44,1.19 0.31,0.33 0.69,0.62 1.17,0.86 0.49,0.24 1.02,0.46 1.6,0.64 0.59,0.2 1.18,0.39 1.76,0.59 1.05,0.36 1.99,0.76 2.84,1.2 0.84,0.43 1.57,0.93 2.17,1.52 0.6,0.57 1.07,1.25 1.39,2.03 0.32,0.78 0.49,1.71 0.49,2.79 0,1.51 -0.33,2.8 -0.99,3.87 -0.65,1.07 -1.52,1.93 -2.6,2.6 -1.09,0.67 -2.35,1.16 -3.77,1.47 -1.41,0.31 -2.88,0.46 -4.41,0.46 -2.8,0 -5.39,-0.43 -7.78,-1.29zm32.03 -2.29l-0.1 0 0 14.67 -7.85 0 0 -37.17 7.85 0 0 3.82 0.1 0c1.94,-2.96 4.67,-4.44 8.18,-4.44 3.3,0 5.85,1.13 7.65,3.39 1.8,2.26 2.7,5.34 2.7,9.24 0,4.24 -1.05,7.64 -3.15,10.21 -2.1,2.58 -4.89,3.86 -8.37,3.86 -3.06,0 -5.4,-1.19 -7.01,-3.58zm-0.22 -10.44l0 2.03c0,1.76 0.46,3.2 1.39,4.31 0.93,1.11 2.15,1.66 3.66,1.66 1.78,0 3.17,-0.69 4.16,-2.07 0.98,-1.38 1.48,-3.34 1.48,-5.88 0,-4.48 -1.74,-6.72 -5.22,-6.72 -1.61,0 -2.92,0.61 -3.94,1.83 -1.02,1.22 -1.53,2.83 -1.53,4.84zm48.04 13.4l-7.83 0 0 -3.88 -0.12 0c-1.95,3 -4.54,4.5 -7.79,4.5 -5.9,0 -8.85,-3.58 -8.85,-10.72l0 -15.36 7.84 0 0 14.66c0,3.6 1.42,5.4 4.27,5.4 1.41,0 2.53,-0.49 3.38,-1.48 0.85,-0.98 1.27,-2.32 1.27,-4.01l0 -14.57 7.83 0 0 25.46zm29.49 -10.49l-16.61 0c0.27,3.69 2.6,5.54 6.99,5.54 2.8,0 5.26,-0.66 7.38,-1.99l0 5.67c-2.35,1.26 -5.4,1.89 -9.17,1.89 -4.11,0 -7.3,-1.14 -9.58,-3.42 -2.26,-2.28 -3.4,-5.46 -3.4,-9.53 0,-4.23 1.22,-7.58 3.68,-10.05 2.46,-2.47 5.47,-3.7 9.05,-3.7 3.71,0 6.59,1.1 8.62,3.3 2.03,2.21 3.04,5.2 3.04,8.98l0 3.31zm-7.28 -4.83c0,-3.64 -1.48,-5.47 -4.43,-5.47 -1.25,0 -2.35,0.52 -3.27,1.56 -0.92,1.05 -1.47,2.36 -1.68,3.91l9.38 0zm10.29 14.65l0 -6.37c1.3,0.78 2.59,1.36 3.87,1.74 1.28,0.38 2.49,0.57 3.64,0.57 1.39,0 2.49,-0.19 3.29,-0.57 0.81,-0.38 1.21,-0.96 1.21,-1.74 0,-0.5 -0.18,-0.91 -0.55,-1.25 -0.36,-0.33 -0.83,-0.61 -1.4,-0.86 -0.57,-0.25 -1.2,-0.48 -1.88,-0.67 -0.68,-0.21 -1.33,-0.43 -1.96,-0.67 -1.01,-0.38 -1.9,-0.8 -2.67,-1.23 -0.78,-0.44 -1.42,-0.95 -1.95,-1.54 -0.51,-0.58 -0.91,-1.25 -1.19,-2.01 -0.27,-0.76 -0.41,-1.66 -0.41,-2.71 0,-1.42 0.31,-2.66 0.93,-3.68 0.62,-1.03 1.45,-1.87 2.49,-2.52 1.03,-0.66 2.22,-1.14 3.56,-1.45 1.33,-0.3 2.72,-0.45 4.16,-0.45 1.13,0 2.27,0.08 3.43,0.26 1.16,0.17 2.31,0.42 3.44,0.75l0 6.07c-1,-0.58 -2.06,-1.02 -3.2,-1.3 -1.14,-0.29 -2.25,-0.44 -3.35,-0.44 -0.51,0 -1,0.05 -1.45,0.14 -0.45,0.08 -0.86,0.22 -1.21,0.4 -0.35,0.17 -0.62,0.39 -0.81,0.67 -0.21,0.27 -0.3,0.58 -0.3,0.93 0,0.46 0.14,0.86 0.44,1.19 0.31,0.33 0.69,0.62 1.17,0.86 0.49,0.24 1.02,0.46 1.6,0.64 0.59,0.2 1.18,0.39 1.76,0.59 1.05,0.36 1.99,0.76 2.84,1.2 0.84,0.43 1.57,0.93 2.17,1.52 0.6,0.57 1.07,1.25 1.39,2.03 0.32,0.78 0.49,1.71 0.49,2.79 0,1.51 -0.33,2.8 -0.99,3.87 -0.65,1.07 -1.52,1.93 -2.6,2.6 -1.09,0.67 -2.35,1.16 -3.77,1.47 -1.41,0.31 -2.88,0.46 -4.41,0.46 -2.8,0 -5.39,-0.43 -7.78,-1.29zm39.47 0.37c-1.17,0.61 -2.92,0.92 -5.25,0.92 -5.53,0 -8.31,-2.88 -8.31,-8.63l0 -11.66 -4.12 0 0 -5.79 4.12 0 0 -5.5 7.84 -2.24 0 7.74 5.72 0 0 5.79 -5.72 0 0 10.3c0,2.65 1.05,3.97 3.15,3.97 0.83,0 1.69,-0.24 2.57,-0.72l0 5.82zm25.61 0.3l-7.43 0 0 -3.66 -0.11 0c-1.7,2.85 -4.23,4.28 -7.58,4.28 -2.47,0 -4.42,-0.7 -5.83,-2.1 -1.42,-1.4 -2.13,-3.27 -2.13,-5.61 0,-4.94 2.93,-7.79 8.78,-8.55l6.92 -0.92c0,-2.78 -1.51,-4.18 -4.54,-4.18 -3.03,0 -5.91,0.9 -8.64,2.71l0 -5.91c1.09,-0.57 2.58,-1.07 4.49,-1.5 1.89,-0.43 3.62,-0.64 5.18,-0.64 7.26,0 10.89,3.62 10.89,10.86l0 15.22zm-7.38 -10.35l0 -1.71 -4.63 0.59c-2.55,0.33 -3.83,1.49 -3.83,3.46 0,0.9 0.31,1.63 0.93,2.2 0.63,0.57 1.47,0.86 2.53,0.86 1.47,0 2.67,-0.51 3.61,-1.53 0.92,-1.02 1.39,-2.31 1.39,-3.87z"/>
     <path class="fil5" d="M1803.15 1216.8l0 -7.96c1.44,1.21 3.01,2.12 4.7,2.72 1.69,0.6 3.39,0.91 5.12,0.91 1.02,0 1.9,-0.09 2.65,-0.27 0.75,-0.19 1.38,-0.43 1.89,-0.77 0.51,-0.32 0.88,-0.7 1.13,-1.13 0.25,-0.44 0.37,-0.92 0.37,-1.44 0,-0.69 -0.19,-1.31 -0.59,-1.86 -0.4,-0.55 -0.95,-1.06 -1.63,-1.52 -0.69,-0.46 -1.51,-0.91 -2.46,-1.34 -0.94,-0.43 -1.96,-0.87 -3.05,-1.32 -2.79,-1.15 -4.87,-2.57 -6.23,-4.25 -1.37,-1.68 -2.05,-3.7 -2.05,-6.06 0,-1.86 0.37,-3.46 1.12,-4.79 0.74,-1.34 1.76,-2.44 3.04,-3.3 1.29,-0.86 2.78,-1.5 4.47,-1.9 1.68,-0.41 3.48,-0.61 5.37,-0.61 1.86,0 3.5,0.11 4.94,0.34 1.42,0.22 2.75,0.56 3.96,1.03l0 7.44c-0.6,-0.42 -1.25,-0.78 -1.95,-1.1 -0.7,-0.31 -1.43,-0.58 -2.18,-0.79 -0.74,-0.2 -1.49,-0.35 -2.22,-0.46 -0.74,-0.09 -1.44,-0.14 -2.1,-0.14 -0.92,0 -1.74,0.08 -2.49,0.25 -0.75,0.18 -1.37,0.43 -1.89,0.74 -0.51,0.32 -0.91,0.69 -1.2,1.13 -0.28,0.44 -0.41,0.93 -0.41,1.48 0,0.6 0.15,1.14 0.46,1.6 0.32,0.48 0.77,0.93 1.35,1.35 0.58,0.42 1.28,0.83 2.12,1.24 0.82,0.41 1.76,0.82 2.81,1.26 1.42,0.59 2.7,1.23 3.83,1.9 1.14,0.67 2.12,1.43 2.92,2.27 0.82,0.85 1.44,1.82 1.87,2.91 0.43,1.07 0.64,2.34 0.64,3.78 0,2 -0.37,3.66 -1.12,5.02 -0.76,1.35 -1.78,2.44 -3.08,3.27 -1.29,0.84 -2.79,1.45 -4.5,1.81 -1.73,0.37 -3.54,0.55 -5.45,0.55 -1.95,0 -3.81,-0.17 -5.57,-0.5 -1.77,-0.33 -3.3,-0.83 -4.59,-1.49zm41.54 1.99c-4.24,0 -7.58,-1.19 -10,-3.57 -2.43,-2.38 -3.64,-5.61 -3.64,-9.68 0,-4.21 1.25,-7.52 3.77,-9.89 2.52,-2.38 5.94,-3.57 10.22,-3.57 4.23,0 7.55,1.19 9.95,3.57 2.4,2.37 3.61,5.52 3.61,9.44 0,4.22 -1.24,7.57 -3.72,10.02 -2.48,2.45 -5.87,3.68 -10.19,3.68zm0.21 -20.69c-1.86,0 -3.3,0.64 -4.33,1.91 -1.03,1.28 -1.55,3.09 -1.55,5.42 0,4.89 1.98,7.34 5.93,7.34 3.76,0 5.64,-2.52 5.64,-7.53 0,-4.76 -1.9,-7.14 -5.69,-7.14zm26.65 20.07l-7.85 0 0 -37.7 7.85 0 0 37.7zm10.59 -29.5c-1.32,0 -2.41,-0.39 -3.25,-1.18 -0.85,-0.79 -1.27,-1.75 -1.27,-2.89 0,-1.18 0.42,-2.14 1.27,-2.89 0.84,-0.75 1.93,-1.12 3.25,-1.12 1.35,0 2.44,0.37 3.28,1.12 0.83,0.75 1.25,1.71 1.25,2.89 0,1.19 -0.42,2.17 -1.25,2.93 -0.84,0.76 -1.93,1.14 -3.28,1.14zm3.88 29.5l-7.85 0 0 -25.47 7.85 0 0 25.47zm25.91 -0.92c-1.77,1.02 -4.33,1.54 -7.68,1.54 -3.91,0 -7.08,-1.18 -9.5,-3.56 -2.42,-2.37 -3.63,-5.42 -3.63,-9.18 0,-4.33 1.3,-7.73 3.89,-10.22 2.6,-2.5 6.07,-3.75 10.41,-3.75 3,0 5.17,0.4 6.51,1.19l0 6.67c-1.64,-1.23 -3.47,-1.84 -5.49,-1.84 -2.26,0 -4.04,0.65 -5.36,1.98 -1.32,1.31 -1.98,3.13 -1.98,5.46 0,2.24 0.63,4.02 1.89,5.3 1.26,1.29 3,1.93 5.2,1.93 1.96,0 3.87,-0.61 5.74,-1.85l0 6.33zm9.13 -28.58c-1.33,0 -2.41,-0.39 -3.26,-1.18 -0.84,-0.79 -1.27,-1.75 -1.27,-2.89 0,-1.18 0.43,-2.14 1.27,-2.89 0.85,-0.75 1.93,-1.12 3.26,-1.12 1.34,0 2.43,0.37 3.27,1.12 0.83,0.75 1.26,1.71 1.26,2.89 0,1.19 -0.43,2.17 -1.26,2.93 -0.84,0.76 -1.93,1.14 -3.27,1.14zm3.87 29.5l-7.85 0 0 -25.47 7.85 0 0 25.47zm22.01 -0.3c-1.16,0.61 -2.91,0.92 -5.24,0.92 -5.54,0 -8.31,-2.88 -8.31,-8.63l0 -11.66 -4.13 0 0 -5.8 4.13 0 0 -5.49 7.83 -2.24 0 7.73 5.72 0 0 5.8 -5.72 0 0 10.29c0,2.65 1.05,3.98 3.16,3.98 0.83,0 1.69,-0.24 2.56,-0.72l0 5.82zm28.62 0.3l-7.83 0 0 -3.88 -0.12 0c-1.94,2.99 -4.53,4.5 -7.78,4.5 -5.91,0 -8.86,-3.58 -8.86,-10.73l0 -15.36 7.84 0 0 14.67c0,3.6 1.42,5.4 4.28,5.4 1.4,0 2.53,-0.5 3.37,-1.48 0.85,-0.98 1.27,-2.33 1.27,-4.01l0 -14.58 7.83 0 0 25.47zm31.53 0l-7.85 0 0 -3.51 -0.1 0c-1.79,2.75 -4.42,4.13 -7.88,4.13 -3.19,0 -5.75,-1.13 -7.68,-3.37 -1.95,-2.25 -2.92,-5.39 -2.92,-9.42 0,-4.21 1.07,-7.58 3.21,-10.12 2.14,-2.53 4.94,-3.8 8.41,-3.8 3.28,0 5.56,1.17 6.86,3.53l0.1 0 0 -15.14 7.85 0 0 37.7zm-7.7 -12.39l0 -1.92c0,-1.65 -0.49,-3.03 -1.45,-4.12 -0.95,-1.1 -2.21,-1.64 -3.75,-1.64 -1.74,0 -3.1,0.68 -4.08,2.05 -0.98,1.37 -1.47,3.25 -1.47,5.63 0,2.24 0.48,3.96 1.42,5.17 0.95,1.21 2.26,1.82 3.93,1.82 1.6,0 2.89,-0.64 3.9,-1.91 1,-1.28 1.5,-2.97 1.5,-5.08z"/>
    </g>
    <g>
     <polygon class="fil8" points="2128.41,898.51 2440.76,898.51 2440.76,1210.87 2128.41,1210.87 "/>
     <polygon id="_1_1" class="fil2 str0" points="2128.41,898.51 2440.76,898.51 2440.76,1210.87 2128.41,1210.87 "/>
    </g>
    <path class="fil3" d="M2223.33 1070.27c-2.02,0.98 -4.67,1.47 -7.93,1.47 -4.25,0 -7.59,-1.25 -10.03,-3.75 -2.44,-2.5 -3.66,-5.83 -3.66,-10 0,-4.44 1.37,-8.03 4.11,-10.79 2.74,-2.76 6.3,-4.14 10.67,-4.14 2.7,0 4.99,0.34 6.84,1.03l0 6.01c-1.85,-1.11 -3.97,-1.66 -6.34,-1.66 -2.6,0 -4.71,0.82 -6.31,2.45 -1.59,1.64 -2.39,3.86 -2.39,6.66 0,2.68 0.75,4.82 2.26,6.41 1.51,1.59 3.54,2.39 6.09,2.39 2.44,0 4.67,-0.6 6.69,-1.79l0 5.71zm29.23 0.99l-6.81 0 -1.97 -6.17 -9.87 0 -1.95 6.17 -6.77 0 10.1 -27.73 7.4 0 9.87 27.73zm-10.22 -10.97l-2.97 -9.32c-0.22,-0.7 -0.38,-1.53 -0.47,-2.49l-0.15 0c-0.07,0.81 -0.23,1.61 -0.49,2.41l-3.01 9.4 7.09 0zm36.95 10.97l-7.18 0 -4.31 -7.14c-0.32,-0.54 -0.63,-1.02 -0.93,-1.45 -0.3,-0.42 -0.6,-0.79 -0.9,-1.09 -0.3,-0.3 -0.62,-0.53 -0.95,-0.7 -0.33,-0.16 -0.69,-0.24 -1.07,-0.24l-1.68 0 0 10.62 -6.25 0 0 -27.73 9.9 0c6.73,0 10.1,2.51 10.1,7.53 0,0.97 -0.15,1.87 -0.45,2.68 -0.3,0.82 -0.71,1.56 -1.26,2.22 -0.54,0.66 -1.19,1.22 -1.96,1.7 -0.77,0.48 -1.62,0.85 -2.56,1.12l0 0.08c0.41,0.13 0.81,0.34 1.2,0.63 0.39,0.29 0.76,0.62 1.12,1.01 0.36,0.39 0.71,0.81 1.04,1.25 0.33,0.44 0.62,0.88 0.89,1.31l5.25 8.2zm-17.02 -23.05l0 7.71 2.7 0c1.34,0 2.42,-0.39 3.23,-1.16 0.83,-0.78 1.24,-1.76 1.24,-2.92 0,-2.43 -1.45,-3.63 -4.35,-3.63l-2.82 0zm42.87 23.05l-7.17 0 -4.31 -7.14c-0.33,-0.54 -0.64,-1.02 -0.93,-1.45 -0.3,-0.42 -0.6,-0.79 -0.9,-1.09 -0.31,-0.3 -0.62,-0.53 -0.95,-0.7 -0.33,-0.16 -0.69,-0.24 -1.07,-0.24l-1.68 0 0 10.62 -6.26 0 0 -27.73 9.91 0c6.73,0 10.1,2.51 10.1,7.53 0,0.97 -0.16,1.87 -0.45,2.68 -0.3,0.82 -0.72,1.56 -1.26,2.22 -0.54,0.66 -1.19,1.22 -1.96,1.7 -0.77,0.48 -1.62,0.85 -2.57,1.12l0 0.08c0.42,0.13 0.82,0.34 1.21,0.63 0.39,0.29 0.75,0.62 1.12,1.01 0.36,0.39 0.7,0.81 1.03,1.25 0.33,0.44 0.63,0.88 0.9,1.31l5.24 8.2zm-17.01 -23.05l0 7.71 2.7 0c1.34,0 2.42,-0.39 3.23,-1.16 0.82,-0.78 1.24,-1.76 1.24,-2.92 0,-2.43 -1.45,-3.63 -4.36,-3.63l-2.81 0zm25.85 23.05l-6.25 0 0 -27.73 6.25 0 0 27.73zm25.78 -22.65l-7.91 0 0 22.65 -6.27 0 0 -22.65 -7.87 0 0 -5.08 22.05 0 0 5.08zm13.98 23.13c-3.97,0 -7.21,-1.29 -9.71,-3.88 -2.5,-2.58 -3.75,-5.95 -3.75,-10.1 0,-4.38 1.27,-7.93 3.81,-10.64 2.54,-2.7 5.9,-4.06 10.1,-4.06 3.96,0 7.16,1.3 9.6,3.89 2.44,2.59 3.66,6.01 3.66,10.25 0,4.35 -1.26,7.87 -3.8,10.54 -2.53,2.67 -5.83,4 -9.91,4zm0.27 -23.3c-2.19,0 -3.93,0.82 -5.22,2.47 -1.29,1.64 -1.93,3.81 -1.93,6.52 0,2.74 0.64,4.92 1.93,6.52 1.29,1.6 2.98,2.4 5.06,2.4 2.16,0 3.87,-0.78 5.13,-2.33 1.26,-1.56 1.9,-3.71 1.9,-6.47 0,-2.88 -0.62,-5.12 -1.84,-6.72 -1.22,-1.59 -2.9,-2.39 -5.03,-2.39z"/>
    <g>
     <polygon class="fil8" points="2128.41,143.74 2440.76,143.74 2440.76,456.1 2128.41,456.1 "/>
     <polygon id="_1_2" class="fil2 str0" points="2128.41,143.74 2440.76,143.74 2440.76,456.1 2128.41,456.1 "/>
    </g>
    <path class="fil3" d="M2186.05 303.36l0 9.55 -6.25 0 0 -27.73 9.79 0c6.99,0 10.48,2.94 10.48,8.84 0,2.78 -1,5.04 -3.01,6.76 -2.01,1.71 -4.68,2.58 -8.04,2.58l-2.97 0zm0 -13.39l0 8.65 2.45 0c3.33,0 4.99,-1.46 4.99,-4.37 0,-2.85 -1.66,-4.28 -4.99,-4.28l-2.45 0zm41.35 22.94l-7.18 0 -4.31 -7.13c-0.32,-0.55 -0.63,-1.03 -0.93,-1.46 -0.3,-0.42 -0.59,-0.78 -0.9,-1.09 -0.3,-0.3 -0.62,-0.53 -0.95,-0.7 -0.33,-0.15 -0.68,-0.23 -1.07,-0.23l-1.68 0 0 10.61 -6.25 0 0 -27.73 9.9 0c6.73,0 10.1,2.51 10.1,7.54 0,0.97 -0.15,1.86 -0.45,2.68 -0.3,0.82 -0.71,1.56 -1.25,2.22 -0.54,0.65 -1.2,1.22 -1.96,1.69 -0.78,0.48 -1.63,0.85 -2.57,1.12l0 0.09c0.41,0.13 0.81,0.33 1.2,0.62 0.39,0.29 0.76,0.63 1.12,1.02 0.37,0.39 0.71,0.8 1.04,1.25 0.33,0.44 0.63,0.87 0.9,1.3l5.24 8.2zm-17.02 -23.05l0 7.72 2.71 0c1.34,0 2.41,-0.39 3.22,-1.16 0.83,-0.79 1.25,-1.77 1.25,-2.92 0,-2.43 -1.46,-3.64 -4.36,-3.64l-2.82 0zm30.94 23.53c-3.97,0 -7.21,-1.29 -9.71,-3.87 -2.5,-2.59 -3.75,-5.96 -3.75,-10.11 0,-4.38 1.27,-7.93 3.81,-10.63 2.54,-2.71 5.9,-4.07 10.09,-4.07 3.96,0 7.17,1.3 9.61,3.89 2.44,2.59 3.66,6.01 3.66,10.25 0,4.36 -1.27,7.88 -3.8,10.54 -2.53,2.67 -5.84,4 -9.91,4zm0.27 -23.3c-2.19,0 -3.93,0.82 -5.22,2.47 -1.29,1.64 -1.93,3.82 -1.93,6.52 0,2.75 0.64,4.92 1.93,6.52 1.29,1.6 2.98,2.4 5.06,2.4 2.16,0 3.86,-0.78 5.13,-2.33 1.26,-1.56 1.9,-3.71 1.9,-6.47 0,-2.88 -0.62,-5.11 -1.84,-6.71 -1.23,-1.6 -2.9,-2.4 -5.03,-2.4zm18.04 22.82l0 -27.73 9.83 0c9.85,0 14.78,4.5 14.78,13.52 0,4.32 -1.35,7.76 -4.04,10.34 -2.68,2.58 -6.26,3.87 -10.74,3.87l-9.83 0zm6.26 -22.65l0 17.58 3.09 0c2.71,0 4.83,-0.81 6.37,-2.43 1.54,-1.63 2.31,-3.84 2.31,-6.64 0,-2.64 -0.76,-4.72 -2.29,-6.23 -1.53,-1.52 -3.67,-2.28 -6.43,-2.28l-3.05 0zm45.56 10.64c0,8.33 -3.88,12.49 -11.64,12.49 -7.53,0 -11.3,-4.06 -11.3,-12.2l0 -16.01 6.27 0 0 16.09c0,4.49 1.75,6.73 5.26,6.73 3.44,0 5.16,-2.17 5.16,-6.5l0 -16.32 6.25 0 0 15.72zm25.91 11.03c-2.02,0.97 -4.66,1.46 -7.92,1.46 -4.26,0 -7.6,-1.24 -10.04,-3.75 -2.44,-2.5 -3.66,-5.83 -3.66,-10 0,-4.43 1.37,-8.03 4.11,-10.79 2.74,-2.76 6.3,-4.14 10.67,-4.14 2.7,0 4.99,0.34 6.84,1.03l0 6.01c-1.85,-1.1 -3.96,-1.66 -6.34,-1.66 -2.6,0 -4.71,0.82 -6.3,2.46 -1.6,1.63 -2.4,3.85 -2.4,6.65 0,2.68 0.75,4.82 2.26,6.41 1.51,1.59 3.54,2.39 6.1,2.39 2.43,0 4.66,-0.59 6.68,-1.78l0 5.71zm24.32 -21.67l-7.92 0 0 22.65 -6.26 0 0 -22.65 -7.87 0 0 -5.08 22.05 0 0 5.08zm13.98 23.13c-3.98,0 -7.21,-1.29 -9.71,-3.87 -2.5,-2.59 -3.75,-5.96 -3.75,-10.11 0,-4.38 1.27,-7.93 3.81,-10.63 2.54,-2.71 5.9,-4.07 10.09,-4.07 3.96,0 7.16,1.3 9.61,3.89 2.44,2.59 3.66,6.01 3.66,10.25 0,4.36 -1.27,7.88 -3.8,10.54 -2.53,2.67 -5.84,4 -9.91,4zm0.27 -23.3c-2.19,0 -3.94,0.82 -5.22,2.47 -1.29,1.64 -1.94,3.82 -1.94,6.52 0,2.75 0.65,4.92 1.94,6.52 1.28,1.6 2.97,2.4 5.06,2.4 2.16,0 3.86,-0.78 5.13,-2.33 1.26,-1.56 1.89,-3.71 1.89,-6.47 0,-2.88 -0.61,-5.11 -1.83,-6.71 -1.23,-1.6 -2.91,-2.4 -5.03,-2.4z"/>
    <path class="fil9" d="M2195.54 390.7l0 -31.69 11.23 0c11.26,0 16.89,5.14 16.89,15.45 0,4.93 -1.54,8.87 -4.61,11.82 -3.07,2.95 -7.16,4.42 -12.28,4.42l-11.23 0zm7.14 -25.88l0 20.09 3.54 0c3.09,0 5.52,-0.93 7.28,-2.79 1.76,-1.85 2.64,-4.38 2.64,-7.58 0,-3.01 -0.87,-5.39 -2.62,-7.12 -1.75,-1.74 -4.19,-2.6 -7.34,-2.6l-3.5 0zm36.34 26.43c-3.78,0 -6.74,-1.05 -8.9,-3.17 -2.16,-2.11 -3.23,-4.98 -3.23,-8.6 0,-3.75 1.11,-6.68 3.35,-8.79 2.24,-2.11 5.28,-3.17 9.09,-3.17 3.75,0 6.7,1.06 8.84,3.17 2.13,2.11 3.2,4.91 3.2,8.39 0,3.75 -1.1,6.73 -3.3,8.91 -2.2,2.18 -5.22,3.26 -9.05,3.26zm0.18 -18.38c-1.65,0 -2.94,0.56 -3.85,1.7 -0.91,1.13 -1.37,2.74 -1.37,4.82 0,4.34 1.76,6.51 5.26,6.51 3.35,0 5.02,-2.23 5.02,-6.69 0,-4.23 -1.69,-6.34 -5.06,-6.34zm52.64 17.83l-6.96 0 0 -12.91c0,-3.28 -1.21,-4.92 -3.62,-4.92 -1.15,0 -2.08,0.49 -2.81,1.48 -0.72,0.98 -1.08,2.22 -1.08,3.69l0 12.66 -6.98 0 0 -13.04c0,-3.19 -1.2,-4.79 -3.56,-4.79 -1.2,0 -2.15,0.47 -2.86,1.41 -0.72,0.94 -1.08,2.22 -1.08,3.85l0 12.57 -6.98 0 0 -22.63 6.98 0 0 3.54 0.09 0c0.72,-1.21 1.73,-2.2 3.04,-2.95 1.3,-0.76 2.73,-1.14 4.28,-1.14 3.19,0 5.38,1.4 6.56,4.22 1.73,-2.82 4.25,-4.22 7.61,-4.22 4.91,0 7.37,3.03 7.37,9.11l0 14.07zm9.06 -26.21c-1.17,0 -2.14,-0.35 -2.89,-1.05 -0.75,-0.7 -1.13,-1.56 -1.13,-2.58 0,-1.04 0.38,-1.9 1.13,-2.56 0.75,-0.66 1.72,-1 2.89,-1 1.2,0 2.17,0.34 2.92,1 0.74,0.66 1.11,1.52 1.11,2.56 0,1.06 -0.37,1.94 -1.11,2.62 -0.75,0.67 -1.72,1.01 -2.92,1.01zm3.45 26.21l-6.98 0 0 -22.63 6.98 0 0 22.63zm27.74 0l-6.96 0 0 -12.57c0,-3.51 -1.25,-5.26 -3.76,-5.26 -1.2,0 -2.2,0.46 -2.98,1.39 -0.78,0.92 -1.17,2.11 -1.17,3.53l0 12.91 -6.98 0 0 -22.63 6.98 0 0 3.58 0.09 0c1.66,-2.76 4.09,-4.13 7.27,-4.13 5.01,0 7.51,3.11 7.51,9.32l0 13.86zm9.06 -26.21c-1.17,0 -2.14,-0.35 -2.89,-1.05 -0.75,-0.7 -1.13,-1.56 -1.13,-2.58 0,-1.04 0.38,-1.9 1.13,-2.56 0.75,-0.66 1.72,-1 2.89,-1 1.2,0 2.17,0.34 2.92,1 0.74,0.66 1.11,1.52 1.11,2.56 0,1.06 -0.37,1.94 -1.11,2.62 -0.75,0.67 -1.72,1.01 -2.92,1.01zm3.45 26.21l-6.98 0 0 -22.63 6.98 0 0 22.63zm16.67 0.55c-3.78,0 -6.74,-1.05 -8.9,-3.17 -2.16,-2.11 -3.23,-4.98 -3.23,-8.6 0,-3.75 1.11,-6.68 3.35,-8.79 2.24,-2.11 5.28,-3.17 9.09,-3.17 3.75,0 6.7,1.06 8.84,3.17 2.13,2.11 3.21,4.91 3.21,8.39 0,3.75 -1.11,6.73 -3.31,8.91 -2.2,2.18 -5.22,3.26 -9.05,3.26zm0.18 -18.38c-1.65,0 -2.94,0.56 -3.85,1.7 -0.91,1.13 -1.37,2.74 -1.37,4.82 0,4.34 1.76,6.51 5.26,6.51 3.35,0 5.02,-2.23 5.02,-6.69 0,-4.23 -1.69,-6.34 -5.06,-6.34z"/>
    <g>
     <polygon class="fil8" points="2128.41,521.13 2440.76,521.13 2440.76,833.48 2128.41,833.48 "/>
     <polygon id="_1_3" class="fil2 str0" points="2128.41,521.13 2440.76,521.13 2440.76,833.48 2128.41,833.48 "/>
    </g>
    <path class="fil3" d="M2228.19 685.57l0 9.56 -6.25 0 0 -27.74 9.79 0c6.99,0 10.48,2.95 10.48,8.84 0,2.79 -1,5.04 -3.01,6.76 -2.01,1.72 -4.68,2.58 -8.03,2.58l-2.98 0zm0 -13.38l0 8.64 2.46 0c3.32,0 4.99,-1.46 4.99,-4.37 0,-2.85 -1.67,-4.27 -4.99,-4.27l-2.46 0zm40.13 22.94l-6.8 0 -1.98 -6.18 -9.86 0 -1.95 6.18 -6.78 0 10.1 -27.74 7.41 0 9.86 27.74zm-10.21 -10.97l-2.98 -9.32c-0.22,-0.7 -0.37,-1.53 -0.47,-2.5l-0.15 0c-0.07,0.82 -0.22,1.62 -0.48,2.42l-3.02 9.4 7.1 0zm36.05 9.11c-2.71,1.56 -6.07,2.34 -10.1,2.34 -4.46,0 -7.97,-1.24 -10.55,-3.71 -2.57,-2.47 -3.85,-5.86 -3.85,-10.2 0,-4.35 1.4,-7.9 4.21,-10.65 2.81,-2.75 6.55,-4.13 11.22,-4.13 2.94,0 5.53,0.41 7.77,1.23l0 5.86c-2.14,-1.24 -4.75,-1.86 -7.85,-1.86 -2.59,0 -4.7,0.84 -6.33,2.52 -1.64,1.69 -2.45,3.93 -2.45,6.74 0,2.85 0.73,5.05 2.19,6.62 1.47,1.56 3.44,2.34 5.93,2.34 1.5,0 2.69,-0.22 3.56,-0.64l0 -5.42 -5.55 0 0 -4.99 11.8 0 0 13.95zm17.12 2.34c-3.98,0 -7.21,-1.3 -9.71,-3.88 -2.51,-2.59 -3.75,-5.95 -3.75,-10.1 0,-4.39 1.26,-7.93 3.81,-10.64 2.54,-2.71 5.9,-4.07 10.09,-4.07 3.96,0 7.16,1.3 9.6,3.89 2.45,2.6 3.67,6.02 3.67,10.25 0,4.36 -1.27,7.88 -3.81,10.55 -2.52,2.66 -5.83,4 -9.9,4zm0.27 -23.31c-2.19,0 -3.94,0.82 -5.23,2.47 -1.28,1.65 -1.93,3.82 -1.93,6.53 0,2.74 0.65,4.91 1.93,6.52 1.29,1.59 2.98,2.39 5.07,2.39 2.16,0 3.86,-0.78 5.13,-2.33 1.26,-1.55 1.89,-3.71 1.89,-6.47 0,-2.87 -0.61,-5.11 -1.83,-6.71 -1.23,-1.6 -2.91,-2.4 -5.03,-2.4zm16.76 21.76l0 -6.19c1.13,0.94 2.35,1.65 3.66,2.12 1.32,0.47 2.64,0.71 3.98,0.71 0.79,0 1.48,-0.08 2.06,-0.22 0.59,-0.14 1.08,-0.33 1.47,-0.59 0.4,-0.25 0.69,-0.55 0.88,-0.88 0.2,-0.35 0.29,-0.72 0.29,-1.12 0,-0.54 -0.15,-1.02 -0.46,-1.45 -0.31,-0.42 -0.73,-0.82 -1.27,-1.18 -0.53,-0.36 -1.16,-0.71 -1.9,-1.04 -0.74,-0.34 -1.53,-0.68 -2.38,-1.03 -2.17,-0.9 -3.78,-2 -4.85,-3.31 -1.06,-1.3 -1.59,-2.87 -1.59,-4.71 0,-1.45 0.29,-2.69 0.87,-3.72 0.58,-1.05 1.37,-1.9 2.37,-2.57 1,-0.67 2.16,-1.16 3.47,-1.48 1.31,-0.32 2.71,-0.48 4.18,-0.48 1.44,0 2.72,0.1 3.84,0.27 1.11,0.17 2.14,0.44 3.08,0.8l0 5.79c-0.47,-0.33 -0.97,-0.61 -1.52,-0.85 -0.54,-0.25 -1.11,-0.45 -1.69,-0.62 -0.58,-0.16 -1.16,-0.28 -1.73,-0.36 -0.58,-0.07 -1.12,-0.11 -1.63,-0.11 -0.72,0 -1.36,0.07 -1.94,0.2 -0.58,0.14 -1.07,0.33 -1.47,0.57 -0.39,0.25 -0.7,0.54 -0.93,0.88 -0.22,0.35 -0.32,0.73 -0.32,1.15 0,0.47 0.12,0.89 0.36,1.25 0.24,0.37 0.59,0.72 1.05,1.05 0.45,0.32 1,0.65 1.64,0.96 0.64,0.32 1.38,0.64 2.19,0.98 1.11,0.46 2.1,0.96 2.98,1.48 0.89,0.52 1.65,1.11 2.27,1.77 0.64,0.66 1.12,1.41 1.46,2.25 0.33,0.84 0.5,1.83 0.5,2.95 0,1.55 -0.29,2.84 -0.88,3.9 -0.59,1.05 -1.38,1.9 -2.39,2.55 -1,0.65 -2.17,1.12 -3.5,1.4 -1.35,0.29 -2.75,0.43 -4.24,0.43 -1.52,0 -2.96,-0.13 -4.33,-0.39 -1.38,-0.25 -2.57,-0.64 -3.58,-1.16z"/>
    <path class="fil9" d="M1399 757.17l0 10.91 -7.14 0 0 -31.69 11.18 0c7.99,0 11.99,3.36 11.99,10.1 0,3.19 -1.15,5.76 -3.45,7.73 -2.29,1.96 -5.34,2.95 -9.18,2.95l-3.4 0zm0 -15.3l0 9.88 2.81 0c3.8,0 5.7,-1.67 5.7,-4.99 0,-3.26 -1.9,-4.89 -5.7,-4.89l-2.81 0zm34.75 9.88c-0.85,-0.46 -1.83,-0.69 -2.94,-0.69 -1.52,0 -2.7,0.56 -3.56,1.67 -0.86,1.12 -1.29,2.63 -1.29,4.54l0 10.81 -6.97 0 0 -22.63 6.97 0 0 4.2 0.09 0c1.11,-3.07 3.1,-4.6 5.97,-4.6 0.74,0 1.32,0.09 1.73,0.27l0 6.43zm23.4 7.01l-14.76 0c0.23,3.28 2.31,4.93 6.21,4.93 2.49,0 4.68,-0.59 6.56,-1.77l0 5.04c-2.09,1.12 -4.8,1.67 -8.15,1.67 -3.66,0 -6.49,-1.01 -8.51,-3.04 -2.02,-2.02 -3.03,-4.85 -3.03,-8.47 0,-3.75 1.09,-6.73 3.27,-8.93 2.18,-2.2 4.86,-3.29 8.05,-3.29 3.29,0 5.85,0.98 7.65,2.94 1.81,1.96 2.71,4.62 2.71,7.98l0 2.94zm-6.47 -4.29c0,-3.24 -1.31,-4.86 -3.94,-4.86 -1.11,0 -2.09,0.46 -2.9,1.39 -0.83,0.92 -1.32,2.09 -1.5,3.47l8.34 0zm9.14 13.02l0 -5.66c1.16,0.69 2.3,1.21 3.44,1.55 1.14,0.34 2.22,0.5 3.24,0.5 1.24,0 2.22,-0.16 2.93,-0.5 0.71,-0.34 1.07,-0.86 1.07,-1.55 0,-0.44 -0.16,-0.81 -0.48,-1.11 -0.33,-0.29 -0.74,-0.55 -1.26,-0.77 -0.5,-0.22 -1.06,-0.42 -1.66,-0.6 -0.61,-0.18 -1.19,-0.37 -1.75,-0.59 -0.89,-0.34 -1.69,-0.71 -2.37,-1.09 -0.69,-0.4 -1.26,-0.85 -1.73,-1.37 -0.46,-0.51 -0.82,-1.11 -1.06,-1.79 -0.24,-0.68 -0.37,-1.48 -0.37,-2.4 0,-1.27 0.28,-2.37 0.83,-3.28 0.55,-0.91 1.29,-1.66 2.21,-2.24 0.92,-0.58 1.98,-1.01 3.16,-1.28 1.19,-0.27 2.43,-0.41 3.71,-0.41 1,0 2.01,0.08 3.05,0.23 1.03,0.15 2.05,0.38 3.05,0.68l0 5.39c-0.89,-0.52 -1.83,-0.91 -2.84,-1.16 -1.01,-0.26 -2,-0.39 -2.97,-0.39 -0.46,0 -0.89,0.04 -1.29,0.12 -0.41,0.08 -0.77,0.2 -1.08,0.36 -0.31,0.15 -0.55,0.35 -0.73,0.59 -0.18,0.25 -0.26,0.53 -0.26,0.83 0,0.41 0.13,0.77 0.39,1.06 0.27,0.29 0.61,0.55 1.04,0.76 0.43,0.22 0.91,0.41 1.43,0.58 0.52,0.17 1.04,0.34 1.56,0.52 0.93,0.32 1.77,0.68 2.52,1.06 0.75,0.39 1.39,0.83 1.93,1.35 0.54,0.51 0.95,1.12 1.24,1.81 0.28,0.7 0.43,1.52 0.43,2.48 0,1.34 -0.29,2.49 -0.88,3.44 -0.58,0.95 -1.35,1.72 -2.31,2.31 -0.97,0.6 -2.08,1.04 -3.35,1.31 -1.26,0.27 -2.56,0.4 -3.92,0.4 -2.49,0 -4.79,-0.38 -6.92,-1.14zm41.74 -8.73l-14.77 0c0.24,3.28 2.31,4.93 6.21,4.93 2.49,0 4.68,-0.59 6.57,-1.77l0 5.04c-2.09,1.12 -4.81,1.67 -8.16,1.67 -3.65,0 -6.49,-1.01 -8.51,-3.04 -2.01,-2.02 -3.02,-4.85 -3.02,-8.47 0,-3.75 1.08,-6.73 3.27,-8.93 2.18,-2.2 4.86,-3.29 8.04,-3.29 3.3,0 5.86,0.98 7.66,2.94 1.8,1.96 2.71,4.62 2.71,7.98l0 2.94zm-6.47 -4.29c0,-3.24 -1.32,-4.86 -3.94,-4.86 -1.12,0 -2.09,0.46 -2.91,1.39 -0.82,0.92 -1.31,2.09 -1.49,3.47l8.34 0zm32.48 13.61l-6.96 0 0 -12.57c0,-3.51 -1.25,-5.26 -3.76,-5.26 -1.21,0 -2.2,0.46 -2.98,1.39 -0.78,0.93 -1.18,2.11 -1.18,3.54l0 12.9 -6.97 0 0 -22.63 6.97 0 0 3.58 0.09 0c1.67,-2.76 4.09,-4.13 7.28,-4.13 5.01,0 7.51,3.11 7.51,9.33l0 13.85zm19.21 -0.26c-1.03,0.54 -2.59,0.81 -4.66,0.81 -4.92,0 -7.39,-2.55 -7.39,-7.66l0 -10.37 -3.66 0 0 -5.15 3.66 0 0 -4.88 6.97 -1.99 0 6.87 5.08 0 0 5.15 -5.08 0 0 9.16c0,2.35 0.93,3.53 2.8,3.53 0.74,0 1.5,-0.21 2.28,-0.65l0 5.18zm22.77 0.26l-6.61 0 0 -3.25 -0.09 0c-1.52,2.54 -3.77,3.8 -6.75,3.8 -2.19,0 -3.92,-0.61 -5.18,-1.86 -1.26,-1.24 -1.88,-2.91 -1.88,-4.99 0,-4.39 2.6,-6.92 7.8,-7.6l6.15 -0.81c0,-2.48 -1.35,-3.72 -4.03,-3.72 -2.7,0 -5.26,0.8 -7.69,2.41l0 -5.26c0.97,-0.5 2.3,-0.94 3.99,-1.33 1.68,-0.38 3.22,-0.57 4.61,-0.57 6.45,0 9.68,3.22 9.68,9.66l0 13.52zm-6.56 -9.19l0 -1.53 -4.12 0.53c-2.27,0.3 -3.4,1.32 -3.4,3.08 0,0.79 0.27,1.45 0.82,1.95 0.56,0.51 1.31,0.77 2.25,0.77 1.31,0 2.38,-0.46 3.21,-1.36 0.82,-0.91 1.24,-2.05 1.24,-3.44zm29.24 8.38c-1.58,0.91 -3.86,1.36 -6.83,1.36 -3.48,0 -6.29,-1.04 -8.44,-3.16 -2.15,-2.1 -3.23,-4.82 -3.23,-8.15 0,-3.85 1.15,-6.87 3.45,-9.09 2.31,-2.22 5.4,-3.33 9.26,-3.33 2.66,0 4.6,0.35 5.79,1.06l0 5.93c-1.46,-1.1 -3.09,-1.64 -4.88,-1.64 -2.01,0 -3.59,0.58 -4.77,1.76 -1.17,1.17 -1.76,2.78 -1.76,4.85 0,2 0.57,3.57 1.68,4.71 1.12,1.15 2.67,1.72 4.62,1.72 1.74,0 3.44,-0.55 5.11,-1.64l0 5.62zm8.11 -25.4c-1.18,0 -2.14,-0.35 -2.89,-1.05 -0.76,-0.7 -1.13,-1.56 -1.13,-2.57 0,-1.05 0.37,-1.91 1.13,-2.57 0.75,-0.66 1.71,-0.99 2.89,-0.99 1.2,0 2.16,0.33 2.91,0.99 0.74,0.66 1.12,1.52 1.12,2.57 0,1.05 -0.38,1.93 -1.12,2.61 -0.75,0.67 -1.71,1.01 -2.91,1.01zm3.45 26.21l-6.98 0 0 -22.63 6.98 0 0 22.63zm16.66 0.55c-3.77,0 -6.74,-1.05 -8.89,-3.16 -2.16,-2.12 -3.24,-4.99 -3.24,-8.61 0,-3.74 1.12,-6.68 3.36,-8.79 2.24,-2.11 5.27,-3.17 9.08,-3.17 3.76,0 6.71,1.06 8.84,3.17 2.14,2.11 3.21,4.91 3.21,8.39 0,3.76 -1.1,6.73 -3.31,8.91 -2.2,2.18 -5.22,3.26 -9.05,3.26zm0.18 -18.38c-1.65,0 -2.93,0.57 -3.84,1.7 -0.92,1.14 -1.38,2.74 -1.38,4.82 0,4.34 1.76,6.52 5.27,6.52 3.34,0 5.02,-2.24 5.02,-6.7 0,-4.23 -1.69,-6.34 -5.07,-6.34zm7.51 -15.52l-6.92 7.14 -5.04 0 5.75 -7.14 6.21 0zm31.04 33.35l-6.97 0 0 -12.57c0,-3.51 -1.25,-5.26 -3.75,-5.26 -1.21,0 -2.21,0.46 -2.98,1.39 -0.79,0.93 -1.18,2.11 -1.18,3.54l0 12.9 -6.98 0 0 -22.63 6.98 0 0 3.58 0.09 0c1.67,-2.76 4.09,-4.13 7.27,-4.13 5.01,0 7.52,3.11 7.52,9.33l0 13.85z"/>
    <g>
     <path id="flecha_roja_4" class="fil6" d="M1721.83 685.08l15 35.01 0 0 -0.93 -0.46 -0.94 -0.42 -0.94 -0.4 -0.94 -0.36 -0.93 -0.34 -0.94 -0.31 -0.94 -0.28 -0.94 -0.25 -0.94 -0.22 -0.93 -0.19 -0.94 -0.16 -0.94 -0.13 -0.94 -0.1 -0.93 -0.08 -0.94 -0.04 -0.94 -0.01 -0.94 0.01 -0.93 0.04 -0.94 0.08 -0.94 0.1 -0.94 0.13 -0.93 0.16 -0.94 0.19 -0.94 0.22 -0.94 0.25 -0.94 0.28 -0.93 0.31 -0.94 0.34 -0.94 0.36 -0.94 0.4 -0.93 0.42 -0.94 0.46 15 -35.01zm187.13 137.89l0 5 0 0 -9.71 -0.17 -9.59 -0.47 -9.45 -0.79 -9.29 -1.09 -9.14 -1.38 -8.97 -1.67 -8.77 -1.95 -8.59 -2.23 -8.37 -2.48 -8.16 -2.74 -7.92 -2.99 -7.68 -3.23 -7.42 -3.46 -7.16 -3.7 -6.88 -3.91 -6.59 -4.12 -6.29 -4.33 -5.97 -4.52 -5.65 -4.72 -5.31 -4.9 -4.96 -5.08 -4.6 -5.24 -4.22 -5.41 -3.83 -5.57 -3.44 -5.71 -3.02 -5.85 -2.59 -5.99 -2.14 -6.11 -1.7 -6.22 -1.22 -6.33 -0.75 -6.43 -0.25 -6.51 5 0 0.24 6.13 0.7 6.05 1.15 5.96 1.6 5.87 2.03 5.77 2.45 5.67 2.87 5.56 3.27 5.44 3.66 5.31 4.04 5.18 4.42 5.04 4.77 4.88 5.13 4.73 5.46 4.56 5.79 4.39 6.1 4.2 6.41 4.01 6.7 3.81 6.98 3.6 7.25 3.38 7.5 3.16 7.75 2.92 7.99 2.68 8.2 2.44 8.41 2.17 8.61 1.92 8.8 1.64 8.97 1.35 9.13 1.07 9.28 0.78 9.42 0.47 9.55 0.16 0 0zm184.63 -120.3l5 0 -0.25 6.51 -0.75 6.43 -1.22 6.33 -1.7 6.22 -2.14 6.11 -2.6 5.99 -3.01 5.85 -3.44 5.71 -3.83 5.57 -4.22 5.41 -4.6 5.24 -4.96 5.08 -5.31 4.9 -5.65 4.72 -5.97 4.52 -6.29 4.33 -6.59 4.12 -6.88 3.91 -7.16 3.7 -7.42 3.46 -7.68 3.23 -7.92 2.99 -8.16 2.74 -8.37 2.48 -8.58 2.23 -8.78 1.95 -8.97 1.67 -9.14 1.38 -9.29 1.09 -9.45 0.79 -9.59 0.47 -9.71 0.17 0 -5 9.55 -0.16 9.42 -0.47 9.28 -0.78 9.13 -1.07 8.97 -1.35 8.8 -1.64 8.61 -1.92 8.41 -2.17 8.2 -2.44 7.99 -2.68 7.75 -2.92 7.5 -3.16 7.25 -3.38 6.98 -3.6 6.7 -3.81 6.41 -4.01 6.1 -4.2 5.79 -4.39 5.46 -4.56 5.13 -4.73 4.77 -4.88 4.42 -5.04 4.04 -5.18 3.66 -5.31 3.27 -5.44 2.87 -5.56 2.45 -5.67 2.03 -5.77 1.6 -5.87 1.15 -5.96 0.7 -6.05 0.24 -6.13z"/>
    </g>
    <g>
     <path id="flecha_amarilla_5" class="fil7" d="M2096.09 683.11l-15 -35.01 0 0 0.93 0.45 0.94 0.43 0.94 0.39 0.94 0.37 0.93 0.34 0.94 0.31 0.94 0.27 0.94 0.25 0.94 0.22 0.93 0.19 0.94 0.16 0.94 0.14 0.94 0.1 0.93 0.07 0.94 0.05 0.94 0.01 0.94 -0.01 0.93 -0.05 0.94 -0.07 0.94 -0.1 0.94 -0.14 0.93 -0.16 0.94 -0.19 0.94 -0.22 0.94 -0.25 0.94 -0.27 0.93 -0.31 0.94 -0.34 0.94 -0.37 0.94 -0.39 0.93 -0.43 0.94 -0.45 -15 35.01zm-187.13 -137.89l0 -5 0 0 9.71 0.16 9.59 0.48 9.45 0.79 9.29 1.09 9.14 1.38 8.97 1.67 8.78 1.95 8.58 2.22 8.37 2.49 8.16 2.74 7.92 2.99 7.68 3.23 7.42 3.46 7.16 3.69 6.88 3.91 6.59 4.12 6.29 4.33 5.97 4.53 5.65 4.72 5.31 4.9 4.96 5.07 4.6 5.25 4.22 5.41 3.83 5.56 3.44 5.72 3.01 5.85 2.6 5.98 2.14 6.11 1.7 6.23 1.22 6.33 0.75 6.42 0.25 6.51 -5 0 -0.24 -6.12 -0.7 -6.05 -1.15 -5.96 -1.6 -5.87 -2.03 -5.77 -2.45 -5.67 -2.87 -5.56 -3.27 -5.44 -3.66 -5.31 -4.04 -5.18 -4.42 -5.04 -4.77 -4.89 -5.13 -4.73 -5.46 -4.56 -5.79 -4.38 -6.1 -4.2 -6.41 -4.01 -6.7 -3.81 -6.98 -3.6 -7.25 -3.38 -7.5 -3.16 -7.75 -2.92 -7.99 -2.69 -8.2 -2.43 -8.41 -2.18 -8.61 -1.91 -8.8 -1.64 -8.97 -1.36 -9.13 -1.07 -9.28 -0.77 -9.42 -0.47 -9.55 -0.16 0 0zm-184.63 120.29l-5 0 0.25 -6.51 0.75 -6.42 1.22 -6.33 1.7 -6.23 2.14 -6.11 2.59 -5.98 3.02 -5.85 3.44 -5.72 3.83 -5.56 4.22 -5.41 4.6 -5.25 4.96 -5.07 5.31 -4.9 5.65 -4.72 5.97 -4.53 6.29 -4.33 6.59 -4.12 6.88 -3.91 7.16 -3.69 7.42 -3.46 7.68 -3.23 7.92 -2.99 8.16 -2.74 8.37 -2.49 8.59 -2.22 8.77 -1.95 8.97 -1.67 9.14 -1.38 9.29 -1.09 9.45 -0.79 9.59 -0.48 9.71 -0.16 0 5 -9.55 0.16 -9.42 0.47 -9.28 0.77 -9.13 1.07 -8.97 1.36 -8.8 1.64 -8.61 1.91 -8.41 2.18 -8.2 2.43 -7.99 2.69 -7.75 2.92 -7.5 3.16 -7.25 3.38 -6.98 3.6 -6.7 3.81 -6.41 4.01 -6.1 4.2 -5.79 4.38 -5.46 4.56 -5.13 4.73 -4.77 4.89 -4.42 5.04 -4.04 5.18 -3.66 5.31 -3.27 5.44 -2.87 5.56 -2.45 5.67 -2.03 5.77 -1.6 5.87 -1.15 5.96 -0.7 6.05 -0.24 6.12z"/>
    </g>
    <g>
     <path id="flecha_amarilla_6" class="fil6" d="M1779.34 450.38l0.37 -4.99 9.92 0.69 10.56 0.63 11.14 0.55 11.65 0.44 12.1 0.3 12.49 0.13 12.82 -0.06 13.08 -0.28 13.28 -0.52 13.43 -0.8 13.5 -1.1 13.51 -1.43 13.47 -1.77 13.35 -2.16 13.18 -2.57 12.94 -3 12.65 -3.46 12.27 -3.94 11.86 -4.46 11.36 -4.98 10.82 -5.55 10.2 -6.13 9.53 -6.74 8.8 -7.36 8.02 -8.03 7.17 -8.7 6.27 -9.43 5.31 -10.16 4.31 -10.94 3.23 -11.76 2.1 -12.61 0.9 -13.5 5 0.1 -0.93 13.97 -2.19 13.11 -3.37 12.26 -4.5 11.44 -5.56 10.64 -6.56 9.85 -7.48 9.09 -8.34 8.35 -9.13 7.65 -9.85 6.96 -10.5 6.31 -11.1 5.69 -11.63 5.11 -12.09 4.54 -12.5 4.01 -12.84 3.52 -13.13 3.04 -13.34 2.6 -13.51 2.18 -13.6 1.8 -13.64 1.44 -13.61 1.11 -13.53 0.8 -13.38 0.53 -13.17 0.28 -12.89 0.06 -12.57 -0.13 -12.17 -0.3 -11.71 -0.44 -11.19 -0.55 -10.61 -0.64 -9.97 -0.69zm-17.36 -3.79l36.02 -12.38 -0.53 0.9 -0.49 0.9 -0.46 0.91 -0.44 0.91 -0.4 0.91 -0.38 0.91 -0.34 0.91 -0.32 0.92 -0.29 0.92 -0.26 0.92 -0.23 0.92 -0.2 0.93 -0.17 0.93 -0.14 0.93 -0.12 0.93 -0.08 0.93 -0.05 0.94 -0.03 0.94 0.01 0.94 0.03 0.94 0.06 0.95 0.09 0.94 0.12 0.95 0.15 0.95 0.18 0.96 0.21 0.95 0.24 0.96 0.27 0.96 0.29 0.96 0.33 0.97 0.35 0.96 0.39 0.97 0 0 -33.81 -17.54z"/>
    </g>
    <g>
     <path id="flecha_amarilla_7" class="fil10" d="M2038.58 220.64l-0.37 4.99 -9.92 -0.69 -10.56 -0.63 -11.14 -0.55 -11.65 -0.43 -12.1 -0.3 -12.49 -0.14 -12.82 0.06 -13.08 0.28 -13.28 0.53 -13.43 0.79 -13.5 1.1 -13.51 1.43 -13.47 1.78 -13.35 2.16 -13.18 2.57 -12.95 2.99 -12.64 3.46 -12.28 3.95 -11.85 4.45 -11.37 4.99 -10.81 5.54 -10.2 6.13 -9.53 6.74 -8.81 7.37 -8.01 8.02 -7.17 8.71 -6.27 9.42 -5.31 10.16 -4.31 10.95 -3.23 11.76 -2.1 12.61 -0.91 13.49 -4.99 -0.1 0.93 -13.97 2.18 -13.1 3.38 -12.27 4.5 -11.44 5.56 -10.64 6.56 -9.85 7.48 -9.09 8.34 -8.35 9.13 -7.64 9.85 -6.96 10.5 -6.32 11.1 -5.69 11.63 -5.1 12.09 -4.54 12.5 -4.02 12.84 -3.51 13.13 -3.04 13.34 -2.6 13.5 -2.19 13.61 -1.8 13.64 -1.43 13.61 -1.11 13.53 -0.81 13.38 -0.53 13.16 -0.28 12.9 -0.06 12.57 0.14 12.17 0.3 11.71 0.44 11.19 0.55 10.61 0.63 9.97 0.69zm17.36 3.79l-36.02 12.39 0.52 -0.91 0.5 -0.9 0.46 -0.9 0.43 -0.91 0.41 -0.91 0.38 -0.92 0.34 -0.91 0.32 -0.92 0.29 -0.92 0.26 -0.92 0.23 -0.92 0.2 -0.93 0.17 -0.92 0.14 -0.93 0.11 -0.93 0.09 -0.94 0.05 -0.94 0.03 -0.93 -0.01 -0.94 -0.03 -0.95 -0.06 -0.94 -0.09 -0.95 -0.12 -0.95 -0.16 -0.95 -0.17 -0.95 -0.21 -0.96 -0.24 -0.96 -0.27 -0.96 -0.29 -0.96 -0.33 -0.96 -0.35 -0.97 -0.39 -0.97 0 0 33.81 17.54z"/>
    </g>
    <g>
     <path id="flecha_amarilla_8" class="fil6" d="M1779.71 909.21l-0.37 -4.98 9.97 -0.7 10.61 -0.63 11.19 -0.55 11.71 -0.44 12.17 -0.3 12.57 -0.13 12.89 0.05 13.17 0.28 13.38 0.53 13.53 0.81 13.61 1.11 13.64 1.43 13.6 1.8 13.51 2.19 13.34 2.6 13.13 3.04 12.84 3.51 12.5 4.02 12.09 4.54 11.63 5.1 11.1 5.69 10.5 6.32 9.85 6.96 9.13 7.64 8.34 8.35 7.48 9.09 6.56 9.85 5.56 10.64 4.5 11.44 3.37 12.27 2.19 13.11 0.93 13.96 -5 0.1 -0.9 -13.49 -2.1 -12.61 -3.23 -11.76 -4.31 -10.94 -5.31 -10.17 -6.27 -9.42 -7.17 -8.71 -8.02 -8.02 -8.8 -7.37 -9.53 -6.74 -10.2 -6.13 -10.82 -5.54 -11.36 -4.99 -11.86 -4.45 -12.27 -3.94 -12.65 -3.46 -12.94 -3 -13.18 -2.57 -13.35 -2.16 -13.47 -1.78 -13.51 -1.43 -13.5 -1.1 -13.43 -0.79 -13.28 -0.53 -13.08 -0.28 -12.82 -0.06 -12.49 0.14 -12.1 0.3 -11.65 0.43 -11.14 0.55 -10.56 0.63 -9.92 0.69zm-17.73 -1.2l33.81 -17.54 -0.39 0.97 -0.35 0.97 -0.33 0.96 -0.29 0.97 -0.27 0.96 -0.24 0.95 -0.21 0.96 -0.18 0.95 -0.15 0.95 -0.12 0.95 -0.09 0.95 -0.06 0.94 -0.03 0.95 -0.01 0.94 0.03 0.94 0.05 0.93 0.08 0.94 0.12 0.93 0.14 0.93 0.17 0.93 0.2 0.92 0.23 0.92 0.26 0.92 0.29 0.92 0.32 0.92 0.34 0.92 0.38 0.91 0.4 0.91 0.44 0.91 0.46 0.9 0.49 0.91 0.53 0.9 0 0 -36.02 -12.39z"/>
    </g>
    <g>
     <path id="flecha_amarilla_9" class="fil10" d="M2038.21 1128.98l0.37 4.98 -9.97 0.69 -10.61 0.64 -11.19 0.55 -11.71 0.44 -12.17 0.3 -12.57 0.13 -12.9 -0.06 -13.16 -0.28 -13.38 -0.53 -13.53 -0.8 -13.61 -1.11 -13.64 -1.44 -13.61 -1.8 -13.5 -2.18 -13.34 -2.6 -13.13 -3.04 -12.84 -3.51 -12.5 -4.02 -12.09 -4.54 -11.63 -5.11 -11.1 -5.69 -10.5 -6.31 -9.85 -6.96 -9.13 -7.64 -8.34 -8.36 -7.48 -9.09 -6.56 -9.85 -5.56 -10.63 -4.5 -11.45 -3.38 -12.26 -2.18 -13.11 -0.93 -13.97 4.99 -0.1 0.91 13.5 2.1 12.61 3.23 11.76 4.31 10.94 5.31 10.17 6.27 9.42 7.17 8.7 8.01 8.03 8.81 7.37 9.53 6.73 10.2 6.13 10.81 5.55 11.37 4.98 11.85 4.46 12.28 3.94 12.64 3.46 12.95 3 13.18 2.57 13.35 2.16 13.47 1.78 13.51 1.42 13.5 1.1 13.43 0.8 13.28 0.52 13.08 0.28 12.82 0.06 12.49 -0.13 12.1 -0.3 11.65 -0.44 11.14 -0.54 10.56 -0.64 9.92 -0.68zm17.73 1.19l-33.81 17.54 0.39 -0.97 0.35 -0.96 0.33 -0.97 0.29 -0.96 0.27 -0.96 0.24 -0.96 0.21 -0.95 0.17 -0.96 0.15 -0.95 0.13 -0.95 0.09 -0.94 0.06 -0.95 0.03 -0.94 0.01 -0.94 -0.03 -0.94 -0.05 -0.94 -0.09 -0.93 -0.11 -0.93 -0.14 -0.93 -0.17 -0.93 -0.2 -0.92 -0.23 -0.93 -0.26 -0.92 -0.29 -0.92 -0.32 -0.91 -0.34 -0.92 -0.38 -0.91 -0.41 -0.91 -0.43 -0.91 -0.46 -0.91 -0.5 -0.9 -0.52 -0.9 0 0 36.02 12.38z"/>
    </g>
    <path class="fil9" d="M2195.54 1145.47l0 -31.7 11.23 0c11.26,0 16.89,5.15 16.89,15.45 0,4.94 -1.54,8.88 -4.61,11.83 -3.07,2.95 -7.16,4.42 -12.28,4.42l-11.23 0zm7.14 -25.89l0 20.09 3.54 0c3.09,0 5.52,-0.92 7.28,-2.78 1.76,-1.86 2.64,-4.38 2.64,-7.58 0,-3.02 -0.87,-5.4 -2.62,-7.12 -1.75,-1.74 -4.19,-2.61 -7.34,-2.61l-3.5 0zm36.34 26.44c-3.78,0 -6.74,-1.06 -8.9,-3.17 -2.16,-2.11 -3.23,-4.99 -3.23,-8.61 0,-3.74 1.11,-6.68 3.35,-8.79 2.24,-2.11 5.28,-3.17 9.09,-3.17 3.75,0 6.7,1.06 8.84,3.17 2.13,2.11 3.2,4.91 3.2,8.39 0,3.76 -1.1,6.73 -3.3,8.91 -2.2,2.18 -5.22,3.27 -9.05,3.27zm0.18 -18.39c-1.65,0 -2.94,0.57 -3.85,1.7 -0.91,1.14 -1.37,2.75 -1.37,4.82 0,4.35 1.76,6.52 5.26,6.52 3.35,0 5.02,-2.23 5.02,-6.69 0,-4.23 -1.69,-6.35 -5.06,-6.35zm52.64 17.84l-6.96 0 0 -12.91c0,-3.29 -1.21,-4.93 -3.62,-4.93 -1.15,0 -2.08,0.49 -2.81,1.48 -0.72,0.99 -1.08,2.22 -1.08,3.69l0 12.67 -6.98 0 0 -13.05c0,-3.19 -1.2,-4.79 -3.56,-4.79 -1.2,0 -2.15,0.47 -2.86,1.41 -0.72,0.95 -1.08,2.23 -1.08,3.85l0 12.58 -6.98 0 0 -22.64 6.98 0 0 3.54 0.09 0c0.72,-1.2 1.73,-2.19 3.04,-2.95 1.3,-0.76 2.73,-1.14 4.28,-1.14 3.19,0 5.38,1.41 6.56,4.22 1.73,-2.81 4.25,-4.22 7.61,-4.22 4.91,0 7.37,3.04 7.37,9.11l0 14.08zm9.06 -26.22c-1.17,0 -2.14,-0.35 -2.89,-1.05 -0.75,-0.7 -1.13,-1.55 -1.13,-2.57 0,-1.05 0.38,-1.9 1.13,-2.57 0.75,-0.66 1.72,-0.99 2.89,-0.99 1.2,0 2.17,0.33 2.92,0.99 0.74,0.67 1.11,1.52 1.11,2.57 0,1.06 -0.37,1.93 -1.11,2.61 -0.75,0.67 -1.72,1.01 -2.92,1.01zm3.45 26.22l-6.98 0 0 -22.64 6.98 0 0 22.64zm27.74 0l-6.96 0 0 -12.58c0,-3.51 -1.25,-5.26 -3.76,-5.26 -1.2,0 -2.2,0.46 -2.98,1.39 -0.78,0.93 -1.17,2.11 -1.17,3.54l0 12.91 -6.98 0 0 -22.64 6.98 0 0 3.59 0.09 0c1.66,-2.76 4.09,-4.14 7.27,-4.14 5.01,0 7.51,3.11 7.51,9.33l0 13.86zm9.06 -26.22c-1.17,0 -2.14,-0.35 -2.89,-1.05 -0.75,-0.7 -1.13,-1.55 -1.13,-2.57 0,-1.05 0.38,-1.9 1.13,-2.57 0.75,-0.66 1.72,-0.99 2.89,-0.99 1.2,0 2.17,0.33 2.92,0.99 0.74,0.67 1.11,1.52 1.11,2.57 0,1.06 -0.37,1.93 -1.11,2.61 -0.75,0.67 -1.72,1.01 -2.92,1.01zm3.45 26.22l-6.98 0 0 -22.64 6.98 0 0 22.64zm16.67 0.55c-3.78,0 -6.74,-1.06 -8.9,-3.17 -2.16,-2.11 -3.23,-4.99 -3.23,-8.61 0,-3.74 1.11,-6.68 3.35,-8.79 2.24,-2.11 5.28,-3.17 9.09,-3.17 3.75,0 6.7,1.06 8.84,3.17 2.13,2.11 3.21,4.91 3.21,8.39 0,3.76 -1.11,6.73 -3.31,8.91 -2.2,2.18 -5.22,3.27 -9.05,3.27zm0.18 -18.39c-1.65,0 -2.94,0.57 -3.85,1.7 -0.91,1.14 -1.37,2.75 -1.37,4.82 0,4.35 1.76,6.52 5.26,6.52 3.35,0 5.02,-2.23 5.02,-6.69 0,-4.23 -1.69,-6.35 -5.06,-6.35z"/>
    <path class="fil9" d="M2195.54 763.1l0 -31.69 11.23 0c11.26,0 16.89,5.14 16.89,15.45 0,4.93 -1.54,8.87 -4.61,11.82 -3.07,2.95 -7.16,4.42 -12.28,4.42l-11.23 0zm7.14 -25.88l0 20.09 3.54 0c3.09,0 5.52,-0.93 7.28,-2.79 1.76,-1.85 2.64,-4.38 2.64,-7.58 0,-3.02 -0.87,-5.39 -2.62,-7.12 -1.75,-1.74 -4.19,-2.6 -7.34,-2.6l-3.5 0zm36.34 26.43c-3.78,0 -6.74,-1.05 -8.9,-3.17 -2.16,-2.11 -3.23,-4.98 -3.23,-8.6 0,-3.75 1.11,-6.68 3.35,-8.79 2.24,-2.12 5.28,-3.17 9.09,-3.17 3.75,0 6.7,1.05 8.84,3.17 2.13,2.11 3.2,4.91 3.2,8.39 0,3.75 -1.1,6.73 -3.3,8.91 -2.2,2.18 -5.22,3.26 -9.05,3.26zm0.18 -18.38c-1.65,0 -2.94,0.56 -3.85,1.7 -0.91,1.13 -1.37,2.74 -1.37,4.82 0,4.34 1.76,6.51 5.26,6.51 3.35,0 5.02,-2.23 5.02,-6.69 0,-4.23 -1.69,-6.34 -5.06,-6.34zm52.64 17.83l-6.96 0 0 -12.91c0,-3.29 -1.21,-4.92 -3.62,-4.92 -1.15,0 -2.08,0.49 -2.81,1.48 -0.72,0.98 -1.08,2.21 -1.08,3.69l0 12.66 -6.98 0 0 -13.04c0,-3.19 -1.2,-4.79 -3.56,-4.79 -1.2,0 -2.15,0.47 -2.86,1.41 -0.72,0.94 -1.08,2.22 -1.08,3.85l0 12.57 -6.98 0 0 -22.63 6.98 0 0 3.54 0.09 0c0.72,-1.21 1.73,-2.2 3.04,-2.95 1.3,-0.76 2.73,-1.14 4.28,-1.14 3.19,0 5.38,1.4 6.56,4.22 1.73,-2.82 4.25,-4.22 7.61,-4.22 4.91,0 7.37,3.03 7.37,9.1l0 14.08zm9.06 -26.21c-1.17,0 -2.14,-0.35 -2.89,-1.05 -0.75,-0.7 -1.13,-1.56 -1.13,-2.58 0,-1.04 0.38,-1.9 1.13,-2.56 0.75,-0.66 1.72,-1 2.89,-1 1.2,0 2.17,0.34 2.92,1 0.74,0.66 1.11,1.52 1.11,2.56 0,1.06 -0.37,1.94 -1.11,2.61 -0.75,0.68 -1.72,1.02 -2.92,1.02zm3.45 26.21l-6.98 0 0 -22.63 6.98 0 0 22.63zm27.74 0l-6.96 0 0 -12.57c0,-3.51 -1.25,-5.26 -3.76,-5.26 -1.2,0 -2.2,0.46 -2.98,1.39 -0.78,0.92 -1.17,2.11 -1.17,3.53l0 12.91 -6.98 0 0 -22.63 6.98 0 0 3.58 0.09 0c1.66,-2.76 4.09,-4.13 7.27,-4.13 5.01,0 7.51,3.11 7.51,9.32l0 13.86zm9.06 -26.21c-1.17,0 -2.14,-0.35 -2.89,-1.05 -0.75,-0.7 -1.13,-1.56 -1.13,-2.58 0,-1.04 0.38,-1.9 1.13,-2.56 0.75,-0.66 1.72,-1 2.89,-1 1.2,0 2.17,0.34 2.92,1 0.74,0.66 1.11,1.52 1.11,2.56 0,1.06 -0.37,1.94 -1.11,2.61 -0.75,0.68 -1.72,1.02 -2.92,1.02zm3.45 26.21l-6.98 0 0 -22.63 6.98 0 0 22.63zm16.67 0.55c-3.78,0 -6.74,-1.05 -8.9,-3.17 -2.16,-2.11 -3.23,-4.98 -3.23,-8.6 0,-3.75 1.11,-6.68 3.35,-8.79 2.24,-2.12 5.28,-3.17 9.09,-3.17 3.75,0 6.7,1.05 8.84,3.17 2.13,2.11 3.21,4.91 3.21,8.39 0,3.75 -1.11,6.73 -3.31,8.91 -2.2,2.18 -5.22,3.26 -9.05,3.26zm0.18 -18.38c-1.65,0 -2.94,0.56 -3.85,1.7 -0.91,1.13 -1.37,2.74 -1.37,4.82 0,4.34 1.76,6.51 5.26,6.51 3.35,0 5.02,-2.23 5.02,-6.69 0,-4.23 -1.69,-6.34 -5.06,-6.34z"/>
   </g>
  </g>
 </g>
</svg>
