<?xml version="1.0" encoding="UTF-8"?>
<!DOCTYPE svg PUBLIC "-//W3C//DTD SVG 1.1//EN" "http://www.w3.org/Graphics/SVG/1.1/DTD/svg11.dtd">
<!-- Creator: CorelDRAW -->
<svg xmlns="http://www.w3.org/2000/svg" xml:space="preserve" width="3300px" height="1010px" version="1.1" style="shape-rendering:geometricPrecision; text-rendering:geometricPrecision; image-rendering:optimizeQuality; fill-rule:evenodd; clip-rule:evenodd"
viewBox="0 0 3300 1010.47"
 xmlns:xlink="http://www.w3.org/1999/xlink"
 xmlns:xodm="http://www.corel.com/coreldraw/odm/2003">
 <defs>
  <style type="text/css">
   <![CDATA[
    .str0 {stroke:black;stroke-width:2;stroke-miterlimit:22.9256;stroke-opacity:0.850980}
    .fil0 {fill:none}
    .fil2 {fill:none}
    .fil1 {fill:#00C85F}
    .fil8 {fill:#FF6600}
    .fil6 {fill:#FF6600;fill-rule:nonzero}
    .fil7 {fill:#FFC000;fill-rule:nonzero}
    .fil3 {fill:black;fill-rule:nonzero;fill-opacity:0.850980}
    .fil4 {fill:#FF6600;fill-rule:nonzero;fill-opacity:0.850980}
    .fil5 {fill:#FFC000;fill-rule:nonzero;fill-opacity:0.850980}
    .fil9 {fill:white;fill-rule:nonzero;fill-opacity:0.850980}
   ]]>
  </style>
 </defs>
 <g id="Capa_x0020_1">
  <metadata id="CorelCorpID_0Corel-Layer"/>
  <rect class="fil0" width="3300" height="1010.47"/>
  <g id="_2385013497600">
   <g>
    <polygon class="fil1" points="783.77,396.11 1013.77,396.11 1013.77,626.11 783.77,626.11 "/>
    <polygon id="_1" class="fil2 str0" points="783.77,396.11 1013.77,396.11 1013.77,626.11 783.77,626.11 "/>
   </g>
   <path class="fil3" d="M847.54 523.3c-1.91,0.93 -4.42,1.39 -7.5,1.39 -4.03,0 -7.2,-1.18 -9.5,-3.55 -2.32,-2.37 -3.47,-5.53 -3.47,-9.47 0,-4.2 1.3,-7.61 3.89,-10.22 2.6,-2.61 5.96,-3.92 10.1,-3.92 2.56,0 4.73,0.33 6.48,0.98l0 5.69c-1.75,-1.05 -3.75,-1.57 -6,-1.57 -2.47,0 -4.46,0.77 -5.97,2.32 -1.52,1.55 -2.27,3.65 -2.27,6.3 0,2.54 0.71,4.56 2.14,6.07 1.43,1.51 3.35,2.26 5.77,2.26 2.31,0 4.42,-0.56 6.33,-1.69l0 5.41zm20.22 0.93l-15.64 0 0 -26.25 5.92 0 0 21.45 9.72 0 0 4.8zm9.45 0l-5.92 0 0 -26.25 5.92 0 0 26.25zm21.71 0l-15.75 0 0 -26.25 15.14 0 0 4.81 -9.22 0 0 5.84 8.58 0 0 4.8 -8.58 0 0 6 9.83 0 0 4.8zm27.83 0l-5.97 0 -10.83 -16.5c-0.63,-0.96 -1.07,-1.69 -1.31,-2.17l-0.07 0c0.09,0.92 0.14,2.34 0.14,4.24l0 14.43 -5.59 0 0 -26.25 6.38 0 10.42 15.98c0.47,0.72 0.91,1.43 1.32,2.14l0.07 0c-0.1,-0.61 -0.15,-1.81 -0.15,-3.61l0 -14.51 5.59 0 0 26.25zm24.44 -21.44l-7.49 0 0 21.44 -5.93 0 0 -21.44 -7.45 0 0 -4.81 20.87 0 0 4.81zm19.28 21.44l-15.75 0 0 -26.25 15.15 0 0 4.81 -9.23 0 0 5.84 8.59 0 0 4.8 -8.59 0 0 6 9.83 0 0 4.8z"/>
   <path class="fil4" d="M1022.26 826.54l-6.79 0 -4.08 -6.75c-0.31,-0.52 -0.6,-0.97 -0.88,-1.38 -0.29,-0.4 -0.57,-0.74 -0.85,-1.03 -0.29,-0.29 -0.59,-0.51 -0.9,-0.66 -0.32,-0.15 -0.65,-0.23 -1.02,-0.23l-1.59 0 0 10.05 -5.92 0 0 -26.25 9.38 0c6.37,0 9.56,2.38 9.56,7.13 0,0.92 -0.15,1.77 -0.43,2.54 -0.28,0.78 -0.67,1.48 -1.18,2.1 -0.52,0.62 -1.14,1.16 -1.86,1.61 -0.73,0.45 -1.54,0.8 -2.43,1.06l0 0.07c0.39,0.13 0.77,0.32 1.14,0.6 0.36,0.27 0.71,0.59 1.06,0.96 0.34,0.37 0.67,0.76 0.98,1.18 0.31,0.42 0.59,0.83 0.85,1.24l4.96 7.76zm-16.11 -21.82l0 7.3 2.56 0c1.27,0 2.29,-0.37 3.06,-1.1 0.78,-0.74 1.17,-1.67 1.17,-2.76 0,-2.3 -1.37,-3.44 -4.12,-3.44l-2.67 0zm33.91 14.1l-12.23 0c0.19,2.72 1.91,4.08 5.14,4.08 2.07,0 3.88,-0.49 5.44,-1.46l0 4.17c-1.73,0.93 -3.98,1.39 -6.75,1.39 -3.03,0 -5.38,-0.84 -7.05,-2.52 -1.67,-1.68 -2.51,-4.02 -2.51,-7.02 0,-3.11 0.9,-5.58 2.71,-7.4 1.81,-1.82 4.03,-2.72 6.66,-2.72 2.74,0 4.85,0.81 6.35,2.43 1.49,1.62 2.24,3.83 2.24,6.61l0 2.44zm-5.36 -3.56c0,-2.68 -1.09,-4.02 -3.26,-4.02 -0.93,0 -1.73,0.38 -2.41,1.15 -0.68,0.76 -1.09,1.73 -1.24,2.87l6.91 0zm7.57 10.79l0 -4.69c0.96,0.58 1.91,1 2.85,1.28 0.95,0.28 1.84,0.42 2.69,0.42 1.02,0 1.83,-0.14 2.42,-0.42 0.59,-0.28 0.89,-0.7 0.89,-1.28 0,-0.37 -0.13,-0.67 -0.4,-0.92 -0.27,-0.24 -0.61,-0.45 -1.04,-0.64 -0.42,-0.18 -0.88,-0.35 -1.38,-0.49 -0.5,-0.15 -0.98,-0.31 -1.44,-0.49 -0.75,-0.28 -1.4,-0.59 -1.97,-0.91 -0.57,-0.32 -1.05,-0.7 -1.43,-1.13 -0.39,-0.43 -0.68,-0.92 -0.88,-1.48 -0.2,-0.56 -0.31,-1.23 -0.31,-2 0,-1.05 0.24,-1.95 0.69,-2.71 0.46,-0.75 1.07,-1.37 1.83,-1.85 0.77,-0.49 1.64,-0.84 2.62,-1.07 0.98,-0.22 2.01,-0.33 3.07,-0.33 0.83,0 1.67,0.06 2.53,0.19 0.85,0.12 1.7,0.31 2.53,0.56l0 4.46c-0.74,-0.43 -1.52,-0.75 -2.36,-0.96 -0.84,-0.21 -1.66,-0.32 -2.46,-0.32 -0.38,0 -0.74,0.03 -1.07,0.1 -0.34,0.07 -0.64,0.17 -0.89,0.3 -0.26,0.12 -0.46,0.28 -0.6,0.49 -0.15,0.2 -0.22,0.43 -0.22,0.69 0,0.34 0.1,0.63 0.32,0.87 0.23,0.25 0.51,0.46 0.86,0.63 0.36,0.19 0.75,0.34 1.19,0.48 0.43,0.14 0.86,0.29 1.29,0.43 0.77,0.27 1.46,0.56 2.09,0.88 0.62,0.32 1.15,0.69 1.6,1.12 0.44,0.43 0.78,0.93 1.02,1.5 0.24,0.58 0.36,1.26 0.36,2.05 0,1.11 -0.24,2.06 -0.73,2.85 -0.48,0.79 -1.12,1.43 -1.92,1.92 -0.8,0.49 -1.72,0.86 -2.76,1.08 -1.05,0.23 -2.13,0.34 -3.25,0.34 -2.07,0 -3.97,-0.32 -5.74,-0.95zm23.59 -1.69l-0.07 0 0 10.81 -5.78 0 0 -27.38 5.78 0 0 2.82 0.07 0c1.43,-2.18 3.44,-3.27 6.03,-3.27 2.43,0 4.3,0.83 5.63,2.5 1.32,1.66 1.99,3.93 1.99,6.8 0,3.12 -0.78,5.63 -2.32,7.52 -1.55,1.89 -3.6,2.84 -6.17,2.84 -2.25,0 -3.97,-0.88 -5.16,-2.64zm-0.16 -7.69l0 1.5c0,1.3 0.34,2.35 1.02,3.17 0.69,0.82 1.59,1.23 2.7,1.23 1.31,0 2.34,-0.51 3.06,-1.53 0.73,-1.02 1.09,-2.46 1.09,-4.33 0,-3.3 -1.28,-4.94 -3.85,-4.94 -1.18,0 -2.15,0.44 -2.9,1.34 -0.75,0.9 -1.12,2.09 -1.12,3.56zm35.37 9.87l-5.76 0 0 -2.85 -0.09 0c-1.43,2.2 -3.34,3.31 -5.73,3.31 -4.35,0 -6.52,-2.63 -6.52,-7.9l0 -11.31 5.77 0 0 10.8c0,2.65 1.05,3.98 3.15,3.98 1.03,0 1.86,-0.37 2.48,-1.09 0.63,-0.73 0.94,-1.71 0.94,-2.96l0 -10.73 5.76 0 0 18.75zm21.72 -7.72l-12.23 0c0.2,2.72 1.91,4.08 5.15,4.08 2.06,0 3.87,-0.49 5.43,-1.46l0 4.17c-1.73,0.93 -3.98,1.39 -6.75,1.39 -3.03,0 -5.38,-0.84 -7.05,-2.52 -1.67,-1.68 -2.51,-4.02 -2.51,-7.02 0,-3.11 0.9,-5.58 2.71,-7.4 1.81,-1.82 4.03,-2.72 6.67,-2.72 2.73,0 4.85,0.81 6.34,2.43 1.49,1.62 2.24,3.83 2.24,6.61l0 2.44zm-5.36 -3.56c0,-2.68 -1.09,-4.02 -3.26,-4.02 -0.93,0 -1.73,0.38 -2.41,1.15 -0.68,0.76 -1.09,1.73 -1.24,2.87l6.91 0zm7.58 10.79l0 -4.69c0.95,0.58 1.9,1 2.85,1.28 0.94,0.28 1.83,0.42 2.68,0.42 1.02,0 1.83,-0.14 2.42,-0.42 0.6,-0.28 0.89,-0.7 0.89,-1.28 0,-0.37 -0.13,-0.67 -0.4,-0.92 -0.27,-0.24 -0.61,-0.45 -1.04,-0.64 -0.42,-0.18 -0.88,-0.35 -1.38,-0.49 -0.5,-0.15 -0.98,-0.31 -1.44,-0.49 -0.75,-0.28 -1.4,-0.59 -1.97,-0.91 -0.57,-0.32 -1.04,-0.7 -1.43,-1.13 -0.38,-0.43 -0.68,-0.92 -0.88,-1.48 -0.2,-0.56 -0.3,-1.23 -0.3,-2 0,-1.05 0.23,-1.95 0.68,-2.71 0.46,-0.75 1.07,-1.37 1.83,-1.85 0.77,-0.49 1.64,-0.84 2.62,-1.07 0.98,-0.22 2.01,-0.33 3.07,-0.33 0.83,0 1.67,0.06 2.53,0.19 0.85,0.12 1.7,0.31 2.53,0.56l0 4.46c-0.74,-0.43 -1.52,-0.75 -2.36,-0.96 -0.84,-0.21 -1.65,-0.32 -2.46,-0.32 -0.38,0 -0.74,0.03 -1.07,0.1 -0.34,0.07 -0.64,0.17 -0.89,0.3 -0.26,0.12 -0.46,0.28 -0.6,0.49 -0.15,0.2 -0.22,0.43 -0.22,0.69 0,0.34 0.11,0.63 0.32,0.87 0.23,0.25 0.51,0.46 0.87,0.63 0.35,0.19 0.75,0.34 1.18,0.48 0.43,0.14 0.86,0.29 1.29,0.43 0.77,0.27 1.46,0.56 2.09,0.88 0.62,0.32 1.15,0.69 1.6,1.12 0.44,0.43 0.79,0.93 1.02,1.5 0.24,0.58 0.36,1.26 0.36,2.05 0,1.11 -0.24,2.06 -0.73,2.85 -0.48,0.79 -1.11,1.43 -1.91,1.92 -0.8,0.49 -1.73,0.86 -2.77,1.08 -1.05,0.23 -2.13,0.34 -3.25,0.34 -2.06,0 -3.97,-0.32 -5.73,-0.95zm29.06 0.27c-0.86,0.45 -2.14,0.68 -3.86,0.68 -4.08,0 -6.12,-2.12 -6.12,-6.35l0 -8.59 -3.04 0 0 -4.27 3.04 0 0 -4.04 5.77 -1.65 0 5.69 4.21 0 0 4.27 -4.21 0 0 7.58c0,1.95 0.77,2.93 2.32,2.93 0.61,0 1.25,-0.18 1.89,-0.53l0 4.28zm18.86 0.22l-5.47 0 0 -2.69 -0.08 0c-1.26,2.1 -3.12,3.15 -5.59,3.15 -1.82,0 -3.25,-0.51 -4.29,-1.55 -1.04,-1.03 -1.56,-2.41 -1.56,-4.13 0,-3.63 2.15,-5.73 6.46,-6.3l5.09 -0.67c0,-2.05 -1.11,-3.08 -3.33,-3.08 -2.24,0 -4.36,0.67 -6.37,2l0 -4.36c0.8,-0.42 1.9,-0.78 3.3,-1.1 1.4,-0.32 2.67,-0.47 3.82,-0.47 5.35,0 8.02,2.66 8.02,8l0 11.2zm-5.44 -7.62l0 -1.26 -3.4 0.44c-1.88,0.24 -2.82,1.09 -2.82,2.55 0,0.65 0.22,1.2 0.68,1.62 0.46,0.42 1.08,0.63 1.86,0.63 1.09,0 1.97,-0.38 2.66,-1.13 0.68,-0.75 1.02,-1.7 1.02,-2.85z"/>
   <path class="fil5" d="M1011.54 201.41l0 -5.86c1.06,0.89 2.22,1.56 3.46,2.01 1.25,0.44 2.51,0.66 3.77,0.66 0.75,0 1.4,-0.06 1.95,-0.2 0.56,-0.13 1.02,-0.31 1.4,-0.56 0.37,-0.23 0.65,-0.52 0.83,-0.83 0.19,-0.33 0.27,-0.68 0.27,-1.06 0,-0.51 -0.14,-0.97 -0.43,-1.37 -0.3,-0.41 -0.7,-0.78 -1.2,-1.12 -0.51,-0.34 -1.11,-0.67 -1.81,-0.99 -0.69,-0.32 -1.44,-0.64 -2.25,-0.97 -2.05,-0.85 -3.58,-1.9 -4.59,-3.13 -1,-1.23 -1.5,-2.72 -1.5,-4.47 0,-1.36 0.26,-2.54 0.82,-3.52 0.55,-0.99 1.3,-1.79 2.24,-2.43 0.95,-0.63 2.04,-1.1 3.29,-1.4 1.24,-0.3 2.56,-0.45 3.95,-0.45 1.37,0 2.58,0.09 3.64,0.25 1.05,0.16 2.03,0.42 2.92,0.76l0 5.48c-0.44,-0.31 -0.92,-0.58 -1.44,-0.81 -0.52,-0.23 -1.06,-0.43 -1.6,-0.58 -0.55,-0.15 -1.1,-0.26 -1.64,-0.34 -0.55,-0.07 -1.06,-0.11 -1.55,-0.11 -0.67,0 -1.28,0.07 -1.83,0.19 -0.55,0.13 -1.01,0.32 -1.39,0.55 -0.38,0.23 -0.67,0.5 -0.88,0.83 -0.21,0.32 -0.31,0.68 -0.31,1.08 0,0.45 0.11,0.84 0.34,1.19 0.24,0.35 0.57,0.68 1,0.99 0.42,0.31 0.94,0.61 1.55,0.91 0.61,0.3 1.31,0.61 2.07,0.93 1.05,0.44 1.99,0.9 2.83,1.4 0.84,0.49 1.55,1.05 2.15,1.67 0.6,0.63 1.05,1.34 1.37,2.14 0.32,0.79 0.48,1.72 0.48,2.79 0,1.47 -0.28,2.69 -0.83,3.69 -0.56,0.99 -1.31,1.8 -2.26,2.41 -0.95,0.62 -2.06,1.07 -3.32,1.34 -1.27,0.26 -2.6,0.39 -4.01,0.39 -1.44,0 -2.81,-0.11 -4.11,-0.36 -1.3,-0.24 -2.43,-0.61 -3.38,-1.1zm30.6 1.46c-3.13,0 -5.58,-0.87 -7.37,-2.62 -1.79,-1.75 -2.68,-4.13 -2.68,-7.13 0,-3.1 0.92,-5.53 2.78,-7.28 1.85,-1.75 4.37,-2.63 7.52,-2.63 3.12,0 5.56,0.88 7.33,2.63 1.77,1.75 2.65,4.07 2.65,6.95 0,3.11 -0.91,5.57 -2.73,7.38 -1.83,1.8 -4.33,2.7 -7.5,2.7zm0.15 -15.23c-1.37,0 -2.43,0.47 -3.19,1.41 -0.76,0.94 -1.14,2.27 -1.14,3.99 0,3.6 1.46,5.4 4.36,5.4 2.77,0 4.16,-1.85 4.16,-5.54 0,-3.51 -1.4,-5.26 -4.19,-5.26zm19.62 14.78l-5.78 0 0 -27.76 5.78 0 0 27.76zm7.8 -21.72c-0.97,0 -1.77,-0.29 -2.39,-0.87 -0.63,-0.58 -0.94,-1.29 -0.94,-2.13 0,-0.87 0.31,-1.58 0.94,-2.13 0.62,-0.54 1.42,-0.82 2.39,-0.82 1,0 1.8,0.28 2.41,0.82 0.62,0.55 0.93,1.26 0.93,2.13 0,0.87 -0.31,1.6 -0.93,2.16 -0.61,0.56 -1.41,0.84 -2.41,0.84zm2.86 21.72l-5.78 0 0 -18.75 5.78 0 0 18.75zm19.08 -0.68c-1.31,0.76 -3.19,1.13 -5.66,1.13 -2.88,0 -5.21,-0.86 -6.99,-2.61 -1.78,-1.75 -2.68,-4 -2.68,-6.76 0,-3.19 0.96,-5.69 2.87,-7.53 1.91,-1.84 4.47,-2.76 7.66,-2.76 2.21,0 3.81,0.3 4.8,0.88l0 4.91c-1.21,-0.91 -2.56,-1.36 -4.05,-1.36 -1.66,0 -2.97,0.48 -3.94,1.46 -0.97,0.97 -1.46,2.31 -1.46,4.02 0,1.65 0.47,2.96 1.39,3.9 0.93,0.96 2.21,1.42 3.83,1.42 1.44,0 2.85,-0.45 4.23,-1.35l0 4.65zm6.72 -21.04c-0.98,0 -1.78,-0.29 -2.4,-0.87 -0.62,-0.58 -0.93,-1.29 -0.93,-2.13 0,-0.87 0.31,-1.58 0.93,-2.13 0.62,-0.54 1.42,-0.82 2.4,-0.82 0.99,0 1.79,0.28 2.41,0.82 0.61,0.55 0.92,1.26 0.92,2.13 0,0.87 -0.31,1.6 -0.92,2.16 -0.62,0.56 -1.42,0.84 -2.41,0.84zm2.85 21.72l-5.78 0 0 -18.75 5.78 0 0 18.75zm16.21 -0.22c-0.86,0.45 -2.14,0.67 -3.86,0.67 -4.08,0 -6.12,-2.11 -6.12,-6.35l0 -8.58 -3.04 0 0 -4.27 3.04 0 0 -4.05 5.77 -1.65 0 5.7 4.21 0 0 4.27 -4.21 0 0 7.58c0,1.95 0.77,2.92 2.32,2.92 0.61,0 1.25,-0.17 1.89,-0.53l0 4.29zm21.07 0.22l-5.76 0 0 -2.86 -0.09 0c-1.43,2.21 -3.34,3.31 -5.73,3.31 -4.35,0 -6.52,-2.63 -6.52,-7.89l0 -11.31 5.77 0 0 10.8c0,2.65 1.05,3.97 3.15,3.97 1.03,0 1.86,-0.36 2.48,-1.08 0.63,-0.73 0.94,-1.72 0.94,-2.96l0 -10.73 5.76 0 0 18.75zm23.22 0l-5.78 0 0 -2.58 -0.07 0c-1.32,2.02 -3.26,3.03 -5.81,3.03 -2.34,0 -4.23,-0.82 -5.65,-2.48 -1.44,-1.65 -2.15,-3.96 -2.15,-6.93 0,-3.1 0.79,-5.58 2.36,-7.45 1.58,-1.87 3.64,-2.8 6.19,-2.8 2.42,0 4.1,0.86 5.06,2.6l0.07 0 0 -11.15 5.78 0 0 27.76zm-5.67 -9.12l0 -1.41c0,-1.22 -0.36,-2.23 -1.06,-3.04 -0.71,-0.81 -1.64,-1.21 -2.77,-1.21 -1.28,0 -2.28,0.5 -3,1.51 -0.72,1.01 -1.08,2.39 -1.08,4.15 0,1.65 0.35,2.92 1.04,3.81 0.7,0.89 1.66,1.33 2.89,1.33 1.18,0 2.13,-0.46 2.87,-1.4 0.74,-0.95 1.11,-2.19 1.11,-3.74z"/>
   <g>
    <path id="flecha_roja" class="fil6" d="M948.79 634.31l15 35 0 0 -0.93 -0.45 -0.94 -0.42 -0.94 -0.4 -0.94 -0.37 -0.93 -0.33 -0.94 -0.31 -0.94 -0.28 -0.94 -0.25 -0.94 -0.22 -0.93 -0.19 -0.94 -0.16 -0.94 -0.13 -0.94 -0.1 -0.93 -0.08 -0.94 -0.04 -0.94 -0.02 -0.94 0.02 -0.93 0.04 -0.94 0.08 -0.94 0.1 -0.94 0.13 -0.93 0.16 -0.94 0.19 -0.94 0.22 -0.94 0.25 -0.94 0.28 -0.93 0.31 -0.94 0.33 -0.94 0.37 -0.94 0.4 -0.93 0.42 -0.94 0.45 15 -35zm137.79 128.11l0 5 0 0 -7.19 -0.15 -7.1 -0.44 -7 -0.73 -6.89 -1.01 -6.77 -1.28 -6.64 -1.55 -6.51 -1.8 -6.35 -2.06 -6.21 -2.3 -6.04 -2.54 -5.86 -2.76 -5.69 -2.99 -5.5 -3.21 -5.3 -3.42 -5.09 -3.62 -4.88 -3.81 -4.65 -4 -4.42 -4.18 -4.17 -4.36 -3.93 -4.53 -3.66 -4.69 -3.39 -4.84 -3.12 -4.98 -2.82 -5.13 -2.53 -5.26 -2.22 -5.38 -1.91 -5.51 -1.58 -5.61 -1.24 -5.71 -0.9 -5.81 -0.55 -5.89 -0.18 -5.97 5 0 0.18 5.66 0.51 5.59 0.86 5.51 1.18 5.41 1.49 5.33 1.81 5.22 2.11 5.12 2.41 5.01 2.69 4.88 2.98 4.76 3.24 4.63 3.5 4.48 3.76 4.34 4.01 4.18 4.24 4.02 4.47 3.85 4.7 3.67 4.9 3.48 5.12 3.3 5.3 3.09 5.5 2.89 5.67 2.68 5.84 2.45 6.01 2.23 6.15 1.99 6.3 1.75 6.44 1.5 6.56 1.24 6.69 0.98 6.79 0.71 6.89 0.43 6.99 0.14 0 0zm135.29 -110.52l5 0 -0.18 5.97 -0.55 5.89 -0.9 5.81 -1.24 5.71 -1.58 5.61 -1.91 5.51 -2.22 5.38 -2.53 5.26 -2.82 5.13 -3.11 4.98 -3.4 4.84 -3.66 4.69 -3.93 4.53 -4.17 4.36 -4.42 4.18 -4.65 4 -4.88 3.81 -5.09 3.62 -5.3 3.42 -5.5 3.21 -5.68 2.99 -5.87 2.76 -6.04 2.54 -6.21 2.3 -6.35 2.06 -6.51 1.8 -6.64 1.55 -6.77 1.28 -6.88 1.01 -7 0.73 -7.11 0.44 -7.19 0.15 0 -5 6.99 -0.14 6.89 -0.43 6.79 -0.71 6.69 -0.98 6.56 -1.24 6.44 -1.5 6.3 -1.75 6.15 -1.99 6.01 -2.23 5.84 -2.45 5.68 -2.68 5.49 -2.89 5.31 -3.09 5.11 -3.3 4.9 -3.48 4.7 -3.67 4.47 -3.85 4.24 -4.02 4.01 -4.18 3.76 -4.34 3.5 -4.48 3.25 -4.63 2.97 -4.76 2.69 -4.88 2.41 -5.01 2.11 -5.12 1.81 -5.22 1.5 -5.33 1.18 -5.41 0.85 -5.51 0.52 -5.59 0.17 -5.66z"/>
   </g>
   <g>
    <path id="flecha_amarilla" class="fil7" d="M1224.37 368.61l-15 -35 0 0 0.94 0.45 0.93 0.42 0.94 0.4 0.94 0.37 0.94 0.33 0.93 0.31 0.94 0.28 0.94 0.25 0.94 0.22 0.93 0.19 0.94 0.16 0.94 0.13 0.94 0.11 0.93 0.07 0.94 0.04 0.94 0.02 0.94 -0.02 0.94 -0.04 0.93 -0.07 0.94 -0.11 0.94 -0.13 0.94 -0.16 0.93 -0.19 0.94 -0.22 0.94 -0.25 0.94 -0.28 0.94 -0.31 0.93 -0.33 0.94 -0.37 0.94 -0.4 0.94 -0.42 0.93 -0.45 -15 35zm-137.79 -128.11l0 -5 0 0 7.19 0.15 7.11 0.44 7 0.73 6.88 1.01 6.77 1.28 6.64 1.55 6.51 1.8 6.35 2.06 6.21 2.3 6.04 2.54 5.87 2.76 5.68 2.99 5.5 3.21 5.3 3.42 5.09 3.62 4.88 3.81 4.65 4 4.42 4.18 4.17 4.36 3.93 4.53 3.66 4.69 3.4 4.84 3.11 4.98 2.82 5.13 2.53 5.26 2.22 5.39 1.91 5.5 1.58 5.61 1.24 5.71 0.9 5.81 0.55 5.89 0.18 5.97 -5 0 -0.17 -5.66 -0.52 -5.59 -0.85 -5.51 -1.18 -5.41 -1.5 -5.33 -1.81 -5.22 -2.11 -5.12 -2.41 -5.01 -2.69 -4.88 -2.97 -4.76 -3.25 -4.63 -3.5 -4.48 -3.76 -4.34 -4.01 -4.18 -4.24 -4.02 -4.47 -3.85 -4.7 -3.67 -4.9 -3.48 -5.11 -3.3 -5.31 -3.09 -5.49 -2.89 -5.68 -2.68 -5.84 -2.45 -6.01 -2.23 -6.15 -1.99 -6.3 -1.75 -6.44 -1.5 -6.56 -1.24 -6.69 -0.98 -6.79 -0.71 -6.89 -0.42 -6.99 -0.15 0 0zm-135.29 110.52l-5 0 0.18 -5.97 0.55 -5.89 0.9 -5.81 1.24 -5.71 1.58 -5.61 1.91 -5.5 2.22 -5.39 2.53 -5.26 2.82 -5.13 3.12 -4.98 3.39 -4.84 3.66 -4.69 3.93 -4.53 4.17 -4.36 4.42 -4.18 4.65 -4 4.88 -3.81 5.09 -3.62 5.3 -3.42 5.5 -3.21 5.69 -2.99 5.86 -2.76 6.04 -2.54 6.21 -2.3 6.35 -2.06 6.51 -1.8 6.64 -1.55 6.77 -1.28 6.89 -1.01 7 -0.73 7.1 -0.44 7.19 -0.15 0 5 -6.99 0.15 -6.89 0.42 -6.79 0.71 -6.69 0.98 -6.56 1.24 -6.44 1.5 -6.3 1.75 -6.15 1.99 -6.01 2.23 -5.84 2.45 -5.67 2.68 -5.5 2.89 -5.3 3.09 -5.12 3.3 -4.9 3.48 -4.7 3.67 -4.47 3.85 -4.24 4.02 -4.01 4.18 -3.76 4.34 -3.5 4.48 -3.24 4.63 -2.98 4.76 -2.69 4.88 -2.41 5.01 -2.11 5.12 -1.81 5.22 -1.49 5.33 -1.18 5.41 -0.86 5.51 -0.51 5.59 -0.18 5.66z"/>
   </g>
   <g>
    <polygon class="fil8" points="1159.39,396.11 1389.39,396.11 1389.39,626.11 1159.39,626.11 "/>
    <polygon id="_1_0" class="fil2 str0" points="1159.39,396.11 1389.39,396.11 1389.39,626.11 1159.39,626.11 "/>
   </g>
   <path class="fil3" d="M1183.61 523.23l0 -5.87c1.06,0.9 2.21,1.57 3.46,2.01 1.24,0.44 2.5,0.67 3.77,0.67 0.75,0 1.4,-0.07 1.95,-0.2 0.55,-0.14 1.01,-0.32 1.39,-0.56 0.37,-0.24 0.65,-0.52 0.83,-0.84 0.19,-0.33 0.28,-0.68 0.28,-1.06 0,-0.51 -0.15,-0.97 -0.44,-1.37 -0.3,-0.4 -0.69,-0.78 -1.2,-1.12 -0.51,-0.34 -1.11,-0.67 -1.81,-0.98 -0.69,-0.32 -1.44,-0.65 -2.25,-0.98 -2.05,-0.85 -3.58,-1.89 -4.58,-3.13 -1.01,-1.23 -1.51,-2.72 -1.51,-4.46 0,-1.37 0.27,-2.55 0.82,-3.53 0.55,-0.98 1.3,-1.79 2.24,-2.43 0.95,-0.63 2.05,-1.1 3.29,-1.4 1.24,-0.3 2.56,-0.45 3.95,-0.45 1.37,0 2.59,0.09 3.64,0.25 1.05,0.16 2.03,0.42 2.92,0.76l0 5.48c-0.44,-0.31 -0.92,-0.58 -1.44,-0.81 -0.51,-0.23 -1.05,-0.42 -1.6,-0.58 -0.55,-0.15 -1.1,-0.26 -1.64,-0.34 -0.54,-0.06 -1.06,-0.1 -1.54,-0.1 -0.68,0 -1.28,0.06 -1.84,0.19 -0.54,0.13 -1.01,0.31 -1.39,0.54 -0.37,0.23 -0.67,0.51 -0.88,0.83 -0.21,0.33 -0.31,0.69 -0.31,1.09 0,0.44 0.12,0.84 0.35,1.18 0.23,0.35 0.56,0.68 0.99,0.99 0.43,0.31 0.94,0.62 1.56,0.92 0.6,0.3 1.3,0.6 2.07,0.92 1.05,0.44 1.98,0.91 2.82,1.4 0.84,0.49 1.56,1.06 2.15,1.68 0.6,0.62 1.06,1.33 1.38,2.13 0.32,0.8 0.47,1.73 0.47,2.79 0,1.47 -0.27,2.69 -0.83,3.69 -0.56,1 -1.31,1.8 -2.26,2.42 -0.95,0.61 -2.06,1.06 -3.32,1.33 -1.27,0.27 -2.6,0.4 -4.01,0.4 -1.43,0 -2.8,-0.12 -4.1,-0.37 -1.3,-0.24 -2.43,-0.61 -3.38,-1.09zm37.97 1l-15.75 0 0 -26.25 15.14 0 0 4.81 -9.22 0 0 5.84 8.58 0 0 4.8 -8.58 0 0 6 9.83 0 0 4.8zm26.24 0l-6.8 0 -4.08 -6.75c-0.3,-0.52 -0.6,-0.97 -0.88,-1.38 -0.28,-0.4 -0.56,-0.74 -0.85,-1.03 -0.29,-0.29 -0.59,-0.51 -0.9,-0.66 -0.31,-0.15 -0.65,-0.23 -1.01,-0.23l-1.6 0 0 10.05 -5.91 0 0 -26.25 9.37 0c6.38,0 9.56,2.38 9.56,7.13 0,0.92 -0.14,1.77 -0.42,2.54 -0.28,0.78 -0.68,1.48 -1.19,2.1 -0.51,0.62 -1.13,1.16 -1.86,1.61 -0.73,0.45 -1.53,0.8 -2.43,1.06l0 0.07c0.4,0.13 0.77,0.32 1.14,0.6 0.37,0.27 0.72,0.59 1.06,0.96 0.35,0.37 0.67,0.76 0.98,1.18 0.32,0.42 0.6,0.83 0.85,1.24l4.97 7.76zm-16.12 -21.82l0 7.3 2.57 0c1.27,0 2.28,-0.37 3.05,-1.1 0.78,-0.74 1.18,-1.67 1.18,-2.76 0,-2.3 -1.38,-3.44 -4.13,-3.44l-2.67 0zm40.43 -4.43l-9.05 26.25 -6.7 0 -8.93 -26.25 6.37 0 5.48 18.27c0.29,0.99 0.47,1.86 0.53,2.62l0.1 0c0.09,-0.82 0.28,-1.72 0.57,-2.69l5.44 -18.2 6.19 0zm9.07 26.25l-5.92 0 0 -26.25 5.92 0 0 26.25zm5.96 0l0 -26.25 9.31 0c9.32,0 13.98,4.26 13.98,12.8 0,4.08 -1.27,7.35 -3.82,9.79 -2.54,2.44 -5.93,3.66 -10.16,3.66l-9.31 0zm5.92 -21.44l0 16.64 2.93 0c2.56,0 4.57,-0.77 6.03,-2.3 1.46,-1.54 2.19,-3.64 2.19,-6.29 0,-2.5 -0.73,-4.46 -2.17,-5.9 -1.45,-1.43 -3.48,-2.15 -6.09,-2.15l-2.89 0zm32.83 21.9c-3.76,0 -6.83,-1.23 -9.19,-3.67 -2.37,-2.45 -3.56,-5.64 -3.56,-9.57 0,-4.15 1.2,-7.51 3.61,-10.07 2.41,-2.56 5.59,-3.85 9.56,-3.85 3.75,0 6.78,1.23 9.09,3.68 2.31,2.46 3.47,5.7 3.47,9.71 0,4.12 -1.2,7.46 -3.6,9.98 -2.39,2.52 -5.53,3.79 -9.38,3.79zm0.26 -22.06c-2.08,0 -3.73,0.77 -4.95,2.33 -1.22,1.56 -1.83,3.62 -1.83,6.18 0,2.6 0.61,4.65 1.83,6.17 1.22,1.52 2.82,2.27 4.8,2.27 2.04,0 3.65,-0.74 4.85,-2.2 1.19,-1.48 1.79,-3.52 1.79,-6.13 0,-2.72 -0.58,-4.84 -1.73,-6.36 -1.17,-1.51 -2.75,-2.26 -4.76,-2.26zm39.1 21.6l-6.79 0 -4.08 -6.75c-0.31,-0.52 -0.6,-0.97 -0.88,-1.38 -0.28,-0.4 -0.56,-0.74 -0.85,-1.03 -0.29,-0.29 -0.59,-0.51 -0.9,-0.66 -0.31,-0.15 -0.65,-0.23 -1.01,-0.23l-1.6 0 0 10.05 -5.91 0 0 -26.25 9.37 0c6.38,0 9.56,2.38 9.56,7.13 0,0.92 -0.14,1.77 -0.42,2.54 -0.28,0.78 -0.68,1.48 -1.19,2.1 -0.51,0.62 -1.13,1.16 -1.86,1.61 -0.73,0.45 -1.53,0.8 -2.43,1.06l0 0.07c0.4,0.13 0.77,0.32 1.14,0.6 0.37,0.27 0.72,0.59 1.06,0.96 0.35,0.37 0.67,0.76 0.98,1.18 0.32,0.42 0.6,0.83 0.85,1.24l4.96 7.76zm-16.11 -21.82l0 7.3 2.57 0c1.27,0 2.28,-0.37 3.05,-1.1 0.78,-0.74 1.18,-1.67 1.18,-2.76 0,-2.3 -1.38,-3.44 -4.13,-3.44l-2.67 0z"/>
   <path class="fil4" d="M1397.87 826.54l-6.79 0 -4.08 -6.75c-0.31,-0.52 -0.6,-0.97 -0.88,-1.38 -0.28,-0.4 -0.57,-0.74 -0.85,-1.03 -0.29,-0.29 -0.59,-0.51 -0.9,-0.66 -0.32,-0.15 -0.65,-0.23 -1.01,-0.23l-1.6 0 0 10.05 -5.92 0 0 -26.25 9.38 0c6.37,0 9.56,2.38 9.56,7.13 0,0.92 -0.14,1.77 -0.43,2.54 -0.28,0.78 -0.67,1.48 -1.18,2.1 -0.51,0.62 -1.13,1.16 -1.86,1.61 -0.73,0.45 -1.54,0.8 -2.43,1.06l0 0.07c0.39,0.13 0.77,0.32 1.14,0.6 0.37,0.27 0.72,0.59 1.06,0.96 0.34,0.37 0.67,0.76 0.98,1.18 0.31,0.42 0.6,0.83 0.85,1.24l4.96 7.76zm-16.11 -21.82l0 7.3 2.56 0c1.27,0 2.29,-0.37 3.06,-1.1 0.78,-0.74 1.17,-1.67 1.17,-2.76 0,-2.3 -1.37,-3.44 -4.12,-3.44l-2.67 0zm33.91 14.1l-12.23 0c0.2,2.72 1.91,4.08 5.15,4.08 2.06,0 3.87,-0.49 5.43,-1.46l0 4.17c-1.73,0.93 -3.98,1.39 -6.75,1.39 -3.03,0 -5.38,-0.84 -7.05,-2.52 -1.67,-1.68 -2.51,-4.02 -2.51,-7.02 0,-3.11 0.9,-5.58 2.71,-7.4 1.81,-1.82 4.03,-2.72 6.67,-2.72 2.73,0 4.85,0.81 6.34,2.43 1.49,1.62 2.24,3.83 2.24,6.61l0 2.44zm-5.36 -3.56c0,-2.68 -1.09,-4.02 -3.26,-4.02 -0.93,0 -1.73,0.38 -2.41,1.15 -0.68,0.76 -1.09,1.73 -1.24,2.87l6.91 0zm7.58 10.79l0 -4.69c0.95,0.58 1.9,1 2.85,1.28 0.94,0.28 1.83,0.42 2.68,0.42 1.02,0 1.83,-0.14 2.42,-0.42 0.6,-0.28 0.89,-0.7 0.89,-1.28 0,-0.37 -0.13,-0.67 -0.4,-0.92 -0.27,-0.24 -0.61,-0.45 -1.04,-0.64 -0.42,-0.18 -0.88,-0.35 -1.38,-0.49 -0.5,-0.15 -0.98,-0.31 -1.44,-0.49 -0.75,-0.28 -1.4,-0.59 -1.97,-0.91 -0.57,-0.32 -1.04,-0.7 -1.43,-1.13 -0.38,-0.43 -0.68,-0.92 -0.88,-1.48 -0.2,-0.56 -0.3,-1.23 -0.3,-2 0,-1.05 0.23,-1.95 0.68,-2.71 0.46,-0.75 1.07,-1.37 1.84,-1.85 0.76,-0.49 1.63,-0.84 2.61,-1.07 0.99,-0.22 2.01,-0.33 3.07,-0.33 0.83,0 1.67,0.06 2.53,0.19 0.85,0.12 1.7,0.31 2.53,0.56l0 4.46c-0.74,-0.43 -1.52,-0.75 -2.36,-0.96 -0.84,-0.21 -1.65,-0.32 -2.46,-0.32 -0.38,0 -0.74,0.03 -1.07,0.1 -0.34,0.07 -0.64,0.17 -0.89,0.3 -0.26,0.12 -0.46,0.28 -0.6,0.49 -0.15,0.2 -0.22,0.43 -0.22,0.69 0,0.34 0.11,0.63 0.32,0.87 0.23,0.25 0.51,0.46 0.87,0.63 0.35,0.19 0.75,0.34 1.18,0.48 0.43,0.14 0.86,0.29 1.29,0.43 0.77,0.27 1.46,0.56 2.09,0.88 0.62,0.32 1.16,0.69 1.6,1.12 0.44,0.43 0.79,0.93 1.02,1.5 0.24,0.58 0.36,1.26 0.36,2.05 0,1.11 -0.24,2.06 -0.73,2.85 -0.48,0.79 -1.11,1.43 -1.91,1.92 -0.8,0.49 -1.73,0.86 -2.77,1.08 -1.05,0.23 -2.13,0.34 -3.25,0.34 -2.06,0 -3.97,-0.32 -5.73,-0.95zm23.58 -1.69l-0.07 0 0 10.81 -5.78 0 0 -27.38 5.78 0 0 2.82 0.07 0c1.44,-2.18 3.44,-3.27 6.03,-3.27 2.43,0 4.3,0.83 5.63,2.5 1.33,1.66 1.99,3.93 1.99,6.8 0,3.12 -0.78,5.63 -2.32,7.52 -1.54,1.89 -3.6,2.84 -6.16,2.84 -2.26,0 -3.98,-0.88 -5.17,-2.64zm-0.16 -7.69l0 1.5c0,1.3 0.34,2.35 1.03,3.17 0.68,0.82 1.58,1.23 2.69,1.23 1.31,0 2.34,-0.51 3.06,-1.53 0.73,-1.02 1.1,-2.46 1.1,-4.33 0,-3.3 -1.29,-4.94 -3.85,-4.94 -1.19,0 -2.15,0.44 -2.9,1.34 -0.75,0.9 -1.13,2.09 -1.13,3.56zm35.38 9.87l-5.77 0 0 -2.85 -0.09 0c-1.43,2.2 -3.34,3.31 -5.73,3.31 -4.35,0 -6.52,-2.63 -6.52,-7.9l0 -11.31 5.77 0 0 10.8c0,2.65 1.05,3.98 3.15,3.98 1.04,0 1.86,-0.37 2.49,-1.09 0.62,-0.73 0.93,-1.71 0.93,-2.96l0 -10.73 5.77 0 0 18.75zm21.72 -7.72l-12.24 0c0.2,2.72 1.92,4.08 5.15,4.08 2.06,0 3.87,-0.49 5.44,-1.46l0 4.17c-1.74,0.93 -3.99,1.39 -6.76,1.39 -3.03,0 -5.38,-0.84 -7.05,-2.52 -1.67,-1.68 -2.51,-4.02 -2.51,-7.02 0,-3.11 0.9,-5.58 2.71,-7.4 1.81,-1.82 4.03,-2.72 6.67,-2.72 2.73,0 4.85,0.81 6.34,2.43 1.5,1.62 2.25,3.83 2.25,6.61l0 2.44zm-5.37 -3.56c0,-2.68 -1.08,-4.02 -3.26,-4.02 -0.92,0 -1.73,0.38 -2.41,1.15 -0.68,0.76 -1.08,1.73 -1.23,2.87l6.9 0zm7.58 10.79l0 -4.69c0.95,0.58 1.9,1 2.85,1.28 0.94,0.28 1.84,0.42 2.68,0.42 1.02,0 1.84,-0.14 2.42,-0.42 0.6,-0.28 0.89,-0.7 0.89,-1.28 0,-0.37 -0.13,-0.67 -0.4,-0.92 -0.27,-0.24 -0.61,-0.45 -1.04,-0.64 -0.41,-0.18 -0.88,-0.35 -1.38,-0.49 -0.5,-0.15 -0.98,-0.31 -1.44,-0.49 -0.74,-0.28 -1.4,-0.59 -1.97,-0.91 -0.57,-0.32 -1.04,-0.7 -1.43,-1.13 -0.38,-0.43 -0.68,-0.92 -0.88,-1.48 -0.2,-0.56 -0.3,-1.23 -0.3,-2 0,-1.05 0.23,-1.95 0.69,-2.71 0.45,-0.75 1.06,-1.37 1.83,-1.85 0.76,-0.49 1.63,-0.84 2.62,-1.07 0.98,-0.22 2,-0.33 3.06,-0.33 0.84,0 1.67,0.06 2.53,0.19 0.86,0.12 1.7,0.31 2.53,0.56l0 4.46c-0.74,-0.43 -1.52,-0.75 -2.36,-0.96 -0.83,-0.21 -1.65,-0.32 -2.46,-0.32 -0.38,0 -0.74,0.03 -1.07,0.1 -0.33,0.07 -0.63,0.17 -0.89,0.3 -0.26,0.12 -0.46,0.28 -0.6,0.49 -0.15,0.2 -0.22,0.43 -0.22,0.69 0,0.34 0.11,0.63 0.33,0.87 0.22,0.25 0.5,0.46 0.86,0.63 0.35,0.19 0.75,0.34 1.18,0.48 0.43,0.14 0.86,0.29 1.29,0.43 0.77,0.27 1.47,0.56 2.09,0.88 0.62,0.32 1.16,0.69 1.6,1.12 0.44,0.43 0.79,0.93 1.03,1.5 0.23,0.58 0.35,1.26 0.35,2.05 0,1.11 -0.24,2.06 -0.72,2.85 -0.48,0.79 -1.12,1.43 -1.92,1.92 -0.8,0.49 -1.73,0.86 -2.77,1.08 -1.04,0.23 -2.13,0.34 -3.25,0.34 -2.06,0 -3.97,-0.32 -5.73,-0.95zm29.06 0.27c-0.86,0.45 -2.14,0.68 -3.86,0.68 -4.08,0 -6.12,-2.12 -6.12,-6.35l0 -8.59 -3.04 0 0 -4.27 3.04 0 0 -4.04 5.77 -1.65 0 5.69 4.21 0 0 4.27 -4.21 0 0 7.58c0,1.95 0.77,2.93 2.32,2.93 0.62,0 1.25,-0.18 1.89,-0.53l0 4.28zm18.86 0.22l-5.47 0 0 -2.69 -0.08 0c-1.25,2.1 -3.12,3.15 -5.58,3.15 -1.82,0 -3.25,-0.51 -4.3,-1.55 -1.04,-1.03 -1.56,-2.41 -1.56,-4.13 0,-3.63 2.16,-5.73 6.46,-6.3l5.1 -0.67c0,-2.05 -1.12,-3.08 -3.34,-3.08 -2.23,0 -4.36,0.67 -6.37,2l0 -4.36c0.81,-0.42 1.91,-0.78 3.31,-1.1 1.39,-0.32 2.66,-0.47 3.81,-0.47 5.35,0 8.02,2.66 8.02,8l0 11.2zm-5.43 -7.62l0 -1.26 -3.41 0.44c-1.88,0.24 -2.82,1.09 -2.82,2.55 0,0.65 0.23,1.2 0.68,1.62 0.46,0.42 1.08,0.63 1.86,0.63 1.09,0 1.97,-0.38 2.66,-1.13 0.68,-0.75 1.03,-1.7 1.03,-2.85z"/>
   <path class="fil5" d="M1387.15 201.41l0 -5.86c1.07,0.89 2.22,1.56 3.47,2.01 1.24,0.44 2.5,0.66 3.77,0.66 0.75,0 1.4,-0.06 1.95,-0.2 0.55,-0.13 1.01,-0.31 1.39,-0.56 0.37,-0.23 0.65,-0.52 0.83,-0.83 0.19,-0.33 0.28,-0.68 0.28,-1.06 0,-0.51 -0.15,-0.97 -0.44,-1.37 -0.3,-0.41 -0.7,-0.78 -1.2,-1.12 -0.51,-0.34 -1.11,-0.67 -1.81,-0.99 -0.69,-0.32 -1.44,-0.64 -2.25,-0.97 -2.05,-0.85 -3.58,-1.9 -4.59,-3.13 -1,-1.23 -1.5,-2.72 -1.5,-4.47 0,-1.36 0.27,-2.54 0.82,-3.52 0.55,-0.99 1.3,-1.79 2.24,-2.43 0.95,-0.63 2.04,-1.1 3.29,-1.4 1.24,-0.3 2.56,-0.45 3.95,-0.45 1.37,0 2.59,0.09 3.64,0.25 1.05,0.16 2.03,0.42 2.92,0.76l0 5.48c-0.44,-0.31 -0.92,-0.58 -1.44,-0.81 -0.52,-0.23 -1.05,-0.43 -1.6,-0.58 -0.55,-0.15 -1.1,-0.26 -1.64,-0.34 -0.54,-0.07 -1.06,-0.11 -1.54,-0.11 -0.68,0 -1.29,0.07 -1.84,0.19 -0.55,0.13 -1.01,0.32 -1.39,0.55 -0.37,0.23 -0.67,0.5 -0.88,0.83 -0.21,0.32 -0.31,0.68 -0.31,1.08 0,0.45 0.12,0.84 0.35,1.19 0.23,0.35 0.56,0.68 0.99,0.99 0.43,0.31 0.94,0.61 1.56,0.91 0.6,0.3 1.3,0.61 2.07,0.93 1.05,0.44 1.98,0.9 2.82,1.4 0.84,0.49 1.56,1.05 2.15,1.67 0.6,0.63 1.06,1.34 1.38,2.14 0.31,0.79 0.47,1.72 0.47,2.79 0,1.47 -0.27,2.69 -0.83,3.69 -0.56,0.99 -1.31,1.8 -2.26,2.41 -0.95,0.62 -2.06,1.07 -3.32,1.34 -1.27,0.26 -2.6,0.39 -4.01,0.39 -1.44,0 -2.8,-0.11 -4.1,-0.36 -1.3,-0.24 -2.44,-0.61 -3.39,-1.1zm30.6 1.46c-3.13,0 -5.58,-0.87 -7.37,-2.62 -1.79,-1.75 -2.68,-4.13 -2.68,-7.13 0,-3.1 0.92,-5.53 2.78,-7.28 1.86,-1.75 4.37,-2.63 7.53,-2.63 3.11,0 5.55,0.88 7.32,2.63 1.77,1.75 2.66,4.07 2.66,6.95 0,3.11 -0.92,5.57 -2.74,7.38 -1.83,1.8 -4.33,2.7 -7.5,2.7zm0.15 -15.23c-1.37,0 -2.43,0.47 -3.19,1.41 -0.75,0.94 -1.14,2.27 -1.14,3.99 0,3.6 1.46,5.4 4.37,5.4 2.77,0 4.15,-1.85 4.15,-5.54 0,-3.51 -1.4,-5.26 -4.19,-5.26zm19.62 14.78l-5.78 0 0 -27.76 5.78 0 0 27.76zm7.8 -21.72c-0.97,0 -1.77,-0.29 -2.39,-0.87 -0.63,-0.58 -0.94,-1.29 -0.94,-2.13 0,-0.87 0.31,-1.58 0.94,-2.13 0.62,-0.54 1.42,-0.82 2.39,-0.82 1,0 1.8,0.28 2.42,0.82 0.61,0.55 0.92,1.26 0.92,2.13 0,0.87 -0.31,1.6 -0.92,2.16 -0.62,0.56 -1.42,0.84 -2.42,0.84zm2.86 21.72l-5.78 0 0 -18.75 5.78 0 0 18.75zm19.08 -0.68c-1.31,0.76 -3.19,1.13 -5.66,1.13 -2.88,0 -5.21,-0.86 -6.99,-2.61 -1.78,-1.75 -2.67,-4 -2.67,-6.76 0,-3.19 0.95,-5.69 2.86,-7.53 1.91,-1.84 4.47,-2.76 7.67,-2.76 2.2,0 3.8,0.3 4.79,0.88l0 4.91c-1.21,-0.91 -2.56,-1.36 -4.04,-1.36 -1.67,0 -2.98,0.48 -3.95,1.46 -0.97,0.97 -1.46,2.31 -1.46,4.02 0,1.65 0.47,2.96 1.39,3.9 0.93,0.96 2.21,1.42 3.83,1.42 1.44,0 2.85,-0.45 4.23,-1.35l0 4.65zm6.72 -21.04c-0.98,0 -1.78,-0.29 -2.39,-0.87 -0.63,-0.58 -0.94,-1.29 -0.94,-2.13 0,-0.87 0.31,-1.58 0.94,-2.13 0.61,-0.54 1.41,-0.82 2.39,-0.82 0.99,0 1.79,0.28 2.41,0.82 0.61,0.55 0.93,1.26 0.93,2.13 0,0.87 -0.32,1.6 -0.93,2.16 -0.62,0.56 -1.42,0.84 -2.41,0.84zm2.86 21.72l-5.79 0 0 -18.75 5.79 0 0 18.75zm16.2 -0.22c-0.85,0.45 -2.14,0.67 -3.86,0.67 -4.08,0 -6.12,-2.11 -6.12,-6.35l0 -8.58 -3.04 0 0 -4.27 3.04 0 0 -4.05 5.77 -1.65 0 5.7 4.21 0 0 4.27 -4.21 0 0 7.58c0,1.95 0.77,2.92 2.32,2.92 0.62,0 1.25,-0.17 1.89,-0.53l0 4.29zm21.08 0.22l-5.77 0 0 -2.86 -0.09 0c-1.43,2.21 -3.34,3.31 -5.73,3.31 -4.35,0 -6.52,-2.63 -6.52,-7.89l0 -11.31 5.77 0 0 10.8c0,2.65 1.05,3.97 3.15,3.97 1.04,0 1.86,-0.36 2.49,-1.08 0.62,-0.73 0.93,-1.72 0.93,-2.96l0 -10.73 5.77 0 0 18.75zm23.22 0l-5.79 0 0 -2.58 -0.07 0c-1.32,2.02 -3.26,3.03 -5.81,3.03 -2.34,0 -4.23,-0.82 -5.65,-2.48 -1.43,-1.65 -2.15,-3.96 -2.15,-6.93 0,-3.1 0.79,-5.58 2.37,-7.45 1.57,-1.87 3.63,-2.8 6.18,-2.8 2.42,0 4.1,0.86 5.06,2.6l0.07 0 0 -11.15 5.79 0 0 27.76zm-5.68 -9.12l0 -1.41c0,-1.22 -0.36,-2.23 -1.06,-3.04 -0.71,-0.81 -1.63,-1.21 -2.77,-1.21 -1.28,0 -2.28,0.5 -3,1.51 -0.72,1.01 -1.08,2.39 -1.08,4.15 0,1.65 0.35,2.92 1.04,3.81 0.7,0.89 1.66,1.33 2.89,1.33 1.18,0 2.14,-0.46 2.87,-1.4 0.74,-0.95 1.11,-2.19 1.11,-3.74z"/>
   <g>
    <path id="flecha_roja_1" class="fil6" d="M1324.4 634.31l15.01 35 0 0 -0.94 -0.45 -0.94 -0.42 -0.94 -0.4 -0.94 -0.37 -0.93 -0.33 -0.94 -0.31 -0.94 -0.28 -0.94 -0.25 -0.93 -0.22 -0.94 -0.19 -0.94 -0.16 -0.94 -0.13 -0.93 -0.1 -0.94 -0.08 -0.94 -0.04 -0.94 -0.02 -0.93 0.02 -0.94 0.04 -0.94 0.08 -0.94 0.1 -0.93 0.13 -0.94 0.16 -0.94 0.19 -0.94 0.22 -0.94 0.25 -0.93 0.28 -0.94 0.31 -0.94 0.33 -0.94 0.37 -0.93 0.4 -0.94 0.42 -0.94 0.45 15 -35zm137.79 128.11l0 5 0 0 -7.19 -0.15 -7.1 -0.44 -7 -0.73 -6.89 -1.01 -6.77 -1.28 -6.64 -1.55 -6.5 -1.8 -6.36 -2.06 -6.2 -2.3 -6.04 -2.54 -5.87 -2.76 -5.69 -2.99 -5.5 -3.21 -5.3 -3.42 -5.09 -3.62 -4.88 -3.81 -4.65 -4 -4.41 -4.18 -4.18 -4.36 -3.92 -4.53 -3.67 -4.69 -3.39 -4.84 -3.12 -4.98 -2.82 -5.13 -2.53 -5.26 -2.22 -5.38 -1.9 -5.51 -1.58 -5.61 -1.25 -5.71 -0.9 -5.81 -0.54 -5.89 -0.19 -5.97 5 0 0.18 5.66 0.52 5.59 0.85 5.51 1.18 5.41 1.5 5.33 1.81 5.22 2.11 5.12 2.4 5.01 2.7 4.88 2.97 4.76 3.24 4.63 3.51 4.48 3.75 4.34 4.01 4.18 4.24 4.02 4.48 3.85 4.69 3.67 4.91 3.48 5.11 3.3 5.3 3.09 5.5 2.89 5.67 2.68 5.84 2.45 6.01 2.23 6.16 1.99 6.3 1.75 6.43 1.5 6.57 1.24 6.68 0.98 6.79 0.71 6.9 0.43 6.98 0.14 0 0zm135.29 -110.52l5 0 -0.18 5.97 -0.55 5.89 -0.9 5.81 -1.24 5.71 -1.58 5.61 -1.9 5.51 -2.23 5.38 -2.52 5.26 -2.83 5.13 -3.11 4.98 -3.4 4.84 -3.66 4.69 -3.92 4.53 -4.18 4.36 -4.42 4.18 -4.65 4 -4.88 3.81 -5.09 3.62 -5.3 3.42 -5.5 3.21 -5.68 2.99 -5.87 2.76 -6.04 2.54 -6.2 2.3 -6.36 2.06 -6.5 1.8 -6.64 1.55 -6.77 1.28 -6.89 1.01 -7 0.73 -7.1 0.44 -7.2 0.15 0 -5 6.99 -0.14 6.89 -0.43 6.8 -0.71 6.68 -0.98 6.56 -1.24 6.44 -1.5 6.3 -1.75 6.16 -1.99 6 -2.23 5.84 -2.45 5.68 -2.68 5.49 -2.89 5.31 -3.09 5.11 -3.3 4.91 -3.48 4.69 -3.67 4.47 -3.85 4.25 -4.02 4 -4.18 3.76 -4.34 3.51 -4.48 3.24 -4.63 2.97 -4.76 2.69 -4.88 2.41 -5.01 2.11 -5.12 1.81 -5.22 1.5 -5.33 1.18 -5.41 0.85 -5.51 0.52 -5.59 0.17 -5.66z"/>
   </g>
   <g>
    <path id="flecha_amarilla_2" class="fil7" d="M1599.98 368.61l-15 -35 0 0 0.94 0.45 0.94 0.42 0.93 0.4 0.94 0.37 0.94 0.33 0.94 0.31 0.93 0.28 0.94 0.25 0.94 0.22 0.94 0.19 0.93 0.16 0.94 0.13 0.94 0.11 0.94 0.07 0.93 0.04 0.94 0.02 0.94 -0.02 0.94 -0.04 0.94 -0.07 0.93 -0.11 0.94 -0.13 0.94 -0.16 0.94 -0.19 0.93 -0.22 0.94 -0.25 0.94 -0.28 0.94 -0.31 0.93 -0.33 0.94 -0.37 0.94 -0.4 0.94 -0.42 0.94 -0.45 -15.01 35zm-137.79 -128.11l0 -5 0 0 7.2 0.15 7.1 0.44 7 0.73 6.89 1.01 6.77 1.28 6.64 1.55 6.5 1.8 6.36 2.06 6.2 2.3 6.04 2.54 5.87 2.76 5.68 2.99 5.5 3.21 5.3 3.42 5.09 3.62 4.88 3.81 4.65 4 4.42 4.18 4.18 4.36 3.92 4.53 3.66 4.69 3.4 4.84 3.11 4.98 2.83 5.13 2.52 5.26 2.23 5.39 1.9 5.5 1.58 5.61 1.24 5.71 0.9 5.81 0.55 5.89 0.18 5.97 -5 0 -0.17 -5.66 -0.52 -5.59 -0.85 -5.51 -1.18 -5.41 -1.5 -5.33 -1.81 -5.22 -2.11 -5.12 -2.41 -5.01 -2.69 -4.88 -2.97 -4.76 -3.24 -4.63 -3.51 -4.48 -3.76 -4.34 -4 -4.18 -4.25 -4.02 -4.47 -3.85 -4.69 -3.67 -4.91 -3.48 -5.11 -3.3 -5.31 -3.09 -5.49 -2.89 -5.68 -2.68 -5.84 -2.45 -6 -2.23 -6.16 -1.99 -6.3 -1.75 -6.44 -1.5 -6.56 -1.24 -6.68 -0.98 -6.8 -0.71 -6.89 -0.42 -6.99 -0.15 0 0zm-135.29 110.52l-5 0 0.19 -5.97 0.54 -5.89 0.9 -5.81 1.25 -5.71 1.58 -5.61 1.9 -5.5 2.22 -5.39 2.53 -5.26 2.82 -5.13 3.12 -4.98 3.39 -4.84 3.67 -4.69 3.92 -4.53 4.18 -4.36 4.41 -4.18 4.65 -4 4.88 -3.81 5.09 -3.62 5.3 -3.42 5.5 -3.21 5.69 -2.99 5.87 -2.76 6.04 -2.54 6.2 -2.3 6.36 -2.06 6.5 -1.8 6.64 -1.55 6.77 -1.28 6.89 -1.01 7 -0.73 7.1 -0.44 7.19 -0.15 0 5 -6.98 0.15 -6.9 0.42 -6.79 0.71 -6.68 0.98 -6.57 1.24 -6.43 1.5 -6.3 1.75 -6.16 1.99 -6.01 2.23 -5.84 2.45 -5.67 2.68 -5.5 2.89 -5.3 3.09 -5.11 3.3 -4.91 3.48 -4.69 3.67 -4.48 3.85 -4.24 4.02 -4.01 4.18 -3.75 4.34 -3.51 4.48 -3.24 4.63 -2.97 4.76 -2.7 4.88 -2.4 5.01 -2.11 5.12 -1.81 5.22 -1.5 5.33 -1.18 5.41 -0.85 5.51 -0.52 5.59 -0.18 5.66z"/>
   </g>
   <g>
    <polygon class="fil8" points="1535,396.11 1765,396.11 1765,626.11 1535,626.11 "/>
    <polygon id="_1_3" class="fil2 str0" points="1535,396.11 1765,396.11 1765,626.11 1535,626.11 "/>
   </g>
   <path class="fil3" d="M1559.22 523.23l0 -5.87c1.06,0.9 2.22,1.57 3.46,2.01 1.24,0.44 2.5,0.67 3.77,0.67 0.75,0 1.4,-0.07 1.95,-0.2 0.56,-0.14 1.02,-0.32 1.39,-0.56 0.38,-0.24 0.65,-0.52 0.83,-0.84 0.19,-0.33 0.28,-0.68 0.28,-1.06 0,-0.51 -0.14,-0.97 -0.44,-1.37 -0.29,-0.4 -0.69,-0.78 -1.2,-1.12 -0.51,-0.34 -1.1,-0.67 -1.8,-0.98 -0.7,-0.32 -1.45,-0.65 -2.25,-0.98 -2.06,-0.85 -3.59,-1.89 -4.59,-3.13 -1.01,-1.23 -1.51,-2.72 -1.51,-4.46 0,-1.37 0.27,-2.55 0.82,-3.53 0.55,-0.98 1.3,-1.79 2.24,-2.43 0.95,-0.63 2.05,-1.1 3.29,-1.4 1.25,-0.3 2.56,-0.45 3.96,-0.45 1.37,0 2.58,0.09 3.63,0.25 1.05,0.16 2.03,0.42 2.92,0.76l0 5.48c-0.44,-0.31 -0.92,-0.58 -1.43,-0.81 -0.52,-0.23 -1.06,-0.42 -1.61,-0.58 -0.54,-0.15 -1.09,-0.26 -1.64,-0.34 -0.54,-0.06 -1.05,-0.1 -1.54,-0.1 -0.68,0 -1.28,0.06 -1.83,0.19 -0.55,0.13 -1.02,0.31 -1.4,0.54 -0.37,0.23 -0.67,0.51 -0.88,0.83 -0.2,0.33 -0.3,0.69 -0.3,1.09 0,0.44 0.11,0.84 0.34,1.18 0.23,0.35 0.56,0.68 0.99,0.99 0.43,0.31 0.95,0.62 1.56,0.92 0.61,0.3 1.3,0.6 2.07,0.92 1.05,0.44 1.99,0.91 2.82,1.4 0.84,0.49 1.56,1.06 2.15,1.68 0.6,0.62 1.06,1.33 1.38,2.13 0.32,0.8 0.47,1.73 0.47,2.79 0,1.47 -0.27,2.69 -0.83,3.69 -0.55,1 -1.3,1.8 -2.26,2.42 -0.95,0.61 -2.06,1.06 -3.32,1.33 -1.27,0.27 -2.6,0.4 -4,0.4 -1.44,0 -2.81,-0.12 -4.11,-0.37 -1.3,-0.24 -2.43,-0.61 -3.38,-1.09zm37.97 1l-15.75 0 0 -26.25 15.14 0 0 4.81 -9.22 0 0 5.84 8.59 0 0 4.8 -8.59 0 0 6 9.83 0 0 4.8zm26.24 0l-6.79 0 -4.09 -6.75c-0.3,-0.52 -0.6,-0.97 -0.88,-1.38 -0.28,-0.4 -0.56,-0.74 -0.85,-1.03 -0.29,-0.29 -0.59,-0.51 -0.9,-0.66 -0.31,-0.15 -0.65,-0.23 -1.01,-0.23l-1.59 0 0 10.05 -5.92 0 0 -26.25 9.37 0c6.38,0 9.56,2.38 9.56,7.13 0,0.92 -0.14,1.77 -0.42,2.54 -0.28,0.78 -0.68,1.48 -1.19,2.1 -0.51,0.62 -1.13,1.16 -1.85,1.61 -0.74,0.45 -1.54,0.8 -2.44,1.06l0 0.07c0.4,0.13 0.77,0.32 1.14,0.6 0.37,0.27 0.72,0.59 1.07,0.96 0.34,0.37 0.66,0.76 0.98,1.18 0.31,0.42 0.59,0.83 0.85,1.24l4.96 7.76zm-16.11 -21.82l0 7.3 2.56 0c1.27,0 2.29,-0.37 3.05,-1.1 0.79,-0.74 1.18,-1.67 1.18,-2.76 0,-2.3 -1.37,-3.44 -4.13,-3.44l-2.66 0zm40.43 -4.43l-9.05 26.25 -6.7 0 -8.94 -26.25 6.37 0 5.48 18.27c0.29,0.99 0.47,1.86 0.53,2.62l0.11 0c0.08,-0.82 0.27,-1.72 0.56,-2.69l5.44 -18.2 6.2 0zm9.06 26.25l-5.92 0 0 -26.25 5.92 0 0 26.25zm5.96 0l0 -26.25 9.31 0c9.32,0 13.98,4.26 13.98,12.8 0,4.08 -1.27,7.35 -3.81,9.79 -2.55,2.44 -5.94,3.66 -10.17,3.66l-9.31 0zm5.92 -21.44l0 16.64 2.93 0c2.56,0 4.57,-0.77 6.03,-2.3 1.46,-1.54 2.19,-3.64 2.19,-6.29 0,-2.5 -0.73,-4.46 -2.17,-5.9 -1.45,-1.43 -3.47,-2.15 -6.09,-2.15l-2.89 0zm32.83 21.9c-3.76,0 -6.82,-1.23 -9.19,-3.67 -2.37,-2.45 -3.55,-5.64 -3.55,-9.57 0,-4.15 1.2,-7.51 3.6,-10.07 2.41,-2.56 5.59,-3.85 9.56,-3.85 3.75,0 6.78,1.23 9.09,3.68 2.31,2.46 3.47,5.7 3.47,9.71 0,4.12 -1.2,7.46 -3.6,9.98 -2.39,2.52 -5.52,3.79 -9.38,3.79zm0.26 -22.06c-2.08,0 -3.73,0.77 -4.95,2.33 -1.22,1.56 -1.83,3.62 -1.83,6.18 0,2.6 0.61,4.65 1.83,6.17 1.22,1.52 2.82,2.27 4.8,2.27 2.04,0 3.65,-0.74 4.85,-2.2 1.2,-1.48 1.8,-3.52 1.8,-6.13 0,-2.72 -0.58,-4.84 -1.74,-6.36 -1.16,-1.51 -2.75,-2.26 -4.76,-2.26zm39.11 21.6l-6.8 0 -4.08 -6.75c-0.3,-0.52 -0.6,-0.97 -0.88,-1.38 -0.28,-0.4 -0.56,-0.74 -0.85,-1.03 -0.29,-0.29 -0.59,-0.51 -0.9,-0.66 -0.31,-0.15 -0.65,-0.23 -1.01,-0.23l-1.59 0 0 10.05 -5.92 0 0 -26.25 9.37 0c6.38,0 9.56,2.38 9.56,7.13 0,0.92 -0.14,1.77 -0.42,2.54 -0.28,0.78 -0.68,1.48 -1.19,2.1 -0.51,0.62 -1.13,1.16 -1.86,1.61 -0.73,0.45 -1.53,0.8 -2.43,1.06l0 0.07c0.4,0.13 0.77,0.32 1.14,0.6 0.37,0.27 0.72,0.59 1.06,0.96 0.35,0.37 0.67,0.76 0.98,1.18 0.32,0.42 0.6,0.83 0.86,1.24l4.96 7.76zm-16.11 -21.82l0 7.3 2.56 0c1.27,0 2.29,-0.37 3.05,-1.1 0.78,-0.74 1.18,-1.67 1.18,-2.76 0,-2.3 -1.38,-3.44 -4.13,-3.44l-2.66 0z"/>
   <path class="fil4" d="M1773.49 826.54l-6.8 0 -4.08 -6.75c-0.3,-0.52 -0.6,-0.97 -0.88,-1.38 -0.28,-0.4 -0.56,-0.74 -0.85,-1.03 -0.29,-0.29 -0.59,-0.51 -0.9,-0.66 -0.31,-0.15 -0.65,-0.23 -1.01,-0.23l-1.6 0 0 10.05 -5.91 0 0 -26.25 9.37 0c6.38,0 9.56,2.38 9.56,7.13 0,0.92 -0.14,1.77 -0.42,2.54 -0.28,0.78 -0.68,1.48 -1.19,2.1 -0.51,0.62 -1.13,1.16 -1.86,1.61 -0.73,0.45 -1.53,0.8 -2.43,1.06l0 0.07c0.4,0.13 0.77,0.32 1.14,0.6 0.37,0.27 0.72,0.59 1.06,0.96 0.35,0.37 0.67,0.76 0.98,1.18 0.32,0.42 0.6,0.83 0.85,1.24l4.97 7.76zm-16.12 -21.82l0 7.3 2.57 0c1.27,0 2.28,-0.37 3.05,-1.1 0.78,-0.74 1.18,-1.67 1.18,-2.76 0,-2.3 -1.38,-3.44 -4.13,-3.44l-2.67 0zm33.92 14.1l-12.23 0c0.19,2.72 1.91,4.08 5.14,4.08 2.06,0 3.87,-0.49 5.44,-1.46l0 4.17c-1.73,0.93 -3.98,1.39 -6.76,1.39 -3.02,0 -5.37,-0.84 -7.05,-2.52 -1.67,-1.68 -2.51,-4.02 -2.51,-7.02 0,-3.11 0.9,-5.58 2.72,-7.4 1.8,-1.82 4.02,-2.72 6.66,-2.72 2.73,0 4.85,0.81 6.34,2.43 1.5,1.62 2.25,3.83 2.25,6.61l0 2.44zm-5.37 -3.56c0,-2.68 -1.08,-4.02 -3.26,-4.02 -0.92,0 -1.73,0.38 -2.4,1.15 -0.69,0.76 -1.09,1.73 -1.24,2.87l6.9 0zm7.58 10.79l0 -4.69c0.96,0.58 1.91,1 2.85,1.28 0.94,0.28 1.84,0.42 2.68,0.42 1.03,0 1.84,-0.14 2.43,-0.42 0.59,-0.28 0.88,-0.7 0.88,-1.28 0,-0.37 -0.13,-0.67 -0.4,-0.92 -0.27,-0.24 -0.61,-0.45 -1.03,-0.64 -0.42,-0.18 -0.89,-0.35 -1.39,-0.49 -0.5,-0.15 -0.98,-0.31 -1.44,-0.49 -0.74,-0.28 -1.4,-0.59 -1.97,-0.91 -0.57,-0.32 -1.04,-0.7 -1.43,-1.13 -0.38,-0.43 -0.67,-0.92 -0.87,-1.48 -0.2,-0.56 -0.31,-1.23 -0.31,-2 0,-1.05 0.23,-1.95 0.69,-2.71 0.45,-0.75 1.07,-1.37 1.83,-1.85 0.76,-0.49 1.64,-0.84 2.62,-1.07 0.98,-0.22 2,-0.33 3.07,-0.33 0.83,0 1.66,0.06 2.52,0.19 0.86,0.12 1.7,0.31 2.53,0.56l0 4.46c-0.74,-0.43 -1.52,-0.75 -2.35,-0.96 -0.84,-0.21 -1.66,-0.32 -2.47,-0.32 -0.38,0 -0.73,0.03 -1.07,0.1 -0.33,0.07 -0.63,0.17 -0.89,0.3 -0.26,0.12 -0.46,0.28 -0.6,0.49 -0.15,0.2 -0.22,0.43 -0.22,0.69 0,0.34 0.11,0.63 0.33,0.87 0.22,0.25 0.5,0.46 0.86,0.63 0.36,0.19 0.75,0.34 1.18,0.48 0.43,0.14 0.86,0.29 1.29,0.43 0.77,0.27 1.47,0.56 2.09,0.88 0.62,0.32 1.16,0.69 1.6,1.12 0.45,0.43 0.79,0.93 1.03,1.5 0.23,0.58 0.35,1.26 0.35,2.05 0,1.11 -0.23,2.06 -0.72,2.85 -0.48,0.79 -1.12,1.43 -1.92,1.92 -0.8,0.49 -1.73,0.86 -2.77,1.08 -1.04,0.23 -2.12,0.34 -3.25,0.34 -2.06,0 -3.97,-0.32 -5.73,-0.95zm23.59 -1.69l-0.08 0 0 10.81 -5.78 0 0 -27.38 5.78 0 0 2.82 0.08 0c1.43,-2.18 3.43,-3.27 6.02,-3.27 2.43,0 4.31,0.83 5.63,2.5 1.33,1.66 1.99,3.93 1.99,6.8 0,3.12 -0.77,5.63 -2.32,7.52 -1.54,1.89 -3.6,2.84 -6.16,2.84 -2.26,0 -3.98,-0.88 -5.16,-2.64zm-0.17 -7.69l0 1.5c0,1.3 0.34,2.35 1.03,3.17 0.68,0.82 1.58,1.23 2.69,1.23 1.32,0 2.34,-0.51 3.07,-1.53 0.72,-1.02 1.09,-2.46 1.09,-4.33 0,-3.3 -1.28,-4.94 -3.85,-4.94 -1.18,0 -2.15,0.44 -2.9,1.34 -0.75,0.9 -1.13,2.09 -1.13,3.56zm35.38 9.87l-5.77 0 0 -2.85 -0.09 0c-1.43,2.2 -3.33,3.31 -5.73,3.31 -4.35,0 -6.52,-2.63 -6.52,-7.9l0 -11.31 5.77 0 0 10.8c0,2.65 1.05,3.98 3.15,3.98 1.04,0 1.86,-0.37 2.49,-1.09 0.62,-0.73 0.93,-1.71 0.93,-2.96l0 -10.73 5.77 0 0 18.75zm21.72 -7.72l-12.23 0c0.19,2.72 1.91,4.08 5.14,4.08 2.06,0 3.88,-0.49 5.44,-1.46l0 4.17c-1.73,0.93 -3.98,1.39 -6.76,1.39 -3.02,0 -5.37,-0.84 -7.05,-2.52 -1.67,-1.68 -2.5,-4.02 -2.5,-7.02 0,-3.11 0.9,-5.58 2.71,-7.4 1.8,-1.82 4.02,-2.72 6.66,-2.72 2.73,0 4.85,0.81 6.34,2.43 1.5,1.62 2.25,3.83 2.25,6.61l0 2.44zm-5.36 -3.56c0,-2.68 -1.09,-4.02 -3.27,-4.02 -0.92,0 -1.73,0.38 -2.4,1.15 -0.68,0.76 -1.09,1.73 -1.24,2.87l6.91 0zm7.57 10.79l0 -4.69c0.96,0.58 1.91,1 2.85,1.28 0.94,0.28 1.84,0.42 2.68,0.42 1.03,0 1.84,-0.14 2.43,-0.42 0.59,-0.28 0.88,-0.7 0.88,-1.28 0,-0.37 -0.13,-0.67 -0.4,-0.92 -0.26,-0.24 -0.61,-0.45 -1.03,-0.64 -0.42,-0.18 -0.88,-0.35 -1.38,-0.49 -0.5,-0.15 -0.98,-0.31 -1.45,-0.49 -0.74,-0.28 -1.4,-0.59 -1.97,-0.91 -0.56,-0.32 -1.04,-0.7 -1.43,-1.13 -0.38,-0.43 -0.67,-0.92 -0.87,-1.48 -0.2,-0.56 -0.31,-1.23 -0.31,-2 0,-1.05 0.23,-1.95 0.69,-2.71 0.46,-0.75 1.07,-1.37 1.83,-1.85 0.76,-0.49 1.64,-0.84 2.62,-1.07 0.98,-0.22 2.01,-0.33 3.07,-0.33 0.83,0 1.67,0.06 2.52,0.19 0.86,0.12 1.7,0.31 2.53,0.56l0 4.46c-0.73,-0.43 -1.52,-0.75 -2.35,-0.96 -0.84,-0.21 -1.66,-0.32 -2.47,-0.32 -0.38,0 -0.73,0.03 -1.06,0.1 -0.34,0.07 -0.64,0.17 -0.9,0.3 -0.25,0.12 -0.45,0.28 -0.6,0.49 -0.15,0.2 -0.22,0.43 -0.22,0.69 0,0.34 0.11,0.63 0.33,0.87 0.22,0.25 0.5,0.46 0.86,0.63 0.36,0.19 0.75,0.34 1.18,0.48 0.43,0.14 0.86,0.29 1.3,0.43 0.76,0.27 1.46,0.56 2.08,0.88 0.62,0.32 1.16,0.69 1.6,1.12 0.45,0.43 0.79,0.93 1.03,1.5 0.24,0.58 0.35,1.26 0.35,2.05 0,1.11 -0.23,2.06 -0.72,2.85 -0.48,0.79 -1.12,1.43 -1.92,1.92 -0.8,0.49 -1.72,0.86 -2.77,1.08 -1.04,0.23 -2.12,0.34 -3.25,0.34 -2.06,0 -3.97,-0.32 -5.73,-0.95zm29.06 0.27c-0.85,0.45 -2.14,0.68 -3.86,0.68 -4.07,0 -6.12,-2.12 -6.12,-6.35l0 -8.59 -3.04 0 0 -4.27 3.04 0 0 -4.04 5.77 -1.65 0 5.69 4.21 0 0 4.27 -4.21 0 0 7.58c0,1.95 0.78,2.93 2.33,2.93 0.61,0 1.24,-0.18 1.88,-0.53l0 4.28zm18.87 0.22l-5.48 0 0 -2.69 -0.07 0c-1.26,2.1 -3.12,3.15 -5.59,3.15 -1.82,0 -3.25,-0.51 -4.29,-1.55 -1.05,-1.03 -1.57,-2.41 -1.57,-4.13 0,-3.63 2.16,-5.73 6.46,-6.3l5.1 -0.67c0,-2.05 -1.11,-3.08 -3.34,-3.08 -2.23,0 -4.36,0.67 -6.37,2l0 -4.36c0.81,-0.42 1.91,-0.78 3.31,-1.1 1.39,-0.32 2.67,-0.47 3.82,-0.47 5.34,0 8.02,2.66 8.02,8l0 11.2zm-5.44 -7.62l0 -1.26 -3.41 0.44c-1.88,0.24 -2.82,1.09 -2.82,2.55 0,0.65 0.23,1.2 0.68,1.62 0.47,0.42 1.09,0.63 1.87,0.63 1.08,0 1.97,-0.38 2.65,-1.13 0.68,-0.75 1.03,-1.7 1.03,-2.85z"/>
   <path class="fil5" d="M1762.77 201.41l0 -5.86c1.06,0.89 2.22,1.56 3.46,2.01 1.24,0.44 2.5,0.66 3.77,0.66 0.75,0 1.4,-0.06 1.95,-0.2 0.56,-0.13 1.02,-0.31 1.39,-0.56 0.38,-0.23 0.65,-0.52 0.83,-0.83 0.19,-0.33 0.28,-0.68 0.28,-1.06 0,-0.51 -0.14,-0.97 -0.44,-1.37 -0.29,-0.41 -0.69,-0.78 -1.2,-1.12 -0.5,-0.34 -1.1,-0.67 -1.8,-0.99 -0.7,-0.32 -1.45,-0.64 -2.25,-0.97 -2.06,-0.85 -3.59,-1.9 -4.59,-3.13 -1.01,-1.23 -1.51,-2.72 -1.51,-4.47 0,-1.36 0.27,-2.54 0.82,-3.52 0.55,-0.99 1.3,-1.79 2.24,-2.43 0.95,-0.63 2.05,-1.1 3.29,-1.4 1.25,-0.3 2.56,-0.45 3.96,-0.45 1.37,0 2.58,0.09 3.63,0.25 1.05,0.16 2.03,0.42 2.92,0.76l0 5.48c-0.44,-0.31 -0.91,-0.58 -1.43,-0.81 -0.52,-0.23 -1.06,-0.43 -1.61,-0.58 -0.54,-0.15 -1.09,-0.26 -1.64,-0.34 -0.54,-0.07 -1.05,-0.11 -1.54,-0.11 -0.68,0 -1.28,0.07 -1.83,0.19 -0.55,0.13 -1.02,0.32 -1.4,0.55 -0.37,0.23 -0.67,0.5 -0.88,0.83 -0.2,0.32 -0.3,0.68 -0.3,1.08 0,0.45 0.11,0.84 0.34,1.19 0.23,0.35 0.56,0.68 0.99,0.99 0.43,0.31 0.95,0.61 1.56,0.91 0.61,0.3 1.3,0.61 2.07,0.93 1.05,0.44 1.99,0.9 2.82,1.4 0.84,0.49 1.56,1.05 2.15,1.67 0.6,0.63 1.06,1.34 1.38,2.14 0.32,0.79 0.47,1.72 0.47,2.79 0,1.47 -0.27,2.69 -0.83,3.69 -0.55,0.99 -1.3,1.8 -2.26,2.41 -0.95,0.62 -2.06,1.07 -3.32,1.34 -1.27,0.26 -2.6,0.39 -4,0.39 -1.44,0 -2.81,-0.11 -4.11,-0.36 -1.3,-0.24 -2.43,-0.61 -3.38,-1.1zm30.59 1.46c-3.12,0 -5.58,-0.87 -7.37,-2.62 -1.78,-1.75 -2.68,-4.13 -2.68,-7.13 0,-3.1 0.93,-5.53 2.78,-7.28 1.86,-1.75 4.37,-2.63 7.53,-2.63 3.11,0 5.55,0.88 7.32,2.63 1.77,1.75 2.66,4.07 2.66,6.95 0,3.11 -0.91,5.57 -2.74,7.38 -1.82,1.8 -4.32,2.7 -7.5,2.7zm0.15 -15.23c-1.37,0 -2.43,0.47 -3.19,1.41 -0.75,0.94 -1.13,2.27 -1.13,3.99 0,3.6 1.45,5.4 4.36,5.4 2.77,0 4.16,-1.85 4.16,-5.54 0,-3.51 -1.4,-5.26 -4.2,-5.26zm19.63 14.78l-5.78 0 0 -27.76 5.78 0 0 27.76zm7.8 -21.72c-0.98,0 -1.78,-0.29 -2.4,-0.87 -0.62,-0.58 -0.93,-1.29 -0.93,-2.13 0,-0.87 0.31,-1.58 0.93,-2.13 0.62,-0.54 1.42,-0.82 2.4,-0.82 0.99,0 1.79,0.28 2.41,0.82 0.61,0.55 0.92,1.26 0.92,2.13 0,0.87 -0.31,1.6 -0.92,2.16 -0.62,0.56 -1.42,0.84 -2.41,0.84zm2.85 21.72l-5.78 0 0 -18.75 5.78 0 0 18.75zm19.08 -0.68c-1.3,0.76 -3.19,1.13 -5.65,1.13 -2.88,0 -5.21,-0.86 -7,-2.61 -1.78,-1.75 -2.67,-4 -2.67,-6.76 0,-3.19 0.95,-5.69 2.86,-7.53 1.91,-1.84 4.47,-2.76 7.67,-2.76 2.21,0 3.81,0.3 4.79,0.88l0 4.91c-1.2,-0.91 -2.55,-1.36 -4.04,-1.36 -1.66,0 -2.98,0.48 -3.95,1.46 -0.97,0.97 -1.46,2.31 -1.46,4.02 0,1.65 0.47,2.96 1.4,3.9 0.92,0.96 2.2,1.42 3.82,1.42 1.45,0 2.85,-0.45 4.23,-1.35l0 4.65zm6.72 -21.04c-0.97,0 -1.77,-0.29 -2.39,-0.87 -0.63,-0.58 -0.94,-1.29 -0.94,-2.13 0,-0.87 0.31,-1.58 0.94,-2.13 0.62,-0.54 1.42,-0.82 2.39,-0.82 1,0 1.8,0.28 2.42,0.82 0.61,0.55 0.92,1.26 0.92,2.13 0,0.87 -0.31,1.6 -0.92,2.16 -0.62,0.56 -1.42,0.84 -2.42,0.84zm2.86 21.72l-5.78 0 0 -18.75 5.78 0 0 18.75zm16.21 -0.22c-0.86,0.45 -2.15,0.67 -3.87,0.67 -4.07,0 -6.12,-2.11 -6.12,-6.35l0 -8.58 -3.03 0 0 -4.27 3.03 0 0 -4.05 5.77 -1.65 0 5.7 4.22 0 0 4.27 -4.22 0 0 7.58c0,1.95 0.78,2.92 2.33,2.92 0.61,0 1.24,-0.17 1.89,-0.53l0 4.29zm21.07 0.22l-5.77 0 0 -2.86 -0.09 0c-1.43,2.21 -3.33,3.31 -5.73,3.31 -4.35,0 -6.52,-2.63 -6.52,-7.89l0 -11.31 5.77 0 0 10.8c0,2.65 1.05,3.97 3.15,3.97 1.04,0 1.86,-0.36 2.49,-1.08 0.63,-0.73 0.93,-1.72 0.93,-2.96l0 -10.73 5.77 0 0 18.75zm23.22 0l-5.79 0 0 -2.58 -0.07 0c-1.32,2.02 -3.25,3.03 -5.8,3.03 -2.35,0 -4.24,-0.82 -5.66,-2.48 -1.43,-1.65 -2.14,-3.96 -2.14,-6.93 0,-3.1 0.78,-5.58 2.36,-7.45 1.57,-1.87 3.64,-2.8 6.19,-2.8 2.41,0 4.1,0.86 5.05,2.6l0.07 0 0 -11.15 5.79 0 0 27.76zm-5.68 -9.12l0 -1.41c0,-1.22 -0.35,-2.23 -1.06,-3.04 -0.71,-0.81 -1.63,-1.21 -2.76,-1.21 -1.28,0 -2.29,0.5 -3.01,1.51 -0.72,1.01 -1.08,2.39 -1.08,4.15 0,1.65 0.35,2.92 1.04,3.81 0.7,0.89 1.67,1.33 2.9,1.33 1.17,0 2.13,-0.46 2.87,-1.4 0.74,-0.95 1.1,-2.19 1.1,-3.74z"/>
   <g>
    <path id="flecha_roja_4" class="fil6" d="M1700.02 634.31l15 35 0 0 -0.94 -0.45 -0.94 -0.42 -0.93 -0.4 -0.94 -0.37 -0.94 -0.33 -0.94 -0.31 -0.93 -0.28 -0.94 -0.25 -0.94 -0.22 -0.94 -0.19 -0.94 -0.16 -0.93 -0.13 -0.94 -0.1 -0.94 -0.08 -0.94 -0.04 -0.93 -0.02 -0.94 0.02 -0.94 0.04 -0.94 0.08 -0.94 0.1 -0.93 0.13 -0.94 0.16 -0.94 0.19 -0.94 0.22 -0.93 0.25 -0.94 0.28 -0.94 0.31 -0.94 0.33 -0.93 0.37 -0.94 0.4 -0.94 0.42 -0.94 0.45 15.01 -35zm137.79 128.11l0 5 0 0 -7.2 -0.15 -7.1 -0.44 -7 -0.73 -6.89 -1.01 -6.77 -1.28 -6.64 -1.55 -6.5 -1.8 -6.36 -2.06 -6.2 -2.3 -6.04 -2.54 -5.87 -2.76 -5.69 -2.99 -5.49 -3.21 -5.3 -3.42 -5.09 -3.62 -4.88 -3.81 -4.65 -4 -4.42 -4.18 -4.18 -4.36 -3.92 -4.53 -3.67 -4.69 -3.39 -4.84 -3.11 -4.98 -2.83 -5.13 -2.53 -5.26 -2.22 -5.38 -1.9 -5.51 -1.58 -5.61 -1.24 -5.71 -0.9 -5.81 -0.55 -5.89 -0.18 -5.97 5 0 0.17 5.66 0.52 5.59 0.85 5.51 1.18 5.41 1.5 5.33 1.81 5.22 2.11 5.12 2.41 5.01 2.69 4.88 2.97 4.76 3.24 4.63 3.51 4.48 3.76 4.34 4 4.18 4.25 4.02 4.47 3.85 4.69 3.67 4.91 3.48 5.11 3.3 5.31 3.09 5.49 2.89 5.67 2.68 5.85 2.45 6 2.23 6.16 1.99 6.3 1.75 6.44 1.5 6.56 1.24 6.68 0.98 6.79 0.71 6.9 0.43 6.99 0.14 0 0zm135.29 -110.52l5 0 -0.19 5.97 -0.54 5.89 -0.9 5.81 -1.25 5.71 -1.58 5.61 -1.9 5.51 -2.22 5.38 -2.53 5.26 -2.83 5.13 -3.11 4.98 -3.39 4.84 -3.67 4.69 -3.92 4.53 -4.18 4.36 -4.41 4.18 -4.66 4 -4.87 3.81 -5.1 3.62 -5.29 3.42 -5.5 3.21 -5.69 2.99 -5.87 2.76 -6.04 2.54 -6.2 2.3 -6.36 2.06 -6.5 1.8 -6.64 1.55 -6.77 1.28 -6.89 1.01 -7 0.73 -7.1 0.44 -7.19 0.15 0 -5 6.98 -0.14 6.9 -0.43 6.79 -0.71 6.68 -0.98 6.57 -1.24 6.43 -1.5 6.3 -1.75 6.16 -1.99 6 -2.23 5.85 -2.45 5.67 -2.68 5.49 -2.89 5.31 -3.09 5.11 -3.3 4.91 -3.48 4.69 -3.67 4.48 -3.85 4.24 -4.02 4 -4.18 3.76 -4.34 3.51 -4.48 3.24 -4.63 2.97 -4.76 2.7 -4.88 2.4 -5.01 2.11 -5.12 1.81 -5.22 1.5 -5.33 1.18 -5.41 0.85 -5.51 0.52 -5.59 0.18 -5.66z"/>
   </g>
   <g>
    <path id="flecha_amarilla_5" class="fil7" d="M1975.6 368.61l-15.01 -35 0 0 0.94 0.45 0.94 0.42 0.94 0.4 0.93 0.37 0.94 0.33 0.94 0.31 0.94 0.28 0.93 0.25 0.94 0.22 0.94 0.19 0.94 0.16 0.93 0.13 0.94 0.11 0.94 0.07 0.94 0.04 0.94 0.02 0.93 -0.02 0.94 -0.04 0.94 -0.07 0.94 -0.11 0.93 -0.13 0.94 -0.16 0.94 -0.19 0.94 -0.22 0.93 -0.25 0.94 -0.28 0.94 -0.31 0.94 -0.33 0.93 -0.37 0.94 -0.4 0.94 -0.42 0.94 -0.45 -15 35zm-137.79 -128.11l0 -5 0 0 7.19 0.15 7.1 0.44 7 0.73 6.89 1.01 6.77 1.28 6.64 1.55 6.5 1.8 6.36 2.06 6.2 2.3 6.04 2.54 5.87 2.76 5.69 2.99 5.5 3.21 5.29 3.42 5.1 3.62 4.87 3.81 4.66 4 4.41 4.18 4.18 4.36 3.92 4.53 3.67 4.69 3.39 4.84 3.11 4.98 2.83 5.13 2.53 5.26 2.22 5.39 1.9 5.5 1.58 5.61 1.25 5.71 0.9 5.81 0.54 5.89 0.19 5.97 -5 0 -0.18 -5.66 -0.52 -5.59 -0.85 -5.51 -1.18 -5.41 -1.5 -5.33 -1.81 -5.22 -2.11 -5.12 -2.4 -5.01 -2.7 -4.88 -2.97 -4.76 -3.24 -4.63 -3.51 -4.48 -3.76 -4.34 -4 -4.18 -4.24 -4.02 -4.48 -3.85 -4.69 -3.67 -4.91 -3.48 -5.11 -3.3 -5.31 -3.09 -5.49 -2.89 -5.67 -2.68 -5.85 -2.45 -6 -2.23 -6.16 -1.99 -6.3 -1.75 -6.43 -1.5 -6.57 -1.24 -6.68 -0.98 -6.79 -0.71 -6.9 -0.42 -6.98 -0.15 0 0zm-135.29 110.52l-5 0 0.18 -5.97 0.55 -5.89 0.9 -5.81 1.24 -5.71 1.58 -5.61 1.9 -5.5 2.22 -5.39 2.53 -5.26 2.83 -5.13 3.11 -4.98 3.39 -4.84 3.67 -4.69 3.92 -4.53 4.18 -4.36 4.42 -4.18 4.65 -4 4.88 -3.81 5.09 -3.62 5.3 -3.42 5.49 -3.21 5.69 -2.99 5.87 -2.76 6.04 -2.54 6.2 -2.3 6.36 -2.06 6.5 -1.8 6.64 -1.55 6.77 -1.28 6.89 -1.01 7 -0.73 7.1 -0.44 7.2 -0.15 0 5 -6.99 0.15 -6.9 0.42 -6.79 0.71 -6.68 0.98 -6.56 1.24 -6.44 1.5 -6.3 1.75 -6.16 1.99 -6 2.23 -5.85 2.45 -5.67 2.68 -5.49 2.89 -5.31 3.09 -5.11 3.3 -4.91 3.48 -4.69 3.67 -4.47 3.85 -4.25 4.02 -4 4.18 -3.76 4.34 -3.51 4.48 -3.24 4.63 -2.97 4.76 -2.69 4.88 -2.41 5.01 -2.11 5.12 -1.81 5.22 -1.5 5.33 -1.18 5.41 -0.85 5.51 -0.52 5.59 -0.17 5.66z"/>
   </g>
   <g>
    <polygon class="fil8" points="1910.61,396.11 2140.61,396.11 2140.61,626.11 1910.61,626.11 "/>
    <polygon id="_1_6" class="fil2 str0" points="1910.61,396.11 2140.61,396.11 2140.61,626.11 1910.61,626.11 "/>
   </g>
   <path class="fil3" d="M1934.83 523.23l0 -5.87c1.06,0.9 2.22,1.57 3.46,2.01 1.25,0.44 2.5,0.67 3.77,0.67 0.75,0 1.4,-0.07 1.95,-0.2 0.56,-0.14 1.02,-0.32 1.4,-0.56 0.37,-0.24 0.65,-0.52 0.83,-0.84 0.18,-0.33 0.27,-0.68 0.27,-1.06 0,-0.51 -0.14,-0.97 -0.44,-1.37 -0.29,-0.4 -0.69,-0.78 -1.2,-1.12 -0.5,-0.34 -1.1,-0.67 -1.8,-0.98 -0.69,-0.32 -1.44,-0.65 -2.25,-0.98 -2.05,-0.85 -3.58,-1.89 -4.59,-3.13 -1.01,-1.23 -1.5,-2.72 -1.5,-4.46 0,-1.37 0.26,-2.55 0.81,-3.53 0.55,-0.98 1.3,-1.79 2.25,-2.43 0.95,-0.63 2.04,-1.1 3.28,-1.4 1.25,-0.3 2.57,-0.45 3.96,-0.45 1.37,0 2.58,0.09 3.64,0.25 1.05,0.16 2.02,0.42 2.92,0.76l0 5.48c-0.45,-0.31 -0.92,-0.58 -1.44,-0.81 -0.52,-0.23 -1.06,-0.42 -1.61,-0.58 -0.54,-0.15 -1.09,-0.26 -1.63,-0.34 -0.55,-0.06 -1.06,-0.1 -1.55,-0.1 -0.67,0 -1.28,0.06 -1.83,0.19 -0.55,0.13 -1.01,0.31 -1.39,0.54 -0.38,0.23 -0.67,0.51 -0.88,0.83 -0.21,0.33 -0.31,0.69 -0.31,1.09 0,0.44 0.11,0.84 0.34,1.18 0.23,0.35 0.57,0.68 1,0.99 0.42,0.31 0.94,0.62 1.55,0.92 0.61,0.3 1.3,0.6 2.07,0.92 1.05,0.44 1.99,0.91 2.83,1.4 0.83,0.49 1.55,1.06 2.15,1.68 0.6,0.62 1.05,1.33 1.37,2.13 0.32,0.8 0.48,1.73 0.48,2.79 0,1.47 -0.28,2.69 -0.83,3.69 -0.56,1 -1.31,1.8 -2.27,2.42 -0.95,0.61 -2.05,1.06 -3.32,1.33 -1.26,0.27 -2.6,0.4 -4,0.4 -1.44,0 -2.81,-0.12 -4.11,-0.37 -1.3,-0.24 -2.43,-0.61 -3.38,-1.09zm37.97 1l-15.75 0 0 -26.25 15.15 0 0 4.81 -9.23 0 0 5.84 8.59 0 0 4.8 -8.59 0 0 6 9.83 0 0 4.8zm26.24 0l-6.79 0 -4.08 -6.75c-0.31,-0.52 -0.6,-0.97 -0.88,-1.38 -0.29,-0.4 -0.57,-0.74 -0.85,-1.03 -0.29,-0.29 -0.59,-0.51 -0.9,-0.66 -0.32,-0.15 -0.65,-0.23 -1.02,-0.23l-1.59 0 0 10.05 -5.92 0 0 -26.25 9.38 0c6.37,0 9.56,2.38 9.56,7.13 0,0.92 -0.15,1.77 -0.43,2.54 -0.28,0.78 -0.67,1.48 -1.18,2.1 -0.52,0.62 -1.14,1.16 -1.86,1.61 -0.73,0.45 -1.54,0.8 -2.43,1.06l0 0.07c0.39,0.13 0.77,0.32 1.14,0.6 0.36,0.27 0.71,0.59 1.06,0.96 0.34,0.37 0.67,0.76 0.98,1.18 0.31,0.42 0.59,0.83 0.85,1.24l4.96 7.76zm-16.11 -21.82l0 7.3 2.56 0c1.27,0 2.29,-0.37 3.06,-1.1 0.78,-0.74 1.17,-1.67 1.17,-2.76 0,-2.3 -1.37,-3.44 -4.12,-3.44l-2.67 0zm40.43 -4.43l-9.05 26.25 -6.7 0 -8.94 -26.25 6.38 0 5.47 18.27c0.3,0.99 0.47,1.86 0.53,2.62l0.11 0c0.09,-0.82 0.28,-1.72 0.57,-2.69l5.44 -18.2 6.19 0zm9.06 26.25l-5.92 0 0 -26.25 5.92 0 0 26.25zm5.96 0l0 -26.25 9.31 0c9.33,0 13.99,4.26 13.99,12.8 0,4.08 -1.28,7.35 -3.82,9.79 -2.54,2.44 -5.93,3.66 -10.17,3.66l-9.31 0zm5.92 -21.44l0 16.64 2.93 0c2.57,0 4.57,-0.77 6.04,-2.3 1.45,-1.54 2.18,-3.64 2.18,-6.29 0,-2.5 -0.72,-4.46 -2.17,-5.9 -1.45,-1.43 -3.47,-2.15 -6.08,-2.15l-2.9 0zm32.83 21.9c-3.76,0 -6.82,-1.23 -9.19,-3.67 -2.37,-2.45 -3.55,-5.64 -3.55,-9.57 0,-4.15 1.2,-7.51 3.61,-10.07 2.4,-2.56 5.58,-3.85 9.55,-3.85 3.75,0 6.78,1.23 9.1,3.68 2.31,2.46 3.46,5.7 3.46,9.71 0,4.12 -1.2,7.46 -3.6,9.98 -2.39,2.52 -5.52,3.79 -9.38,3.79zm0.26 -22.06c-2.07,0 -3.72,0.77 -4.94,2.33 -1.22,1.56 -1.83,3.62 -1.83,6.18 0,2.6 0.61,4.65 1.83,6.17 1.22,1.52 2.81,2.27 4.79,2.27 2.04,0 3.66,-0.74 4.86,-2.2 1.19,-1.48 1.79,-3.52 1.79,-6.13 0,-2.72 -0.58,-4.84 -1.74,-6.36 -1.16,-1.51 -2.75,-2.26 -4.76,-2.26zm39.11 21.6l-6.79 0 -4.08 -6.75c-0.31,-0.52 -0.6,-0.97 -0.89,-1.38 -0.28,-0.4 -0.56,-0.74 -0.84,-1.03 -0.29,-0.29 -0.59,-0.51 -0.9,-0.66 -0.32,-0.15 -0.66,-0.23 -1.02,-0.23l-1.59 0 0 10.05 -5.92 0 0 -26.25 9.37 0c6.38,0 9.57,2.38 9.57,7.13 0,0.92 -0.15,1.77 -0.43,2.54 -0.28,0.78 -0.67,1.48 -1.19,2.1 -0.51,0.62 -1.13,1.16 -1.85,1.61 -0.73,0.45 -1.54,0.8 -2.43,1.06l0 0.07c0.39,0.13 0.77,0.32 1.13,0.6 0.37,0.27 0.72,0.59 1.07,0.96 0.34,0.37 0.67,0.76 0.98,1.18 0.31,0.42 0.59,0.83 0.85,1.24l4.96 7.76zm-16.11 -21.82l0 7.3 2.56 0c1.27,0 2.29,-0.37 3.06,-1.1 0.78,-0.74 1.17,-1.67 1.17,-2.76 0,-2.3 -1.37,-3.44 -4.12,-3.44l-2.67 0z"/>
   <path class="fil4" d="M2149.1 826.54l-6.79 0 -4.08 -6.75c-0.31,-0.52 -0.6,-0.97 -0.89,-1.38 -0.28,-0.4 -0.56,-0.74 -0.85,-1.03 -0.28,-0.29 -0.58,-0.51 -0.9,-0.66 -0.31,-0.15 -0.65,-0.23 -1.01,-0.23l-1.59 0 0 10.05 -5.92 0 0 -26.25 9.37 0c6.38,0 9.57,2.38 9.57,7.13 0,0.92 -0.15,1.77 -0.43,2.54 -0.28,0.78 -0.67,1.48 -1.19,2.1 -0.51,0.62 -1.13,1.16 -1.85,1.61 -0.73,0.45 -1.54,0.8 -2.43,1.06l0 0.07c0.39,0.13 0.76,0.32 1.13,0.6 0.37,0.27 0.72,0.59 1.07,0.96 0.34,0.37 0.66,0.76 0.98,1.18 0.31,0.42 0.59,0.83 0.85,1.24l4.96 7.76zm-16.11 -21.82l0 7.3 2.56 0c1.27,0 2.29,-0.37 3.06,-1.1 0.78,-0.74 1.17,-1.67 1.17,-2.76 0,-2.3 -1.37,-3.44 -4.12,-3.44l-2.67 0zm33.91 14.1l-12.23 0c0.19,2.72 1.91,4.08 5.14,4.08 2.06,0 3.88,-0.49 5.44,-1.46l0 4.17c-1.73,0.93 -3.98,1.39 -6.76,1.39 -3.02,0 -5.37,-0.84 -7.05,-2.52 -1.66,-1.68 -2.5,-4.02 -2.5,-7.02 0,-3.11 0.9,-5.58 2.71,-7.4 1.81,-1.82 4.03,-2.72 6.66,-2.72 2.73,0 4.85,0.81 6.35,2.43 1.49,1.62 2.24,3.83 2.24,6.61l0 2.44zm-5.36 -3.56c0,-2.68 -1.09,-4.02 -3.27,-4.02 -0.92,0 -1.73,0.38 -2.4,1.15 -0.68,0.76 -1.09,1.73 -1.24,2.87l6.91 0zm7.57 10.79l0 -4.69c0.96,0.58 1.91,1 2.85,1.28 0.95,0.28 1.84,0.42 2.68,0.42 1.03,0 1.84,-0.14 2.43,-0.42 0.59,-0.28 0.89,-0.7 0.89,-1.28 0,-0.37 -0.13,-0.67 -0.4,-0.92 -0.27,-0.24 -0.62,-0.45 -1.04,-0.64 -0.42,-0.18 -0.88,-0.35 -1.38,-0.49 -0.5,-0.15 -0.98,-0.31 -1.45,-0.49 -0.74,-0.28 -1.4,-0.59 -1.96,-0.91 -0.57,-0.32 -1.05,-0.7 -1.44,-1.13 -0.38,-0.43 -0.67,-0.92 -0.87,-1.48 -0.2,-0.56 -0.31,-1.23 -0.31,-2 0,-1.05 0.23,-1.95 0.69,-2.71 0.46,-0.75 1.07,-1.37 1.83,-1.85 0.76,-0.49 1.64,-0.84 2.62,-1.07 0.98,-0.22 2.01,-0.33 3.07,-0.33 0.83,0 1.67,0.06 2.52,0.19 0.86,0.12 1.7,0.31 2.54,0.56l0 4.46c-0.74,-0.43 -1.52,-0.75 -2.36,-0.96 -0.84,-0.21 -1.66,-0.32 -2.46,-0.32 -0.38,0 -0.74,0.03 -1.07,0.1 -0.34,0.07 -0.64,0.17 -0.9,0.3 -0.25,0.12 -0.45,0.28 -0.6,0.49 -0.15,0.2 -0.21,0.43 -0.21,0.69 0,0.34 0.1,0.63 0.32,0.87 0.23,0.25 0.51,0.46 0.86,0.63 0.36,0.19 0.75,0.34 1.18,0.48 0.44,0.14 0.87,0.29 1.3,0.43 0.77,0.27 1.46,0.56 2.09,0.88 0.61,0.32 1.15,0.69 1.6,1.12 0.44,0.43 0.78,0.93 1.02,1.5 0.24,0.58 0.36,1.26 0.36,2.05 0,1.11 -0.24,2.06 -0.73,2.85 -0.48,0.79 -1.12,1.43 -1.92,1.92 -0.8,0.49 -1.72,0.86 -2.77,1.08 -1.04,0.23 -2.12,0.34 -3.25,0.34 -2.06,0 -3.96,-0.32 -5.73,-0.95zm23.59 -1.69l-0.07 0 0 10.81 -5.79 0 0 -27.38 5.79 0 0 2.82 0.07 0c1.43,-2.18 3.44,-3.27 6.03,-3.27 2.43,0 4.3,0.83 5.63,2.5 1.32,1.66 1.98,3.93 1.98,6.8 0,3.12 -0.77,5.63 -2.31,7.52 -1.55,1.89 -3.6,2.84 -6.17,2.84 -2.25,0 -3.97,-0.88 -5.16,-2.64zm-0.16 -7.69l0 1.5c0,1.3 0.34,2.35 1.02,3.17 0.68,0.82 1.58,1.23 2.7,1.23 1.31,0 2.33,-0.51 3.06,-1.53 0.72,-1.02 1.09,-2.46 1.09,-4.33 0,-3.3 -1.28,-4.94 -3.85,-4.94 -1.18,0 -2.15,0.44 -2.9,1.34 -0.75,0.9 -1.12,2.09 -1.12,3.56zm35.37 9.87l-5.77 0 0 -2.85 -0.08 0c-1.43,2.2 -3.34,3.31 -5.74,3.31 -4.35,0 -6.51,-2.63 -6.51,-7.9l0 -11.31 5.76 0 0 10.8c0,2.65 1.05,3.98 3.15,3.98 1.04,0 1.87,-0.37 2.49,-1.09 0.63,-0.73 0.93,-1.71 0.93,-2.96l0 -10.73 5.77 0 0 18.75zm21.72 -7.72l-12.23 0c0.19,2.72 1.91,4.08 5.14,4.08 2.07,0 3.88,-0.49 5.44,-1.46l0 4.17c-1.73,0.93 -3.98,1.39 -6.75,1.39 -3.03,0 -5.38,-0.84 -7.05,-2.52 -1.67,-1.68 -2.51,-4.02 -2.51,-7.02 0,-3.11 0.9,-5.58 2.71,-7.4 1.81,-1.82 4.03,-2.72 6.66,-2.72 2.74,0 4.85,0.81 6.35,2.43 1.49,1.62 2.24,3.83 2.24,6.61l0 2.44zm-5.36 -3.56c0,-2.68 -1.09,-4.02 -3.26,-4.02 -0.93,0 -1.73,0.38 -2.41,1.15 -0.68,0.76 -1.09,1.73 -1.24,2.87l6.91 0zm7.57 10.79l0 -4.69c0.96,0.58 1.91,1 2.85,1.28 0.95,0.28 1.84,0.42 2.69,0.42 1.02,0 1.83,-0.14 2.42,-0.42 0.59,-0.28 0.89,-0.7 0.89,-1.28 0,-0.37 -0.13,-0.67 -0.4,-0.92 -0.27,-0.24 -0.61,-0.45 -1.04,-0.64 -0.42,-0.18 -0.88,-0.35 -1.38,-0.49 -0.5,-0.15 -0.98,-0.31 -1.44,-0.49 -0.75,-0.28 -1.4,-0.59 -1.97,-0.91 -0.57,-0.32 -1.05,-0.7 -1.43,-1.13 -0.39,-0.43 -0.68,-0.92 -0.88,-1.48 -0.2,-0.56 -0.31,-1.23 -0.31,-2 0,-1.05 0.24,-1.95 0.69,-2.71 0.46,-0.75 1.07,-1.37 1.83,-1.85 0.77,-0.49 1.64,-0.84 2.62,-1.07 0.98,-0.22 2.01,-0.33 3.07,-0.33 0.83,0 1.67,0.06 2.53,0.19 0.85,0.12 1.7,0.31 2.53,0.56l0 4.46c-0.74,-0.43 -1.52,-0.75 -2.36,-0.96 -0.84,-0.21 -1.66,-0.32 -2.46,-0.32 -0.38,0 -0.74,0.03 -1.07,0.1 -0.34,0.07 -0.64,0.17 -0.89,0.3 -0.26,0.12 -0.46,0.28 -0.6,0.49 -0.15,0.2 -0.22,0.43 -0.22,0.69 0,0.34 0.1,0.63 0.32,0.87 0.23,0.25 0.51,0.46 0.86,0.63 0.36,0.19 0.75,0.34 1.19,0.48 0.43,0.14 0.86,0.29 1.29,0.43 0.77,0.27 1.46,0.56 2.09,0.88 0.62,0.32 1.15,0.69 1.6,1.12 0.44,0.43 0.78,0.93 1.02,1.5 0.24,0.58 0.36,1.26 0.36,2.05 0,1.11 -0.24,2.06 -0.73,2.85 -0.48,0.79 -1.12,1.43 -1.92,1.92 -0.8,0.49 -1.72,0.86 -2.76,1.08 -1.05,0.23 -2.13,0.34 -3.25,0.34 -2.07,0 -3.97,-0.32 -5.74,-0.95zm29.07 0.27c-0.86,0.45 -2.15,0.68 -3.87,0.68 -4.07,0 -6.11,-2.12 -6.11,-6.35l0 -8.59 -3.04 0 0 -4.27 3.04 0 0 -4.04 5.76 -1.65 0 5.69 4.22 0 0 4.27 -4.22 0 0 7.58c0,1.95 0.78,2.93 2.33,2.93 0.61,0 1.24,-0.18 1.89,-0.53l0 4.28zm18.86 0.22l-5.48 0 0 -2.69 -0.07 0c-1.26,2.1 -3.12,3.15 -5.59,3.15 -1.82,0 -3.25,-0.51 -4.29,-1.55 -1.05,-1.03 -1.56,-2.41 -1.56,-4.13 0,-3.63 2.15,-5.73 6.46,-6.3l5.09 -0.67c0,-2.05 -1.11,-3.08 -3.34,-3.08 -2.23,0 -4.35,0.67 -6.36,2l0 -4.36c0.8,-0.42 1.9,-0.78 3.3,-1.1 1.4,-0.32 2.67,-0.47 3.82,-0.47 5.34,0 8.02,2.66 8.02,8l0 11.2zm-5.44 -7.62l0 -1.26 -3.4 0.44c-1.89,0.24 -2.82,1.09 -2.82,2.55 0,0.65 0.22,1.2 0.68,1.62 0.46,0.42 1.08,0.63 1.86,0.63 1.09,0 1.97,-0.38 2.66,-1.13 0.68,-0.75 1.02,-1.7 1.02,-2.85z"/>
   <path class="fil5" d="M2138.38 201.41l0 -5.86c1.06,0.89 2.22,1.56 3.46,2.01 1.25,0.44 2.5,0.66 3.77,0.66 0.75,0 1.4,-0.06 1.95,-0.2 0.56,-0.13 1.02,-0.31 1.4,-0.56 0.37,-0.23 0.65,-0.52 0.83,-0.83 0.19,-0.33 0.27,-0.68 0.27,-1.06 0,-0.51 -0.14,-0.97 -0.44,-1.37 -0.29,-0.41 -0.69,-0.78 -1.2,-1.12 -0.5,-0.34 -1.1,-0.67 -1.8,-0.99 -0.69,-0.32 -1.44,-0.64 -2.25,-0.97 -2.05,-0.85 -3.58,-1.9 -4.59,-3.13 -1.01,-1.23 -1.5,-2.72 -1.5,-4.47 0,-1.36 0.26,-2.54 0.81,-3.52 0.55,-0.99 1.3,-1.79 2.25,-2.43 0.95,-0.63 2.04,-1.1 3.28,-1.4 1.25,-0.3 2.57,-0.45 3.96,-0.45 1.37,0 2.58,0.09 3.64,0.25 1.05,0.16 2.02,0.42 2.92,0.76l0 5.48c-0.45,-0.31 -0.92,-0.58 -1.44,-0.81 -0.52,-0.23 -1.06,-0.43 -1.61,-0.58 -0.54,-0.15 -1.09,-0.26 -1.63,-0.34 -0.55,-0.07 -1.06,-0.11 -1.55,-0.11 -0.67,0 -1.28,0.07 -1.83,0.19 -0.55,0.13 -1.01,0.32 -1.39,0.55 -0.38,0.23 -0.67,0.5 -0.88,0.83 -0.21,0.32 -0.31,0.68 -0.31,1.08 0,0.45 0.11,0.84 0.34,1.19 0.23,0.35 0.57,0.68 1,0.99 0.42,0.31 0.94,0.61 1.55,0.91 0.61,0.3 1.3,0.61 2.07,0.93 1.05,0.44 1.99,0.9 2.83,1.4 0.84,0.49 1.55,1.05 2.15,1.67 0.6,0.63 1.05,1.34 1.37,2.14 0.32,0.79 0.48,1.72 0.48,2.79 0,1.47 -0.28,2.69 -0.83,3.69 -0.56,0.99 -1.31,1.8 -2.27,2.41 -0.95,0.62 -2.05,1.07 -3.32,1.34 -1.26,0.26 -2.59,0.39 -4,0.39 -1.44,0 -2.81,-0.11 -4.11,-0.36 -1.3,-0.24 -2.43,-0.61 -3.38,-1.1zm30.6 1.46c-3.13,0 -5.59,-0.87 -7.37,-2.62 -1.79,-1.75 -2.68,-4.13 -2.68,-7.13 0,-3.1 0.92,-5.53 2.78,-7.28 1.85,-1.75 4.36,-2.63 7.52,-2.63 3.11,0 5.56,0.88 7.33,2.63 1.77,1.75 2.65,4.07 2.65,6.95 0,3.11 -0.91,5.57 -2.73,7.38 -1.83,1.8 -4.33,2.7 -7.5,2.7zm0.15 -15.23c-1.37,0 -2.44,0.47 -3.19,1.41 -0.76,0.94 -1.14,2.27 -1.14,3.99 0,3.6 1.46,5.4 4.36,5.4 2.77,0 4.16,-1.85 4.16,-5.54 0,-3.51 -1.4,-5.26 -4.19,-5.26zm19.62 14.78l-5.78 0 0 -27.76 5.78 0 0 27.76zm7.8 -21.72c-0.97,0 -1.78,-0.29 -2.39,-0.87 -0.63,-0.58 -0.94,-1.29 -0.94,-2.13 0,-0.87 0.31,-1.58 0.94,-2.13 0.61,-0.54 1.42,-0.82 2.39,-0.82 0.99,0 1.79,0.28 2.41,0.82 0.61,0.55 0.93,1.26 0.93,2.13 0,0.87 -0.32,1.6 -0.93,2.16 -0.62,0.56 -1.42,0.84 -2.41,0.84zm2.86 21.72l-5.78 0 0 -18.75 5.78 0 0 18.75zm19.08 -0.68c-1.31,0.76 -3.2,1.13 -5.66,1.13 -2.88,0 -5.21,-0.86 -6.99,-2.61 -1.78,-1.75 -2.68,-4 -2.68,-6.76 0,-3.19 0.96,-5.69 2.86,-7.53 1.92,-1.84 4.47,-2.76 7.67,-2.76 2.21,0 3.81,0.3 4.8,0.88l0 4.91c-1.21,-0.91 -2.56,-1.36 -4.05,-1.36 -1.66,0 -2.97,0.48 -3.95,1.46 -0.97,0.97 -1.45,2.31 -1.45,4.02 0,1.65 0.47,2.96 1.39,3.9 0.93,0.96 2.21,1.42 3.83,1.42 1.44,0 2.85,-0.45 4.23,-1.35l0 4.65zm6.72 -21.04c-0.98,0 -1.78,-0.29 -2.4,-0.87 -0.62,-0.58 -0.94,-1.29 -0.94,-2.13 0,-0.87 0.32,-1.58 0.94,-2.13 0.62,-0.54 1.42,-0.82 2.4,-0.82 0.99,0 1.79,0.28 2.41,0.82 0.61,0.55 0.92,1.26 0.92,2.13 0,0.87 -0.31,1.6 -0.92,2.16 -0.62,0.56 -1.42,0.84 -2.41,0.84zm2.85 21.72l-5.78 0 0 -18.75 5.78 0 0 18.75zm16.21 -0.22c-0.86,0.45 -2.15,0.67 -3.86,0.67 -4.08,0 -6.12,-2.11 -6.12,-6.35l0 -8.58 -3.04 0 0 -4.27 3.04 0 0 -4.05 5.77 -1.65 0 5.7 4.21 0 0 4.27 -4.21 0 0 7.58c0,1.95 0.77,2.92 2.32,2.92 0.61,0 1.24,-0.17 1.89,-0.53l0 4.29zm21.07 0.22l-5.77 0 0 -2.86 -0.08 0c-1.43,2.21 -3.34,3.31 -5.73,3.31 -4.35,0 -6.52,-2.63 -6.52,-7.89l0 -11.31 5.77 0 0 10.8c0,2.65 1.05,3.97 3.15,3.97 1.03,0 1.86,-0.36 2.48,-1.08 0.63,-0.73 0.93,-1.72 0.93,-2.96l0 -10.73 5.77 0 0 18.75zm23.22 0l-5.79 0 0 -2.58 -0.06 0c-1.32,2.02 -3.26,3.03 -5.81,3.03 -2.34,0 -4.23,-0.82 -5.66,-2.48 -1.43,-1.65 -2.14,-3.96 -2.14,-6.93 0,-3.1 0.79,-5.58 2.36,-7.45 1.58,-1.87 3.64,-2.8 6.19,-2.8 2.42,0 4.1,0.86 5.06,2.6l0.06 0 0 -11.15 5.79 0 0 27.76zm-5.67 -9.12l0 -1.41c0,-1.22 -0.36,-2.23 -1.07,-3.04 -0.7,-0.81 -1.63,-1.21 -2.76,-1.21 -1.28,0 -2.29,0.5 -3,1.51 -0.72,1.01 -1.09,2.39 -1.09,4.15 0,1.65 0.35,2.92 1.05,3.81 0.7,0.89 1.66,1.33 2.89,1.33 1.18,0 2.13,-0.46 2.87,-1.4 0.74,-0.95 1.11,-2.19 1.11,-3.74z"/>
   <g>
    <path id="flecha_roja_7" class="fil6" d="M2075.63 634.31l15 35 0 0 -0.94 -0.45 -0.93 -0.42 -0.94 -0.4 -0.94 -0.37 -0.94 -0.33 -0.93 -0.31 -0.94 -0.28 -0.94 -0.25 -0.94 -0.22 -0.93 -0.19 -0.94 -0.16 -0.94 -0.13 -0.94 -0.1 -0.93 -0.08 -0.94 -0.04 -0.94 -0.02 -0.94 0.02 -0.94 0.04 -0.93 0.08 -0.94 0.1 -0.94 0.13 -0.94 0.16 -0.93 0.19 -0.94 0.22 -0.94 0.25 -0.94 0.28 -0.94 0.31 -0.93 0.33 -0.94 0.37 -0.94 0.4 -0.94 0.42 -0.93 0.45 15 -35zm137.79 128.11l0 5 0 0 -7.19 -0.15 -7.11 -0.44 -7 -0.73 -6.88 -1.01 -6.77 -1.28 -6.64 -1.55 -6.51 -1.8 -6.35 -2.06 -6.21 -2.3 -6.04 -2.54 -5.87 -2.76 -5.68 -2.99 -5.5 -3.21 -5.3 -3.42 -5.09 -3.62 -4.88 -3.81 -4.65 -4 -4.42 -4.18 -4.17 -4.36 -3.93 -4.53 -3.66 -4.69 -3.4 -4.84 -3.11 -4.98 -2.82 -5.13 -2.53 -5.26 -2.22 -5.38 -1.91 -5.51 -1.58 -5.61 -1.24 -5.71 -0.9 -5.81 -0.55 -5.89 -0.18 -5.97 5 0 0.17 5.66 0.52 5.59 0.85 5.51 1.18 5.41 1.5 5.33 1.81 5.22 2.11 5.12 2.41 5.01 2.69 4.88 2.97 4.76 3.25 4.63 3.5 4.48 3.76 4.34 4.01 4.18 4.24 4.02 4.47 3.85 4.7 3.67 4.9 3.48 5.11 3.3 5.31 3.09 5.49 2.89 5.68 2.68 5.84 2.45 6.01 2.23 6.15 1.99 6.3 1.75 6.44 1.5 6.56 1.24 6.69 0.98 6.79 0.71 6.89 0.43 6.99 0.14 0 0zm135.29 -110.52l5 0 -0.18 5.97 -0.55 5.89 -0.9 5.81 -1.24 5.71 -1.58 5.61 -1.91 5.51 -2.22 5.38 -2.53 5.26 -2.82 5.13 -3.12 4.98 -3.39 4.84 -3.66 4.69 -3.93 4.53 -4.17 4.36 -4.42 4.18 -4.65 4 -4.88 3.81 -5.09 3.62 -5.3 3.42 -5.5 3.21 -5.69 2.99 -5.86 2.76 -6.04 2.54 -6.21 2.3 -6.35 2.06 -6.51 1.8 -6.64 1.55 -6.77 1.28 -6.89 1.01 -7 0.73 -7.1 0.44 -7.19 0.15 0 -5 6.99 -0.14 6.89 -0.43 6.79 -0.71 6.69 -0.98 6.56 -1.24 6.44 -1.5 6.3 -1.75 6.15 -1.99 6.01 -2.23 5.84 -2.45 5.67 -2.68 5.5 -2.89 5.3 -3.09 5.12 -3.3 4.9 -3.48 4.7 -3.67 4.47 -3.85 4.24 -4.02 4.01 -4.18 3.76 -4.34 3.5 -4.48 3.24 -4.63 2.98 -4.76 2.69 -4.88 2.41 -5.01 2.11 -5.12 1.81 -5.22 1.49 -5.33 1.18 -5.41 0.86 -5.51 0.51 -5.59 0.18 -5.66z"/>
   </g>
   <g>
    <path id="flecha_amarilla_8" class="fil7" d="M2351.21 368.61l-15 -35 0 0 0.93 0.45 0.94 0.42 0.94 0.4 0.94 0.37 0.93 0.33 0.94 0.31 0.94 0.28 0.94 0.25 0.94 0.22 0.93 0.19 0.94 0.16 0.94 0.13 0.94 0.11 0.93 0.07 0.94 0.04 0.94 0.02 0.94 -0.02 0.93 -0.04 0.94 -0.07 0.94 -0.11 0.94 -0.13 0.93 -0.16 0.94 -0.19 0.94 -0.22 0.94 -0.25 0.94 -0.28 0.93 -0.31 0.94 -0.33 0.94 -0.37 0.94 -0.4 0.93 -0.42 0.94 -0.45 -15 35zm-137.79 -128.11l0 -5 0 0 7.19 0.15 7.1 0.44 7 0.73 6.89 1.01 6.77 1.28 6.64 1.55 6.51 1.8 6.35 2.06 6.21 2.3 6.04 2.54 5.86 2.76 5.69 2.99 5.5 3.21 5.3 3.42 5.09 3.62 4.88 3.81 4.65 4 4.42 4.18 4.17 4.36 3.93 4.53 3.66 4.69 3.39 4.84 3.12 4.98 2.82 5.13 2.53 5.26 2.22 5.39 1.91 5.5 1.58 5.61 1.24 5.71 0.9 5.81 0.55 5.89 0.18 5.97 -5 0 -0.18 -5.66 -0.51 -5.59 -0.86 -5.51 -1.18 -5.41 -1.49 -5.33 -1.81 -5.22 -2.11 -5.12 -2.41 -5.01 -2.69 -4.88 -2.98 -4.76 -3.24 -4.63 -3.5 -4.48 -3.76 -4.34 -4.01 -4.18 -4.24 -4.02 -4.47 -3.85 -4.7 -3.67 -4.9 -3.48 -5.12 -3.3 -5.3 -3.09 -5.5 -2.89 -5.67 -2.68 -5.84 -2.45 -6.01 -2.23 -6.15 -1.99 -6.3 -1.75 -6.44 -1.5 -6.56 -1.24 -6.69 -0.98 -6.79 -0.71 -6.89 -0.42 -6.99 -0.15 0 0zm-135.29 110.52l-5 0 0.18 -5.97 0.55 -5.89 0.9 -5.81 1.24 -5.71 1.58 -5.61 1.91 -5.5 2.22 -5.39 2.53 -5.26 2.82 -5.13 3.11 -4.98 3.4 -4.84 3.66 -4.69 3.93 -4.53 4.17 -4.36 4.42 -4.18 4.65 -4 4.88 -3.81 5.09 -3.62 5.3 -3.42 5.5 -3.21 5.68 -2.99 5.87 -2.76 6.04 -2.54 6.21 -2.3 6.35 -2.06 6.51 -1.8 6.64 -1.55 6.77 -1.28 6.88 -1.01 7 -0.73 7.11 -0.44 7.19 -0.15 0 5 -6.99 0.15 -6.89 0.42 -6.79 0.71 -6.69 0.98 -6.56 1.24 -6.44 1.5 -6.3 1.75 -6.15 1.99 -6.01 2.23 -5.84 2.45 -5.68 2.68 -5.49 2.89 -5.31 3.09 -5.11 3.3 -4.9 3.48 -4.7 3.67 -4.47 3.85 -4.24 4.02 -4.01 4.18 -3.76 4.34 -3.5 4.48 -3.25 4.63 -2.97 4.76 -2.69 4.88 -2.41 5.01 -2.11 5.12 -1.81 5.22 -1.5 5.33 -1.18 5.41 -0.85 5.51 -0.52 5.59 -0.17 5.66z"/>
   </g>
   <g>
    <polygon class="fil8" points="2286.23,396.11 2516.23,396.11 2516.23,626.11 2286.23,626.11 "/>
    <polygon id="_1_9" class="fil2 str0" points="2286.23,396.11 2516.23,396.11 2516.23,626.11 2286.23,626.11 "/>
   </g>
   <path class="fil3" d="M2310.44 523.23l0 -5.87c1.07,0.9 2.22,1.57 3.47,2.01 1.24,0.44 2.5,0.67 3.77,0.67 0.75,0 1.39,-0.07 1.95,-0.2 0.55,-0.14 1.01,-0.32 1.39,-0.56 0.37,-0.24 0.65,-0.52 0.83,-0.84 0.19,-0.33 0.27,-0.68 0.27,-1.06 0,-0.51 -0.14,-0.97 -0.43,-1.37 -0.3,-0.4 -0.7,-0.78 -1.2,-1.12 -0.51,-0.34 -1.11,-0.67 -1.81,-0.98 -0.69,-0.32 -1.44,-0.65 -2.25,-0.98 -2.05,-0.85 -3.58,-1.89 -4.59,-3.13 -1,-1.23 -1.5,-2.72 -1.5,-4.46 0,-1.37 0.27,-2.55 0.82,-3.53 0.55,-0.98 1.3,-1.79 2.24,-2.43 0.95,-0.63 2.04,-1.1 3.29,-1.4 1.24,-0.3 2.56,-0.45 3.95,-0.45 1.37,0 2.59,0.09 3.64,0.25 1.05,0.16 2.03,0.42 2.92,0.76l0 5.48c-0.44,-0.31 -0.92,-0.58 -1.44,-0.81 -0.52,-0.23 -1.05,-0.42 -1.6,-0.58 -0.55,-0.15 -1.1,-0.26 -1.64,-0.34 -0.55,-0.06 -1.06,-0.1 -1.54,-0.1 -0.68,0 -1.29,0.06 -1.84,0.19 -0.55,0.13 -1.01,0.31 -1.39,0.54 -0.37,0.23 -0.67,0.51 -0.88,0.83 -0.21,0.33 -0.31,0.69 -0.31,1.09 0,0.44 0.11,0.84 0.35,1.18 0.23,0.35 0.56,0.68 0.99,0.99 0.42,0.31 0.94,0.62 1.56,0.92 0.6,0.3 1.3,0.6 2.06,0.92 1.05,0.44 1.99,0.91 2.83,1.4 0.84,0.49 1.56,1.06 2.15,1.68 0.6,0.62 1.06,1.33 1.38,2.13 0.31,0.8 0.47,1.73 0.47,2.79 0,1.47 -0.28,2.69 -0.83,3.69 -0.56,1 -1.31,1.8 -2.26,2.42 -0.95,0.61 -2.06,1.06 -3.32,1.33 -1.27,0.27 -2.6,0.4 -4.01,0.4 -1.44,0 -2.8,-0.12 -4.11,-0.37 -1.29,-0.24 -2.43,-0.61 -3.38,-1.09zm37.98 1l-15.75 0 0 -26.25 15.14 0 0 4.81 -9.22 0 0 5.84 8.58 0 0 4.8 -8.58 0 0 6 9.83 0 0 4.8zm26.23 0l-6.79 0 -4.08 -6.75c-0.31,-0.52 -0.6,-0.97 -0.88,-1.38 -0.28,-0.4 -0.56,-0.74 -0.85,-1.03 -0.29,-0.29 -0.59,-0.51 -0.9,-0.66 -0.31,-0.15 -0.65,-0.23 -1.01,-0.23l-1.6 0 0 10.05 -5.92 0 0 -26.25 9.38 0c6.37,0 9.56,2.38 9.56,7.13 0,0.92 -0.14,1.77 -0.42,2.54 -0.29,0.78 -0.68,1.48 -1.19,2.1 -0.51,0.62 -1.13,1.16 -1.86,1.61 -0.73,0.45 -1.53,0.8 -2.43,1.06l0 0.07c0.39,0.13 0.77,0.32 1.14,0.6 0.37,0.27 0.72,0.59 1.06,0.96 0.35,0.37 0.67,0.76 0.98,1.18 0.31,0.42 0.6,0.83 0.85,1.24l4.96 7.76zm-16.11 -21.82l0 7.3 2.56 0c1.27,0 2.29,-0.37 3.06,-1.1 0.78,-0.74 1.18,-1.67 1.18,-2.76 0,-2.3 -1.38,-3.44 -4.13,-3.44l-2.67 0zm40.43 -4.43l-9.05 26.25 -6.7 0 -8.93 -26.25 6.37 0 5.48 18.27c0.29,0.99 0.46,1.86 0.53,2.62l0.1 0c0.09,-0.82 0.28,-1.72 0.57,-2.69l5.44 -18.2 6.19 0zm9.07 26.25l-5.92 0 0 -26.25 5.92 0 0 26.25zm5.96 0l0 -26.25 9.3 0c9.33,0 13.99,4.26 13.99,12.8 0,4.08 -1.27,7.35 -3.82,9.79 -2.54,2.44 -5.93,3.66 -10.17,3.66l-9.3 0zm5.92 -21.44l0 16.64 2.93 0c2.56,0 4.57,-0.77 6.03,-2.3 1.45,-1.54 2.19,-3.64 2.19,-6.29 0,-2.5 -0.73,-4.46 -2.17,-5.9 -1.45,-1.43 -3.48,-2.15 -6.09,-2.15l-2.89 0zm32.83 21.9c-3.77,0 -6.83,-1.23 -9.2,-3.67 -2.37,-2.45 -3.55,-5.64 -3.55,-9.57 0,-4.15 1.2,-7.51 3.61,-10.07 2.41,-2.56 5.59,-3.85 9.56,-3.85 3.75,0 6.78,1.23 9.09,3.68 2.31,2.46 3.47,5.7 3.47,9.71 0,4.12 -1.2,7.46 -3.6,9.98 -2.4,2.52 -5.53,3.79 -9.38,3.79zm0.25 -22.06c-2.07,0 -3.72,0.77 -4.94,2.33 -1.22,1.56 -1.83,3.62 -1.83,6.18 0,2.6 0.61,4.65 1.83,6.17 1.22,1.52 2.82,2.27 4.79,2.27 2.05,0 3.66,-0.74 4.86,-2.2 1.19,-1.48 1.79,-3.52 1.79,-6.13 0,-2.72 -0.58,-4.84 -1.73,-6.36 -1.17,-1.51 -2.75,-2.26 -4.77,-2.26zm39.11 21.6l-6.79 0 -4.08 -6.75c-0.31,-0.52 -0.6,-0.97 -0.88,-1.38 -0.28,-0.4 -0.56,-0.74 -0.85,-1.03 -0.29,-0.29 -0.59,-0.51 -0.9,-0.66 -0.31,-0.15 -0.65,-0.23 -1.01,-0.23l-1.6 0 0 10.05 -5.92 0 0 -26.25 9.38 0c6.37,0 9.56,2.38 9.56,7.13 0,0.92 -0.14,1.77 -0.42,2.54 -0.29,0.78 -0.68,1.48 -1.19,2.1 -0.51,0.62 -1.13,1.16 -1.86,1.61 -0.73,0.45 -1.54,0.8 -2.43,1.06l0 0.07c0.39,0.13 0.77,0.32 1.14,0.6 0.37,0.27 0.72,0.59 1.06,0.96 0.34,0.37 0.67,0.76 0.98,1.18 0.31,0.42 0.6,0.83 0.85,1.24l4.96 7.76zm-16.11 -21.82l0 7.3 2.56 0c1.27,0 2.29,-0.37 3.06,-1.1 0.78,-0.74 1.18,-1.67 1.18,-2.76 0,-2.3 -1.38,-3.44 -4.13,-3.44l-2.67 0z"/>
   <path class="fil9" d="M2316.65 569.92l0 8.04 -5.26 0 0 -23.34 8.24 0c5.88,0 8.82,2.47 8.82,7.44 0,2.34 -0.84,4.23 -2.53,5.68 -1.69,1.45 -3.94,2.18 -6.76,2.18l-2.51 0zm0 -11.27l0 7.28 2.07 0c2.8,0 4.2,-1.23 4.2,-3.68 0,-2.4 -1.4,-3.6 -4.2,-3.6l-2.07 0zm28.7 12.44l-10.87 0c0.17,2.41 1.69,3.63 4.57,3.63 1.83,0 3.44,-0.44 4.83,-1.3l0 3.71c-1.54,0.82 -3.54,1.23 -6.01,1.23 -2.68,0 -4.77,-0.74 -6.26,-2.24 -1.48,-1.49 -2.23,-3.57 -2.23,-6.24 0,-2.76 0.8,-4.96 2.41,-6.58 1.61,-1.61 3.58,-2.42 5.92,-2.42 2.43,0 4.31,0.73 5.64,2.16 1.33,1.45 2,3.41 2,5.88l0 2.17zm-4.77 -3.16c0,-2.39 -0.97,-3.58 -2.9,-3.58 -0.82,0 -1.54,0.34 -2.14,1.02 -0.6,0.69 -0.97,1.54 -1.1,2.56l6.14 0zm18.7 -2c-0.62,-0.34 -1.34,-0.51 -2.17,-0.51 -1.11,0 -1.99,0.41 -2.62,1.23 -0.63,0.82 -0.94,1.93 -0.94,3.34l0 7.97 -5.14 0 0 -16.67 5.14 0 0 3.09 0.06 0c0.82,-2.26 2.28,-3.39 4.4,-3.39 0.54,0 0.96,0.07 1.27,0.2l0 4.74zm1.49 11.59l0 -4.17c0.85,0.51 1.7,0.89 2.54,1.14 0.84,0.25 1.63,0.37 2.38,0.37 0.91,0 1.63,-0.12 2.16,-0.37 0.52,-0.25 0.79,-0.63 0.79,-1.14 0,-0.33 -0.12,-0.6 -0.36,-0.82 -0.24,-0.21 -0.54,-0.4 -0.92,-0.56 -0.37,-0.16 -0.79,-0.31 -1.23,-0.44 -0.44,-0.14 -0.87,-0.28 -1.28,-0.44 -0.66,-0.25 -1.25,-0.52 -1.75,-0.81 -0.51,-0.29 -0.93,-0.62 -1.28,-1 -0.33,-0.38 -0.6,-0.82 -0.77,-1.32 -0.18,-0.5 -0.28,-1.09 -0.28,-1.77 0,-0.94 0.21,-1.74 0.62,-2.41 0.4,-0.67 0.95,-1.23 1.62,-1.65 0.68,-0.43 1.46,-0.75 2.33,-0.95 0.87,-0.2 1.78,-0.3 2.73,-0.3 0.74,0 1.48,0.06 2.24,0.17 0.76,0.12 1.51,0.28 2.25,0.5l0 3.97c-0.65,-0.38 -1.35,-0.66 -2.09,-0.85 -0.75,-0.19 -1.47,-0.29 -2.19,-0.29 -0.34,0 -0.66,0.03 -0.95,0.09 -0.3,0.06 -0.57,0.15 -0.79,0.26 -0.23,0.11 -0.41,0.26 -0.54,0.44 -0.13,0.18 -0.19,0.38 -0.19,0.61 0,0.3 0.09,0.56 0.29,0.78 0.2,0.22 0.45,0.41 0.76,0.56 0.32,0.16 0.67,0.3 1.05,0.42 0.39,0.13 0.77,0.26 1.15,0.39 0.69,0.24 1.3,0.5 1.86,0.78 0.55,0.28 1.03,0.61 1.42,1 0.4,0.37 0.7,0.82 0.91,1.33 0.21,0.51 0.32,1.11 0.32,1.82 0,0.99 -0.21,1.83 -0.65,2.53 -0.42,0.7 -0.99,1.27 -1.7,1.71 -0.71,0.44 -1.53,0.76 -2.46,0.96 -0.93,0.2 -1.89,0.3 -2.89,0.3 -1.83,0 -3.53,-0.28 -5.1,-0.84zm18.37 -18.87c-0.87,0 -1.58,-0.26 -2.13,-0.77 -0.56,-0.52 -0.83,-1.15 -0.83,-1.9 0,-0.77 0.27,-1.4 0.83,-1.89 0.55,-0.48 1.26,-0.73 2.13,-0.73 0.88,0 1.59,0.25 2.14,0.73 0.54,0.49 0.82,1.12 0.82,1.89 0,0.78 -0.28,1.43 -0.82,1.92 -0.55,0.5 -1.26,0.75 -2.14,0.75zm2.53 19.31l-5.13 0 0 -16.67 5.13 0 0 16.67zm3.24 -0.44l0 -4.17c0.85,0.51 1.7,0.89 2.54,1.14 0.84,0.25 1.63,0.37 2.38,0.37 0.91,0 1.63,-0.12 2.16,-0.37 0.52,-0.25 0.78,-0.63 0.78,-1.14 0,-0.33 -0.11,-0.6 -0.35,-0.82 -0.24,-0.21 -0.54,-0.4 -0.92,-0.56 -0.37,-0.16 -0.79,-0.31 -1.23,-0.44 -0.44,-0.14 -0.87,-0.28 -1.28,-0.44 -0.66,-0.25 -1.25,-0.52 -1.75,-0.81 -0.51,-0.29 -0.93,-0.62 -1.28,-1 -0.33,-0.38 -0.6,-0.82 -0.77,-1.32 -0.18,-0.5 -0.28,-1.09 -0.28,-1.77 0,-0.94 0.21,-1.74 0.61,-2.41 0.41,-0.67 0.96,-1.23 1.63,-1.65 0.68,-0.43 1.46,-0.75 2.33,-0.95 0.87,-0.2 1.78,-0.3 2.73,-0.3 0.74,0 1.48,0.06 2.24,0.17 0.76,0.12 1.51,0.28 2.25,0.5l0 3.97c-0.65,-0.38 -1.35,-0.66 -2.09,-0.85 -0.75,-0.19 -1.47,-0.29 -2.19,-0.29 -0.34,0 -0.66,0.03 -0.95,0.09 -0.3,0.06 -0.57,0.15 -0.79,0.26 -0.23,0.11 -0.41,0.26 -0.54,0.44 -0.13,0.18 -0.19,0.38 -0.19,0.61 0,0.3 0.09,0.56 0.29,0.78 0.2,0.22 0.45,0.41 0.76,0.56 0.32,0.16 0.67,0.3 1.05,0.42 0.39,0.13 0.77,0.26 1.15,0.39 0.69,0.24 1.3,0.5 1.86,0.78 0.55,0.28 1.03,0.61 1.42,1 0.4,0.37 0.7,0.82 0.91,1.33 0.21,0.51 0.32,1.11 0.32,1.82 0,0.99 -0.21,1.83 -0.65,2.53 -0.42,0.7 -0.99,1.27 -1.7,1.71 -0.71,0.44 -1.54,0.76 -2.46,0.96 -0.93,0.2 -1.89,0.3 -2.89,0.3 -1.83,0 -3.53,-0.28 -5.1,-0.84zm25.84 0.24c-0.76,0.4 -1.91,0.6 -3.44,0.6 -3.62,0 -5.44,-1.88 -5.44,-5.64l0 -7.64 -2.7 0 0 -3.79 2.7 0 0 -3.6 5.13 -1.46 0 5.06 3.75 0 0 3.79 -3.75 0 0 6.74c0,1.74 0.69,2.6 2.07,2.6 0.54,0 1.11,-0.15 1.68,-0.47l0 3.81zm17.74 -6.67l-10.87 0c0.17,2.41 1.7,3.63 4.57,3.63 1.84,0 3.45,-0.44 4.84,-1.3l0 3.71c-1.54,0.82 -3.54,1.23 -6.01,1.23 -2.69,0 -4.78,-0.74 -6.27,-2.24 -1.48,-1.49 -2.23,-3.57 -2.23,-6.24 0,-2.76 0.81,-4.96 2.42,-6.58 1.6,-1.61 3.57,-2.42 5.92,-2.42 2.43,0 4.31,0.73 5.64,2.16 1.32,1.45 1.99,3.41 1.99,5.88l0 2.17zm-4.76 -3.16c0,-2.39 -0.97,-3.58 -2.9,-3.58 -0.83,0 -1.54,0.34 -2.14,1.02 -0.61,0.69 -0.97,1.54 -1.1,2.56l6.14 0zm23.92 10.03l-5.13 0 0 -9.27c0,-2.58 -0.92,-3.87 -2.77,-3.87 -0.89,0 -1.62,0.34 -2.19,1.02 -0.58,0.69 -0.87,1.56 -0.87,2.61l0 9.51 -5.14 0 0 -16.67 5.14 0 0 2.64 0.07 0c1.23,-2.04 3.01,-3.05 5.35,-3.05 3.69,0 5.54,2.29 5.54,6.87l0 10.21zm16.7 -0.6c-1.16,0.67 -2.84,1 -5.03,1 -2.56,0 -4.63,-0.77 -6.22,-2.33 -1.58,-1.55 -2.38,-3.55 -2.38,-6 0,-2.84 0.85,-5.06 2.55,-6.7 1.7,-1.63 3.97,-2.45 6.82,-2.45 1.96,0 3.38,0.26 4.26,0.78l0 4.37c-1.08,-0.81 -2.28,-1.21 -3.6,-1.21 -1.48,0 -2.64,0.43 -3.51,1.3 -0.86,0.86 -1.29,2.05 -1.29,3.57 0,1.47 0.41,2.63 1.24,3.47 0.82,0.85 1.96,1.26 3.4,1.26 1.28,0 2.53,-0.4 3.76,-1.2l0 4.14zm5.97 -18.71c-0.87,0 -1.58,-0.26 -2.13,-0.77 -0.55,-0.52 -0.83,-1.15 -0.83,-1.9 0,-0.77 0.28,-1.4 0.83,-1.89 0.55,-0.48 1.26,-0.73 2.13,-0.73 0.88,0 1.59,0.25 2.14,0.73 0.55,0.49 0.83,1.12 0.83,1.89 0,0.78 -0.28,1.43 -0.83,1.92 -0.55,0.5 -1.26,0.75 -2.14,0.75zm2.54 19.31l-5.14 0 0 -16.67 5.14 0 0 16.67zm18.2 0l-4.87 0 0 -2.4 -0.06 0c-1.12,1.87 -2.78,2.8 -4.97,2.8 -1.62,0 -2.89,-0.45 -3.82,-1.37 -0.93,-0.92 -1.39,-2.15 -1.39,-3.67 0,-3.24 1.92,-5.1 5.75,-5.6l4.53 -0.6c0,-1.83 -0.99,-2.74 -2.97,-2.74 -1.98,0 -3.87,0.59 -5.66,1.77l0 -3.87c0.71,-0.37 1.69,-0.69 2.94,-0.97 1.24,-0.29 2.37,-0.43 3.39,-0.43 4.75,0 7.13,2.38 7.13,7.11l0 9.97zm-4.83 -6.78l0 -1.12 -3.03 0.39c-1.67,0.22 -2.51,0.97 -2.51,2.27 0,0.58 0.2,1.06 0.61,1.44 0.41,0.37 0.96,0.56 1.65,0.56 0.97,0 1.75,-0.34 2.36,-1 0.61,-0.67 0.92,-1.51 0.92,-2.54z"/>
   <path class="fil9" d="M1960.04 577.96l0 -23.34 8.28 0c8.28,0 12.43,3.79 12.43,11.37 0,3.64 -1.13,6.54 -3.4,8.71 -2.26,2.17 -5.27,3.26 -9.03,3.26l-8.28 0zm5.26 -19.07l0 14.8 2.61 0c2.28,0 4.06,-0.68 5.36,-2.05 1.29,-1.37 1.94,-3.23 1.94,-5.58 0,-2.23 -0.64,-3.98 -1.92,-5.25 -1.29,-1.28 -3.09,-1.92 -5.41,-1.92l-2.58 0zm26.76 19.47c-2.78,0 -4.96,-0.78 -6.55,-2.33 -1.59,-1.56 -2.38,-3.67 -2.38,-6.34 0,-2.76 0.82,-4.92 2.47,-6.47 1.65,-1.56 3.88,-2.34 6.69,-2.34 2.76,0 4.94,0.78 6.51,2.34 1.57,1.55 2.36,3.61 2.36,6.17 0,2.77 -0.81,4.96 -2.43,6.57 -1.63,1.6 -3.85,2.4 -6.67,2.4zm0.13 -13.54c-1.21,0 -2.16,0.42 -2.83,1.25 -0.67,0.84 -1.01,2.02 -1.01,3.55 0,3.2 1.29,4.8 3.88,4.8 2.46,0 3.69,-1.64 3.69,-4.93 0,-3.11 -1.24,-4.67 -3.73,-4.67zm38.77 13.14l-5.13 0 0 -9.51c0,-2.42 -0.89,-3.63 -2.67,-3.63 -0.84,0 -1.53,0.36 -2.06,1.09 -0.54,0.73 -0.8,1.63 -0.8,2.72l0 9.33 -5.14 0 0 -9.61c0,-2.35 -0.88,-3.53 -2.62,-3.53 -0.88,0 -1.59,0.35 -2.11,1.04 -0.53,0.7 -0.79,1.64 -0.79,2.83l0 9.27 -5.14 0 0 -16.67 5.14 0 0 2.6 0.06 0c0.54,-0.89 1.28,-1.61 2.24,-2.17 0.96,-0.56 2.01,-0.84 3.15,-0.84 2.36,0 3.97,1.04 4.84,3.11 1.27,-2.07 3.13,-3.11 5.6,-3.11 3.62,0 5.43,2.24 5.43,6.71l0 10.37zm6.67 -19.31c-0.87,0 -1.58,-0.26 -2.13,-0.77 -0.55,-0.52 -0.83,-1.15 -0.83,-1.9 0,-0.77 0.28,-1.4 0.83,-1.89 0.55,-0.48 1.26,-0.73 2.13,-0.73 0.88,0 1.6,0.25 2.14,0.73 0.55,0.49 0.83,1.12 0.83,1.89 0,0.78 -0.28,1.43 -0.83,1.92 -0.54,0.5 -1.26,0.75 -2.14,0.75zm2.54 19.31l-5.14 0 0 -16.67 5.14 0 0 16.67zm20.43 0l-5.13 0 0 -9.27c0,-2.58 -0.92,-3.87 -2.77,-3.87 -0.89,0 -1.62,0.34 -2.19,1.02 -0.58,0.69 -0.87,1.56 -0.87,2.61l0 9.51 -5.14 0 0 -16.67 5.14 0 0 2.64 0.07 0c1.23,-2.04 3.01,-3.05 5.35,-3.05 3.69,0 5.54,2.29 5.54,6.87l0 10.21zm6.67 -19.31c-0.87,0 -1.58,-0.26 -2.13,-0.77 -0.55,-0.52 -0.83,-1.15 -0.83,-1.9 0,-0.77 0.28,-1.4 0.83,-1.89 0.55,-0.48 1.26,-0.73 2.13,-0.73 0.88,0 1.59,0.25 2.14,0.73 0.55,0.49 0.83,1.12 0.83,1.89 0,0.78 -0.28,1.43 -0.83,1.92 -0.55,0.5 -1.26,0.75 -2.14,0.75zm2.54 19.31l-5.14 0 0 -16.67 5.14 0 0 16.67zm12.27 0.4c-2.78,0 -4.96,-0.78 -6.55,-2.33 -1.59,-1.56 -2.38,-3.67 -2.38,-6.34 0,-2.76 0.82,-4.92 2.47,-6.47 1.65,-1.56 3.88,-2.34 6.69,-2.34 2.76,0 4.94,0.78 6.51,2.34 1.57,1.55 2.36,3.61 2.36,6.17 0,2.77 -0.81,4.96 -2.43,6.57 -1.62,1.6 -3.85,2.4 -6.67,2.4zm0.13 -13.54c-1.21,0 -2.16,0.42 -2.83,1.25 -0.67,0.84 -1.01,2.02 -1.01,3.55 0,3.2 1.29,4.8 3.88,4.8 2.46,0 3.69,-1.64 3.69,-4.93 0,-3.11 -1.24,-4.67 -3.73,-4.67z"/>
   <path class="fil9" d="M1592.57 574.36l-5.73 0 -1.66 -5.19 -8.3 0 -1.65 5.19 -5.7 0 8.51 -23.34 6.23 0 8.3 23.34zm-8.6 -9.22l-2.5 -7.85c-0.18,-0.59 -0.32,-1.29 -0.4,-2.1l-0.12 0c-0.06,0.68 -0.19,1.36 -0.41,2.03l-2.54 7.92 5.97 0zm16.22 7.28l-0.07 0 0 9.61 -5.14 0 0 -24.33 5.14 0 0 2.5 0.07 0c1.27,-1.94 3.05,-2.91 5.35,-2.91 2.16,0 3.83,0.74 5.01,2.22 1.17,1.48 1.76,3.5 1.76,6.05 0,2.78 -0.69,5 -2.06,6.69 -1.37,1.68 -3.2,2.52 -5.48,2.52 -2,0 -3.53,-0.78 -4.58,-2.35zm-0.15 -6.83l0 1.33c0,1.15 0.3,2.09 0.91,2.82 0.61,0.73 1.41,1.09 2.4,1.09 1.16,0 2.07,-0.45 2.72,-1.36 0.64,-0.9 0.97,-2.18 0.97,-3.85 0,-2.93 -1.14,-4.39 -3.42,-4.39 -1.05,0 -1.91,0.39 -2.58,1.19 -0.67,0.8 -1,1.86 -1,3.17zm20.75 8.77l-5.14 0 0 -24.67 5.14 0 0 24.67zm6.93 -19.3c-0.86,0 -1.57,-0.26 -2.12,-0.77 -0.56,-0.52 -0.84,-1.15 -0.84,-1.9 0,-0.77 0.28,-1.4 0.84,-1.89 0.55,-0.49 1.26,-0.73 2.12,-0.73 0.89,0 1.6,0.24 2.15,0.73 0.54,0.49 0.82,1.12 0.82,1.89 0,0.78 -0.28,1.42 -0.82,1.92 -0.55,0.5 -1.26,0.75 -2.15,0.75zm2.54 19.3l-5.14 0 0 -16.66 5.14 0 0 16.66zm16.96 -0.6c-1.16,0.68 -2.83,1.01 -5.02,1.01 -2.56,0 -4.64,-0.77 -6.22,-2.33 -1.58,-1.55 -2.38,-3.55 -2.38,-6 0,-2.84 0.85,-5.07 2.55,-6.7 1.7,-1.63 3.97,-2.45 6.81,-2.45 1.96,0 3.39,0.26 4.26,0.78l0 4.37c-1.07,-0.81 -2.27,-1.21 -3.59,-1.21 -1.48,0 -2.64,0.43 -3.51,1.29 -0.86,0.87 -1.3,2.05 -1.3,3.58 0,1.47 0.42,2.63 1.24,3.47 0.83,0.84 1.96,1.26 3.4,1.26 1.29,0 2.54,-0.4 3.76,-1.21l0 4.14zm17.24 0.6l-4.86 0 0 -2.39 -0.07 0c-1.12,1.87 -2.77,2.8 -4.97,2.8 -1.61,0 -2.89,-0.46 -3.81,-1.37 -0.93,-0.92 -1.39,-2.15 -1.39,-3.68 0,-3.23 1.91,-5.1 5.74,-5.6l4.53 -0.6c0,-1.82 -0.99,-2.73 -2.97,-2.73 -1.98,0 -3.87,0.59 -5.66,1.77l0 -3.87c0.72,-0.37 1.7,-0.69 2.94,-0.98 1.24,-0.28 2.37,-0.42 3.4,-0.42 4.75,0 7.12,2.37 7.12,7.11l0 9.96zm-4.83 -6.77l0 -1.12 -3.03 0.39c-1.67,0.21 -2.5,0.97 -2.5,2.26 0,0.59 0.2,1.07 0.6,1.44 0.41,0.38 0.96,0.56 1.66,0.56 0.97,0 1.75,-0.33 2.36,-1 0.6,-0.66 0.91,-1.51 0.91,-2.53zm21.53 6.17c-1.16,0.68 -2.84,1.01 -5.02,1.01 -2.57,0 -4.64,-0.77 -6.22,-2.33 -1.58,-1.55 -2.38,-3.55 -2.38,-6 0,-2.84 0.85,-5.07 2.55,-6.7 1.7,-1.63 3.97,-2.45 6.81,-2.45 1.96,0 3.39,0.26 4.26,0.78l0 4.37c-1.07,-0.81 -2.27,-1.21 -3.59,-1.21 -1.48,0 -2.65,0.43 -3.51,1.29 -0.86,0.87 -1.3,2.05 -1.3,3.58 0,1.47 0.42,2.63 1.24,3.47 0.82,0.84 1.96,1.26 3.4,1.26 1.29,0 2.54,-0.4 3.76,-1.21l0 4.14zm5.98 -18.7c-0.87,0 -1.58,-0.26 -2.13,-0.77 -0.56,-0.52 -0.83,-1.15 -0.83,-1.9 0,-0.77 0.27,-1.4 0.83,-1.89 0.55,-0.49 1.26,-0.73 2.13,-0.73 0.88,0 1.59,0.24 2.14,0.73 0.54,0.49 0.82,1.12 0.82,1.89 0,0.78 -0.28,1.42 -0.82,1.92 -0.55,0.5 -1.26,0.75 -2.14,0.75zm2.53 19.3l-5.13 0 0 -16.66 5.13 0 0 16.66zm12.28 0.41c-2.78,0 -4.96,-0.78 -6.55,-2.33 -1.59,-1.56 -2.39,-3.68 -2.39,-6.34 0,-2.76 0.83,-4.92 2.48,-6.48 1.65,-1.55 3.88,-2.33 6.69,-2.33 2.76,0 4.93,0.78 6.51,2.33 1.57,1.56 2.36,3.62 2.36,6.18 0,2.77 -0.81,4.96 -2.44,6.56 -1.62,1.61 -3.84,2.41 -6.66,2.41zm0.13 -13.54c-1.22,0 -2.16,0.42 -2.83,1.25 -0.67,0.84 -1.01,2.02 -1.01,3.55 0,3.2 1.29,4.8 3.87,4.8 2.47,0 3.7,-1.64 3.7,-4.93 0,-3.11 -1.25,-4.67 -3.73,-4.67zm5.53 -11.43l-5.1 5.26 -3.71 0 4.24 -5.26 4.57 0zm22.85 24.56l-5.12 0 0 -9.26c0,-2.58 -0.93,-3.87 -2.77,-3.87 -0.89,0 -1.62,0.34 -2.2,1.02 -0.57,0.69 -0.86,1.56 -0.86,2.61l0 9.5 -5.14 0 0 -16.66 5.14 0 0 2.64 0.07 0c1.22,-2.04 3.01,-3.05 5.35,-3.05 3.69,0 5.53,2.29 5.53,6.87l0 10.2z"/>
   <path class="fil9" d="M1181.22 569.92l0 8.04 -5.26 0 0 -23.34 8.24 0c5.88,0 8.82,2.47 8.82,7.44 0,2.34 -0.84,4.23 -2.53,5.68 -1.69,1.45 -3.94,2.18 -6.76,2.18l-2.51 0zm0 -11.27l0 7.28 2.07 0c2.8,0 4.2,-1.23 4.2,-3.68 0,-2.4 -1.4,-3.6 -4.2,-3.6l-2.07 0zm25.59 7.28c-0.62,-0.34 -1.34,-0.51 -2.17,-0.51 -1.11,0 -1.98,0.41 -2.62,1.23 -0.63,0.82 -0.94,1.93 -0.94,3.34l0 7.97 -5.14 0 0 -16.67 5.14 0 0 3.09 0.07 0c0.81,-2.26 2.27,-3.39 4.39,-3.39 0.54,0 0.97,0.07 1.27,0.2l0 4.74zm17.23 5.16l-10.87 0c0.17,2.41 1.7,3.63 4.57,3.63 1.84,0 3.45,-0.44 4.84,-1.3l0 3.71c-1.54,0.82 -3.54,1.23 -6.01,1.23 -2.69,0 -4.78,-0.74 -6.26,-2.24 -1.49,-1.49 -2.23,-3.57 -2.23,-6.24 0,-2.76 0.8,-4.96 2.41,-6.58 1.6,-1.61 3.58,-2.42 5.92,-2.42 2.43,0 4.31,0.73 5.64,2.16 1.33,1.45 1.99,3.41 1.99,5.88l0 2.17zm-4.76 -3.16c0,-2.39 -0.97,-3.58 -2.9,-3.58 -0.82,0 -1.54,0.34 -2.14,1.02 -0.61,0.69 -0.97,1.54 -1.1,2.56l6.14 0zm6.73 9.59l0 -4.17c0.85,0.51 1.69,0.89 2.53,1.14 0.84,0.25 1.64,0.37 2.39,0.37 0.91,0 1.63,-0.12 2.15,-0.37 0.53,-0.25 0.79,-0.63 0.79,-1.14 0,-0.33 -0.11,-0.6 -0.35,-0.82 -0.24,-0.21 -0.55,-0.4 -0.93,-0.56 -0.37,-0.16 -0.78,-0.31 -1.22,-0.44 -0.45,-0.14 -0.88,-0.28 -1.29,-0.44 -0.66,-0.25 -1.24,-0.52 -1.75,-0.81 -0.5,-0.29 -0.93,-0.62 -1.27,-1 -0.34,-0.38 -0.6,-0.82 -0.78,-1.32 -0.17,-0.5 -0.27,-1.09 -0.27,-1.77 0,-0.94 0.21,-1.74 0.61,-2.41 0.41,-0.67 0.95,-1.23 1.63,-1.65 0.68,-0.43 1.46,-0.75 2.33,-0.95 0.87,-0.2 1.78,-0.3 2.73,-0.3 0.73,0 1.48,0.06 2.24,0.17 0.76,0.12 1.51,0.28 2.25,0.5l0 3.97c-0.66,-0.38 -1.35,-0.66 -2.09,-0.85 -0.75,-0.19 -1.48,-0.29 -2.19,-0.29 -0.34,0 -0.66,0.03 -0.95,0.09 -0.3,0.06 -0.57,0.15 -0.8,0.26 -0.23,0.11 -0.4,0.26 -0.53,0.44 -0.13,0.18 -0.2,0.38 -0.2,0.61 0,0.3 0.1,0.56 0.29,0.78 0.2,0.22 0.45,0.41 0.77,0.56 0.32,0.16 0.67,0.3 1.05,0.42 0.38,0.13 0.77,0.26 1.15,0.39 0.68,0.24 1.3,0.5 1.86,0.78 0.54,0.28 1.02,0.61 1.42,1 0.39,0.37 0.7,0.82 0.91,1.33 0.21,0.51 0.31,1.11 0.31,1.82 0,0.99 -0.21,1.83 -0.64,2.53 -0.43,0.7 -0.99,1.27 -1.7,1.71 -0.72,0.44 -1.54,0.76 -2.47,0.96 -0.92,0.2 -1.88,0.3 -2.88,0.3 -1.84,0 -3.53,-0.28 -5.1,-0.84zm30.73 -6.43l-10.87 0c0.17,2.41 1.7,3.63 4.57,3.63 1.84,0 3.45,-0.44 4.84,-1.3l0 3.71c-1.54,0.82 -3.54,1.23 -6.01,1.23 -2.69,0 -4.78,-0.74 -6.26,-2.24 -1.49,-1.49 -2.23,-3.57 -2.23,-6.24 0,-2.76 0.8,-4.96 2.41,-6.58 1.6,-1.61 3.58,-2.42 5.92,-2.42 2.43,0 4.31,0.73 5.64,2.16 1.33,1.45 1.99,3.41 1.99,5.88l0 2.17zm-4.76 -3.16c0,-2.39 -0.97,-3.58 -2.9,-3.58 -0.82,0 -1.54,0.34 -2.14,1.02 -0.61,0.69 -0.97,1.54 -1.1,2.56l6.14 0zm23.92 10.03l-5.13 0 0 -9.27c0,-2.58 -0.92,-3.87 -2.76,-3.87 -0.89,0 -1.63,0.34 -2.2,1.02 -0.58,0.69 -0.87,1.56 -0.87,2.61l0 9.51 -5.14 0 0 -16.67 5.14 0 0 2.64 0.07 0c1.23,-2.04 3.01,-3.05 5.36,-3.05 3.68,0 5.53,2.29 5.53,6.87l0 10.21zm14.14 -0.2c-0.76,0.4 -1.9,0.6 -3.43,0.6 -3.62,0 -5.44,-1.88 -5.44,-5.64l0 -7.64 -2.7 0 0 -3.79 2.7 0 0 -3.6 5.13 -1.46 0 5.06 3.74 0 0 3.79 -3.74 0 0 6.74c0,1.74 0.69,2.6 2.07,2.6 0.54,0 1.1,-0.15 1.67,-0.47l0 3.81zm16.77 0.2l-4.87 0 0 -2.4 -0.06 0c-1.12,1.87 -2.78,2.8 -4.97,2.8 -1.62,0 -2.89,-0.45 -3.82,-1.37 -0.92,-0.92 -1.38,-2.15 -1.38,-3.67 0,-3.24 1.91,-5.1 5.74,-5.6l4.53 -0.6c0,-1.83 -0.99,-2.74 -2.97,-2.74 -1.98,0 -3.87,0.59 -5.66,1.77l0 -3.87c0.72,-0.37 1.69,-0.69 2.94,-0.97 1.24,-0.29 2.37,-0.43 3.39,-0.43 4.75,0 7.13,2.38 7.13,7.11l0 9.97zm-4.83 -6.78l0 -1.12 -3.03 0.39c-1.67,0.22 -2.51,0.97 -2.51,2.27 0,0.58 0.2,1.06 0.61,1.44 0.41,0.37 0.96,0.56 1.65,0.56 0.97,0 1.75,-0.34 2.37,-1 0.6,-0.67 0.91,-1.51 0.91,-2.54zm21.53 6.18c-1.16,0.67 -2.84,1 -5.03,1 -2.56,0 -4.63,-0.77 -6.21,-2.33 -1.59,-1.55 -2.38,-3.55 -2.38,-6 0,-2.84 0.85,-5.06 2.54,-6.7 1.7,-1.63 3.97,-2.45 6.82,-2.45 1.96,0 3.38,0.26 4.26,0.78l0 4.37c-1.07,-0.81 -2.27,-1.21 -3.59,-1.21 -1.48,0 -2.65,0.43 -3.52,1.3 -0.86,0.86 -1.29,2.05 -1.29,3.57 0,1.47 0.42,2.63 1.24,3.47 0.82,0.85 1.96,1.26 3.4,1.26 1.28,0 2.53,-0.4 3.76,-1.2l0 4.14zm5.97 -18.71c-0.86,0 -1.58,-0.26 -2.13,-0.77 -0.55,-0.52 -0.83,-1.15 -0.83,-1.9 0,-0.77 0.28,-1.4 0.83,-1.89 0.55,-0.48 1.27,-0.73 2.13,-0.73 0.89,0 1.6,0.25 2.15,0.73 0.54,0.49 0.82,1.12 0.82,1.89 0,0.78 -0.28,1.43 -0.82,1.92 -0.55,0.5 -1.26,0.75 -2.15,0.75zm2.54 19.31l-5.14 0 0 -16.67 5.14 0 0 16.67zm12.27 0.4c-2.77,0 -4.96,-0.78 -6.55,-2.33 -1.59,-1.56 -2.38,-3.67 -2.38,-6.34 0,-2.76 0.82,-4.92 2.47,-6.47 1.65,-1.56 3.89,-2.34 6.69,-2.34 2.77,0 4.94,0.78 6.51,2.34 1.58,1.55 2.36,3.61 2.36,6.17 0,2.77 -0.81,4.96 -2.43,6.57 -1.62,1.6 -3.84,2.4 -6.67,2.4zm0.14 -13.54c-1.22,0 -2.16,0.42 -2.84,1.25 -0.67,0.84 -1.01,2.02 -1.01,3.55 0,3.2 1.3,4.8 3.88,4.8 2.46,0 3.69,-1.64 3.69,-4.93 0,-3.11 -1.24,-4.67 -3.72,-4.67zm5.52 -11.43l-5.09 5.26 -3.71 0 4.23 -5.26 4.57 0zm22.86 24.57l-5.13 0 0 -9.27c0,-2.58 -0.92,-3.87 -2.76,-3.87 -0.89,0 -1.63,0.34 -2.2,1.02 -0.58,0.69 -0.87,1.56 -0.87,2.61l0 9.51 -5.13 0 0 -16.67 5.13 0 0 2.64 0.07 0c1.23,-2.04 3.01,-3.05 5.36,-3.05 3.69,0 5.53,2.29 5.53,6.87l0 10.21z"/>
  </g>
 </g>
</svg>
