<?xml version="1.0" encoding="UTF-8"?>
<!DOCTYPE svg PUBLIC "-//W3C//DTD SVG 1.1//EN" "http://www.w3.org/Graphics/SVG/1.1/DTD/svg11.dtd">
<!-- Creator: CorelDRAW -->
<svg xmlns="http://www.w3.org/2000/svg" xml:space="preserve" width="100px" height="100px" version="1.1" style="shape-rendering:geometricPrecision; text-rendering:geometricPrecision; image-rendering:optimizeQuality; fill-rule:evenodd; clip-rule:evenodd"
viewBox="0 0 100 100"
 xmlns:xlink="http://www.w3.org/1999/xlink"
 xmlns:xodm="http://www.corel.com/coreldraw/odm/2003">
 <defs>
  <style type="text/css">
   <![CDATA[
    .fil0 {fill:gray}
    .fil2 {fill:#B3B3B3}
    .fil1 {fill:white}
   ]]>
  </style>
 </defs>
 <g id="Capa_x0020_1">
  <metadata id="CorelCorpID_0Corel-Layer"/>
  <path class="fil0" d="M50 16.67c18.41,0 33.33,14.92 33.33,33.33 0,18.41 -14.92,33.33 -33.33,33.33 -18.41,0 -33.33,-14.92 -33.33,-33.33 0,-18.41 14.92,-33.33 33.33,-33.33zm0 2.66c16.94,0 30.67,13.73 30.67,30.67 0,16.94 -13.73,30.67 -30.67,30.67 -16.94,0 -30.67,-13.73 -30.67,-30.67 0,-16.94 13.73,-30.67 30.67,-30.67z"/>
  <path class="fil0" d="M37.07 33.74c1.84,0.02 3.32,1.53 3.31,3.37 -0.01,0.48 -0.11,0.93 -0.3,1.34l5.74 6.02c1.12,-0.82 2.5,-1.29 3.99,-1.28 1.41,0.01 2.7,0.46 3.77,1.21l9.02 -9.1 1.42 1.4 -8.99 9.08c0.69,0.89 1.16,1.97 1.32,3.13l4.41 0.04c0.43,-1.35 1.7,-2.32 3.2,-2.3 1.84,0.01 3.32,1.52 3.3,3.36 -0.02,1.84 -1.52,3.32 -3.36,3.3 -1.49,-0.01 -2.75,-1 -3.16,-2.36l-4.4 -0.04c-0.19,1.17 -0.68,2.24 -1.39,3.12l8.74 9.17 -1.5 1.33 -8.71 -9.14c-1.08,0.72 -2.39,1.14 -3.79,1.13 -1.67,-0.01 -3.19,-0.64 -4.35,-1.67l-7.78 6.39c0.38,0.72 0.6,1.53 0.59,2.4 -0.02,2.76 -2.28,4.98 -5.04,4.96 -2.77,-0.03 -4.98,-2.28 -4.96,-5.05 0.02,-2.76 2.28,-4.98 5.04,-4.95 1.18,0.01 2.25,0.42 3.1,1.1l7.76 -6.38c-0.62,-1.03 -0.98,-2.23 -0.96,-3.52 0.01,-1.47 0.5,-2.83 1.31,-3.92l-5.65 -5.93c-0.51,0.3 -1.1,0.47 -1.73,0.46 -1.85,-0.01 -3.32,-1.52 -3.31,-3.36 0.02,-1.84 1.52,-3.32 3.36,-3.31z"/>
  <ellipse class="fil1" transform="matrix(0.744675 0.00651455 -0.00502553 0.574466 49.752 49.8558)" rx="6.27" ry="8.12"/>
  <ellipse class="fil0" transform="matrix(0.872334 0.00763134 -0.00588706 0.672946 66.0817 67.2435)" rx="6.27" ry="8.12"/>
  <ellipse class="fil1" transform="matrix(0.553187 0.00483938 -0.00373325 0.426746 66.0817 67.2435)" rx="6.27" ry="8.12"/>
  <ellipse class="fil0" transform="matrix(0.872334 0.00763134 -0.00588706 0.672946 66.3834 32.7564)" rx="6.27" ry="8.12"/>
  <ellipse class="fil1" transform="matrix(0.553187 0.00483938 -0.00373325 0.426746 66.3834 32.7564)" rx="6.27" ry="8.12"/>
  <ellipse class="fil2" transform="matrix(0.478722 0.00418795 -0.00323072 0.369301 33.1499 63.598)" rx="6.27" ry="8.12"/>
 </g>
</svg>
