<?xml version="1.0" encoding="UTF-8"?>
<!DOCTYPE svg PUBLIC "-//W3C//DTD SVG 1.1//EN" "http://www.w3.org/Graphics/SVG/1.1/DTD/svg11.dtd">
<!-- Creator: CorelDRAW -->
<svg xmlns="http://www.w3.org/2000/svg" xml:space="preserve" width="12250px" height="6618px" version="1.1" style="shape-rendering:geometricPrecision; text-rendering:geometricPrecision; image-rendering:optimizeQuality; fill-rule:evenodd; clip-rule:evenodd"
viewBox="0 0 12250 6617.62"
 xmlns:xlink="http://www.w3.org/1999/xlink"
 xmlns:xodm="http://www.corel.com/coreldraw/odm/2003">
 <defs>
  <style type="text/css">
   <![CDATA[
    .str3 {stroke:maroon;stroke-width:9.38;stroke-miterlimit:22.9256}
    .str2 {stroke:#333333;stroke-width:9.38;stroke-linecap:round;stroke-miterlimit:22.9256}
    .str0 {stroke:#373435;stroke-width:16.67;stroke-miterlimit:22.9256;stroke-dasharray:83.330000 50.000000}
    .str1 {stroke:#999999;stroke-width:9.38;stroke-linecap:round;stroke-miterlimit:22.9256;stroke-dasharray:46.870000 46.870000}
    .fil0 {fill:none}
    .fil13 {fill:black}
    .fil9 {fill:#333333}
    .fil5 {fill:#4D4D4D}
    .fil6 {fill:#D90011}
    .fil11 {fill:#F5643D}
    .fil14 {fill:#FF6600}
    .fil7 {fill:black;fill-rule:nonzero}
    .fil15 {fill:#008B3B;fill-rule:nonzero}
    .fil8 {fill:#333333;fill-rule:nonzero}
    .fil4 {fill:#666666;fill-rule:nonzero}
    .fil2 {fill:#B3B3B3;fill-rule:nonzero}
    .fil12 {fill:#FF6600;fill-rule:nonzero}
    .fil10 {fill:white;fill-rule:nonzero}
    .fil1 {fill:#FFF212;fill-opacity:0.101961}
    .fil3 {fill:navy;fill-opacity:0.501961}
   ]]>
  </style>
 </defs>
 <g id="Capa_x0020_1">
  <metadata id="CorelCorpID_0Corel-Layer"/>
  <rect class="fil0" width="12250" height="6617.62"/>
  <g>
   <polygon class="fil1" points="5681.92,2302.76 5681.92,384.28 10480.51,384.28 10480.51,6301.6 1695.45,6301.6 1695.45,2302.76 "/>
   <polygon id="_1" class="fil0 str0" points="5681.92,2302.76 5681.92,384.28 10480.51,384.28 10480.51,6301.6 1695.45,6301.6 1695.45,2302.76 "/>
  </g>
  <g id="_2937732817280">
   <path class="fil2" d="M4337.34 2998.06l0 -81.72 74.25 40.88 -74.25 40.84zm-1515.22 -48.65l1521.66 0 0 15.62 -1521.66 0 -7.81 -7.72 7.81 -7.9zm-7.81 7.9l-0.09 -7.9 7.9 0 -7.81 7.9zm6.06 476.78l-6.06 -476.78 15.63 -0.22 6.06 476.82 -15.63 0.18zm48.57 -7.06l-39.91 74.75 -41.75 -73.72 81.66 -1.03 0 0z"/>
  </g>
  <g id="_2937732818000">
   <path class="fil2" d="M7912.63 2916.37l0 81.66 -74.25 -40.81 74.25 -40.85zm1508.34 48.66l-1514.78 -0.03 0 -15.59 1514.78 0 7.81 7.81 -7.81 7.81 0 0zm0 -15.62l7.81 0 0 7.81 -7.81 -7.81zm-7.81 1250.28l0 -1242.47 15.62 0 0 1242.47 -15.62 0zm48.65 -6.44l-40.84 74.28 -40.84 -74.28 81.68 0z"/>
  </g>
  <g id="_2937732817472">
   <path class="fil2" d="M8244.03 1012.72l0 -81.69 74.25 40.84 -74.25 40.85zm-2119.03 -48.63l2125.47 -0.03 0 15.63 -2125.47 0.03 -7.81 -7.81 7.81 -7.82 0 0zm-7.81 7.82l0 -7.82 7.81 0 -7.81 7.82zm0 1602.53l0 -1602.53 15.62 0 0 1602.53 -15.62 0zm48.65 -6.44l-40.84 74.28 -40.84 -74.28 81.68 0z"/>
  </g>
  <g id="_2937732819008">
   <g>
    <polygon id="rect7201" class="fil3" points="8542.28,6131.19 10299.63,6131.19 10299.63,4267.53 8542.28,4267.53 "/>
    <polygon id="_1_0" class="fil0 str1" points="8542.28,6131.19 10299.63,6131.19 10299.63,4267.53 8542.28,4267.53 "/>
   </g>
   <g>
    <path class="fil4" d="M9454.97 5480.09l-68.63 0.75 33.63 -62.71 35 61.96 0 0zm-38.34 60.5l-0.72 -65.46 9.37 -0.1 0.72 65.47 -9.37 0.09zm38.93 -5.81l-33.62 62.72 -35 -61.97 68.62 -0.75 0 0z"/>
   </g>
   <rect id="rect7187" class="fil5 str2" x="8630.16" y="4980.59" width="790.78" height="437.5"/>
   <rect class="fil6 str3" x="8630.16" y="5597.5" width="1581.59" height="437.5"/>
   <path id="text7195" class="fil7" d="M9137.13 5870.22l-35.38 0 0 -98.97c0,-5.19 0.09,-10.72 0.34,-16.56 0.22,-5.82 0.6,-11.97 1,-18.38l-0.87 0c-1,4.97 -1.88,9.22 -2.72,12.78 -0.78,3.56 -1.56,6.38 -2.34,8.53l-39.69 112.6 -28.75 0 -40.25 -111.47c-0.56,-1.53 -1.25,-4.16 -2.13,-7.91 -0.9,-3.69 -1.9,-8.53 -3.03,-14.53l-1.03 0c0.5,7.75 0.91,15.09 1.13,22.13 0.25,7 0.37,13.59 0.37,19.81l0 91.97 -32.4 0 0 -164.1 52.31 0 34.66 98.41c1.37,3.66 2.53,7.25 3.43,10.81 0.94,3.56 1.72,7.13 2.41,10.72l0.69 0c1.15,-4.12 2.25,-8.03 3.31,-11.69 1.09,-3.62 2.19,-7 3.31,-10.09l34.82 -98.16 50.81 0 0 164.1 0 0z"/>
   <path id="_1_1" class="fil7" d="M9280.38 5820l-79.07 0c0.6,9.28 3.63,16.25 9.03,20.81 5.41,4.57 12.91,6.88 22.53,6.88 3.44,0 8.16,-1 14.22,-3.03 6,-2.03 11.91,-5.16 17.72,-9.44l15.32 20.25c-8.07,6.09 -16.35,10.59 -24.88,13.41 -8.5,2.81 -17.81,4.22 -27.97,4.22 -19.22,0 -34.12,-5.38 -44.75,-16.16 -10.59,-10.72 -15.94,-25.72 -16.03,-44.94 0,-19.22 5.63,-34.84 16.88,-46.81 11.25,-12 25.5,-17.97 42.78,-17.97 16.53,0 29.72,5.03 39.53,15.16 9.81,10.12 14.69,24.62 14.69,43.56l0 14.06zm-32.63 -21.87c0,-9.54 -1.84,-16.41 -5.53,-20.66 -3.72,-4.22 -9.16,-6.34 -16.31,-6.34 -6.32,0 -11.78,2.43 -16.35,7.28 -4.59,4.84 -7.4,11.4 -8.37,19.72l46.56 0z"/>
   <path id="_2" class="fil7" d="M9493 5870.22l-34.91 0 0 -68.53c0,-9.32 -1.65,-16.22 -5,-20.72 -3.31,-4.5 -8.34,-6.75 -15.15,-6.75 -6.31,0 -11.5,2.72 -15.56,8.25 -4.04,5.5 -6.07,12.28 -6.07,20.47l0 67.28 -35 0 0 -69.44c0,-8.94 -1.68,-15.59 -5,-20 -3.31,-4.37 -8.25,-6.56 -14.81,-6.56 -6.62,0 -11.94,2.63 -15.9,7.84 -3.97,5.19 -5.97,12.32 -5.97,21.22l0 66.94 -35 0 0 -120.03 35 0 0 18.75 0.47 0c3.9,-6.56 9.25,-11.85 16.09,-15.78 6.81,-3.97 14.34,-5.94 22.59,-5.94 8.47,0 15.63,1.88 21.41,5.72 5.81,3.81 10.22,9.44 13.28,16.94 4.56,-7.57 10.22,-13.25 16.94,-17 6.68,-3.78 14.5,-5.66 23.34,-5.66 13.13,0 22.97,4.03 29.47,12.13 6.53,8.06 9.78,20.18 9.78,36.28l0 74.59 0 0z"/>
   <path id="_3" class="fil7" d="M9581 5873.09c-19.78,0 -35.31,-5.59 -46.69,-16.81 -11.37,-11.25 -17.06,-26.4 -17.06,-45.53 0.06,-19.94 5.97,-35.53 17.72,-46.72 11.78,-11.22 27.66,-16.81 47.75,-16.81 19.75,0 35.22,5.59 46.41,16.75 11.15,11.19 16.75,26.06 16.75,44.69 0,19.84 -5.79,35.53 -17.38,47.09 -11.59,11.56 -27.44,17.34 -47.5,17.34l0 0zm1.25 -26.87c9.34,0 16.31,-3.09 21,-9.31 4.69,-6.16 7.03,-15.35 7.03,-27.57 0,-11.56 -2.37,-20.37 -7.09,-26.25 -4.72,-5.9 -11.75,-8.87 -21.19,-8.87 -9.22,0 -16.41,3.15 -21.47,9.5 -5.12,6.31 -7.69,15.19 -7.69,26.56 0,11.91 2.5,20.85 7.44,26.88 4.97,6.03 12.28,9.06 21.97,9.06l0 0z"/>
   <path id="_4" class="fil7" d="M9745.88 5779.38c-1.54,-0.41 -3.04,-0.66 -4.6,-0.88 -1.56,-0.19 -3.37,-0.25 -5.31,-0.25 -9.59,0 -16.78,3 -21.63,9.06 -4.84,6.1 -7.25,14.47 -7.25,25.22l0 57.69 -34.99 0 0 -120.03 34.99 0 0 22.44 0.47 0c2.88,-8.19 7,-14.32 12.32,-18.44 5.31,-4.13 11.75,-6.19 19.4,-6.19 1.78,0 3.57,0.16 5.22,0.41 1.69,0.25 3.5,0.56 5.41,0.97l-4.03 30 0 0z"/>
   <path id="_5" class="fil7" d="M9890.53 5750.19l-53.87 142.03c-4.13,10.91 -10.28,19.34 -18.41,25.28 -8.12,5.94 -17.84,8.91 -29.22,8.91 -3.59,0 -7.09,-0.19 -10.56,-0.63 -3.5,-0.4 -6.81,-1.03 -10,-1.87l6.03 -25.97c1.84,0.69 3.66,1.15 5.44,1.47 1.81,0.31 3.75,0.47 5.9,0.47 3.78,0 7.19,-0.97 10.13,-2.85 2.91,-1.9 5.31,-4.97 7.12,-9.19l7.6 -17.84 -48.56 -119.81 38.71 0 23.57 75.28c0.69,2.06 1.28,4.37 1.81,6.87 0.56,2.54 1,5.32 1.38,8.35l0.46 0c0.41,-2.19 0.88,-4.53 1.5,-6.97 0.63,-2.44 1.35,-5.1 2.29,-8.03l23.9 -75.5 34.78 0 0 0z"/>
   <g>
    <path class="fil8" d="M9454.97 4863.19l-68.63 0.75 33.63 -62.72 35 61.97 0 0zm-38.34 60.5l-0.72 -65.47 9.37 -0.09 0.72 65.46 -9.37 0.1zm38.93 -5.81l-33.62 62.71 -35 -61.96 68.62 -0.75 0 0z"/>
   </g>
   <rect id="rect7187_0" class="fil9 str2" x="9420.97" y="4980.59" width="790.78" height="437.5"/>
   <path id="text7189" class="fil10" d="M8920.03 5225.72l0 54.25 -35.94 0 0.1 -164.09 57.12 0c20.44,0 35.81,4.46 46.1,13.4 10.31,8.91 15.47,22.25 15.47,40.03 0,16.88 -5.91,30.47 -17.69,40.88 -11.81,10.37 -27.5,15.53 -47.19,15.53l-17.97 0 0 0zm0 -82.16l0 54.82 14.88 0.12c10.03,0 17.62,-2.34 22.68,-7 5.1,-4.66 7.6,-11.63 7.5,-20.94 0,-8.97 -2.5,-15.75 -7.5,-20.22 -5,-4.53 -12.5,-6.78 -22.5,-6.78l-15.06 0z"/>
   <path id="_1_2" class="fil10" d="M9099.91 5189.13c-1.53,-0.41 -3.07,-0.66 -4.63,-0.88 -1.56,-0.19 -3.34,-0.25 -5.31,-0.25 -9.56,0 -16.75,3 -21.6,9.06 -4.84,6.1 -7.25,14.47 -7.25,25.22l0 57.69 -34.99 0 0 -120.03 34.99 0 0 22.44 0.47 0c2.88,-8.19 6.97,-14.32 12.28,-18.44 5.32,-4.1 11.79,-6.19 19.44,-6.19 1.78,0 3.53,0.16 5.22,0.41 1.69,0.28 3.47,0.56 5.41,0.97l-4.03 30z"/>
   <path id="_2_3" class="fil10" d="M9178.06 5282.84c-19.75,0 -35.31,-5.59 -46.69,-16.81 -11.34,-11.25 -17.06,-26.4 -17.06,-45.53 0.1,-19.94 5.97,-35.53 17.75,-46.72 11.75,-11.22 27.66,-16.81 47.72,-16.81 19.78,0 35.25,5.59 46.41,16.75 11.19,11.19 16.75,26.06 16.75,44.72 0,19.81 -5.78,35.5 -17.38,47.06 -11.59,11.56 -27.4,17.34 -47.5,17.34l0 0zm1.25 -26.87c9.35,0 16.35,-3.09 21.03,-9.31 4.69,-6.16 7.04,-15.35 7.04,-27.57 0,-11.56 -2.41,-20.34 -7.13,-26.25 -4.72,-5.9 -11.75,-8.87 -21.16,-8.87 -9.22,0 -16.4,3.15 -21.5,9.5 -5.12,6.31 -7.68,15.19 -7.68,26.56 0,11.91 2.5,20.85 7.47,26.88 4.93,6.03 12.25,9.06 21.93,9.06z"/>
   <path id="_3_4" class="fil10" d="M9364.81 5272.09c-6.09,3.75 -12.28,6.44 -18.59,8.16 -6.28,1.72 -13.13,2.59 -20.53,2.59 -20,0 -35.6,-5.56 -46.82,-16.65 -11.18,-11.1 -16.81,-25.53 -16.81,-43.31 0,-20.35 6,-36.44 18.03,-48.25 12,-11.79 27.94,-17.66 47.78,-17.66 7.32,0 13.78,0.72 19.38,2.16 5.62,1.43 11.22,3.75 16.78,6.87l-13.03 23.66c-3.6,-2.03 -7.13,-3.5 -10.56,-4.44 -3.44,-0.91 -7.19,-1.37 -11.19,-1.37 -9.94,0 -17.66,3.21 -23.25,9.62 -5.56,6.41 -8.38,15.41 -8.38,27.03 0,11.13 3.03,19.78 9,26.1 6,6.25 13.47,9.37 22.5,9.37 2.66,0 5.97,-0.56 9.97,-1.69 3.94,-1.09 7.97,-2.9 11.97,-5.43l13.75 23.25 0 -0.01z"/>
   <path id="_4_5" class="fil10" d="M9493.34 5229.75l-79.06 0c0.59,9.31 3.63,16.25 9.03,20.81 5.41,4.57 12.91,6.88 22.53,6.88 3.44,0 8.16,-1 14.22,-3.03 6,-2.03 11.91,-5.16 17.72,-9.44l15.31 20.25c-8.06,6.09 -16.34,10.59 -24.87,13.41 -8.5,2.81 -17.81,4.22 -27.97,4.22 -19.22,0 -34.13,-5.35 -44.75,-16.13 -10.59,-10.75 -15.94,-25.75 -16.03,-44.97 0,-19.22 5.62,-34.84 16.87,-46.81 11.25,-12 25.5,-17.97 42.79,-17.97 16.53,0 29.71,5.03 39.53,15.15 9.81,10.13 14.68,24.63 14.68,43.57l0 14.06 0 0zm-32.62 -21.87c0,-9.54 -1.84,-16.41 -5.53,-20.66 -3.72,-4.22 -9.16,-6.34 -16.31,-6.34 -6.32,0 -11.79,2.43 -16.35,7.28 -4.59,4.84 -7.4,11.4 -8.37,19.72l46.56 0z"/>
   <path id="_5_6" class="fil10" d="M9506.38 5269.91l14.43 -23.44c4,3.12 8.82,5.78 14.38,7.94 5.5,2.18 11.62,3.28 18.34,3.28 5.13,0 9.32,-0.94 12.53,-2.82 3.25,-1.87 4.85,-4.75 4.85,-8.53 0,-3.12 -1.25,-5.59 -3.78,-7.37 -2.5,-1.78 -7.16,-3.44 -13.94,-4.88 -14.87,-3.22 -25.56,-7.65 -32.03,-13.4 -6.5,-5.72 -9.72,-13.75 -9.72,-24.16 0,-12.03 4.75,-21.62 14.31,-28.81 9.6,-7.19 21.38,-10.75 35.31,-10.75 7.29,0 14.07,0.9 20.44,2.75 6.38,1.81 12.44,4.59 18.13,8.34l-13.16 22.66c-4.81,-3.03 -9.31,-5.28 -13.56,-6.72 -4.22,-1.41 -8.6,-2.1 -13.1,-2.1 -5.25,0 -9.43,1 -12.56,2.97 -3.12,1.97 -4.72,4.56 -4.72,7.69 0,3.44 1.44,5.97 4.29,7.62 2.9,1.63 8.37,3.29 16.43,4.94 13.82,2.81 23.75,7.25 29.82,13.19 6.06,5.94 9.09,14 9.09,24.25 0,12.16 -4.56,21.87 -13.75,29.25 -9.13,7.34 -21.28,11.03 -36.35,11.03 -8.25,0 -16.09,-1.06 -23.59,-3.12 -7.47,-2.13 -14.84,-5.41 -22.09,-9.82l0 0.01z"/>
   <path id="_6" class="fil10" d="M9613.72 5269.91l14.44 -23.44c4,3.12 8.81,5.78 14.37,7.94 5.5,2.18 11.63,3.28 18.35,3.28 5.12,0 9.31,-0.94 12.53,-2.82 3.25,-1.87 4.84,-4.75 4.84,-8.53 0,-3.12 -1.25,-5.59 -3.78,-7.37 -2.5,-1.78 -7.16,-3.44 -13.94,-4.88 -14.87,-3.22 -25.56,-7.65 -32.03,-13.4 -6.5,-5.72 -9.72,-13.75 -9.72,-24.16 0,-12.03 4.75,-21.62 14.32,-28.81 9.59,-7.19 21.37,-10.75 35.31,-10.75 7.28,0 14.06,0.9 20.44,2.75 6.37,1.81 12.43,4.59 18.12,8.34l-13.16 22.66c-4.81,-3.03 -9.31,-5.28 -13.56,-6.72 -4.22,-1.41 -8.59,-2.1 -13.09,-2.1 -5.25,0 -9.44,1 -12.56,2.97 -3.13,1.97 -4.72,4.56 -4.72,7.69 0,3.44 1.43,5.97 4.28,7.62 2.91,1.63 8.37,3.29 16.44,4.94 13.81,2.81 23.75,7.25 29.81,13.19 6.06,5.94 9.09,14 9.09,24.25 0,12.16 -4.56,21.87 -13.75,29.25 -9.12,7.34 -21.28,11.03 -36.34,11.03 -8.25,0 -16.1,-1.06 -23.6,-3.12 -7.47,-2.13 -14.84,-5.41 -22.09,-9.82l0 0.01z"/>
   <path id="_7" class="fil10" d="M9788.94 5282.84c-19.78,0 -35.31,-5.59 -46.69,-16.81 -11.37,-11.25 -17.06,-26.4 -17.06,-45.53 0.06,-19.94 5.97,-35.53 17.72,-46.72 11.75,-11.22 27.65,-16.81 47.75,-16.81 19.75,0 35.22,5.59 46.4,16.75 11.16,11.19 16.75,26.06 16.75,44.72 0,19.81 -5.78,35.5 -17.37,47.06 -11.63,11.56 -27.44,17.34 -47.5,17.34l0 0zm1.25 -26.87c9.31,0 16.31,-3.09 21,-9.31 4.69,-6.16 7.03,-15.35 7.03,-27.57 0,-11.56 -2.38,-20.34 -7.09,-26.25 -4.76,-5.9 -11.79,-8.87 -21.19,-8.87 -9.22,0 -16.41,3.15 -21.47,9.5 -5.13,6.31 -7.72,15.19 -7.72,26.56 0,11.91 2.5,20.85 7.47,26.88 4.97,6.03 12.28,9.06 21.97,9.06z"/>
   <path id="_8" class="fil10" d="M9953.81 5189.13c-1.53,-0.41 -3.06,-0.66 -4.62,-0.88 -1.56,-0.19 -3.35,-0.25 -5.31,-0.25 -9.57,0 -16.76,3 -21.6,9.06 -4.84,6.1 -7.25,14.47 -7.25,25.22l0 57.69 -35 0 0 -120.03 35 0 0 22.44 0.47 0c2.88,-8.19 6.97,-14.32 12.28,-18.44 5.31,-4.1 11.78,-6.19 19.44,-6.19 1.78,0 3.53,0.16 5.22,0.41 1.69,0.28 3.47,0.56 5.4,0.97l-4.03 30z"/>
   <g>
    <polygon class="fil11" points="8630.16,4363.72 8630.16,4801.22 10211.75,4801.22 10211.75,4363.72 "/>
    <path id="_1_7" class="fil12" d="M8625.47 4801.22l0 -437.5 9.38 0 0 437.5 -4.69 4.69 -4.69 -4.69zm4.69 4.69l-4.69 0 0 -4.69 4.69 4.69zm1581.59 0l-1581.59 0 0 -9.38 1581.59 0 4.72 4.69 -4.72 4.69zm4.72 -4.69l0 4.69 -4.72 0 4.72 -4.69zm0 -437.5l0 437.5 -9.41 0 0 -437.5 4.69 -4.69 4.72 4.69zm-4.72 -4.69l4.72 0 0 4.69 -4.72 -4.69zm-1581.59 0l1581.59 0 0 9.38 -1581.59 0 -4.69 -4.69 4.69 -4.69zm-4.69 4.69l0 -4.69 4.69 0 -4.69 4.69z"/>
   </g>
   <polygon id="text7189_1" class="fil10" points="9291.22,4663.09 9255.41,4663.09 9255.41,4498.97 9291.22,4498.97 "/>
   <polygon id="_1_8" class="fil10" points="9419.03,4498.97 9339.16,4690.06 9308,4690.06 9387.53,4498.97 "/>
   <path id="_2_9" class="fil10" d="M9505.63 4665.94c-23.47,0 -42.63,-7.66 -57.38,-22.94 -14.78,-15.31 -22.16,-35.22 -22.16,-59.81 0,-25.94 7.5,-46.91 22.5,-62.91 14.97,-16.03 34.88,-24.03 59.69,-24.03 23.31,0 42.22,7.66 56.63,22.97 14.43,15.34 21.62,35.59 21.62,60.66 0,25.78 -7.44,46.59 -22.34,62.37 -14.94,15.78 -34.47,23.69 -58.57,23.69l0.01 0zm0.59 -30.91c13.12,0 23.5,-4.69 31.16,-14.06 7.65,-9.38 11.53,-22.38 11.53,-39.03 0,-17.35 -3.75,-30.81 -11.19,-40.47 -7.41,-9.63 -17.59,-14.44 -30.5,-14.44 -13.28,0 -23.81,4.97 -31.66,14.85 -7.9,9.9 -11.81,23.03 -11.81,39.37 0,16.56 3.91,29.69 11.72,39.34 7.81,9.63 18.09,14.44 30.75,14.44l0 0z"/>
  </g>
  <g id="_2937732842288">
   <g>
    <polygon id="rect7201_2" class="fil3" points="4411.59,4505.94 7838.38,4505.94 7838.38,2642.28 4411.59,2642.28 "/>
    <polygon id="_1_10" class="fil0 str1" points="4411.59,4505.94 7838.38,4505.94 7838.38,2642.28 4411.59,2642.28 "/>
   </g>
   <g>
    <path class="fil4" d="M7390.09 3854.84l-68.59 0.75 33.63 -62.75 34.96 62zm-38.31 60.5l-0.72 -65.46 9.38 -0.13 0.72 65.5 -9.38 0.09zm38.91 -5.81l-33.63 62.72 -34.97 -62 68.6 -0.72z"/>
   </g>
   <g>
    <path class="fil4" d="M6599.31 3854.84l-68.62 0.75 33.62 -62.75 35 62 0 0zm-38.34 60.5l-0.72 -65.46 9.37 -0.13 0.72 65.5 -9.37 0.09zm38.94 -5.81l-33.63 62.72 -35 -62 68.63 -0.72 0 0z"/>
   </g>
   <g>
    <path class="fil4" d="M5720.66 3854.84l-68.63 0.75 33.63 -62.75 35 62 0 0zm-38.35 60.5l-0.72 -65.46 9.38 -0.13 0.72 65.5 -9.38 0.09zm38.94 -5.81l-33.63 62.72 -34.99 -62 68.62 -0.72 0 0z"/>
   </g>
   <g>
    <path class="fil4" d="M4929.84 3854.84l-68.59 0.75 33.62 -62.75 34.97 62zm-38.34 60.5l-0.72 -65.46 9.38 -0.13 0.72 65.5 -9.38 0.09zm38.94 -5.81l-33.63 62.72 -34.97 -62 68.6 -0.72z"/>
   </g>
   <g>
    <path class="fil8" d="M5718.69 3237.94l-68.6 0.75 33.63 -62.75 34.97 62zm-38.35 60.5l-0.72 -65.47 9.38 -0.13 0.72 65.5 -9.38 0.1zm38.94 -5.81l-33.62 62.71 -34.97 -62 68.59 -0.71z"/>
   </g>
   <g>
    <path class="fil8" d="M4927.91 3237.94l-68.63 0.75 33.63 -62.75 35 62 0 0zm-38.35 60.5l-0.72 -65.47 9.38 -0.13 0.72 65.5 -9.38 0.1zm38.94 -5.81l-33.63 62.71 -34.99 -62 68.62 -0.71 0 0z"/>
   </g>
   <g>
    <path class="fil8" d="M7388.16 3237.94l-68.63 0.75 33.63 -62.75 34.99 62 0.01 0zm-38.35 60.5l-0.72 -65.47 9.38 -0.13 0.72 65.5 -9.38 0.1zm38.94 -5.81l-33.62 62.71 -35 -62 68.62 -0.71 0 0z"/>
   </g>
   <g>
    <path class="fil8" d="M6597.37 3237.94l-68.62 0.75 33.62 -62.75 35 62 0 0zm-38.34 60.5l-0.72 -65.47 9.38 -0.13 0.72 65.5 -9.38 0.1zm38.94 -5.81l-33.66 62.71 -34.97 -62 68.63 -0.71z"/>
   </g>
   <rect class="fil6 str3" x="4499.47" y="3972.25" width="3251.06" height="437.5"/>
   <rect id="rect7187_3" class="fil5 str2" x="6168.94" y="3355.34" width="790.78" height="437.5"/>
   <rect id="rect7187_4" class="fil9 str2" x="6959.72" y="3355.34" width="790.78" height="437.5"/>
   <rect id="rect7187_5" class="fil5 str2" x="4499.47" y="3355.34" width="790.78" height="437.5"/>
   <rect id="rect7187_6" class="fil9 str2" x="5290.25" y="3355.34" width="790.78" height="437.5"/>
   <g>
    <polygon class="fil11" points="4499.47,2738.47 4499.47,3175.94 7750.53,3175.94 7750.53,2738.47 "/>
    <path id="_1_11" class="fil12" d="M4489.81 3175.94l0 -437.47 19.31 0 0 437.47 -9.65 4.69 -9.66 -4.69 0 0zm9.66 4.69l-9.66 0 0 -4.69 9.66 4.69zm3251.06 0l-3251.06 0 0 -9.38 3251.06 0 9.66 4.69 -9.66 4.69zm9.66 -4.69l0 4.69 -9.66 0 9.66 -4.69zm0 -437.47l0 437.47 -19.31 0 0 -437.47 9.65 -4.69 9.66 4.69 0 0zm-9.66 -4.69l9.66 0 0 4.69 -9.66 -4.69zm-3251.06 0l3251.06 0 0 9.38 -3251.06 0 -9.66 -4.69 9.66 -4.69zm-9.66 4.69l0 -4.69 9.66 0 -9.66 4.69z"/>
   </g>
   <path id="text7189_7" class="fil10" d="M6458.78 3600.47l0 54.25 -35.94 0 0.13 -164.09 57.09 0c20.44,0 35.85,4.46 46.1,13.4 10.31,8.91 15.46,22.25 15.46,40.03 0,16.88 -5.87,30.47 -17.68,40.88 -11.78,10.37 -27.5,15.53 -47.19,15.53l-17.97 0 0 0zm0 -82.16l0 54.82 14.88 0.12c10.06,0 17.62,-2.34 22.71,-7 5.07,-4.66 7.57,-11.63 7.5,-20.94 0,-8.97 -2.5,-15.75 -7.5,-20.22 -5,-4.56 -12.5,-6.78 -22.5,-6.78l-15.09 0z"/>
   <path id="_1_12" class="fil10" d="M6638.66 3563.88c-1.5,-0.41 -3.03,-0.69 -4.6,-0.88 -1.56,-0.19 -3.37,-0.28 -5.31,-0.28 -9.56,0 -16.75,3.03 -21.59,9.09 -4.85,6.1 -7.28,14.47 -7.28,25.22l0 57.69 -35 0 0 -120.03 35 0 0 22.4 0.46 0c2.91,-8.15 7,-14.28 12.32,-18.4 5.31,-4.13 11.75,-6.19 19.4,-6.19 1.82,0 3.57,0.16 5.25,0.41 1.66,0.25 3.47,0.56 5.38,0.97l-4.03 30 0 0z"/>
   <path id="_2_13" class="fil10" d="M6716.84 3657.59c-19.78,0 -35.31,-5.59 -46.68,-16.81 -11.38,-11.25 -17.07,-26.4 -17.07,-45.53 0.07,-19.94 5.97,-35.53 17.72,-46.72 11.75,-11.22 27.66,-16.81 47.75,-16.81 19.75,0 35.22,5.59 46.41,16.75 11.16,11.19 16.75,26.06 16.75,44.69 0,19.84 -5.78,35.53 -17.38,47.09 -11.62,11.53 -27.43,17.34 -47.5,17.34l0 0zm1.25 -26.9c9.32,0 16.32,-3.06 21,-9.28 4.69,-6.19 7.04,-15.35 7.04,-27.57 0,-11.56 -2.38,-20.37 -7.1,-26.25 -4.75,-5.9 -11.78,-8.87 -21.19,-8.87 -9.21,0 -16.4,3.16 -21.47,9.5 -5.12,6.31 -7.71,15.19 -7.71,26.56 0,11.91 2.5,20.85 7.47,26.88 4.96,6.03 12.28,9.03 21.96,9.03z"/>
   <path id="_3_14" class="fil10" d="M6903.59 3646.84c-6.09,3.75 -12.31,6.44 -18.59,8.16 -6.28,1.72 -13.13,2.59 -20.56,2.59 -20,0 -35.57,-5.56 -46.78,-16.65 -11.22,-11.1 -16.85,-25.53 -16.85,-43.31 0,-20.38 6.03,-36.44 18.06,-48.25 11.97,-11.79 27.91,-17.66 47.75,-17.66 7.32,0 13.82,0.72 19.38,2.16 5.62,1.43 11.22,3.75 16.81,6.87l-13.06 23.66c-3.6,-2.03 -7.1,-3.5 -10.53,-4.44 -3.44,-0.91 -7.19,-1.37 -11.22,-1.37 -9.91,0 -17.66,3.18 -23.25,9.62 -5.53,6.41 -8.34,15.41 -8.34,27.03 0,11.13 3,19.78 8.96,26.06 6.04,6.28 13.5,9.38 22.5,9.38 2.66,0 6,-0.53 9.97,-1.66 3.94,-1.09 7.97,-2.9 12,-5.43l13.75 23.25 0 -0.01z"/>
   <path id="_4_15" class="fil10" d="M7032.09 3604.5l-79.06 0c0.59,9.28 3.66,16.25 9.03,20.81 5.44,4.57 12.94,6.88 22.53,6.88 3.44,0 8.19,-1.03 14.22,-3.03 6.03,-2.03 11.94,-5.16 17.75,-9.44l15.31 20.25c-8.09,6.09 -16.37,10.59 -24.87,13.41 -8.53,2.81 -17.81,4.22 -27.97,4.22 -19.22,0 -34.16,-5.38 -44.78,-16.16 -10.59,-10.75 -15.94,-25.75 -16,-44.97 0,-19.22 5.62,-34.81 16.87,-46.78 11.25,-12 25.5,-17.97 42.75,-17.97 16.53,0 29.75,5.03 39.54,15.16 9.81,10.12 14.68,24.62 14.68,43.56l0 14.06 0 0zm-32.59 -21.87c0,-9.54 -1.84,-16.41 -5.56,-20.66 -3.72,-4.22 -9.13,-6.34 -16.28,-6.34 -6.35,0 -11.82,2.4 -16.38,7.28 -4.56,4.84 -7.37,11.4 -8.34,19.72l46.56 0z"/>
   <path id="_5_16" class="fil10" d="M7045.16 3644.66l14.4 -23.44c4.03,3.12 8.85,5.78 14.38,7.94 5.5,2.18 11.65,3.28 18.37,3.28 5.1,0 9.28,-0.94 12.53,-2.82 3.26,-1.87 4.85,-4.75 4.85,-8.53 0,-3.12 -1.25,-5.59 -3.78,-7.37 -2.5,-1.81 -7.16,-3.44 -13.97,-4.88 -14.88,-3.22 -25.53,-7.68 -32.03,-13.4 -6.47,-5.72 -9.72,-13.75 -9.72,-24.16 0,-12.03 4.78,-21.62 14.34,-28.81 9.56,-7.19 21.38,-10.75 35.31,-10.75 7.25,0 14.07,0.9 20.44,2.75 6.35,1.81 12.41,4.59 18.13,8.34l-13.19 22.66c-4.78,-3.03 -9.28,-5.28 -13.53,-6.72 -4.22,-1.41 -8.59,-2.13 -13.09,-2.13 -5.28,0 -9.47,1.03 -12.6,3 -3.12,1.97 -4.72,4.56 -4.72,7.69 0,3.44 1.44,5.97 4.32,7.59 2.87,1.66 8.34,3.28 16.43,4.97 13.78,2.81 23.75,7.22 29.81,13.19 6.04,5.94 9.1,14 9.1,24.25 0,12.16 -4.56,21.87 -13.75,29.25 -9.16,7.34 -21.28,11.03 -36.38,11.03 -8.25,0 -16.09,-1.06 -23.59,-3.12 -7.47,-2.13 -14.85,-5.41 -22.06,-9.82l0 0.01z"/>
   <path id="_6_17" class="fil10" d="M7152.5 3644.66l14.41 -23.44c4.03,3.12 8.84,5.78 14.37,7.94 5.5,2.18 11.66,3.28 18.38,3.28 5.09,0 9.28,-0.94 12.53,-2.82 3.25,-1.87 4.84,-4.75 4.84,-8.53 0,-3.12 -1.25,-5.59 -3.78,-7.37 -2.5,-1.81 -7.16,-3.44 -13.97,-4.88 -14.87,-3.22 -25.53,-7.68 -32.03,-13.4 -6.47,-5.72 -9.72,-13.75 -9.72,-24.16 0,-12.03 4.78,-21.62 14.34,-28.81 9.57,-7.19 21.38,-10.75 35.32,-10.75 7.25,0 14.06,0.9 20.44,2.75 6.34,1.81 12.4,4.59 18.12,8.34l-13.19 22.66c-4.78,-3.03 -9.28,-5.28 -13.53,-6.72 -4.22,-1.41 -8.59,-2.13 -13.09,-2.13 -5.28,0 -9.47,1.03 -12.6,3 -3.12,1.97 -4.71,4.56 -4.71,7.69 0,3.44 1.43,5.97 4.31,7.59 2.87,1.66 8.34,3.28 16.44,4.97 13.78,2.81 23.75,7.22 29.81,13.19 6.03,5.94 9.09,14 9.09,24.25 0,12.16 -4.56,21.87 -13.75,29.25 -9.15,7.34 -21.28,11.03 -36.37,11.03 -8.25,0 -16.1,-1.06 -23.6,-3.12 -7.47,-2.13 -14.84,-5.41 -22.06,-9.82l0 0.01z"/>
   <path id="_7_18" class="fil10" d="M7327.69 3657.59c-19.75,0 -35.32,-5.59 -46.69,-16.81 -11.34,-11.25 -17.06,-26.4 -17.06,-45.53 0.09,-19.94 5.97,-35.53 17.75,-46.72 11.75,-11.22 27.65,-16.81 47.72,-16.81 19.78,0 35.25,5.59 46.4,16.75 11.19,11.19 16.75,26.06 16.75,44.69 0,19.84 -5.78,35.53 -17.37,47.09 -11.6,11.53 -27.41,17.34 -47.5,17.34l0 0zm1.25 -26.9c9.34,0 16.34,-3.06 21.03,-9.28 4.69,-6.19 7.03,-15.35 7.03,-27.57 0,-11.56 -2.41,-20.37 -7.13,-26.25 -4.71,-5.9 -11.75,-8.87 -21.15,-8.87 -9.22,0 -16.41,3.16 -21.5,9.5 -5.13,6.31 -7.69,15.19 -7.69,26.56 0,11.91 2.5,20.85 7.47,26.88 4.94,6.03 12.25,9.03 21.94,9.03z"/>
   <path id="_8_19" class="fil10" d="M7492.56 3563.88c-1.5,-0.41 -3.03,-0.69 -4.59,-0.88 -1.56,-0.19 -3.38,-0.28 -5.31,-0.28 -9.57,0 -16.75,3.03 -21.6,9.09 -4.84,6.1 -7.28,14.47 -7.28,25.22l0 57.69 -35 0 0 -120.03 35 0 0 22.4 0.47 0c2.91,-8.15 7,-14.28 12.31,-18.4 5.32,-4.13 11.75,-6.19 19.41,-6.19 1.81,0 3.56,0.16 5.25,0.41 1.66,0.25 3.47,0.56 5.38,0.97l-4.04 30 0 0z"/>
   <path id="text7195_8" class="fil7" d="M5841.16 4244.97l-35.38 0 0 -98.97c0,-5.22 0.13,-10.72 0.34,-16.59 0.26,-5.82 0.6,-11.94 1.04,-18.35l-0.91 0c-0.97,4.97 -1.88,9.22 -2.69,12.78 -0.78,3.53 -1.56,6.35 -2.34,8.5l-39.69 112.63 -28.75 0 -40.28 -111.5c-0.56,-1.5 -1.25,-4.13 -2.12,-7.88 -0.88,-3.72 -1.91,-8.56 -3.04,-14.53l-1.03 0c0.54,7.75 0.91,15.06 1.16,22.1 0.22,7 0.34,13.59 0.34,19.81l0 92 -32.37 0 0 -164.1 52.28 0 34.66 98.41c1.37,3.66 2.53,7.25 3.43,10.81 0.94,3.53 1.72,7.1 2.44,10.69l0.66 0c1.15,-4.09 2.25,-8 3.31,-11.66 1.09,-3.65 2.19,-7 3.31,-10.09l34.82 -98.16 50.81 0 0 164.1 0 0z"/>
   <path id="_1_20" class="fil7" d="M5984.41 4194.75l-79.07 0c0.6,9.28 3.63,16.22 9.03,20.81 5.44,4.57 12.94,6.88 22.53,6.88 3.44,0 8.16,-1.03 14.22,-3.06 6.03,-2.04 11.91,-5.16 17.75,-9.41l15.32 20.22c-8.1,6.09 -16.38,10.59 -24.91,13.4 -8.5,2.82 -17.81,4.22 -27.97,4.22 -19.22,0 -34.12,-5.34 -44.75,-16.12 -10.59,-10.75 -15.94,-25.75 -16.03,-44.97 0,-19.22 5.63,-34.84 16.88,-46.78 11.25,-12 25.53,-17.97 42.78,-17.97 16.53,0 29.72,5.03 39.53,15.15 9.81,10.1 14.69,24.6 14.69,43.57l0 14.06 0 0zm-32.63 -21.91c0,-9.5 -1.81,-16.4 -5.53,-20.65 -3.72,-4.22 -9.16,-6.31 -16.28,-6.31 -6.35,0 -11.81,2.4 -16.38,7.24 -4.56,4.85 -7.37,11.41 -8.37,19.72l46.56 0 0 0z"/>
   <path id="_2_21" class="fil7" d="M6197.03 4244.97l-34.87 0 0 -68.56c0,-9.29 -1.69,-16.22 -5,-20.69 -3.35,-4.5 -8.38,-6.78 -15.16,-6.78 -6.34,0 -11.53,2.75 -15.59,8.25 -4.04,5.5 -6.07,12.31 -6.07,20.47l0 67.31 -35 0 0 -69.44c0,-8.97 -1.68,-15.59 -5,-20.03 -3.31,-4.34 -8.25,-6.56 -14.81,-6.56 -6.62,0 -11.94,2.62 -15.87,7.87 -4,5.19 -6,12.28 -6,21.19l0 66.97 -35 0 0 -120.03 35 0 0 18.75 0.47 0c3.9,-6.56 9.28,-11.85 16.09,-15.78 6.81,-4 14.34,-5.94 22.59,-5.94 8.47,0 15.63,1.88 21.41,5.69 5.81,3.84 10.22,9.47 13.28,16.97 4.56,-7.6 10.22,-13.25 16.94,-17 6.68,-3.78 14.5,-5.66 23.34,-5.66 13.13,0 22.97,4 29.47,12.09 6.53,8.1 9.78,20.19 9.78,36.32l0 74.59 0 0z"/>
   <path id="_3_22" class="fil7" d="M6285.03 4247.81c-19.75,0 -35.31,-5.59 -46.69,-16.78 -11.34,-11.25 -17.06,-26.4 -17.06,-45.56 0.09,-19.91 5.97,-35.5 17.75,-46.72 11.75,-11.22 27.66,-16.78 47.72,-16.78 19.78,0 35.25,5.56 46.41,16.75 11.18,11.16 16.75,26.06 16.75,44.69 0,19.84 -5.78,35.5 -17.38,47.06 -11.59,11.56 -27.4,17.34 -47.5,17.34zm1.25 -26.87c9.34,0 16.34,-3.1 21.03,-9.28 4.69,-6.19 7.03,-15.38 7.03,-27.6 0,-11.56 -2.4,-20.34 -7.12,-26.25 -4.72,-5.9 -11.75,-8.87 -21.16,-8.87 -9.22,0 -16.41,3.19 -21.5,9.5 -5.12,6.34 -7.69,15.22 -7.69,26.56 0,11.91 2.5,20.88 7.47,26.88 4.94,6.06 12.25,9.06 21.94,9.06z"/>
   <path id="_4_23" class="fil7" d="M6449.91 4154.09c-1.5,-0.37 -3.03,-0.65 -4.6,-0.84 -1.56,-0.19 -3.37,-0.28 -5.31,-0.28 -9.56,0 -16.75,3 -21.59,9.06 -4.85,6.1 -7.29,14.5 -7.29,25.25l0 57.69 -35 0 0 -120.03 35 0 0 22.41 0.47 0c2.91,-8.16 7,-14.29 12.32,-18.44 5.31,-4.1 11.75,-6.16 19.4,-6.16 1.82,0 3.57,0.16 5.25,0.38 1.66,0.28 3.47,0.59 5.38,0.97l-4.03 30 0 -0.01z"/>
   <path id="_5_24" class="fil7" d="M6594.56 4124.94l-53.87 142.03c-4.13,10.87 -10.25,19.31 -18.38,25.28 -8.12,5.94 -17.87,8.91 -29.22,8.91 -3.59,0 -7.12,-0.22 -10.59,-0.63 -3.47,-0.4 -6.81,-1.03 -10,-1.87l6.06 -26c1.81,0.72 3.63,1.18 5.41,1.5 1.81,0.31 3.75,0.47 5.9,0.47 3.79,0 7.19,-1 10.13,-2.88 2.94,-1.91 5.31,-4.94 7.16,-9.15l7.56 -17.88 -48.56 -119.78 38.72 0 23.56 75.25c0.69,2.09 1.28,4.41 1.84,6.87 0.53,2.57 0.97,5.32 1.35,8.38l0.47 0c0.4,-2.19 0.87,-4.53 1.5,-7 0.62,-2.41 1.37,-5.06 2.31,-8l23.9 -75.5 34.75 0 0 0z"/>
   <path id="text7189_9" class="fil10" d="M4789.31 3600.47l0 54.25 -35.93 0 0.12 -164.09 57.13 0c20.4,0 35.81,4.46 46.09,13.4 10.31,8.91 15.47,22.25 15.47,40.03 0,16.88 -5.91,30.47 -17.72,40.88 -11.78,10.37 -27.5,15.53 -47.19,15.53l-17.97 0 0 0zm0 -82.16l0 54.82 14.91 0.12c10.03,0 17.59,-2.34 22.69,-7 5.06,-4.66 7.56,-11.63 7.5,-20.94 0,-8.97 -2.5,-15.75 -7.5,-20.22 -5,-4.56 -12.5,-6.78 -22.5,-6.78l-15.1 0 0 0z"/>
   <path id="_1_25" class="fil10" d="M4969.22 3563.88c-1.53,-0.41 -3.06,-0.69 -4.63,-0.88 -1.56,-0.19 -3.34,-0.28 -5.31,-0.28 -9.56,0 -16.75,3.03 -21.59,9.09 -4.85,6.1 -7.28,14.47 -7.28,25.22l0 57.69 -35 0 0 -120.03 35 0 0 22.4 0.46 0c2.91,-8.15 7.01,-14.28 12.32,-18.4 5.31,-4.13 11.75,-6.19 19.4,-6.19 1.82,0 3.57,0.16 5.25,0.41 1.69,0.25 3.47,0.56 5.38,0.97l-4 30z"/>
   <path id="_2_26" class="fil10" d="M5047.38 3657.59c-19.79,0 -35.32,-5.59 -46.69,-16.81 -11.38,-11.25 -17.06,-26.4 -17.06,-45.53 0.06,-19.94 5.96,-35.53 17.71,-46.72 11.79,-11.22 27.66,-16.81 47.75,-16.81 19.75,0 35.22,5.59 46.41,16.75 11.16,11.19 16.75,26.06 16.75,44.69 0,19.84 -5.78,35.53 -17.37,47.09 -11.6,11.53 -27.44,17.34 -47.5,17.34l0 0zm1.24 -26.9c9.35,0 16.32,-3.06 21,-9.28 4.69,-6.19 7.04,-15.35 7.04,-27.57 0,-11.56 -2.38,-20.37 -7.1,-26.25 -4.72,-5.9 -11.75,-8.87 -21.19,-8.87 -9.21,0 -16.4,3.16 -21.46,9.5 -5.13,6.31 -7.69,15.19 -7.69,26.56 0,11.91 2.5,20.85 7.44,26.88 4.96,6.03 12.28,9.03 21.96,9.03l0 0z"/>
   <path id="_3_27" class="fil10" d="M5234.13 3646.84c-6.1,3.75 -12.32,6.44 -18.6,8.16 -6.28,1.72 -13.12,2.59 -20.53,2.59 -20,0 -35.59,-5.56 -46.81,-16.65 -11.22,-11.1 -16.85,-25.53 -16.85,-43.31 0,-20.38 6.03,-36.44 18.07,-48.25 12,-11.79 27.93,-17.66 47.78,-17.66 7.28,0 13.78,0.72 19.37,2.16 5.63,1.43 11.19,3.75 16.78,6.87l-13.03 23.66c-3.59,-2.03 -7.12,-3.5 -10.56,-4.44 -3.44,-0.91 -7.19,-1.37 -11.22,-1.37 -9.91,0 -17.66,3.18 -23.22,9.62 -5.56,6.41 -8.37,15.41 -8.37,27.03 0,11.13 3,19.78 9,26.06 6,6.28 13.47,9.38 22.5,9.38 2.65,0 5.97,-0.53 9.93,-1.66 3.97,-1.09 7.97,-2.9 12,-5.43l13.75 23.25 0.01 -0.01z"/>
   <path id="_4_28" class="fil10" d="M5362.66 3604.5l-79.07 0c0.57,9.28 3.63,16.25 9,20.81 5.44,4.57 12.94,6.88 22.57,6.88 3.43,0 8.15,-1.03 14.22,-3.03 6,-2.03 11.9,-5.16 17.71,-9.44l15.32 20.25c-8.1,6.09 -16.38,10.59 -24.88,13.41 -8.53,2.81 -17.81,4.22 -27.97,4.22 -19.22,0 -34.15,-5.38 -44.78,-16.16 -10.56,-10.75 -15.94,-25.75 -16,-44.97 0,-19.22 5.63,-34.81 16.88,-46.78 11.25,-12 25.5,-17.97 42.78,-17.97 16.5,0 29.72,5.03 39.53,15.16 9.78,10.12 14.69,24.62 14.69,43.56l0 14.06zm-32.63 -21.87c0,-9.54 -1.84,-16.41 -5.56,-20.66 -3.69,-4.22 -9.13,-6.34 -16.28,-6.34 -6.32,0 -11.79,2.4 -16.38,7.28 -4.56,4.84 -7.37,11.4 -8.34,19.72l46.56 0z"/>
   <path id="_5_29" class="fil10" d="M5375.69 3644.66l14.44 -23.44c4,3.12 8.81,5.78 14.34,7.94 5.53,2.18 11.65,3.28 18.37,3.28 5.13,0 9.29,-0.94 12.54,-2.82 3.25,-1.87 4.84,-4.75 4.84,-8.53 0,-3.12 -1.25,-5.59 -3.78,-7.37 -2.5,-1.81 -7.16,-3.44 -13.94,-4.88 -14.91,-3.22 -25.56,-7.68 -32.03,-13.4 -6.5,-5.72 -9.72,-13.75 -9.72,-24.16 0,-12.03 4.75,-21.62 14.31,-28.81 9.6,-7.19 21.38,-10.75 35.32,-10.75 7.28,0 14.06,0.9 20.43,2.75 6.38,1.81 12.44,4.59 18.13,8.34l-13.16 22.66c-4.81,-3.03 -9.31,-5.28 -13.56,-6.72 -4.22,-1.41 -8.59,-2.13 -13.09,-2.13 -5.25,0 -9.44,1.03 -12.57,3 -3.12,1.97 -4.75,4.56 -4.75,7.69 0,3.44 1.47,5.97 4.32,7.59 2.87,1.66 8.34,3.28 16.43,4.97 13.82,2.81 23.75,7.22 29.82,13.19 6.06,5.94 9.09,14 9.09,24.25 0,12.16 -4.56,21.87 -13.75,29.25 -9.13,7.34 -21.28,11.03 -36.38,11.03 -8.22,0 -16.09,-1.06 -23.59,-3.12 -7.44,-2.13 -14.84,-5.41 -22.06,-9.82l0 0.01z"/>
   <path id="_6_30" class="fil10" d="M5483.03 3644.66l14.44 -23.44c4,3.12 8.81,5.78 14.34,7.94 5.53,2.18 11.66,3.28 18.38,3.28 5.12,0 9.28,-0.94 12.53,-2.82 3.25,-1.87 4.84,-4.75 4.84,-8.53 0,-3.12 -1.25,-5.59 -3.78,-7.37 -2.5,-1.81 -7.15,-3.44 -13.94,-4.88 -14.9,-3.22 -25.56,-7.68 -32.03,-13.4 -6.5,-5.72 -9.72,-13.75 -9.72,-24.16 0,-12.03 4.75,-21.62 14.32,-28.81 9.59,-7.19 21.37,-10.75 35.31,-10.75 7.28,0 14.06,0.9 20.44,2.75 6.37,1.81 12.43,4.59 18.12,8.34l-13.15 22.66c-4.82,-3.03 -9.32,-5.28 -13.57,-6.72 -4.22,-1.41 -8.59,-2.13 -13.09,-2.13 -5.25,0 -9.44,1.03 -12.56,3 -3.13,1.97 -4.75,4.56 -4.75,7.69 0,3.44 1.47,5.97 4.31,7.59 2.87,1.66 8.34,3.28 16.44,4.97 13.81,2.81 23.75,7.22 29.81,13.19 6.06,5.94 9.09,14 9.09,24.25 0,12.16 -4.56,21.87 -13.75,29.25 -9.12,7.34 -21.28,11.03 -36.37,11.03 -8.22,0 -16.1,-1.06 -23.6,-3.12 -7.43,-2.13 -14.84,-5.41 -22.06,-9.82l0 0.01z"/>
   <path id="_7_31" class="fil10" d="M5658.25 3657.59c-19.78,0 -35.34,-5.59 -46.69,-16.81 -11.37,-11.25 -17.06,-26.4 -17.06,-45.53 0.06,-19.94 5.97,-35.53 17.72,-46.72 11.75,-11.22 27.66,-16.81 47.72,-16.81 19.78,0 35.25,5.59 46.4,16.75 11.19,11.19 16.79,26.06 16.79,44.69 0,19.84 -5.79,35.53 -17.41,47.09 -11.59,11.53 -27.41,17.34 -47.47,17.34l0 0zm1.22 -26.9c9.34,0 16.34,-3.06 21.03,-9.28 4.69,-6.19 7.03,-15.35 7.03,-27.57 0,-11.56 -2.37,-20.37 -7.13,-26.25 -4.71,-5.9 -11.74,-8.87 -21.15,-8.87 -9.22,0 -16.41,3.16 -21.5,9.5 -5.09,6.31 -7.69,15.19 -7.69,26.56 0,11.91 2.5,20.85 7.47,26.88 4.97,6.03 12.28,9.03 21.94,9.03z"/>
   <path id="_8_32" class="fil10" d="M5823.12 3563.88c-1.53,-0.41 -3.06,-0.69 -4.62,-0.88 -1.56,-0.19 -3.34,-0.28 -5.31,-0.28 -9.57,0 -16.75,3.03 -21.6,9.09 -4.84,6.1 -7.25,14.47 -7.25,25.22l0 57.69 -35.03 0 0 -120.03 35.03 0 0 22.4 0.47 0c2.88,-8.15 6.97,-14.28 12.28,-18.4 5.32,-4.13 11.75,-6.19 19.41,-6.19 1.81,0 3.56,0.16 5.25,0.41 1.69,0.25 3.47,0.56 5.41,0.97l-4.04 30z"/>
   <polygon id="text7189_10" class="fil10" points="5995.25,3037.81 5959.44,3037.81 5959.44,2873.72 5995.25,2873.72 "/>
   <polygon id="_1_33" class="fil10" points="6123.06,2873.72 6043.19,3064.81 6012.03,3064.81 6091.56,2873.72 "/>
   <path id="_2_34" class="fil10" d="M6209.66 3040.69c-23.47,0 -42.63,-7.66 -57.38,-22.94 -14.78,-15.31 -22.16,-35.25 -22.16,-59.81 0,-25.94 7.5,-46.91 22.5,-62.94 14.97,-16 34.88,-24 59.69,-24 23.31,0 42.22,7.66 56.66,22.97 14.4,15.34 21.59,35.56 21.59,60.66 0,25.78 -7.44,46.59 -22.34,62.37 -14.94,15.78 -34.47,23.69 -58.56,23.69l0 0zm0.59 -30.91c13.13,0 23.5,-4.69 31.16,-14.06 7.65,-9.38 11.53,-22.38 11.53,-39.03 0,-17.35 -3.75,-30.81 -11.16,-40.47 -7.44,-9.66 -17.63,-14.44 -30.53,-14.44 -13.28,0 -23.81,4.94 -31.66,14.84 -7.9,9.91 -11.81,23.04 -11.81,39.38 0,16.56 3.91,29.69 11.72,39.31 7.81,9.66 18.09,14.47 30.75,14.47l0 0z"/>
  </g>
  <g id="_2937732803360">
   <g>
    <polygon id="rect7201_11" class="fil3" points="1950.37,5365.44 3707.69,5365.44 3707.69,3501.78 1950.37,3501.78 "/>
    <polygon id="_1_35" class="fil0 str1" points="1950.37,5365.44 3707.69,5365.44 3707.69,3501.78 1950.37,3501.78 "/>
   </g>
   <g>
    <path class="fil4" d="M2863.06 4714.34l-68.62 0.75 33.62 -62.71 35 61.96 0 0zm-38.34 60.5l-0.72 -65.46 9.37 -0.1 0.72 65.47 -9.37 0.09zm38.94 -5.81l-33.66 62.75 -34.97 -62 68.63 -0.75z"/>
   </g>
   <g>
    <path class="fil8" d="M2863.06 4097.44l-68.62 0.75 33.62 -62.72 35 61.97 0 0zm-38.34 60.53l-0.72 -65.5 9.37 -0.1 0.72 65.47 -9.37 0.13zm38.94 -5.84l-33.66 62.75 -34.97 -62 68.63 -0.75z"/>
   </g>
   <rect id="rect7187_12" class="fil5 str2" x="2038.25" y="4214.87" width="1581.59" height="437.5"/>
   <rect class="fil6 str3" x="2038.25" y="4831.78" width="1581.59" height="437.5"/>
   <g>
    <polygon class="fil11" points="2038.25,3597.97 2038.25,4035.47 3619.84,4035.47 3619.84,3597.97 "/>
    <path id="_1_36" class="fil12" d="M2033.53 4035.47l0 -437.5 9.41 0 0 437.5 -4.69 4.69 -4.72 -4.69zm4.72 4.69l-4.72 0 0 -4.69 4.72 4.69zm1581.59 0l-1581.59 0 0 -9.38 1581.59 0 4.69 4.69 -4.69 4.69zm4.69 -4.69l0 4.69 -4.69 0 4.69 -4.69zm0 -437.5l0 437.5 -9.41 0 0 -437.5 4.72 -4.69 4.69 4.69zm-4.69 -4.69l4.69 0 0 4.69 -4.69 -4.69zm-1581.59 0l1581.59 0 0 9.38 -1581.59 0 -4.72 -4.69 4.72 -4.69zm-4.72 4.69l0 -4.69 4.72 0 -4.72 4.69z"/>
   </g>
   <path id="text7189_13" class="fil10" d="M2328.09 4459.97l0 54.28 -35.93 0 0.12 -164.12 57.09 0c20.44,0 35.85,4.46 46.1,13.4 10.31,8.91 15.47,22.28 15.47,40.03 0,16.88 -5.88,30.47 -17.69,40.88 -11.78,10.37 -27.5,15.53 -47.19,15.53l-17.97 0 0 0zm0 -82.13l0 54.78 14.88 0.13c10.06,0 17.62,-2.34 22.72,-7 5.06,-4.63 7.56,-11.63 7.5,-20.94 0,-8.97 -2.5,-15.72 -7.5,-20.22 -5,-4.53 -12.5,-6.75 -22.5,-6.75l-15.1 0 0 0z"/>
   <path id="_1_37" class="fil10" d="M2507.97 4423.38c-1.5,-0.38 -3.03,-0.66 -4.6,-0.85 -1.56,-0.22 -3.37,-0.28 -5.31,-0.28 -9.56,0 -16.75,3 -21.59,9.06 -4.85,6.1 -7.28,14.5 -7.28,25.22l0 57.72 -35 0 0 -120.06 35 0 0 22.44 0.47 0c2.9,-8.16 7,-14.32 12.31,-18.44 5.31,-4.09 11.75,-6.19 19.41,-6.19 1.81,0 3.56,0.16 5.25,0.41 1.68,0.28 3.46,0.59 5.37,0.97l-4.03 30 0 0z"/>
   <path id="_2_38" class="fil10" d="M2586.16 4517.09c-19.79,0 -35.32,-5.59 -46.69,-16.81 -11.38,-11.25 -17.06,-26.4 -17.06,-45.53 0.06,-19.94 5.97,-35.5 17.71,-46.72 11.75,-11.22 27.66,-16.81 47.75,-16.81 19.75,0 35.22,5.59 46.41,16.78 11.16,11.16 16.75,26.03 16.75,44.69 0,19.84 -5.78,35.5 -17.37,47.06 -11.63,11.56 -27.44,17.34 -47.5,17.34l0 0zm1.25 -26.87c9.31,0 16.31,-3.09 21,-9.31 4.68,-6.16 7.03,-15.35 7.03,-27.57 0,-11.56 -2.38,-20.34 -7.1,-26.25 -4.75,-5.9 -11.78,-8.87 -21.18,-8.87 -9.22,0 -16.41,3.15 -21.47,9.5 -5.13,6.31 -7.72,15.19 -7.72,26.56 0,11.91 2.5,20.85 7.47,26.88 4.97,6.06 12.28,9.06 21.97,9.06z"/>
   <path id="_3_39" class="fil10" d="M2772.91 4506.34c-6.1,3.75 -12.32,6.44 -18.6,8.16 -6.28,1.72 -13.12,2.59 -20.56,2.59 -20,0 -35.56,-5.56 -46.78,-16.65 -11.22,-11.1 -16.85,-25.53 -16.85,-43.31 0,-20.35 6.03,-36.44 18.07,-48.25 11.97,-11.79 27.9,-17.66 47.75,-17.66 7.31,0 13.81,0.72 19.37,2.16 5.63,1.43 11.22,3.75 16.81,6.87l-13.06 23.69c-3.59,-2.03 -7.09,-3.53 -10.53,-4.47 -3.44,-0.91 -7.19,-1.38 -11.22,-1.38 -9.9,0 -17.66,3.22 -23.25,9.63 -5.53,6.41 -8.34,15.44 -8.34,27.03 0,11.12 3,19.81 8.97,26.09 6.03,6.25 13.5,9.38 22.5,9.38 2.65,0 6,-0.56 9.97,-1.69 3.93,-1.09 7.96,-2.87 12,-5.44l13.75 23.25z"/>
   <path id="_4_40" class="fil10" d="M2901.41 4464l-79.03 0c0.56,9.31 3.62,16.25 9,20.81 5.43,4.6 12.93,6.88 22.53,6.88 3.43,0 8.18,-1 14.22,-3.03 6.03,-2.03 11.93,-5.16 17.74,-9.41l15.32 20.22c-8.1,6.09 -16.38,10.59 -24.88,13.41 -8.53,2.81 -17.81,4.22 -27.97,4.22 -19.21,0 -34.15,-5.35 -44.78,-16.13 -10.59,-10.75 -15.94,-25.75 -16,-44.97 0,-19.22 5.63,-34.84 16.88,-46.81 11.25,-11.97 25.5,-17.97 42.78,-17.97 16.5,0 29.72,5.06 39.5,15.15 9.81,10.13 14.69,24.63 14.69,43.57l0 14.06 0 0zm-32.6 -21.87c0,-9.54 -1.84,-16.41 -5.56,-20.66 -3.72,-4.22 -9.13,-6.34 -16.28,-6.34 -6.31,0 -11.81,2.43 -16.38,7.28 -4.56,4.84 -7.37,11.4 -8.34,19.72l46.56 0z"/>
   <path id="_5_41" class="fil10" d="M2914.47 4504.16l14.4 -23.44c4.04,3.12 8.85,5.78 14.38,7.94 5.53,2.18 11.66,3.28 18.37,3.28 5.13,0 9.29,-0.94 12.54,-2.82 3.25,-1.87 4.84,-4.71 4.84,-8.53 0,-3.12 -1.25,-5.56 -3.78,-7.37 -2.5,-1.78 -7.16,-3.44 -13.97,-4.88 -14.87,-3.22 -25.53,-7.65 -32,-13.4 -6.5,-5.69 -9.75,-13.75 -9.75,-24.13 0,-12.03 4.78,-21.66 14.34,-28.84 9.57,-7.19 21.38,-10.75 35.32,-10.75 7.28,0 14.06,0.9 20.43,2.75 6.35,1.84 12.41,4.59 18.13,8.34l-13.19 22.66c-4.78,-3.03 -9.28,-5.25 -13.53,-6.72 -4.22,-1.41 -8.59,-2.1 -13.09,-2.1 -5.28,0 -9.47,1 -12.56,2.97 -3.13,2 -4.75,4.56 -4.75,7.69 0,3.44 1.47,5.97 4.31,7.62 2.87,1.63 8.34,3.29 16.44,4.97 13.78,2.82 23.75,7.22 29.81,13.16 6.03,5.94 9.09,14.03 9.09,24.25 0,12.16 -4.56,21.88 -13.75,29.25 -9.12,7.34 -21.28,11.03 -36.38,11.03 -8.25,0 -16.09,-1.06 -23.59,-3.12 -7.44,-2.13 -14.84,-5.41 -22.06,-9.82l0 0.01z"/>
   <path id="_6_42" class="fil10" d="M3021.81 4504.16l14.41 -23.44c4.03,3.12 8.84,5.78 14.37,7.94 5.53,2.18 11.66,3.28 18.38,3.28 5.12,0 9.28,-0.94 12.53,-2.82 3.25,-1.87 4.84,-4.71 4.84,-8.53 0,-3.12 -1.24,-5.56 -3.78,-7.37 -2.5,-1.78 -7.15,-3.44 -13.96,-4.88 -14.88,-3.22 -25.54,-7.65 -32,-13.4 -6.5,-5.69 -9.75,-13.75 -9.75,-24.13 0,-12.03 4.78,-21.66 14.34,-28.84 9.56,-7.19 21.37,-10.75 35.31,-10.75 7.28,0 14.06,0.9 20.44,2.75 6.34,1.84 12.41,4.59 18.12,8.34l-13.18 22.66c-4.78,-3.03 -9.28,-5.25 -13.53,-6.72 -4.22,-1.41 -8.6,-2.1 -13.1,-2.1 -5.28,0 -9.47,1 -12.56,2.97 -3.12,2 -4.75,4.56 -4.75,7.69 0,3.44 1.47,5.97 4.31,7.62 2.88,1.63 8.35,3.29 16.44,4.97 13.78,2.82 23.75,7.22 29.81,13.16 6.03,5.94 9.1,14.03 9.1,24.25 0,12.16 -4.57,21.88 -13.75,29.25 -9.13,7.34 -21.29,11.03 -36.38,11.03 -8.25,0 -16.09,-1.06 -23.59,-3.12 -7.44,-2.13 -14.85,-5.41 -22.07,-9.82l0 0.01z"/>
   <path id="_7_43" class="fil10" d="M3197 4517.09c-19.75,0 -35.31,-5.59 -46.66,-16.81 -11.37,-11.25 -17.09,-26.4 -17.09,-45.53 0.09,-19.94 6,-35.5 17.75,-46.72 11.75,-11.22 27.66,-16.81 47.72,-16.81 19.78,0 35.25,5.59 46.41,16.78 11.18,11.16 16.78,26.03 16.78,44.69 0,19.84 -5.82,35.5 -17.41,47.06 -11.59,11.56 -27.41,17.34 -47.5,17.34l0 0zm1.25 -26.87c9.34,0 16.34,-3.09 21.03,-9.31 4.69,-6.16 7.03,-15.35 7.03,-27.57 0,-11.56 -2.37,-20.34 -7.12,-26.25 -4.72,-5.9 -11.75,-8.87 -21.16,-8.87 -9.22,0 -16.41,3.15 -21.5,9.5 -5.09,6.31 -7.69,15.19 -7.69,26.56 0,11.91 2.5,20.85 7.47,26.88 4.97,6.06 12.25,9.06 21.94,9.06z"/>
   <path id="_8_44" class="fil10" d="M3361.91 4423.38c-1.53,-0.38 -3.07,-0.66 -4.63,-0.85 -1.56,-0.22 -3.34,-0.28 -5.31,-0.28 -9.56,0 -16.75,3 -21.6,9.06 -4.84,6.1 -7.28,14.5 -7.28,25.22l0 57.72 -35 0 0 -120.06 35 0 0 22.44 0.47 0c2.91,-8.16 7,-14.32 12.32,-18.44 5.31,-4.09 11.74,-6.19 19.4,-6.19 1.81,0 3.56,0.16 5.25,0.41 1.69,0.28 3.47,0.59 5.38,0.97l-4 30 0 0z"/>
   <path id="text7195_14" class="fil7" d="M2545.22 5104.47l-35.41 0 0 -98.97c0,-5.19 0.13,-10.72 0.38,-16.56 0.22,-5.82 0.56,-11.97 1,-18.38l-0.91 0c-0.97,4.97 -1.87,9.22 -2.68,12.78 -0.78,3.56 -1.57,6.38 -2.35,8.53l-39.68 112.6 -28.75 0 -40.29 -111.47c-0.53,-1.53 -1.25,-4.16 -2.09,-7.91 -0.91,-3.69 -1.91,-8.53 -3.06,-14.53l-1 0c0.5,7.75 0.87,15.09 1.12,22.13 0.22,7 0.35,13.59 0.35,19.81l0 91.97 -32.38 0 0 -164.1 52.31 0 34.66 98.41c1.34,3.66 2.53,7.25 3.41,10.81 0.93,3.56 1.75,7.13 2.43,10.72l0.66 0c1.19,-4.13 2.28,-8.03 3.34,-11.69 1.07,-3.62 2.16,-7 3.32,-10.09l34.78 -98.16 50.84 0 0 164.1 0 0z"/>
   <path id="_1_45" class="fil7" d="M2688.44 5054.25l-79.03 0c0.56,9.28 3.62,16.25 9,20.81 5.43,4.57 12.93,6.88 22.56,6.88 3.4,0 8.16,-1 14.19,-3.03 6.03,-2.03 11.93,-5.16 17.75,-9.44l15.31 20.25c-8.1,6.09 -16.38,10.59 -24.88,13.41 -8.53,2.81 -17.81,4.22 -27.97,4.22 -19.21,0 -34.15,-5.38 -44.78,-16.16 -10.56,-10.72 -15.93,-25.72 -16,-44.94 0,-19.22 5.63,-34.84 16.88,-46.81 11.25,-12 25.5,-17.97 42.78,-17.97 16.5,0 29.72,5.03 39.53,15.16 9.78,10.12 14.66,24.62 14.66,43.56l0 14.06zm-32.6 -21.87c0,-9.54 -1.84,-16.41 -5.56,-20.66 -3.69,-4.22 -9.12,-6.34 -16.28,-6.34 -6.31,0 -11.78,2.43 -16.38,7.28 -4.56,4.84 -7.37,11.4 -8.34,19.72l46.56 0z"/>
   <path id="_2_46" class="fil7" d="M2901.06 5104.47l-34.87 0 0 -68.53c0,-9.32 -1.69,-16.22 -5,-20.72 -3.32,-4.5 -8.35,-6.75 -15.16,-6.75 -6.31,0 -11.53,2.72 -15.59,8.25 -4,5.5 -6.03,12.28 -6.03,20.47l0 67.28 -35 0 0 -69.44c0,-8.94 -1.69,-15.59 -5,-20 -3.35,-4.37 -8.25,-6.56 -14.81,-6.56 -6.66,0 -11.97,2.63 -15.91,7.84 -3.97,5.19 -5.97,12.32 -5.97,21.22l0 66.94 -35 0 0 -120.03 35 0 0 18.75 0.47 0c3.91,-6.56 9.25,-11.85 16.09,-15.78 6.78,-3.97 14.35,-5.94 22.57,-5.94 8.5,0 15.62,1.88 21.4,5.72 5.85,3.81 10.25,9.44 13.28,16.94 4.6,-7.57 10.25,-13.25 16.97,-17 6.69,-3.78 14.5,-5.66 23.31,-5.66 13.13,0 22.97,4.03 29.51,12.13 6.53,8.06 9.75,20.18 9.75,36.28l0 74.59 -0.01 0z"/>
   <path id="_3_47" class="fil7" d="M2989.09 5107.34c-19.78,0 -35.34,-5.59 -46.68,-16.81 -11.38,-11.25 -17.07,-26.4 -17.07,-45.53 0.07,-19.94 5.97,-35.53 17.72,-46.72 11.75,-11.22 27.66,-16.81 47.72,-16.81 19.78,0 35.25,5.59 46.41,16.75 11.19,11.19 16.78,26.06 16.78,44.69 0,19.84 -5.78,35.53 -17.38,47.09 -11.62,11.56 -27.43,17.34 -47.5,17.34l0 0zm1.22 -26.87c9.35,0 16.35,-3.09 21.03,-9.31 4.69,-6.16 7.03,-15.35 7.03,-27.57 0,-11.56 -2.37,-20.37 -7.09,-26.25 -4.75,-5.9 -11.78,-8.87 -21.19,-8.87 -9.22,0 -16.4,3.15 -21.47,9.5 -5.12,6.31 -7.71,15.19 -7.71,26.56 0,11.91 2.5,20.85 7.46,26.88 4.97,6.03 12.29,9.06 21.94,9.06z"/>
   <path id="_4_48" class="fil7" d="M3153.97 5013.63c-1.53,-0.41 -3.06,-0.66 -4.63,-0.88 -1.56,-0.19 -3.34,-0.25 -5.31,-0.25 -9.56,0 -16.75,3 -21.59,9.06 -4.85,6.1 -7.25,14.47 -7.25,25.22l0 57.69 -35 0 0 -120.03 35 0 0 22.44 0.47 0c2.87,-8.19 6.96,-14.32 12.28,-18.44 5.31,-4.13 11.78,-6.19 19.4,-6.19 1.82,0 3.57,0.16 5.25,0.41 1.69,0.25 3.47,0.56 5.41,0.97l-4.03 30z"/>
   <path id="_5_49" class="fil7" d="M3298.62 4984.44l-53.87 142.03c-4.16,10.91 -10.28,19.34 -18.41,25.28 -8.12,5.94 -17.84,8.91 -29.22,8.91 -3.59,0 -7.12,-0.19 -10.59,-0.63 -3.47,-0.4 -6.78,-1.03 -10,-1.87l6.06 -25.97c1.85,0.69 3.63,1.15 5.44,1.47 1.78,0.31 3.75,0.47 5.88,0.47 3.81,0 7.21,-0.97 10.12,-2.85 2.94,-1.9 5.31,-4.97 7.16,-9.19l7.56 -17.84 -48.53 -119.81 38.69 0 23.56 75.28c0.72,2.06 1.28,4.37 1.84,6.87 0.56,2.54 0.97,5.32 1.38,8.35l0.47 0c0.37,-2.19 0.84,-4.53 1.47,-6.97 0.62,-2.44 1.37,-5.1 2.31,-8.03l23.9 -75.5 34.79 0 -0.01 0z"/>
   <polygon id="text7189_15" class="fil10" points="2699.28,3897.34 2663.47,3897.34 2663.47,3733.22 2699.28,3733.22 "/>
   <polygon id="_1_50" class="fil10" points="2827.09,3733.22 2747.22,3924.34 2716.09,3924.34 2795.62,3733.22 "/>
   <path id="_2_51" class="fil10" d="M2913.72 3900.19c-23.5,0 -42.63,-7.66 -57.41,-22.94 -14.75,-15.31 -22.12,-35.22 -22.12,-59.78 0,-25.94 7.5,-46.94 22.5,-62.94 14.93,-16.03 34.87,-24.03 59.68,-24.03 23.32,0 42.22,7.66 56.63,22.97 14.4,15.34 21.59,35.59 21.59,60.66 0,25.78 -7.4,46.59 -22.34,62.4 -14.91,15.78 -34.44,23.66 -58.53,23.66l0 0zm0.56 -30.91c13.13,0 23.53,-4.69 31.19,-14.06 7.65,-9.38 11.53,-22.38 11.53,-39.03 0,-17.35 -3.75,-30.81 -11.19,-40.44 -7.41,-9.66 -17.62,-14.47 -30.5,-14.47 -13.28,0 -23.84,4.97 -31.69,14.85 -7.87,9.93 -11.78,23.06 -11.78,39.37 0,16.56 3.91,29.69 11.72,39.35 7.81,9.62 18.06,14.43 30.72,14.43l0 0z"/>
  </g>
  <g id="_2937732811616">
   <g>
    <polygon id="rect7201_16" class="fil3" points="8318.28,2520.59 10075.59,2520.59 10075.59,656.94 8318.28,656.94 "/>
    <polygon id="_1_52" class="fil0 str1" points="8318.28,2520.59 10075.59,2520.59 10075.59,656.94 8318.28,656.94 "/>
   </g>
   <g>
    <path class="fil4" d="M9230.94 1869.53l-68.63 0.72 33.66 -62.72 34.97 62zm-38.35 60.5l-0.72 -65.5 9.38 -0.09 0.72 65.47 -9.38 0.12zm38.94 -5.84l-33.62 62.75 -34.97 -62 68.59 -0.75z"/>
   </g>
   <g>
    <path class="fil8" d="M9230.94 1252.63l-68.63 0.75 33.66 -62.75 34.97 62zm-38.35 60.49l-0.72 -65.5 9.38 -0.09 0.72 65.47 -9.38 0.12zm38.94 -5.84l-33.62 62.75 -34.97 -62 68.59 -0.75z"/>
   </g>
   <rect id="rect7187_17" class="fil5 str2" x="8406.13" y="1370.03" width="1581.59" height="437.5"/>
   <rect class="fil6 str3" x="8406.13" y="1986.94" width="1581.59" height="437.5"/>
   <g>
    <polygon class="fil11" points="8406.13,753.13 8406.13,1190.62 9987.72,1190.62 9987.72,753.13 "/>
    <path id="_1_53" class="fil12" d="M8401.44 1190.62l0 -437.5 9.4 0 0 437.5 -4.71 4.69 -4.69 -4.69zm4.69 4.69l-4.69 0 0 -4.69 4.69 4.69zm1581.59 0l-1581.6 0 0 -9.37 1581.6 0 4.72 4.68 -4.72 4.69zm4.72 -4.69l0 4.69 -4.72 0 4.72 -4.69zm0 -437.49l0 437.5 -9.41 0 0 -437.5 4.69 -4.69 4.72 4.69zm-4.72 -4.69l4.72 0 0 4.69 -4.72 -4.69zm-1581.59 0l1581.59 0 0 9.37 -1581.59 0 -4.69 -4.68 4.69 -4.69zm-4.69 4.69l0 -4.69 4.69 0 -4.69 4.69z"/>
   </g>
   <path id="text7189_18" class="fil10" d="M8696 1615.16l0 54.25 -35.94 0 0.1 -164.1 57.12 0c20.44,0 35.81,4.44 46.09,13.38 10.32,8.9 15.47,22.28 15.47,40.06 0,16.88 -5.9,30.47 -17.68,40.84 -11.82,10.41 -27.5,15.57 -47.19,15.57l-17.97 0zm0 -82.16l0 54.81 14.87 0.1c10.04,0 17.63,-2.35 22.69,-6.97 5.1,-4.66 7.6,-11.66 7.5,-20.94 0,-9 -2.5,-15.75 -7.5,-20.25 -5,-4.53 -12.5,-6.75 -22.5,-6.75l-15.06 0z"/>
   <path id="_1_54" class="fil10" d="M8875.87 1578.53c-1.53,-0.37 -3.03,-0.66 -4.59,-0.84 -1.56,-0.19 -3.37,-0.28 -5.31,-0.28 -9.6,0 -16.78,3 -21.63,9.06 -4.84,6.09 -7.25,14.5 -7.25,25.25l0 57.69 -34.99 0 0 -120.03 34.99 0 0 22.4 0.47 0c2.88,-8.15 7,-14.28 12.32,-18.43 5.31,-4.1 11.75,-6.16 19.4,-6.16 1.78,0 3.57,0.16 5.22,0.38 1.69,0.28 3.5,0.59 5.41,0.96l-4.03 30 -0.01 0z"/>
   <path id="_2_55" class="fil10" d="M8954.03 1672.25c-19.75,0 -35.31,-5.59 -46.66,-16.78 -11.37,-11.25 -17.09,-26.41 -17.09,-45.56 0.09,-19.91 6,-35.5 17.75,-46.72 11.75,-11.22 27.66,-16.78 47.72,-16.78 19.78,0 35.25,5.56 46.41,16.75 11.18,11.15 16.78,26.06 16.78,44.68 0,19.85 -5.82,35.5 -17.41,47.07 -11.59,11.56 -27.41,17.34 -47.5,17.34zm1.25 -26.88c9.35,0 16.35,-3.09 21.03,-9.28 4.69,-6.18 7.03,-15.37 7.03,-27.59 0,-11.56 -2.37,-20.34 -7.12,-26.25 -4.72,-5.91 -11.75,-8.88 -21.16,-8.88 -9.22,0 -16.4,3.19 -21.5,9.5 -5.09,6.35 -7.69,15.19 -7.69,26.57 0,11.9 2.5,20.87 7.47,26.87 4.97,6.06 12.25,9.06 21.94,9.06z"/>
   <path id="_3_56" class="fil10" d="M9140.81 1661.5c-6.09,3.75 -12.31,6.47 -18.59,8.19 -6.31,1.72 -13.13,2.56 -20.56,2.56 -20,0 -35.6,-5.53 -46.82,-16.62 -11.18,-11.1 -16.81,-25.57 -16.81,-43.35 0,-20.34 6,-36.44 18.03,-48.22 12,-11.81 27.94,-17.65 47.78,-17.65 7.31,0 13.78,0.68 19.38,2.12 5.62,1.47 11.22,3.75 16.81,6.88l-13.06 23.68c-3.6,-2.03 -7.1,-3.53 -10.53,-4.47 -3.47,-0.87 -7.22,-1.34 -11.22,-1.34 -9.94,0 -17.66,3.19 -23.25,9.59 -5.57,6.41 -8.38,15.44 -8.38,27.04 0,11.12 3.03,19.81 9,26.09 6,6.25 13.47,9.37 22.5,9.37 2.66,0 5.97,-0.53 9.97,-1.68 3.94,-1.1 7.97,-2.88 11.97,-5.41l13.78 23.22 0 0z"/>
   <path id="_4_57" class="fil10" d="M9269.31 1619.16l-79.06 0c0.59,9.31 3.63,16.25 9.03,20.84 5.44,4.56 12.94,6.88 22.53,6.88 3.44,0 8.16,-1.04 14.22,-3.07 6.03,-2.03 11.91,-5.15 17.75,-9.4l15.31 20.22c-8.09,6.09 -16.37,10.59 -24.9,13.4 -8.5,2.82 -17.81,4.22 -27.97,4.22 -19.22,0 -34.13,-5.34 -44.75,-16.12 -10.59,-10.75 -15.94,-25.75 -16.03,-44.97 0,-19.22 5.62,-34.85 16.87,-46.78 11.25,-12 25.53,-17.97 42.78,-17.97 16.54,0 29.72,5.03 39.54,15.15 9.81,10.1 14.68,24.6 14.68,43.53l0 14.07 0 0zm-32.62 -21.88c0,-9.53 -1.82,-16.41 -5.53,-20.65 -3.72,-4.22 -9.16,-6.32 -16.28,-6.32 -6.35,0 -11.82,2.41 -16.38,7.25 -4.56,4.85 -7.37,11.41 -8.37,19.72l46.56 0 0 0z"/>
   <path id="_5_58" class="fil10" d="M9282.38 1659.31l14.4 -23.44c4.03,3.13 8.81,5.79 14.38,7.94 5.5,2.19 11.62,3.28 18.34,3.28 5.12,0 9.31,-0.94 12.56,-2.81 3.22,-1.88 4.85,-4.72 4.85,-8.5 0,-3.13 -1.25,-5.59 -3.82,-7.41 -2.5,-1.78 -7.12,-3.43 -13.93,-4.87 -14.88,-3.19 -25.53,-7.66 -32.04,-13.41 -6.46,-5.69 -9.71,-13.75 -9.71,-24.12 0,-12.04 4.75,-21.66 14.34,-28.85 9.56,-7.19 21.34,-10.72 35.31,-10.72 7.25,0 14.06,0.88 20.41,2.72 6.37,1.85 12.43,4.63 18.12,8.38l-13.15 22.65c-4.82,-3.06 -9.29,-5.28 -13.57,-6.72 -4.22,-1.4 -8.59,-2.12 -13.06,-2.12 -5.28,0 -9.47,1.03 -12.59,2.97 -3.13,2 -4.72,4.56 -4.72,7.69 0,3.43 1.44,6 4.28,7.62 2.91,1.66 8.37,3.28 16.47,4.97 13.78,2.81 23.75,7.22 29.78,13.16 6.06,5.93 9.13,14.03 9.13,24.25 0,12.15 -4.6,21.87 -13.76,29.28 -9.15,7.34 -21.31,11 -36.37,11 -8.25,0 -16.09,-1.07 -23.59,-3.13 -7.47,-2.09 -14.85,-5.37 -22.07,-9.81l0.01 0z"/>
   <path id="_6_59" class="fil10" d="M9389.72 1659.31l14.41 -23.44c4.03,3.13 8.81,5.79 14.37,7.94 5.5,2.19 11.63,3.28 18.34,3.28 5.13,0 9.32,-0.94 12.57,-2.81 3.22,-1.88 4.84,-4.72 4.84,-8.5 0,-3.13 -1.25,-5.59 -3.81,-7.41 -2.5,-1.78 -7.13,-3.43 -13.94,-4.87 -14.87,-3.19 -25.53,-7.66 -32.03,-13.41 -6.47,-5.69 -9.72,-13.75 -9.72,-24.12 0,-12.04 4.75,-21.66 14.34,-28.85 9.57,-7.19 21.35,-10.72 35.32,-10.72 7.25,0 14.06,0.88 20.4,2.72 6.38,1.85 12.44,4.63 18.13,8.38l-13.16 22.65c-4.81,-3.06 -9.28,-5.28 -13.56,-6.72 -4.22,-1.4 -8.6,-2.12 -13.07,-2.12 -5.28,0 -9.46,1.03 -12.59,2.97 -3.12,2 -4.72,4.56 -4.72,7.69 0,3.43 1.44,6 4.28,7.62 2.91,1.66 8.38,3.28 16.47,4.97 13.78,2.81 23.75,7.22 29.78,13.16 6.07,5.93 9.13,14.03 9.13,24.25 0,12.15 -4.59,21.87 -13.75,29.28 -9.16,7.34 -21.31,11 -36.38,11 -8.25,0 -16.09,-1.07 -23.59,-3.13 -7.47,-2.09 -14.84,-5.37 -22.06,-9.81l0 0z"/>
   <path id="_7_60" class="fil10" d="M9564.91 1672.25c-19.78,0 -35.32,-5.59 -46.69,-16.78 -11.38,-11.25 -17.06,-26.41 -17.06,-45.56 0.06,-19.91 5.97,-35.5 17.72,-46.72 11.78,-11.22 27.65,-16.78 47.75,-16.78 19.75,0 35.21,5.56 46.4,16.75 11.16,11.15 16.75,26.06 16.75,44.68 0,19.85 -5.78,35.5 -17.37,47.07 -11.6,11.56 -27.44,17.34 -47.5,17.34zm1.25 -26.88c9.34,0 16.31,-3.09 21,-9.28 4.68,-6.18 7.03,-15.37 7.03,-27.59 0,-11.56 -2.38,-20.34 -7.1,-26.25 -4.71,-5.91 -11.75,-8.88 -21.18,-8.88 -9.22,0 -16.41,3.19 -21.47,9.5 -5.13,6.35 -7.69,15.19 -7.69,26.57 0,11.9 2.5,20.87 7.44,26.87 4.97,6.06 12.28,9.06 21.96,9.06l0.01 0z"/>
   <path id="_8_61" class="fil10" d="M9729.78 1578.53c-1.53,-0.37 -3.03,-0.66 -4.59,-0.84 -1.56,-0.19 -3.38,-0.28 -5.31,-0.28 -9.6,0 -16.79,3 -21.63,9.06 -4.84,6.09 -7.25,14.5 -7.25,25.25l0 57.69 -35 0 0 -120.03 35 0 0 22.4 0.47 0c2.87,-8.15 7,-14.28 12.31,-18.43 5.32,-4.1 11.75,-6.16 19.41,-6.16 1.78,0 3.56,0.16 5.22,0.38 1.69,0.28 3.5,0.59 5.4,0.96l-4.03 30 0 0z"/>
   <path id="text7195_19" class="fil7" d="M8913.09 2259.66l-35.37 0 0 -99c0,-5.19 0.12,-10.69 0.34,-16.57 0.25,-5.81 0.6,-11.93 1.03,-18.34l-0.9 0c-0.97,4.94 -1.88,9.22 -2.69,12.75 -0.78,3.56 -1.56,6.38 -2.34,8.53l-39.69 112.63 -28.75 0 -40.28 -111.5c-0.56,-1.53 -1.25,-4.13 -2.13,-7.88 -0.87,-3.72 -1.9,-8.56 -3.03,-14.53l-1.03 0c0.53,7.72 0.91,15.06 1.16,22.09 0.22,7 0.34,13.6 0.34,19.82l0 92 -32.37 0 0 -164.13 52.28 0 34.65 98.41c1.38,3.69 2.53,7.28 3.44,10.81 0.94,3.56 1.72,7.13 2.44,10.72l0.66 0c1.15,-4.09 2.25,-8 3.31,-11.69 1.09,-3.62 2.19,-7 3.31,-10.06l34.81 -98.19 50.82 0 0 164.13 -0.01 0z"/>
   <path id="_1_62" class="fil7" d="M9056.34 2209.41l-79.06 0c0.59,9.31 3.63,16.25 9.03,20.81 5.44,4.59 12.94,6.87 22.53,6.87 3.44,0 8.16,-1 14.22,-3.03 6.03,-2.03 11.91,-5.15 17.75,-9.4l15.31 20.22c-8.09,6.09 -16.37,10.59 -24.9,13.4 -8.5,2.82 -17.81,4.22 -27.97,4.22 -19.22,0 -34.13,-5.34 -44.75,-16.12 -10.59,-10.75 -15.94,-25.75 -16.03,-44.97 0,-19.22 5.62,-34.85 16.87,-46.82 11.25,-11.97 25.54,-17.97 42.79,-17.97 16.53,0 29.71,5.07 39.53,15.16 9.81,10.13 14.68,24.63 14.68,43.56l0 14.07 0 0zm-32.62 -21.88c0,-9.53 -1.81,-16.41 -5.53,-20.65 -3.72,-4.22 -9.16,-6.35 -16.28,-6.35 -6.35,0 -11.82,2.44 -16.38,7.28 -4.56,4.85 -7.37,11.41 -8.37,19.72l46.56 0z"/>
   <path id="_2_63" class="fil7" d="M9268.97 2259.66l-34.88 0 0 -68.57c0,-9.31 -1.68,-16.22 -5,-20.72 -3.34,-4.46 -8.37,-6.75 -15.15,-6.75 -6.35,0 -11.53,2.75 -15.6,8.25 -4.03,5.51 -6.06,12.32 -6.06,20.47l0 67.32 -35 0 0 -69.47c0,-8.94 -1.69,-15.6 -5,-20 -3.31,-4.38 -8.25,-6.57 -14.81,-6.57 -6.62,0 -11.94,2.63 -15.87,7.85 -4.01,5.22 -6,12.31 -6,21.22l0 66.97 -35 0 0 -120.07 35 0 0 18.75 0.46 0c3.91,-6.56 9.29,-11.81 16.1,-15.78 6.81,-3.97 14.34,-5.94 22.59,-5.94 8.47,0 15.63,1.88 21.41,5.72 5.81,3.82 10.22,9.44 13.28,16.94 4.56,-7.56 10.22,-13.22 16.94,-16.97 6.68,-3.81 14.5,-5.69 23.34,-5.69 13.12,0 22.97,4.04 29.47,12.13 6.53,8.09 9.78,20.19 9.78,36.28l0 74.63 0 0z"/>
   <path id="_3_64" class="fil7" d="M9356.97 2262.5c-19.75,0 -35.31,-5.59 -46.69,-16.81 -11.34,-11.25 -17.06,-26.41 -17.06,-45.53 0.09,-19.94 5.97,-35.51 17.75,-46.72 11.75,-11.22 27.66,-16.82 47.72,-16.82 19.78,0 35.25,5.6 46.4,16.78 11.19,11.16 16.75,26.04 16.75,44.69 0,19.85 -5.78,35.5 -17.37,47.06 -11.59,11.57 -27.41,17.35 -47.5,17.35l0 0zm1.25 -26.88c9.34,0 16.34,-3.09 21.03,-9.31 4.69,-6.15 7.03,-15.34 7.03,-27.56 0,-11.56 -2.4,-20.34 -7.12,-26.25 -4.72,-5.91 -11.75,-8.88 -21.16,-8.88 -9.22,0 -16.41,3.16 -21.5,9.5 -5.12,6.32 -7.69,15.19 -7.69,26.57 0,11.9 2.5,20.84 7.47,26.87 4.94,6.06 12.25,9.06 21.94,9.06z"/>
   <path id="_4_65" class="fil7" d="M9521.84 2168.78c-1.5,-0.37 -3.03,-0.66 -4.59,-0.84 -1.56,-0.22 -3.38,-0.28 -5.31,-0.28 -9.56,0 -16.75,3 -21.6,9.06 -4.84,6.09 -7.28,14.5 -7.28,25.22l0 57.72 -35 0 0 -120.06 35 0 0 22.43 0.47 0c2.91,-8.15 7,-14.31 12.31,-18.43 5.32,-4.1 11.75,-6.19 19.41,-6.19 1.81,0 3.56,0.15 5.25,0.4 1.66,0.29 3.47,0.6 5.38,0.97l-4.04 30 0 0z"/>
   <path id="_5_66" class="fil7" d="M9666.5 2139.59l-53.87 142.04c-4.13,10.9 -10.25,19.34 -18.38,25.28 -8.12,5.93 -17.87,8.9 -29.22,8.9 -3.59,0 -7.13,-0.18 -10.59,-0.62 -3.47,-0.38 -6.82,-1 -10,-1.88l6.06 -25.97c1.81,0.69 3.62,1.16 5.41,1.47 1.81,0.32 3.75,0.47 5.9,0.47 3.78,0 7.19,-0.97 10.13,-2.84 2.94,-1.91 5.31,-4.97 7.15,-9.19l7.57 -17.84 -48.57 -119.82 38.72 0 23.57 75.29c0.68,2.06 1.28,4.37 1.84,6.87 0.53,2.53 0.97,5.31 1.34,8.38l0.47 0c0.41,-2.19 0.88,-4.53 1.5,-7 0.63,-2.44 1.38,-5.1 2.32,-8l23.9 -75.54 34.75 0 0 0z"/>
   <polygon id="text7189_20" class="fil10" points="9067.19,1052.5 9031.38,1052.5 9031.38,888.41 9067.19,888.41 "/>
   <polygon id="_1_67" class="fil10" points="9195,888.41 9115.12,1079.5 9083.97,1079.5 9163.53,888.41 "/>
   <path id="_2_68" class="fil10" d="M9281.59 1055.34c-23.46,0 -42.59,-7.65 -57.37,-22.93 -14.75,-15.32 -22.16,-35.22 -22.16,-59.79 0,-25.93 7.5,-46.93 22.5,-62.93 14.97,-16.03 34.88,-24.03 59.69,-24.03 23.31,0 42.22,7.65 56.66,22.97 14.4,15.34 21.59,35.59 21.59,60.65 0,25.78 -7.44,46.63 -22.34,62.41 -14.91,15.78 -34.47,23.65 -58.57,23.65l0 0zm0.6 -30.9c13.12,0 23.5,-4.69 31.15,-14.06 7.69,-9.38 11.53,-22.38 11.53,-39 0,-17.35 -3.75,-30.85 -11.15,-40.47 -7.44,-9.66 -17.63,-14.47 -30.53,-14.47 -13.25,0 -23.82,4.97 -31.66,14.84 -7.91,9.94 -11.81,23.06 -11.81,39.38 0,16.56 3.9,29.68 11.72,39.34 7.81,9.66 18.09,14.44 30.75,14.44l0 0z"/>
  </g>
  <g id="_2937732824240">
   <path class="fil5" d="M4451.69 1847.56l-244.91 -304.37 -1143.5 0 -244.94 304.37 1633.35 0 0 0zm-86.81 -1361.12l-1459.69 0 0 965.22 1459.69 0 0 -965.22z"/>
   <polygon class="fil13" points="4213.69,617.59 3056.41,617.59 3056.41,1329.25 4213.69,1329.25 "/>
   <path class="fil14" d="M4169.44 1666.69l-72.53 0 40.56 44.72 78.37 0 -46.4 -44.72zm-82.03 -79.47l-62.41 0 43.66 48.09 68.53 0 -49.78 -48.09zm-29.54 79.47l-72.49 0 31.96 44.72 78.03 0 -37.5 -44.72zm-66.65 -79.47l-62.41 0 34.13 48.09 68.84 0 -40.56 -48.09 0 0zm-44.88 79.47l-72.84 0 23.38 44.72 78.34 0 -28.88 -44.72zm-51 -79.47l-62.72 0 25.22 49.03 68.85 0 -31.35 -49.03zm-60.87 79.47l-72.53 0 14.47 44.72 78.34 0 -20.28 -44.72zm-34.1 -76.13l-63 0 14.75 45.69 68.85 0 -20.6 -45.69zm-77.43 76.13l-72.53 0 5.84 44.72 78.03 0 -11.34 -44.72zm-18.44 -72.16l-63.31 0 5.53 44.75 69.12 0 -11.34 -44.75zm-97.44 0l-63.59 0 -3.1 44.75 69.16 0 -2.47 -44.75zm4.31 72.16l-72.53 0 -3.06 44.72 78.06 0 -2.47 -44.72zm-102.03 -72.16l-63.28 0 -11.68 44.75 68.81 0 6.15 -44.75zm-9.84 72.16l-72.5 0 -11.69 44.72 78.38 0 5.81 -44.72 0 0zm398.28 73.34l-512.28 0 -13.22 44.75 547.63 0 -22.13 -44.75zm-485.84 -145.5l-63.63 0 -20.28 44.75 69.16 0 14.75 -44.75zm-23.97 72.16l-72.53 0 -20.6 44.72 78.38 0 14.75 -44.72zm-73.75 -72.16l-63.31 0 -29.19 44.75 69.12 0 23.38 -44.75zm-37.81 72.16l-72.53 0 -29.19 44.72 78.06 0 23.66 -44.72zm-59.91 -72.16l-63.31 0 -37.82 44.75 69.16 0 31.97 -44.75 0 0zm-51.94 72.16l-72.53 0 -37.81 44.72 78.37 0 31.97 -44.72z"/>
   <path class="fil15" d="M3461.72 984.91c0,28.53 -6.63,49.93 -19.88,64.15 -13.25,14.22 -33.15,21.32 -59.75,21.32 -25.68,0 -45,-6.94 -57.9,-20.79 -12.88,-13.87 -19.28,-34.84 -19.19,-62.93l-0.12 -110.19 41.87 0 0 110.84c0,15.69 3.09,27.47 9.22,35.35 6.16,7.87 15.47,11.81 27.84,11.81 12.16,0 21.19,-3.75 27.19,-11.31 5.97,-7.6 9.03,-19.04 9.13,-34.29l-0.16 -112.4 41.75 0 0 108.43 0 0.01z"/>
   <path id="_1_69" class="fil15" d="M3676.41 1067.06l-42.29 0 -79.9 -121.9c-2.22,-3.44 -4.06,-6.44 -5.63,-9.03 -1.53,-2.54 -2.75,-4.79 -3.65,-6.63l-0.57 0c0.38,3.34 0.66,7.56 0.82,12.69 0.18,5.09 0.28,11.03 0.28,17.87l0 107 -39.35 0 0 -190.59 45.19 0 76.97 118.28c1.66,2.56 3.34,5.16 4.97,7.78 1.66,2.6 3.16,5.1 4.47,7.5l0.53 0c-0.38,-2.22 -0.62,-5.5 -0.81,-9.9 -0.19,-4.38 -0.28,-9.79 -0.28,-16.29l0 -107.37 39.25 0 0 190.59 0 0z"/>
   <polygon id="_2_70" class="fil15" points="3764.66,1067.06 3723.06,1067.06 3723.06,876.47 3764.66,876.47 "/>
   <path id="_3_71" class="fil15" d="M3965.19 1067.06l-49.44 0 -33.5 -62.75c-0.72,-1.12 -1.34,-2.78 -2,-4.9 -0.62,-2.13 -1.25,-4.72 -2,-7.72l-0.53 0c-0.31,1.4 -0.88,3.22 -1.59,5.47 -0.69,2.22 -1.63,4.71 -2.75,7.56l-33.78 62.34 -49.57 0 61 -95.31 -55.84 -95.28 50.63 0 28.06 57.78c1.06,2.25 2.06,4.69 2.97,7.31 0.97,2.69 1.87,5.53 2.72,8.66l0.56 0c0.62,-1.94 1.44,-4.28 2.44,-7.03 1.06,-2.75 2.28,-5.88 3.68,-9.44l31 -57.28 46.35 0 -57.44 94.5 59.03 96.09 0 0z"/>
  </g>
  <g id="_2937732825488">
   <path class="fil12" d="M3669.34 1909.94l-68.62 0 34.31 -62.38 34.31 62.38 0 0zm-39 859l0 -864.41 9.38 0 0 864.41 -4.69 4.69 -4.69 -4.69zm4.69 4.69l-4.69 0 0 -4.69 4.69 4.69zm719.63 0l-719.63 0 0 -9.38 719.63 0 0 9.38zm-5.41 -39l62.34 34.31 -62.34 34.31 0 -68.63 0 0.01z"/>
  </g>
  <g id="_2937732826448">
   <path class="fil15" d="M4439.13 928.19l0 81.72 -74.25 -40.85 74.25 -40.87zm601.9 48.68l-608.34 0 0 -15.65 608.34 0 7.81 7.84 -7.81 7.81zm0 -15.65l7.81 0 0 7.84 -7.81 -7.84zm-7.81 1613.25l0 -1605.41 15.62 0 0 1605.41 -15.62 0zm48.62 -6.44l-40.81 74.25 -40.84 -74.25 81.65 0z"/>
  </g>
 </g>
</svg>
