<?xml version="1.0" encoding="UTF-8"?>
<!DOCTYPE svg PUBLIC "-//W3C//DTD SVG 1.1//EN" "http://www.w3.org/Graphics/SVG/1.1/DTD/svg11.dtd">
<!-- Creator: CorelDRAW -->
<svg xmlns="http://www.w3.org/2000/svg" xml:space="preserve" width="12250px" height="8498px" version="1.1" style="shape-rendering:geometricPrecision; text-rendering:geometricPrecision; image-rendering:optimizeQuality; fill-rule:evenodd; clip-rule:evenodd"
viewBox="0 0 12250 8498.1"
 xmlns:xlink="http://www.w3.org/1999/xlink"
 xmlns:xodm="http://www.corel.com/coreldraw/odm/2003">
 <defs>
  <style type="text/css">
   <![CDATA[
    .str2 {stroke:maroon;stroke-width:9.38;stroke-miterlimit:22.9256}
    .str1 {stroke:#333333;stroke-width:9.38;stroke-linecap:round;stroke-miterlimit:22.9256}
    .str0 {stroke:#999999;stroke-width:9.38;stroke-linecap:round;stroke-miterlimit:22.9256;stroke-dasharray:46.870000 46.870000}
    .fil0 {fill:none}
    .fil7 {fill:#333333}
    .fil3 {fill:#4D4D4D}
    .fil4 {fill:#D90011}
    .fil9 {fill:#F5643D}
    .fil13 {fill:#373435;fill-rule:nonzero}
    .fil5 {fill:black;fill-rule:nonzero}
    .fil11 {fill:#008B3B;fill-rule:nonzero}
    .fil6 {fill:#333333;fill-rule:nonzero}
    .fil2 {fill:#666666;fill-rule:nonzero}
    .fil12 {fill:#B3B3B3;fill-rule:nonzero}
    .fil10 {fill:#FF6600;fill-rule:nonzero}
    .fil14 {fill:#FF6600;fill-rule:nonzero}
    .fil8 {fill:white;fill-rule:nonzero}
    .fil1 {fill:navy;fill-opacity:0.501961}
   ]]>
  </style>
 </defs>
 <g id="Capa_x0020_1">
  <metadata id="CorelCorpID_0Corel-Layer"/>
  <rect class="fil0" width="12250" height="8498.1"/>
  <g id="_2937723247040">
   <g>
    <polygon id="rect7201" class="fil1" points="8542.28,6681.73 10299.63,6681.73 10299.63,4818.08 8542.28,4818.08 "/>
    <polygon id="_1" class="fil0 str0" points="8542.28,6681.73 10299.63,6681.73 10299.63,4818.08 8542.28,4818.08 "/>
   </g>
   <g>
    <path class="fil2" d="M9454.97 6030.64l-68.63 0.75 33.63 -62.72 35 61.97 0 0zm-38.34 60.5l-0.72 -65.47 9.37 -0.09 0.72 65.47 -9.37 0.09zm38.93 -5.81l-33.62 62.72 -35 -61.97 68.62 -0.75 0 0z"/>
   </g>
   <rect id="rect7187" class="fil3 str1" x="8630.16" y="5531.14" width="790.78" height="437.5"/>
   <rect class="fil4 str2" x="8630.16" y="6148.05" width="1581.59" height="437.5"/>
   <path id="text7195" class="fil5" d="M9137.13 6420.76l-35.38 0 0 -98.97c0,-5.18 0.09,-10.71 0.34,-16.56 0.22,-5.81 0.6,-11.97 1,-18.37l-0.87 0c-1,4.96 -1.88,9.21 -2.72,12.78 -0.78,3.56 -1.56,6.37 -2.34,8.53l-39.69 112.59 -28.75 0 -40.25 -111.47c-0.56,-1.53 -1.25,-4.15 -2.13,-7.9 -0.9,-3.69 -1.9,-8.54 -3.03,-14.54l-1.03 0c0.5,7.76 0.91,15.1 1.13,22.13 0.25,7 0.37,13.59 0.37,19.81l0 91.97 -32.4 0 0 -164.09 52.31 0 34.66 98.4c1.37,3.66 2.53,7.25 3.43,10.82 0.94,3.56 1.72,7.12 2.41,10.72l0.69 0c1.15,-4.13 2.25,-8.04 3.31,-11.69 1.09,-3.63 2.19,-7 3.31,-10.1l34.82 -98.15 50.81 0 0 164.09 0 0z"/>
   <path id="_1_0" class="fil5" d="M9280.38 6370.55l-79.07 0c0.6,9.28 3.63,16.24 9.03,20.81 5.41,4.56 12.91,6.87 22.53,6.87 3.44,0 8.16,-1 14.22,-3.03 6,-2.03 11.91,-5.15 17.72,-9.44l15.32 20.25c-8.07,6.1 -16.35,10.6 -24.88,13.41 -8.5,2.81 -17.81,4.22 -27.97,4.22 -19.22,0 -34.12,-5.37 -44.75,-16.16 -10.59,-10.71 -15.94,-25.71 -16.03,-44.93 0,-19.22 5.63,-34.85 16.88,-46.82 11.25,-12 25.5,-17.97 42.78,-17.97 16.53,0 29.72,5.04 39.53,15.16 9.81,10.13 14.69,24.63 14.69,43.56l0 14.07zm-32.63 -21.88c0,-9.53 -1.84,-16.41 -5.53,-20.66 -3.72,-4.22 -9.16,-6.34 -16.31,-6.34 -6.32,0 -11.78,2.44 -16.35,7.28 -4.59,4.85 -7.4,11.41 -8.37,19.72l46.56 0z"/>
   <path id="_2" class="fil5" d="M9493 6420.76l-34.91 0 0 -68.53c0,-9.31 -1.65,-16.22 -5,-20.72 -3.31,-4.5 -8.34,-6.75 -15.15,-6.75 -6.31,0 -11.5,2.72 -15.56,8.25 -4.04,5.5 -6.07,12.28 -6.07,20.47l0 67.28 -35 0 0 -69.43c0,-8.94 -1.68,-15.6 -5,-20 -3.31,-4.38 -8.25,-6.57 -14.81,-6.57 -6.62,0 -11.94,2.63 -15.9,7.85 -3.97,5.19 -5.97,12.31 -5.97,21.22l0 66.93 -35 0 0 -120.03 35 0 0 18.75 0.47 0c3.9,-6.56 9.25,-11.84 16.09,-15.78 6.81,-3.97 14.34,-5.93 22.59,-5.93 8.47,0 15.63,1.87 21.41,5.71 5.81,3.82 10.22,9.44 13.28,16.94 4.56,-7.56 10.22,-13.25 16.94,-17 6.68,-3.78 14.5,-5.65 23.34,-5.65 13.13,0 22.97,4.03 29.47,12.12 6.53,8.06 9.78,20.19 9.78,36.28l0 74.6 0 -0.01z"/>
   <path id="_3" class="fil5" d="M9581 6423.64c-19.78,0 -35.31,-5.59 -46.69,-16.81 -11.37,-11.25 -17.06,-26.41 -17.06,-45.54 0.06,-19.93 5.97,-35.53 17.72,-46.71 11.78,-11.22 27.66,-16.82 47.75,-16.82 19.75,0 35.22,5.6 46.41,16.75 11.15,11.19 16.75,26.07 16.75,44.69 0,19.84 -5.79,35.53 -17.38,47.09 -11.59,11.57 -27.44,17.35 -47.5,17.35l0 0zm1.25 -26.88c9.34,0 16.31,-3.09 21,-9.31 4.69,-6.16 7.03,-15.34 7.03,-27.56 0,-11.56 -2.37,-20.38 -7.09,-26.25 -4.72,-5.91 -11.75,-8.88 -21.19,-8.88 -9.22,0 -16.41,3.16 -21.47,9.5 -5.12,6.32 -7.69,15.19 -7.69,26.57 0,11.9 2.5,20.84 7.44,26.87 4.97,6.03 12.28,9.06 21.97,9.06l0 0z"/>
   <path id="_4" class="fil5" d="M9745.88 6329.92c-1.54,-0.41 -3.04,-0.66 -4.6,-0.88 -1.56,-0.18 -3.37,-0.25 -5.31,-0.25 -9.59,0 -16.78,3 -21.63,9.07 -4.84,6.09 -7.25,14.47 -7.25,25.22l0 57.68 -34.99 0 0 -120.03 34.99 0 0 22.44 0.47 0c2.88,-8.19 7,-14.31 12.32,-18.44 5.31,-4.12 11.75,-6.18 19.4,-6.18 1.78,0 3.57,0.15 5.22,0.4 1.69,0.25 3.5,0.56 5.41,0.97l-4.03 30 0 0z"/>
   <path id="_5" class="fil5" d="M9890.53 6300.73l-53.87 142.03c-4.13,10.91 -10.28,19.35 -18.41,25.29 -8.12,5.93 -17.84,8.9 -29.22,8.9 -3.59,0 -7.09,-0.19 -10.56,-0.62 -3.5,-0.41 -6.81,-1.03 -10,-1.88l6.03 -25.97c1.84,0.69 3.66,1.16 5.44,1.47 1.81,0.31 3.75,0.47 5.9,0.47 3.78,0 7.19,-0.97 10.13,-2.84 2.91,-1.91 5.31,-4.97 7.12,-9.19l7.6 -17.85 -48.56 -119.81 38.71 0 23.57 75.28c0.69,2.07 1.28,4.38 1.81,6.88 0.56,2.53 1,5.31 1.38,8.34l0.46 0c0.41,-2.19 0.88,-4.53 1.5,-6.97 0.63,-2.43 1.35,-5.09 2.29,-8.03l23.9 -75.5 34.78 0 0 0z"/>
   <g>
    <path class="fil6" d="M9454.97 5413.73l-68.63 0.75 33.63 -62.72 35 61.97 0 0zm-38.34 60.5l-0.72 -65.47 9.37 -0.09 0.72 65.47 -9.37 0.09zm38.93 -5.81l-33.62 62.72 -35 -61.97 68.62 -0.75 0 0z"/>
   </g>
   <rect id="rect7187_0" class="fil7 str1" x="9420.97" y="5531.14" width="790.78" height="437.5"/>
   <path id="text7189" class="fil8" d="M8920.03 5776.26l0 54.25 -35.94 0 0.1 -164.09 57.12 0c20.44,0 35.81,4.47 46.1,13.41 10.31,8.9 15.47,22.25 15.47,40.03 0,16.87 -5.91,30.47 -17.69,40.87 -11.81,10.38 -27.5,15.54 -47.19,15.54l-17.97 0 0 -0.01zm0 -82.15l0 54.81 14.88 0.13c10.03,0 17.62,-2.35 22.68,-7 5.1,-4.66 7.6,-11.63 7.5,-20.94 0,-8.97 -2.5,-15.75 -7.5,-20.22 -5,-4.53 -12.5,-6.78 -22.5,-6.78l-15.06 0z"/>
   <path id="_1_1" class="fil8" d="M9099.91 5739.67c-1.53,-0.41 -3.07,-0.66 -4.63,-0.88 -1.56,-0.18 -3.34,-0.25 -5.31,-0.25 -9.56,0 -16.75,3 -21.6,9.07 -4.84,6.09 -7.25,14.47 -7.25,25.22l0 57.68 -34.99 0 0 -120.03 34.99 0 0 22.44 0.47 0c2.88,-8.19 6.97,-14.31 12.28,-18.44 5.32,-4.09 11.79,-6.18 19.44,-6.18 1.78,0 3.53,0.15 5.22,0.4 1.69,0.28 3.47,0.56 5.41,0.97l-4.03 30z"/>
   <path id="_2_2" class="fil8" d="M9178.06 5833.39c-19.75,0 -35.31,-5.59 -46.69,-16.81 -11.34,-11.25 -17.06,-26.41 -17.06,-45.54 0.1,-19.93 5.97,-35.53 17.75,-46.71 11.75,-11.22 27.66,-16.82 47.72,-16.82 19.78,0 35.25,5.6 46.41,16.75 11.19,11.19 16.75,26.07 16.75,44.72 0,19.82 -5.78,35.5 -17.38,47.06 -11.59,11.57 -27.4,17.35 -47.5,17.35l0 0zm1.25 -26.88c9.35,0 16.35,-3.09 21.03,-9.31 4.69,-6.16 7.04,-15.34 7.04,-27.56 0,-11.56 -2.41,-20.35 -7.13,-26.25 -4.72,-5.91 -11.75,-8.88 -21.16,-8.88 -9.22,0 -16.4,3.16 -21.5,9.5 -5.12,6.32 -7.68,15.19 -7.68,26.57 0,11.9 2.5,20.84 7.47,26.87 4.93,6.03 12.25,9.06 21.93,9.06z"/>
   <path id="_3_3" class="fil8" d="M9364.81 5822.64c-6.09,3.75 -12.28,6.44 -18.59,8.16 -6.28,1.71 -13.13,2.59 -20.53,2.59 -20,0 -35.6,-5.56 -46.82,-16.66 -11.18,-11.09 -16.81,-25.53 -16.81,-43.31 0,-20.34 6,-36.44 18.03,-48.25 12,-11.78 27.94,-17.66 47.78,-17.66 7.32,0 13.78,0.72 19.38,2.16 5.62,1.44 11.22,3.75 16.78,6.88l-13.03 23.65c-3.6,-2.03 -7.13,-3.5 -10.56,-4.43 -3.44,-0.91 -7.19,-1.38 -11.19,-1.38 -9.94,0 -17.66,3.22 -23.25,9.63 -5.56,6.4 -8.38,15.4 -8.38,27.03 0,11.12 3.03,19.78 9,26.09 6,6.25 13.47,9.38 22.5,9.38 2.66,0 5.97,-0.57 9.97,-1.69 3.94,-1.1 7.97,-2.91 11.97,-5.44l13.75 23.25 0 0z"/>
   <path id="_4_4" class="fil8" d="M9493.34 5780.3l-79.06 0c0.59,9.31 3.63,16.24 9.03,20.81 5.41,4.56 12.91,6.87 22.53,6.87 3.44,0 8.16,-1 14.22,-3.03 6,-2.03 11.91,-5.15 17.72,-9.44l15.31 20.25c-8.06,6.1 -16.34,10.6 -24.87,13.41 -8.5,2.81 -17.81,4.22 -27.97,4.22 -19.22,0 -34.13,-5.34 -44.75,-16.13 -10.59,-10.75 -15.94,-25.75 -16.03,-44.96 0,-19.22 5.62,-34.85 16.87,-46.82 11.25,-12 25.5,-17.97 42.79,-17.97 16.53,0 29.71,5.03 39.53,15.16 9.81,10.12 14.68,24.62 14.68,43.56l0 14.06 0 0.01zm-32.62 -21.88c0,-9.53 -1.84,-16.41 -5.53,-20.66 -3.72,-4.22 -9.16,-6.34 -16.31,-6.34 -6.32,0 -11.79,2.44 -16.35,7.28 -4.59,4.85 -7.4,11.41 -8.37,19.72l46.56 0z"/>
   <path id="_5_5" class="fil8" d="M9506.38 5820.45l14.43 -23.44c4,3.13 8.82,5.79 14.38,7.94 5.5,2.19 11.62,3.28 18.34,3.28 5.13,0 9.32,-0.94 12.53,-2.81 3.25,-1.88 4.85,-4.75 4.85,-8.53 0,-3.13 -1.25,-5.6 -3.78,-7.38 -2.5,-1.78 -7.16,-3.43 -13.94,-4.87 -14.87,-3.22 -25.56,-7.66 -32.03,-13.41 -6.5,-5.72 -9.72,-13.75 -9.72,-24.15 0,-12.04 4.75,-21.63 14.31,-28.82 9.6,-7.18 21.38,-10.75 35.31,-10.75 7.29,0 14.07,0.91 20.44,2.75 6.38,1.81 12.44,4.6 18.13,8.35l-13.16 22.65c-4.81,-3.03 -9.31,-5.28 -13.56,-6.72 -4.22,-1.4 -8.6,-2.09 -13.1,-2.09 -5.25,0 -9.43,1 -12.56,2.97 -3.12,1.97 -4.72,4.56 -4.72,7.68 0,3.44 1.44,5.97 4.29,7.63 2.9,1.63 8.37,3.28 16.43,4.94 13.82,2.81 23.75,7.25 29.82,13.18 6.06,5.94 9.09,14 9.09,24.25 0,12.16 -4.56,21.88 -13.75,29.25 -9.13,7.35 -21.28,11.04 -36.35,11.04 -8.25,0 -16.09,-1.07 -23.59,-3.13 -7.47,-2.12 -14.84,-5.41 -22.09,-9.81l0 0z"/>
   <path id="_6" class="fil8" d="M9613.72 5820.45l14.44 -23.44c4,3.13 8.81,5.79 14.37,7.94 5.5,2.19 11.63,3.28 18.35,3.28 5.12,0 9.31,-0.94 12.53,-2.81 3.25,-1.88 4.84,-4.75 4.84,-8.53 0,-3.13 -1.25,-5.6 -3.78,-7.38 -2.5,-1.78 -7.16,-3.43 -13.94,-4.87 -14.87,-3.22 -25.56,-7.66 -32.03,-13.41 -6.5,-5.72 -9.72,-13.75 -9.72,-24.15 0,-12.04 4.75,-21.63 14.32,-28.82 9.59,-7.18 21.37,-10.75 35.31,-10.75 7.28,0 14.06,0.91 20.44,2.75 6.37,1.81 12.43,4.6 18.12,8.35l-13.16 22.65c-4.81,-3.03 -9.31,-5.28 -13.56,-6.72 -4.22,-1.4 -8.59,-2.09 -13.09,-2.09 -5.25,0 -9.44,1 -12.56,2.97 -3.13,1.97 -4.72,4.56 -4.72,7.68 0,3.44 1.43,5.97 4.28,7.63 2.91,1.63 8.37,3.28 16.44,4.94 13.81,2.81 23.75,7.25 29.81,13.18 6.06,5.94 9.09,14 9.09,24.25 0,12.16 -4.56,21.88 -13.75,29.25 -9.12,7.35 -21.28,11.04 -36.34,11.04 -8.25,0 -16.1,-1.07 -23.6,-3.13 -7.47,-2.12 -14.84,-5.41 -22.09,-9.81l0 0z"/>
   <path id="_7" class="fil8" d="M9788.94 5833.39c-19.78,0 -35.31,-5.59 -46.69,-16.81 -11.37,-11.25 -17.06,-26.41 -17.06,-45.54 0.06,-19.93 5.97,-35.53 17.72,-46.71 11.75,-11.22 27.65,-16.82 47.75,-16.82 19.75,0 35.22,5.6 46.4,16.75 11.16,11.19 16.75,26.07 16.75,44.72 0,19.82 -5.78,35.5 -17.37,47.06 -11.63,11.57 -27.44,17.35 -47.5,17.35l0 0zm1.25 -26.88c9.31,0 16.31,-3.09 21,-9.31 4.69,-6.16 7.03,-15.34 7.03,-27.56 0,-11.56 -2.38,-20.35 -7.09,-26.25 -4.76,-5.91 -11.79,-8.88 -21.19,-8.88 -9.22,0 -16.41,3.16 -21.47,9.5 -5.13,6.32 -7.72,15.19 -7.72,26.57 0,11.9 2.5,20.84 7.47,26.87 4.97,6.03 12.28,9.06 21.97,9.06z"/>
   <path id="_8" class="fil8" d="M9953.81 5739.67c-1.53,-0.41 -3.06,-0.66 -4.62,-0.88 -1.56,-0.18 -3.35,-0.25 -5.31,-0.25 -9.57,0 -16.76,3 -21.6,9.07 -4.84,6.09 -7.25,14.47 -7.25,25.22l0 57.68 -35 0 0 -120.03 35 0 0 22.44 0.47 0c2.88,-8.19 6.97,-14.31 12.28,-18.44 5.31,-4.09 11.78,-6.18 19.44,-6.18 1.78,0 3.53,0.15 5.22,0.4 1.69,0.28 3.47,0.56 5.4,0.97l-4.03 30z"/>
   <g>
    <polygon class="fil9" points="8630.16,4914.26 8630.16,5351.76 10211.75,5351.76 10211.75,4914.26 "/>
    <path id="_1_6" class="fil10" d="M8625.47 5351.76l0 -437.5 9.38 0 0 437.5 -4.69 4.69 -4.69 -4.69zm4.69 4.69l-4.69 0 0 -4.69 4.69 4.69zm1581.59 0l-1581.59 0 0 -9.37 1581.59 0 4.72 4.68 -4.72 4.69zm4.72 -4.69l0 4.69 -4.72 0 4.72 -4.69zm0 -437.5l0 437.5 -9.41 0 0 -437.5 4.69 -4.68 4.72 4.68zm-4.72 -4.68l4.72 0 0 4.68 -4.72 -4.68zm-1581.59 0l1581.59 0 0 9.37 -1581.59 0 -4.69 -4.69 4.69 -4.68zm-4.69 4.68l0 -4.68 4.69 0 -4.69 4.68z"/>
   </g>
   <polygon id="text7189_1" class="fil8" points="9291.22,5213.64 9255.41,5213.64 9255.41,5049.51 9291.22,5049.51 "/>
   <polygon id="_1_7" class="fil8" points="9419.03,5049.51 9339.16,5240.61 9308,5240.61 9387.53,5049.51 "/>
   <path id="_2_8" class="fil8" d="M9505.63 5216.48c-23.47,0 -42.63,-7.65 -57.38,-22.93 -14.78,-15.32 -22.16,-35.22 -22.16,-59.82 0,-25.93 7.5,-46.9 22.5,-62.9 14.97,-16.03 34.88,-24.03 59.69,-24.03 23.31,0 42.22,7.65 56.63,22.97 14.43,15.34 21.62,35.59 21.62,60.65 0,25.78 -7.44,46.6 -22.34,62.38 -14.94,15.78 -34.47,23.68 -58.57,23.68l0.01 0zm0.59 -30.9c13.12,0 23.5,-4.69 31.16,-14.07 7.65,-9.37 11.53,-22.37 11.53,-39.03 0,-17.34 -3.75,-30.81 -11.19,-40.47 -7.41,-9.62 -17.59,-14.43 -30.5,-14.43 -13.28,0 -23.81,4.96 -31.66,14.84 -7.9,9.91 -11.81,23.03 -11.81,39.38 0,16.56 3.91,29.68 11.72,39.34 7.81,9.62 18.09,14.44 30.75,14.44l0 0z"/>
  </g>
  <g id="_2937723239312">
   <g>
    <polygon id="rect7201_2" class="fil1" points="4298.64,7979.51 7725.42,7979.51 7725.42,6115.85 4298.64,6115.85 "/>
    <polygon id="_1_9" class="fil0 str0" points="4298.64,7979.51 7725.42,7979.51 7725.42,6115.85 4298.64,6115.85 "/>
   </g>
   <g>
    <path class="fil2" d="M7277.14 7328.42l-68.59 0.75 33.62 -62.75 34.97 62zm-38.31 60.5l-0.72 -65.47 9.38 -0.13 0.71 65.5 -9.37 0.1zm38.9 -5.82l-33.62 62.72 -34.97 -62 68.59 -0.72z"/>
   </g>
   <g>
    <path class="fil2" d="M6486.36 7328.42l-68.62 0.75 33.62 -62.75 35 62 0 0zm-38.34 60.5l-0.72 -65.47 9.37 -0.13 0.72 65.5 -9.37 0.1zm38.93 -5.82l-33.62 62.72 -35 -62 68.62 -0.72 0 0z"/>
   </g>
   <g>
    <path class="fil2" d="M5607.7 7328.42l-68.62 0.75 33.62 -62.75 35 62 0 0zm-38.34 60.5l-0.72 -65.47 9.38 -0.13 0.72 65.5 -9.38 0.1zm38.94 -5.82l-33.63 62.72 -35 -62 68.63 -0.72 0 0z"/>
   </g>
   <g>
    <path class="fil2" d="M4816.89 7328.42l-68.59 0.75 33.62 -62.75 34.97 62zm-38.34 60.5l-0.72 -65.47 9.37 -0.13 0.72 65.5 -9.37 0.1zm38.94 -5.82l-33.63 62.72 -34.97 -62 68.6 -0.72z"/>
   </g>
   <g>
    <path class="fil6" d="M5605.74 6711.51l-68.6 0.75 33.63 -62.75 34.97 62zm-38.35 60.5l-0.72 -65.47 9.38 -0.12 0.72 65.5 -9.38 0.09zm38.94 -5.81l-33.63 62.72 -34.97 -62 68.6 -0.72z"/>
   </g>
   <g>
    <path class="fil6" d="M4814.95 6711.51l-68.62 0.75 33.62 -62.75 35 62 0 0zm-38.34 60.5l-0.72 -65.47 9.38 -0.12 0.72 65.5 -9.38 0.09zm38.94 -5.81l-33.63 62.72 -35 -62 68.63 -0.72 0 0z"/>
   </g>
   <g>
    <path class="fil6" d="M7275.2 6711.51l-68.62 0.75 33.62 -62.75 35 62 0 0zm-38.34 60.5l-0.72 -65.47 9.38 -0.12 0.72 65.5 -9.38 0.09zm38.94 -5.81l-33.63 62.72 -35 -62 68.63 -0.72 0 0z"/>
   </g>
   <g>
    <path class="fil6" d="M6484.42 6711.51l-68.62 0.75 33.62 -62.75 35 62 0 0zm-38.34 60.5l-0.72 -65.47 9.38 -0.12 0.71 65.5 -9.37 0.09zm38.94 -5.81l-33.66 62.72 -34.97 -62 68.63 -0.72z"/>
   </g>
   <rect class="fil4 str2" x="4386.52" y="7445.82" width="3251.06" height="437.5"/>
   <rect id="rect7187_3" class="fil3 str1" x="6055.99" y="6828.92" width="790.78" height="437.5"/>
   <rect id="rect7187_4" class="fil7 str1" x="6846.77" y="6828.92" width="790.78" height="437.5"/>
   <rect id="rect7187_5" class="fil3 str1" x="4386.52" y="6828.92" width="790.78" height="437.5"/>
   <rect id="rect7187_6" class="fil7 str1" x="5177.3" y="6828.92" width="790.78" height="437.5"/>
   <g>
    <polygon class="fil9" points="4386.52,6212.04 4386.52,6649.51 7637.58,6649.51 7637.58,6212.04 "/>
    <path id="_1_10" class="fil10" d="M4376.86 6649.51l0 -437.47 19.31 0 0 437.47 -9.65 4.69 -9.66 -4.69 0 0zm9.66 4.69l-9.66 0 0 -4.69 9.66 4.69zm3251.06 0l-3251.06 0 0 -9.38 3251.06 0 9.66 4.69 -9.66 4.69zm9.66 -4.69l0 4.69 -9.66 0 9.66 -4.69zm0 -437.47l0 437.47 -19.32 0 0 -437.47 9.66 -4.69 9.66 4.69 0 0zm-9.66 -4.69l9.66 0 0 4.69 -9.66 -4.69zm-3251.06 0l3251.06 0 0 9.38 -3251.06 0 -9.66 -4.69 9.66 -4.69zm-9.66 4.69l0 -4.69 9.66 0 -9.66 4.69z"/>
   </g>
   <path id="text7189_7" class="fil8" d="M6345.83 7074.04l0 54.25 -35.94 0 0.13 -164.09 57.09 0c20.44,0 35.84,4.47 46.09,13.4 10.32,8.91 15.47,22.25 15.47,40.03 0,16.88 -5.87,30.47 -17.68,40.88 -11.79,10.38 -27.5,15.53 -47.19,15.53l-17.97 0 0 0zm0 -82.16l0 54.82 14.87 0.12c10.07,0 17.63,-2.34 22.72,-7 5.06,-4.65 7.56,-11.62 7.5,-20.94 0,-8.96 -2.5,-15.75 -7.5,-20.21 -5,-4.57 -12.5,-6.79 -22.5,-6.79l-15.09 0z"/>
   <path id="_1_11" class="fil8" d="M6525.7 7037.45c-1.5,-0.41 -3.03,-0.69 -4.59,-0.88 -1.56,-0.19 -3.37,-0.28 -5.31,-0.28 -9.56,0 -16.75,3.03 -21.6,9.09 -4.84,6.1 -7.28,14.47 -7.28,25.22l0 57.69 -35 0 0 -120.03 35 0 0 22.41 0.47 0c2.91,-8.16 7,-14.28 12.31,-18.41 5.32,-4.13 11.75,-6.19 19.41,-6.19 1.81,0 3.56,0.16 5.25,0.41 1.66,0.25 3.47,0.56 5.38,0.97l-4.03 30 -0.01 0z"/>
   <path id="_2_12" class="fil8" d="M6603.89 7131.17c-19.78,0 -35.31,-5.6 -46.69,-16.82 -11.37,-11.25 -17.06,-26.4 -17.06,-45.53 0.06,-19.94 5.97,-35.53 17.72,-46.72 11.75,-11.22 27.66,-16.81 47.75,-16.81 19.75,0 35.22,5.59 46.41,16.75 11.15,11.19 16.75,26.06 16.75,44.69 0,19.84 -5.78,35.53 -17.38,47.09 -11.62,11.53 -27.44,17.34 -47.5,17.34l0 0.01zm1.25 -26.91c9.31,0 16.31,-3.06 21,-9.28 4.69,-6.19 7.03,-15.35 7.03,-27.56 0,-11.57 -2.37,-20.38 -7.09,-26.25 -4.75,-5.91 -11.78,-8.88 -21.19,-8.88 -9.22,0 -16.41,3.16 -21.47,9.5 -5.12,6.31 -7.72,15.19 -7.72,26.56 0,11.91 2.5,20.85 7.47,26.88 4.97,6.03 12.28,9.03 21.97,9.03z"/>
   <path id="_3_13" class="fil8" d="M6790.64 7120.42c-6.09,3.75 -12.31,6.43 -18.59,8.15 -6.28,1.72 -13.13,2.6 -20.57,2.6 -20,0 -35.56,-5.57 -46.78,-16.66 -11.22,-11.09 -16.84,-25.53 -16.84,-43.31 0,-20.38 6.03,-36.44 18.06,-48.25 11.97,-11.78 27.91,-17.66 47.75,-17.66 7.31,0 13.81,0.72 19.38,2.16 5.62,1.44 11.22,3.75 16.81,6.87l-13.06 23.66c-3.6,-2.03 -7.1,-3.5 -10.53,-4.44 -3.44,-0.9 -7.19,-1.37 -11.22,-1.37 -9.91,0 -17.66,3.18 -23.25,9.62 -5.54,6.41 -8.35,15.41 -8.35,27.03 0,11.13 3,19.78 8.97,26.06 6.03,6.29 13.5,9.38 22.5,9.38 2.66,0 6,-0.53 9.97,-1.66 3.94,-1.09 7.97,-2.9 12,-5.43l13.75 23.25 0 0z"/>
   <path id="_4_14" class="fil8" d="M6919.14 7078.07l-79.06 0c0.59,9.28 3.66,16.25 9.03,20.81 5.44,4.57 12.94,6.88 22.53,6.88 3.44,0 8.19,-1.03 14.22,-3.03 6.03,-2.03 11.94,-5.16 17.75,-9.44l15.31 20.25c-8.09,6.09 -16.37,10.59 -24.87,13.41 -8.53,2.81 -17.82,4.22 -27.97,4.22 -19.22,0 -34.16,-5.38 -44.78,-16.16 -10.6,-10.75 -15.94,-25.75 -16,-44.97 0,-19.22 5.62,-34.81 16.87,-46.78 11.25,-12 25.5,-17.97 42.75,-17.97 16.53,0 29.75,5.03 39.53,15.16 9.82,10.12 14.69,24.62 14.69,43.56l0 14.06 0 0zm-32.59 -21.87c0,-9.53 -1.85,-16.41 -5.57,-20.66 -3.71,-4.22 -9.12,-6.34 -16.28,-6.34 -6.34,0 -11.81,2.4 -16.37,7.28 -4.56,4.84 -7.38,11.4 -8.34,19.72l46.56 0z"/>
   <path id="_5_15" class="fil8" d="M6932.2 7118.23l14.41 -23.44c4.03,3.13 8.84,5.78 14.38,7.94 5.5,2.18 11.65,3.28 18.37,3.28 5.1,0 9.28,-0.94 12.53,-2.81 3.25,-1.88 4.85,-4.75 4.85,-8.53 0,-3.13 -1.25,-5.6 -3.78,-7.38 -2.5,-1.81 -7.16,-3.44 -13.97,-4.88 -14.88,-3.21 -25.53,-7.68 -32.03,-13.4 -6.47,-5.72 -9.72,-13.75 -9.72,-24.16 0,-12.03 4.78,-21.62 14.34,-28.81 9.56,-7.19 21.37,-10.75 35.31,-10.75 7.25,0 14.06,0.9 20.44,2.75 6.34,1.81 12.41,4.59 18.12,8.34l-13.18 22.66c-4.78,-3.03 -9.28,-5.28 -13.53,-6.72 -4.22,-1.41 -8.6,-2.13 -13.1,-2.13 -5.28,0 -9.47,1.03 -12.59,3 -3.13,1.97 -4.72,4.57 -4.72,7.69 0,3.44 1.44,5.97 4.31,7.59 2.88,1.66 8.35,3.29 16.44,4.97 13.78,2.82 23.75,7.22 29.81,13.19 6.03,5.94 9.1,14 9.1,24.25 0,12.16 -4.57,21.88 -13.75,29.25 -9.16,7.34 -21.29,11.03 -36.38,11.03 -8.25,0 -16.09,-1.06 -23.59,-3.12 -7.47,-2.13 -14.85,-5.41 -22.07,-9.82l0 0.01z"/>
   <path id="_6_16" class="fil8" d="M7039.55 7118.23l14.4 -23.44c4.03,3.13 8.85,5.78 14.38,7.94 5.5,2.18 11.66,3.28 18.37,3.28 5.1,0 9.29,-0.94 12.54,-2.81 3.25,-1.88 4.84,-4.75 4.84,-8.53 0,-3.13 -1.25,-5.6 -3.78,-7.38 -2.5,-1.81 -7.16,-3.44 -13.97,-4.88 -14.87,-3.21 -25.53,-7.68 -32.03,-13.4 -6.47,-5.72 -9.72,-13.75 -9.72,-24.16 0,-12.03 4.78,-21.62 14.34,-28.81 9.56,-7.19 21.38,-10.75 35.32,-10.75 7.24,0 14.06,0.9 20.43,2.75 6.35,1.81 12.41,4.59 18.13,8.34l-13.19 22.66c-4.78,-3.03 -9.28,-5.28 -13.53,-6.72 -4.22,-1.41 -8.59,-2.13 -13.09,-2.13 -5.28,0 -9.47,1.03 -12.6,3 -3.12,1.97 -4.72,4.57 -4.72,7.69 0,3.44 1.44,5.97 4.32,7.59 2.87,1.66 8.34,3.29 16.43,4.97 13.78,2.82 23.75,7.22 29.82,13.19 6.03,5.94 9.09,14 9.09,24.25 0,12.16 -4.56,21.88 -13.75,29.25 -9.16,7.34 -21.28,11.03 -36.38,11.03 -8.25,0 -16.09,-1.06 -23.59,-3.12 -7.47,-2.13 -14.84,-5.41 -22.06,-9.82l0 0.01z"/>
   <path id="_7_17" class="fil8" d="M7214.73 7131.17c-19.75,0 -35.31,-5.6 -46.68,-16.82 -11.35,-11.25 -17.07,-26.4 -17.07,-45.53 0.1,-19.94 5.97,-35.53 17.75,-46.72 11.75,-11.22 27.66,-16.81 47.72,-16.81 19.78,0 35.25,5.59 46.41,16.75 11.19,11.19 16.75,26.06 16.75,44.69 0,19.84 -5.78,35.53 -17.37,47.09 -11.6,11.53 -27.41,17.34 -47.51,17.34l0 0.01zm1.26 -26.91c9.34,0 16.34,-3.06 21.03,-9.28 4.68,-6.19 7.03,-15.35 7.03,-27.56 0,-11.57 -2.41,-20.38 -7.13,-26.25 -4.72,-5.91 -11.75,-8.88 -21.15,-8.88 -9.22,0 -16.41,3.16 -21.5,9.5 -5.13,6.31 -7.69,15.19 -7.69,26.56 0,11.91 2.5,20.85 7.47,26.88 4.93,6.03 12.25,9.03 21.94,9.03z"/>
   <path id="_8_18" class="fil8" d="M7379.61 7037.45c-1.5,-0.41 -3.03,-0.69 -4.59,-0.88 -1.57,-0.19 -3.38,-0.28 -5.32,-0.28 -9.56,0 -16.75,3.03 -21.59,9.09 -4.84,6.1 -7.28,14.47 -7.28,25.22l0 57.69 -35 0 0 -120.03 35 0 0 22.41 0.47 0c2.9,-8.16 7,-14.28 12.31,-18.41 5.31,-4.13 11.75,-6.19 19.41,-6.19 1.81,0 3.56,0.16 5.25,0.41 1.65,0.25 3.47,0.56 5.37,0.97l-4.03 30 0 0z"/>
   <path id="text7195_8" class="fil5" d="M5728.2 7718.54l-35.37 0 0 -98.97c0,-5.22 0.12,-10.72 0.34,-16.59 0.25,-5.81 0.6,-11.94 1.03,-18.35l-0.9 0c-0.97,4.97 -1.88,9.22 -2.69,12.78 -0.78,3.54 -1.56,6.35 -2.34,8.5l-39.69 112.63 -28.75 0 -40.28 -111.5c-0.56,-1.5 -1.25,-4.13 -2.13,-7.88 -0.87,-3.71 -1.9,-8.56 -3.03,-14.53l-1.03 0c0.53,7.75 0.91,15.07 1.16,22.1 0.22,7 0.34,13.59 0.34,19.81l0 92 -32.37 0 0 -164.09 52.28 0 34.65 98.4c1.38,3.66 2.53,7.25 3.44,10.81 0.94,3.54 1.72,7.1 2.44,10.69l0.66 0c1.15,-4.09 2.25,-8 3.31,-11.65 1.09,-3.66 2.19,-7 3.31,-10.1l34.81 -98.15 50.82 0 0 164.09 -0.01 0z"/>
   <path id="_1_19" class="fil5" d="M5871.45 7668.32l-79.06 0c0.6,9.28 3.63,16.22 9.03,20.81 5.44,4.57 12.94,6.88 22.53,6.88 3.44,0 8.16,-1.03 14.22,-3.06 6.03,-2.03 11.91,-5.16 17.75,-9.41l15.31 20.22c-8.09,6.09 -16.37,10.59 -24.9,13.41 -8.5,2.81 -17.81,4.22 -27.97,4.22 -19.22,0 -34.13,-5.35 -44.75,-16.13 -10.59,-10.75 -15.94,-25.75 -16.03,-44.97 0,-19.22 5.62,-34.84 16.87,-46.78 11.25,-12 25.54,-17.97 42.79,-17.97 16.53,0 29.71,5.03 39.53,15.16 9.81,10.09 14.68,24.59 14.68,43.56l0 14.06 0 0zm-32.62 -21.9c0,-9.5 -1.81,-16.41 -5.53,-20.66 -3.72,-4.22 -9.16,-6.31 -16.28,-6.31 -6.35,0 -11.82,2.4 -16.38,7.25 -4.56,4.84 -7.37,11.4 -8.37,19.71l46.56 0 0 0.01z"/>
   <path id="_2_20" class="fil5" d="M6084.08 7718.54l-34.88 0 0 -68.56c0,-9.28 -1.69,-16.22 -5,-20.69 -3.34,-4.5 -8.37,-6.78 -15.15,-6.78 -6.35,0 -11.53,2.75 -15.6,8.25 -4.03,5.5 -6.06,12.31 -6.06,20.47l0 67.31 -35 0 0 -69.44c0,-8.97 -1.69,-15.59 -5,-20.03 -3.31,-4.34 -8.25,-6.56 -14.81,-6.56 -6.63,0 -11.94,2.62 -15.88,7.87 -4,5.19 -6,12.29 -6,21.19l0 66.97 -35 0 0 -120.03 35 0 0 18.75 0.47 0c3.91,-6.56 9.28,-11.84 16.1,-15.78 6.81,-4 14.34,-5.94 22.59,-5.94 8.47,0 15.62,1.88 21.41,5.69 5.81,3.84 10.22,9.47 13.28,16.97 4.56,-7.6 10.22,-13.25 16.93,-17 6.69,-3.78 14.51,-5.66 23.35,-5.66 13.12,0 22.97,4 29.47,12.1 6.53,8.09 9.78,20.18 9.78,36.31l0 74.59 0 0z"/>
   <path id="_3_21" class="fil5" d="M6172.08 7721.38c-19.75,0 -35.31,-5.59 -46.69,-16.78 -11.34,-11.25 -17.06,-26.4 -17.06,-45.56 0.09,-19.91 5.97,-35.5 17.75,-46.72 11.75,-11.22 27.66,-16.78 47.72,-16.78 19.78,0 35.25,5.56 46.4,16.75 11.19,11.16 16.75,26.06 16.75,44.69 0,19.84 -5.78,35.5 -17.37,47.06 -11.59,11.56 -27.41,17.34 -47.5,17.34zm1.25 -26.87c9.34,0 16.34,-3.09 21.03,-9.28 4.69,-6.19 7.03,-15.38 7.03,-27.6 0,-11.56 -2.41,-20.34 -7.13,-26.25 -4.71,-5.9 -11.75,-8.87 -21.15,-8.87 -9.22,0 -16.41,3.19 -21.5,9.5 -5.13,6.34 -7.69,15.22 -7.69,26.56 0,11.91 2.5,20.88 7.47,26.88 4.94,6.06 12.25,9.06 21.94,9.06z"/>
   <path id="_4_22" class="fil5" d="M6336.95 7627.67c-1.5,-0.38 -3.03,-0.66 -4.59,-0.85 -1.56,-0.19 -3.38,-0.28 -5.31,-0.28 -9.56,0 -16.75,3 -21.6,9.06 -4.84,6.1 -7.28,14.5 -7.28,25.25l0 57.69 -35 0 0 -120.03 35 0 0 22.41 0.47 0c2.91,-8.16 7,-14.28 12.31,-18.44 5.32,-4.09 11.75,-6.16 19.41,-6.16 1.81,0 3.56,0.16 5.25,0.38 1.66,0.28 3.47,0.59 5.38,0.97l-4.04 30 0 0z"/>
   <path id="_5_23" class="fil5" d="M6481.61 7598.51l-53.87 142.03c-4.13,10.88 -10.25,19.31 -18.38,25.28 -8.12,5.94 -17.87,8.91 -29.22,8.91 -3.59,0 -7.13,-0.22 -10.59,-0.63 -3.47,-0.4 -6.82,-1.03 -10,-1.87l6.06 -26c1.81,0.72 3.62,1.19 5.41,1.5 1.81,0.31 3.75,0.47 5.9,0.47 3.78,0 7.19,-1 10.13,-2.88 2.94,-1.9 5.31,-4.93 7.15,-9.15l7.57 -17.88 -48.57 -119.78 38.72 0 23.57 75.25c0.68,2.09 1.28,4.41 1.84,6.88 0.53,2.56 0.97,5.31 1.34,8.37l0.47 0c0.41,-2.19 0.88,-4.53 1.5,-7 0.63,-2.41 1.38,-5.06 2.32,-8l23.9 -75.5 34.75 0 0 0z"/>
   <path id="text7189_9" class="fil8" d="M4676.36 7074.04l0 54.25 -35.94 0 0.13 -164.09 57.12 0c20.41,0 35.82,4.47 46.1,13.4 10.31,8.91 15.47,22.25 15.47,40.03 0,16.88 -5.91,30.47 -17.72,40.88 -11.78,10.38 -27.5,15.53 -47.19,15.53l-17.97 0 0 0zm0 -82.16l0 54.82 14.91 0.12c10.03,0 17.59,-2.34 22.68,-7 5.07,-4.65 7.57,-11.62 7.5,-20.94 0,-8.96 -2.5,-15.75 -7.5,-20.21 -4.99,-4.57 -12.49,-6.79 -22.5,-6.79l-15.09 0 0 0z"/>
   <path id="_1_24" class="fil8" d="M4856.27 7037.45c-1.53,-0.41 -3.07,-0.69 -4.63,-0.88 -1.56,-0.19 -3.34,-0.28 -5.31,-0.28 -9.56,0 -16.75,3.03 -21.6,9.09 -4.84,6.1 -7.28,14.47 -7.28,25.22l0 57.69 -35 0 0 -120.03 35 0 0 22.41 0.47 0c2.91,-8.16 7,-14.28 12.32,-18.41 5.31,-4.13 11.74,-6.19 19.4,-6.19 1.82,0 3.56,0.16 5.25,0.41 1.69,0.25 3.47,0.56 5.38,0.97l-4 30z"/>
   <path id="_2_25" class="fil8" d="M4934.42 7131.17c-19.78,0 -35.31,-5.6 -46.69,-16.82 -11.37,-11.25 -17.06,-26.4 -17.06,-45.53 0.07,-19.94 5.97,-35.53 17.72,-46.72 11.78,-11.22 27.66,-16.81 47.75,-16.81 19.75,0 35.22,5.59 46.41,16.75 11.15,11.19 16.75,26.06 16.75,44.69 0,19.84 -5.78,35.53 -17.38,47.09 -11.59,11.53 -27.43,17.34 -47.5,17.34l0 0.01zm1.25 -26.91c9.35,0 16.31,-3.06 21,-9.28 4.69,-6.19 7.03,-15.35 7.03,-27.56 0,-11.57 -2.37,-20.38 -7.09,-26.25 -4.72,-5.91 -11.75,-8.88 -21.19,-8.88 -9.22,0 -16.4,3.16 -21.47,9.5 -5.12,6.31 -7.68,15.19 -7.68,26.56 0,11.91 2.5,20.85 7.43,26.88 4.97,6.03 12.28,9.03 21.97,9.03l0 0z"/>
   <path id="_3_26" class="fil8" d="M5121.17 7120.42c-6.09,3.75 -12.31,6.43 -18.59,8.15 -6.28,1.72 -13.13,2.6 -20.53,2.6 -20,0 -35.6,-5.57 -46.82,-16.66 -11.21,-11.09 -16.84,-25.53 -16.84,-43.31 0,-20.38 6.03,-36.44 18.06,-48.25 12,-11.78 27.94,-17.66 47.78,-17.66 7.29,0 13.79,0.72 19.38,2.16 5.63,1.44 11.19,3.75 16.78,6.87l-13.03 23.66c-3.59,-2.03 -7.13,-3.5 -10.56,-4.44 -3.44,-0.9 -7.19,-1.37 -11.22,-1.37 -9.91,0 -17.66,3.18 -23.22,9.62 -5.56,6.41 -8.38,15.41 -8.38,27.03 0,11.13 3,19.78 9,26.06 6,6.29 13.47,9.38 22.5,9.38 2.66,0 5.97,-0.53 9.94,-1.66 3.97,-1.09 7.97,-2.9 12,-5.43l13.75 23.25 0 0z"/>
   <path id="_4_27" class="fil8" d="M5249.7 7078.07l-79.06 0c0.56,9.28 3.63,16.25 9,20.81 5.44,4.57 12.94,6.88 22.56,6.88 3.44,0 8.16,-1.03 14.22,-3.03 6,-2.03 11.91,-5.16 17.72,-9.44l15.31 20.25c-8.09,6.09 -16.37,10.59 -24.87,13.41 -8.53,2.81 -17.81,4.22 -27.97,4.22 -19.22,0 -34.16,-5.38 -44.78,-16.16 -10.56,-10.75 -15.94,-25.75 -16,-44.97 0,-19.22 5.62,-34.81 16.87,-46.78 11.25,-12 25.5,-17.97 42.79,-17.97 16.5,0 29.71,5.03 39.53,15.16 9.78,10.12 14.68,24.62 14.68,43.56l0 14.06zm-32.62 -21.87c0,-9.53 -1.85,-16.41 -5.56,-20.66 -3.69,-4.22 -9.13,-6.34 -16.29,-6.34 -6.31,0 -11.78,2.4 -16.37,7.28 -4.56,4.84 -7.38,11.4 -8.34,19.72l46.56 0z"/>
   <path id="_5_28" class="fil8" d="M5262.73 7118.23l14.44 -23.44c4,3.13 8.81,5.78 14.35,7.94 5.53,2.18 11.65,3.28 18.37,3.28 5.13,0 9.28,-0.94 12.53,-2.81 3.25,-1.88 4.85,-4.75 4.85,-8.53 0,-3.13 -1.25,-5.6 -3.78,-7.38 -2.5,-1.81 -7.16,-3.44 -13.94,-4.88 -14.91,-3.21 -25.56,-7.68 -32.03,-13.4 -6.5,-5.72 -9.72,-13.75 -9.72,-24.16 0,-12.03 4.75,-21.62 14.31,-28.81 9.6,-7.19 21.38,-10.75 35.31,-10.75 7.29,0 14.07,0.9 20.44,2.75 6.38,1.81 12.44,4.59 18.13,8.34l-13.16 22.66c-4.81,-3.03 -9.31,-5.28 -13.56,-6.72 -4.22,-1.41 -8.6,-2.13 -13.1,-2.13 -5.25,0 -9.43,1.03 -12.56,3 -3.12,1.97 -4.75,4.57 -4.75,7.69 0,3.44 1.47,5.97 4.31,7.59 2.88,1.66 8.35,3.29 16.44,4.97 13.81,2.82 23.75,7.22 29.81,13.19 6.07,5.94 9.1,14 9.1,24.25 0,12.16 -4.57,21.88 -13.75,29.25 -9.13,7.34 -21.29,11.03 -36.38,11.03 -8.22,0 -16.09,-1.06 -23.59,-3.12 -7.44,-2.13 -14.85,-5.41 -22.07,-9.82l0 0.01z"/>
   <path id="_6_29" class="fil8" d="M5370.08 7118.23l14.44 -23.44c4,3.13 8.81,5.78 14.34,7.94 5.53,2.18 11.66,3.28 18.37,3.28 5.13,0 9.29,-0.94 12.54,-2.81 3.25,-1.88 4.84,-4.75 4.84,-8.53 0,-3.13 -1.25,-5.6 -3.78,-7.38 -2.5,-1.81 -7.16,-3.44 -13.94,-4.88 -14.9,-3.21 -25.56,-7.68 -32.03,-13.4 -6.5,-5.72 -9.72,-13.75 -9.72,-24.16 0,-12.03 4.75,-21.62 14.31,-28.81 9.6,-7.19 21.38,-10.75 35.32,-10.75 7.28,0 14.06,0.9 20.43,2.75 6.38,1.81 12.44,4.59 18.13,8.34l-13.16 22.66c-4.81,-3.03 -9.31,-5.28 -13.56,-6.72 -4.22,-1.41 -8.59,-2.13 -13.09,-2.13 -5.25,0 -9.44,1.03 -12.56,3 -3.13,1.97 -4.76,4.57 -4.76,7.69 0,3.44 1.47,5.97 4.32,7.59 2.87,1.66 8.34,3.29 16.43,4.97 13.82,2.82 23.75,7.22 29.82,13.19 6.06,5.94 9.09,14 9.09,24.25 0,12.16 -4.56,21.88 -13.75,29.25 -9.13,7.34 -21.28,11.03 -36.38,11.03 -8.22,0 -16.09,-1.06 -23.59,-3.12 -7.44,-2.13 -14.84,-5.41 -22.06,-9.82l0 0.01z"/>
   <path id="_7_30" class="fil8" d="M5545.3 7131.17c-19.78,0 -35.35,-5.6 -46.69,-16.82 -11.38,-11.25 -17.06,-26.4 -17.06,-45.53 0.06,-19.94 5.97,-35.53 17.72,-46.72 11.75,-11.22 27.65,-16.81 47.72,-16.81 19.78,0 35.25,5.59 46.4,16.75 11.19,11.19 16.78,26.06 16.78,44.69 0,19.84 -5.78,35.53 -17.4,47.09 -11.6,11.53 -27.41,17.34 -47.47,17.34l0 0.01zm1.22 -26.91c9.34,0 16.34,-3.06 21.03,-9.28 4.68,-6.19 7.03,-15.35 7.03,-27.56 0,-11.57 -2.38,-20.38 -7.13,-26.25 -4.72,-5.91 -11.75,-8.88 -21.15,-8.88 -9.22,0 -16.41,3.16 -21.5,9.5 -5.1,6.31 -7.69,15.19 -7.69,26.56 0,11.91 2.5,20.85 7.47,26.88 4.97,6.03 12.28,9.03 21.94,9.03z"/>
   <path id="_8_31" class="fil8" d="M5710.17 7037.45c-1.53,-0.41 -3.06,-0.69 -4.62,-0.88 -1.57,-0.19 -3.35,-0.28 -5.32,-0.28 -9.56,0 -16.75,3.03 -21.59,9.09 -4.84,6.1 -7.25,14.47 -7.25,25.22l0 57.69 -35.03 0 0 -120.03 35.03 0 0 22.41 0.47 0c2.87,-8.16 6.97,-14.28 12.28,-18.41 5.31,-4.13 11.75,-6.19 19.41,-6.19 1.81,0 3.56,0.16 5.25,0.41 1.69,0.25 3.47,0.56 5.4,0.97l-4.03 30z"/>
   <polygon id="text7189_10" class="fil8" points="5882.3,6511.38 5846.49,6511.38 5846.49,6347.29 5882.3,6347.29 "/>
   <polygon id="_1_32" class="fil8" points="6010.11,6347.29 5930.24,6538.38 5899.08,6538.38 5978.61,6347.29 "/>
   <path id="_2_33" class="fil8" d="M6096.7 6514.26c-23.46,0 -42.62,-7.66 -57.37,-22.94 -14.78,-15.31 -22.16,-35.25 -22.16,-59.81 0,-25.94 7.5,-46.91 22.5,-62.94 14.97,-16 34.88,-24 59.69,-24 23.31,0 42.22,7.66 56.66,22.97 14.4,15.35 21.59,35.56 21.59,60.66 0,25.78 -7.44,46.59 -22.34,62.37 -14.94,15.78 -34.47,23.69 -58.57,23.69l0 0zm0.6 -30.91c13.12,0 23.5,-4.69 31.15,-14.06 7.66,-9.38 11.53,-22.37 11.53,-39.03 0,-17.34 -3.75,-30.81 -11.15,-40.47 -7.44,-9.66 -17.63,-14.44 -30.53,-14.44 -13.29,0 -23.82,4.94 -31.66,14.85 -7.91,9.9 -11.81,23.03 -11.81,39.37 0,16.56 3.9,29.69 11.72,39.32 7.81,9.65 18.09,14.46 30.75,14.46l0 0z"/>
  </g>
  <g id="_2901440056832">
   <g>
    <polygon id="rect7201_11" class="fil1" points="1950.37,5915.98 3707.69,5915.98 3707.69,4052.33 1950.37,4052.33 "/>
    <polygon id="_1_34" class="fil0 str0" points="1950.37,5915.98 3707.69,5915.98 3707.69,4052.33 1950.37,4052.33 "/>
   </g>
   <g>
    <path class="fil2" d="M2863.06 5264.89l-68.62 0.75 33.62 -62.72 35 61.97 0 0zm-38.34 60.5l-0.72 -65.47 9.37 -0.09 0.72 65.47 -9.37 0.09zm38.94 -5.81l-33.66 62.75 -34.97 -62 68.63 -0.75z"/>
   </g>
   <g>
    <path class="fil6" d="M2863.06 4647.98l-68.62 0.75 33.62 -62.72 35 61.97 0 0zm-38.34 60.53l-0.72 -65.5 9.37 -0.09 0.72 65.47 -9.37 0.12zm38.94 -5.84l-33.66 62.75 -34.97 -62 68.63 -0.75z"/>
   </g>
   <rect id="rect7187_12" class="fil3 str1" x="2038.25" y="4765.42" width="1581.59" height="437.5"/>
   <rect class="fil4 str2" x="2038.25" y="5382.33" width="1581.59" height="437.5"/>
   <g>
    <polygon class="fil9" points="2038.25,4148.51 2038.25,4586.01 3619.84,4586.01 3619.84,4148.51 "/>
    <path id="_1_35" class="fil10" d="M2033.53 4586.01l0 -437.5 9.41 0 0 437.5 -4.69 4.69 -4.72 -4.69zm4.72 4.69l-4.72 0 0 -4.69 4.72 4.69zm1581.59 0l-1581.59 0 0 -9.37 1581.59 0 4.69 4.68 -4.69 4.69zm4.69 -4.69l0 4.69 -4.69 0 4.69 -4.69zm0 -437.5l0 437.5 -9.41 0 0 -437.5 4.72 -4.68 4.69 4.68zm-4.69 -4.68l4.69 0 0 4.68 -4.69 -4.68zm-1581.59 0l1581.59 0 0 9.37 -1581.59 0 -4.72 -4.69 4.72 -4.68zm-4.72 4.68l0 -4.68 4.72 0 -4.72 4.68z"/>
   </g>
   <path id="text7189_13" class="fil8" d="M2328.09 5010.51l0 54.29 -35.93 0 0.12 -164.13 57.09 0c20.44,0 35.85,4.47 46.1,13.41 10.31,8.9 15.47,22.28 15.47,40.03 0,16.87 -5.88,30.47 -17.69,40.87 -11.78,10.38 -27.5,15.54 -47.19,15.54l-17.97 0 0 -0.01zm0 -82.12l0 54.78 14.88 0.12c10.06,0 17.62,-2.34 22.72,-7 5.06,-4.62 7.56,-11.62 7.5,-20.93 0,-8.97 -2.5,-15.72 -7.5,-20.22 -5,-4.53 -12.5,-6.75 -22.5,-6.75l-15.1 0 0 0z"/>
   <path id="_1_36" class="fil8" d="M2507.97 4973.92c-1.5,-0.38 -3.03,-0.66 -4.6,-0.84 -1.56,-0.22 -3.37,-0.28 -5.31,-0.28 -9.56,0 -16.75,3 -21.59,9.06 -4.85,6.09 -7.28,14.5 -7.28,25.22l0 57.72 -35 0 0 -120.07 35 0 0 22.44 0.47 0c2.9,-8.16 7,-14.31 12.31,-18.44 5.31,-4.09 11.75,-6.18 19.41,-6.18 1.81,0 3.56,0.15 5.25,0.4 1.68,0.28 3.46,0.6 5.37,0.97l-4.03 30 0 0z"/>
   <path id="_2_37" class="fil8" d="M2586.16 5067.64c-19.79,0 -35.32,-5.59 -46.69,-16.81 -11.38,-11.25 -17.06,-26.41 -17.06,-45.54 0.06,-19.93 5.97,-35.5 17.71,-46.71 11.75,-11.22 27.66,-16.82 47.75,-16.82 19.75,0 35.22,5.6 46.41,16.78 11.16,11.16 16.75,26.04 16.75,44.69 0,19.85 -5.78,35.5 -17.37,47.06 -11.63,11.57 -27.44,17.35 -47.5,17.35l0 0zm1.25 -26.88c9.31,0 16.31,-3.09 21,-9.31 4.68,-6.16 7.03,-15.34 7.03,-27.56 0,-11.56 -2.38,-20.35 -7.1,-26.25 -4.75,-5.91 -11.78,-8.88 -21.18,-8.88 -9.22,0 -16.41,3.16 -21.47,9.5 -5.13,6.32 -7.72,15.19 -7.72,26.57 0,11.9 2.5,20.84 7.47,26.87 4.97,6.06 12.28,9.06 21.97,9.06z"/>
   <path id="_3_38" class="fil8" d="M2772.91 5056.89c-6.1,3.75 -12.32,6.44 -18.6,8.16 -6.28,1.71 -13.12,2.59 -20.56,2.59 -20,0 -35.56,-5.56 -46.78,-16.66 -11.22,-11.09 -16.85,-25.53 -16.85,-43.31 0,-20.34 6.03,-36.44 18.07,-48.25 11.97,-11.78 27.9,-17.66 47.75,-17.66 7.31,0 13.81,0.72 19.37,2.16 5.63,1.44 11.22,3.75 16.81,6.88l-13.06 23.68c-3.59,-2.03 -7.09,-3.53 -10.53,-4.47 -3.44,-0.9 -7.19,-1.37 -11.22,-1.37 -9.9,0 -17.66,3.22 -23.25,9.62 -5.53,6.41 -8.34,15.44 -8.34,27.03 0,11.13 3,19.82 8.97,26.1 6.03,6.25 13.5,9.37 22.5,9.37 2.65,0 6,-0.56 9.97,-1.68 3.93,-1.1 7.96,-2.88 12,-5.44l13.75 23.25z"/>
   <path id="_4_39" class="fil8" d="M2901.41 5014.55l-79.03 0c0.56,9.31 3.62,16.24 9,20.81 5.43,4.59 12.93,6.87 22.53,6.87 3.43,0 8.18,-1 14.22,-3.03 6.03,-2.03 11.93,-5.15 17.74,-9.4l15.32 20.21c-8.1,6.1 -16.38,10.6 -24.88,13.41 -8.53,2.81 -17.81,4.22 -27.97,4.22 -19.21,0 -34.15,-5.34 -44.78,-16.13 -10.59,-10.75 -15.94,-25.75 -16,-44.96 0,-19.22 5.63,-34.85 16.88,-46.82 11.25,-11.97 25.5,-17.97 42.78,-17.97 16.5,0 29.72,5.07 39.5,15.16 9.81,10.12 14.69,24.62 14.69,43.56l0 14.06 0 0.01zm-32.6 -21.88c0,-9.53 -1.84,-16.41 -5.56,-20.66 -3.72,-4.22 -9.13,-6.34 -16.28,-6.34 -6.31,0 -11.81,2.44 -16.38,7.28 -4.56,4.85 -7.37,11.41 -8.34,19.72l46.56 0z"/>
   <path id="_5_40" class="fil8" d="M2914.47 5054.7l14.4 -23.44c4.04,3.13 8.85,5.79 14.38,7.94 5.53,2.19 11.66,3.28 18.37,3.28 5.13,0 9.29,-0.94 12.54,-2.81 3.25,-1.88 4.84,-4.72 4.84,-8.53 0,-3.13 -1.25,-5.56 -3.78,-7.38 -2.5,-1.78 -7.16,-3.43 -13.97,-4.87 -14.87,-3.22 -25.53,-7.66 -32,-13.41 -6.5,-5.69 -9.75,-13.75 -9.75,-24.12 0,-12.03 4.78,-21.66 14.34,-28.85 9.57,-7.18 21.38,-10.75 35.32,-10.75 7.28,0 14.06,0.91 20.43,2.75 6.35,1.85 12.41,4.6 18.13,8.35l-13.19 22.65c-4.78,-3.03 -9.28,-5.25 -13.53,-6.72 -4.22,-1.41 -8.59,-2.09 -13.09,-2.09 -5.28,0 -9.47,1 -12.56,2.97 -3.13,2 -4.75,4.56 -4.75,7.68 0,3.44 1.47,5.97 4.31,7.63 2.87,1.63 8.34,3.28 16.44,4.97 13.78,2.81 23.75,7.22 29.81,13.16 6.03,5.93 9.09,14.03 9.09,24.25 0,12.15 -4.56,21.87 -13.75,29.25 -9.12,7.34 -21.28,11.03 -36.38,11.03 -8.25,0 -16.09,-1.07 -23.59,-3.13 -7.44,-2.12 -14.84,-5.4 -22.06,-9.81l0 0z"/>
   <path id="_6_41" class="fil8" d="M3021.81 5054.7l14.41 -23.44c4.03,3.13 8.84,5.79 14.37,7.94 5.53,2.19 11.66,3.28 18.38,3.28 5.12,0 9.28,-0.94 12.53,-2.81 3.25,-1.88 4.84,-4.72 4.84,-8.53 0,-3.13 -1.24,-5.56 -3.78,-7.38 -2.5,-1.78 -7.15,-3.43 -13.96,-4.87 -14.88,-3.22 -25.54,-7.66 -32,-13.41 -6.5,-5.69 -9.75,-13.75 -9.75,-24.12 0,-12.03 4.78,-21.66 14.34,-28.85 9.56,-7.18 21.37,-10.75 35.31,-10.75 7.28,0 14.06,0.91 20.44,2.75 6.34,1.85 12.41,4.6 18.12,8.35l-13.18 22.65c-4.78,-3.03 -9.28,-5.25 -13.53,-6.72 -4.22,-1.41 -8.6,-2.09 -13.1,-2.09 -5.28,0 -9.47,1 -12.56,2.97 -3.12,2 -4.75,4.56 -4.75,7.68 0,3.44 1.47,5.97 4.31,7.63 2.88,1.63 8.35,3.28 16.44,4.97 13.78,2.81 23.75,7.22 29.81,13.16 6.03,5.93 9.1,14.03 9.1,24.25 0,12.15 -4.57,21.87 -13.75,29.25 -9.13,7.34 -21.29,11.03 -36.38,11.03 -8.25,0 -16.09,-1.07 -23.59,-3.13 -7.44,-2.12 -14.85,-5.4 -22.07,-9.81l0 0z"/>
   <path id="_7_42" class="fil8" d="M3197 5067.64c-19.75,0 -35.31,-5.59 -46.66,-16.81 -11.37,-11.25 -17.09,-26.41 -17.09,-45.54 0.09,-19.93 6,-35.5 17.75,-46.71 11.75,-11.22 27.66,-16.82 47.72,-16.82 19.78,0 35.25,5.6 46.41,16.78 11.18,11.16 16.78,26.04 16.78,44.69 0,19.85 -5.82,35.5 -17.41,47.06 -11.59,11.57 -27.41,17.35 -47.5,17.35l0 0zm1.25 -26.88c9.34,0 16.34,-3.09 21.03,-9.31 4.69,-6.16 7.03,-15.34 7.03,-27.56 0,-11.56 -2.37,-20.35 -7.12,-26.25 -4.72,-5.91 -11.75,-8.88 -21.16,-8.88 -9.22,0 -16.41,3.16 -21.5,9.5 -5.09,6.32 -7.69,15.19 -7.69,26.57 0,11.9 2.5,20.84 7.47,26.87 4.97,6.06 12.25,9.06 21.94,9.06z"/>
   <path id="_8_43" class="fil8" d="M3361.91 4973.92c-1.53,-0.38 -3.07,-0.66 -4.63,-0.84 -1.56,-0.22 -3.34,-0.28 -5.31,-0.28 -9.56,0 -16.75,3 -21.6,9.06 -4.84,6.09 -7.28,14.5 -7.28,25.22l0 57.72 -35 0 0 -120.07 35 0 0 22.44 0.47 0c2.91,-8.16 7,-14.31 12.32,-18.44 5.31,-4.09 11.74,-6.18 19.4,-6.18 1.81,0 3.56,0.15 5.25,0.4 1.69,0.28 3.47,0.6 5.38,0.97l-4 30 0 0z"/>
   <path id="text7195_14" class="fil5" d="M2545.22 5655.01l-35.41 0 0 -98.97c0,-5.18 0.13,-10.71 0.38,-16.56 0.22,-5.81 0.56,-11.97 1,-18.37l-0.91 0c-0.97,4.96 -1.87,9.21 -2.68,12.78 -0.78,3.56 -1.57,6.37 -2.35,8.53l-39.68 112.59 -28.75 0 -40.29 -111.47c-0.53,-1.53 -1.25,-4.15 -2.09,-7.9 -0.91,-3.69 -1.91,-8.54 -3.06,-14.54l-1 0c0.5,7.76 0.87,15.1 1.12,22.13 0.22,7 0.35,13.59 0.35,19.81l0 91.97 -32.38 0 0 -164.09 52.31 0 34.66 98.4c1.34,3.66 2.53,7.25 3.41,10.82 0.93,3.56 1.75,7.12 2.43,10.72l0.66 0c1.19,-4.13 2.28,-8.04 3.34,-11.69 1.07,-3.63 2.16,-7 3.32,-10.1l34.78 -98.15 50.84 0 0 164.09 0 0z"/>
   <path id="_1_44" class="fil5" d="M2688.44 5604.8l-79.03 0c0.56,9.28 3.62,16.24 9,20.81 5.43,4.56 12.93,6.87 22.56,6.87 3.4,0 8.16,-1 14.19,-3.03 6.03,-2.03 11.93,-5.15 17.75,-9.44l15.31 20.25c-8.1,6.1 -16.38,10.6 -24.88,13.41 -8.53,2.81 -17.81,4.22 -27.97,4.22 -19.21,0 -34.15,-5.37 -44.78,-16.16 -10.56,-10.71 -15.93,-25.71 -16,-44.93 0,-19.22 5.63,-34.85 16.88,-46.82 11.25,-12 25.5,-17.97 42.78,-17.97 16.5,0 29.72,5.04 39.53,15.16 9.78,10.13 14.66,24.63 14.66,43.56l0 14.07zm-32.6 -21.88c0,-9.53 -1.84,-16.41 -5.56,-20.66 -3.69,-4.22 -9.12,-6.34 -16.28,-6.34 -6.31,0 -11.78,2.44 -16.38,7.28 -4.56,4.85 -7.37,11.41 -8.34,19.72l46.56 0z"/>
   <path id="_2_45" class="fil5" d="M2901.06 5655.01l-34.87 0 0 -68.53c0,-9.31 -1.69,-16.22 -5,-20.72 -3.32,-4.5 -8.35,-6.75 -15.16,-6.75 -6.31,0 -11.53,2.72 -15.59,8.25 -4,5.5 -6.03,12.28 -6.03,20.47l0 67.28 -35 0 0 -69.43c0,-8.94 -1.69,-15.6 -5,-20 -3.35,-4.38 -8.25,-6.57 -14.81,-6.57 -6.66,0 -11.97,2.63 -15.91,7.85 -3.97,5.19 -5.97,12.31 -5.97,21.22l0 66.93 -35 0 0 -120.03 35 0 0 18.75 0.47 0c3.91,-6.56 9.25,-11.84 16.09,-15.78 6.78,-3.97 14.35,-5.93 22.57,-5.93 8.5,0 15.62,1.87 21.4,5.71 5.85,3.82 10.25,9.44 13.28,16.94 4.6,-7.56 10.25,-13.25 16.97,-17 6.69,-3.78 14.5,-5.65 23.31,-5.65 13.13,0 22.97,4.03 29.51,12.12 6.53,8.06 9.75,20.19 9.75,36.28l0 74.6 -0.01 -0.01z"/>
   <path id="_3_46" class="fil5" d="M2989.09 5657.89c-19.78,0 -35.34,-5.59 -46.68,-16.81 -11.38,-11.25 -17.07,-26.41 -17.07,-45.54 0.07,-19.93 5.97,-35.53 17.72,-46.71 11.75,-11.22 27.66,-16.82 47.72,-16.82 19.78,0 35.25,5.6 46.41,16.75 11.19,11.19 16.78,26.07 16.78,44.69 0,19.84 -5.78,35.53 -17.38,47.09 -11.62,11.57 -27.43,17.35 -47.5,17.35l0 0zm1.22 -26.88c9.35,0 16.35,-3.09 21.03,-9.31 4.69,-6.16 7.03,-15.34 7.03,-27.56 0,-11.56 -2.37,-20.38 -7.09,-26.25 -4.75,-5.91 -11.78,-8.88 -21.19,-8.88 -9.22,0 -16.4,3.16 -21.47,9.5 -5.12,6.32 -7.71,15.19 -7.71,26.57 0,11.9 2.5,20.84 7.46,26.87 4.97,6.03 12.29,9.06 21.94,9.06z"/>
   <path id="_4_47" class="fil5" d="M3153.97 5564.17c-1.53,-0.41 -3.06,-0.66 -4.63,-0.88 -1.56,-0.18 -3.34,-0.25 -5.31,-0.25 -9.56,0 -16.75,3 -21.59,9.07 -4.85,6.09 -7.25,14.47 -7.25,25.22l0 57.68 -35 0 0 -120.03 35 0 0 22.44 0.47 0c2.87,-8.19 6.96,-14.31 12.28,-18.44 5.31,-4.12 11.78,-6.18 19.4,-6.18 1.82,0 3.57,0.15 5.25,0.4 1.69,0.25 3.47,0.56 5.41,0.97l-4.03 30z"/>
   <path id="_5_48" class="fil5" d="M3298.62 5534.98l-53.87 142.03c-4.16,10.91 -10.28,19.35 -18.41,25.29 -8.12,5.93 -17.84,8.9 -29.22,8.9 -3.59,0 -7.12,-0.19 -10.59,-0.62 -3.47,-0.41 -6.78,-1.03 -10,-1.88l6.06 -25.97c1.85,0.69 3.63,1.16 5.44,1.47 1.78,0.31 3.75,0.47 5.88,0.47 3.81,0 7.21,-0.97 10.12,-2.84 2.94,-1.91 5.31,-4.97 7.16,-9.19l7.56 -17.85 -48.53 -119.81 38.69 0 23.56 75.28c0.72,2.07 1.28,4.38 1.84,6.88 0.56,2.53 0.97,5.31 1.38,8.34l0.47 0c0.37,-2.19 0.84,-4.53 1.47,-6.97 0.62,-2.43 1.37,-5.09 2.31,-8.03l23.9 -75.5 34.79 0 -0.01 0z"/>
   <polygon id="text7189_15" class="fil8" points="2699.28,4447.89 2663.47,4447.89 2663.47,4283.76 2699.28,4283.76 "/>
   <polygon id="_1_49" class="fil8" points="2827.09,4283.76 2747.22,4474.89 2716.09,4474.89 2795.62,4283.76 "/>
   <path id="_2_50" class="fil8" d="M2913.72 4450.73c-23.5,0 -42.63,-7.65 -57.41,-22.93 -14.75,-15.32 -22.12,-35.22 -22.12,-59.79 0,-25.93 7.5,-46.93 22.5,-62.93 14.93,-16.03 34.87,-24.03 59.68,-24.03 23.32,0 42.22,7.65 56.63,22.97 14.4,15.34 21.59,35.59 21.59,60.65 0,25.78 -7.4,46.6 -22.34,62.41 -14.91,15.78 -34.44,23.65 -58.53,23.65l0 0zm0.56 -30.9c13.13,0 23.53,-4.69 31.19,-14.07 7.65,-9.37 11.53,-22.37 11.53,-39.03 0,-17.34 -3.75,-30.81 -11.19,-40.43 -7.41,-9.66 -17.62,-14.47 -30.5,-14.47 -13.28,0 -23.84,4.97 -31.69,14.84 -7.87,9.94 -11.78,23.06 -11.78,39.38 0,16.56 3.91,29.68 11.72,39.34 7.81,9.63 18.06,14.44 30.72,14.44l0 0z"/>
  </g>
  <g id="_2901440064896">
   <g>
    <polygon id="rect7201_16" class="fil1" points="8318.28,3071.14 10075.59,3071.14 10075.59,1207.48 8318.28,1207.48 "/>
    <polygon id="_1_51" class="fil0 str0" points="8318.28,3071.14 10075.59,3071.14 10075.59,1207.48 8318.28,1207.48 "/>
   </g>
   <g>
    <path class="fil2" d="M9230.94 2420.08l-68.63 0.72 33.66 -62.72 34.97 62zm-38.35 60.5l-0.72 -65.5 9.38 -0.1 0.72 65.47 -9.38 0.13zm38.94 -5.85l-33.62 62.75 -34.97 -62 68.59 -0.75z"/>
   </g>
   <g>
    <path class="fil6" d="M9230.94 1803.17l-68.63 0.75 33.66 -62.75 34.97 62zm-38.35 60.5l-0.72 -65.5 9.38 -0.09 0.72 65.46 -9.38 0.13zm38.94 -5.84l-33.62 62.75 -34.97 -62 68.59 -0.75z"/>
   </g>
   <rect id="rect7187_17" class="fil3 str1" x="8406.13" y="1920.58" width="1581.59" height="437.5"/>
   <rect class="fil4 str2" x="8406.13" y="2537.48" width="1581.59" height="437.5"/>
   <g>
    <polygon class="fil9" points="8406.13,1303.67 8406.13,1741.17 9987.72,1741.17 9987.72,1303.67 "/>
    <path id="_1_52" class="fil10" d="M8401.44 1741.17l0 -437.5 9.4 0 0 437.5 -4.71 4.69 -4.69 -4.69zm4.69 4.69l-4.69 0 0 -4.69 4.69 4.69zm1581.59 0l-1581.6 0 0 -9.38 1581.6 0 4.72 4.69 -4.72 4.69zm4.72 -4.69l0 4.69 -4.72 0 4.72 -4.69zm0 -437.5l0 437.5 -9.41 0 0 -437.5 4.69 -4.69 4.72 4.69zm-4.72 -4.69l4.72 0 0 4.69 -4.72 -4.69zm-1581.59 0l1581.59 0 0 9.38 -1581.59 0 -4.69 -4.69 4.69 -4.69zm-4.69 4.69l0 -4.69 4.69 0 -4.69 4.69z"/>
   </g>
   <path id="text7189_18" class="fil8" d="M8696 2165.7l0 54.25 -35.94 0 0.1 -164.09 57.12 0c20.44,0 35.81,4.44 46.09,13.37 10.32,8.91 15.47,22.28 15.47,40.07 0,16.87 -5.9,30.46 -17.68,40.84 -11.82,10.41 -27.5,15.56 -47.19,15.56l-17.97 0zm0 -82.15l0 54.81 14.87 0.09c10.04,0 17.63,-2.34 22.69,-6.97 5.1,-4.65 7.6,-11.65 7.5,-20.93 0,-9 -2.5,-15.75 -7.5,-20.25 -5,-4.54 -12.5,-6.75 -22.5,-6.75l-15.06 0z"/>
   <path id="_1_53" class="fil8" d="M8875.87 2129.08c-1.53,-0.38 -3.03,-0.66 -4.59,-0.85 -1.56,-0.18 -3.37,-0.28 -5.31,-0.28 -9.6,0 -16.78,3 -21.63,9.06 -4.84,6.1 -7.25,14.51 -7.25,25.25l0 57.69 -34.99 0 0 -120.03 34.99 0 0 22.41 0.47 0c2.88,-8.16 7,-14.28 12.32,-18.44 5.31,-4.09 11.75,-6.16 19.4,-6.16 1.78,0 3.57,0.16 5.22,0.38 1.69,0.28 3.5,0.59 5.41,0.97l-4.03 30 -0.01 0z"/>
   <path id="_2_54" class="fil8" d="M8954.03 2222.79c-19.75,0 -35.31,-5.59 -46.66,-16.78 -11.37,-11.25 -17.09,-26.4 -17.09,-45.56 0.09,-19.9 6,-35.5 17.75,-46.72 11.75,-11.22 27.66,-16.78 47.72,-16.78 19.78,0 35.25,5.56 46.41,16.75 11.18,11.16 16.78,26.06 16.78,44.69 0,19.84 -5.82,35.5 -17.41,47.06 -11.59,11.56 -27.41,17.34 -47.5,17.34zm1.25 -26.87c9.35,0 16.35,-3.09 21.03,-9.28 4.69,-6.19 7.03,-15.38 7.03,-27.6 0,-11.56 -2.37,-20.34 -7.12,-26.25 -4.72,-5.9 -11.75,-8.87 -21.16,-8.87 -9.22,0 -16.4,3.19 -21.5,9.5 -5.09,6.34 -7.69,15.19 -7.69,26.56 0,11.91 2.5,20.88 7.47,26.88 4.97,6.06 12.25,9.06 21.94,9.06z"/>
   <path id="_3_55" class="fil8" d="M9140.81 2212.05c-6.09,3.75 -12.31,6.46 -18.59,8.18 -6.31,1.72 -13.13,2.57 -20.56,2.57 -20,0 -35.6,-5.54 -46.82,-16.63 -11.18,-11.09 -16.81,-25.56 -16.81,-43.34 0,-20.35 6,-36.44 18.03,-48.22 12,-11.81 27.94,-17.66 47.78,-17.66 7.31,0 13.78,0.69 19.38,2.13 5.62,1.47 11.22,3.75 16.81,6.87l-13.06 23.69c-3.6,-2.03 -7.1,-3.53 -10.53,-4.47 -3.47,-0.88 -7.22,-1.34 -11.22,-1.34 -9.94,0 -17.66,3.18 -23.25,9.59 -5.57,6.41 -8.38,15.44 -8.38,27.03 0,11.12 3.03,19.81 9,26.09 6,6.25 13.47,9.38 22.5,9.38 2.66,0 5.97,-0.53 9.97,-1.69 3.94,-1.09 7.97,-2.87 11.97,-5.4l13.78 23.22 0 0z"/>
   <path id="_4_56" class="fil8" d="M9269.31 2169.7l-79.06 0c0.59,9.31 3.63,16.25 9.03,20.85 5.44,4.56 12.94,6.87 22.53,6.87 3.44,0 8.16,-1.03 14.22,-3.06 6.03,-2.03 11.91,-5.16 17.75,-9.41l15.31 20.22c-8.09,6.09 -16.37,10.59 -24.9,13.41 -8.5,2.81 -17.81,4.22 -27.97,4.22 -19.22,0 -34.13,-5.35 -44.75,-16.13 -10.59,-10.75 -15.94,-25.75 -16.03,-44.97 0,-19.22 5.62,-34.84 16.87,-46.78 11.25,-12 25.53,-17.97 42.78,-17.97 16.54,0 29.72,5.03 39.54,15.16 9.81,10.09 14.68,24.59 14.68,43.53l0 14.06 0 0zm-32.62 -21.87c0,-9.53 -1.82,-16.41 -5.53,-20.66 -3.72,-4.22 -9.16,-6.31 -16.28,-6.31 -6.35,0 -11.82,2.4 -16.38,7.25 -4.56,4.84 -7.37,11.4 -8.37,19.72l46.56 0 0 0z"/>
   <path id="_5_57" class="fil8" d="M9282.38 2209.86l14.4 -23.44c4.03,3.12 8.81,5.78 14.38,7.94 5.5,2.18 11.62,3.28 18.34,3.28 5.12,0 9.31,-0.94 12.56,-2.82 3.22,-1.87 4.85,-4.71 4.85,-8.5 0,-3.12 -1.25,-5.59 -3.82,-7.4 -2.5,-1.78 -7.12,-3.44 -13.93,-4.88 -14.88,-3.19 -25.53,-7.65 -32.04,-13.4 -6.46,-5.69 -9.71,-13.75 -9.71,-24.13 0,-12.03 4.75,-21.66 14.34,-28.84 9.56,-7.19 21.34,-10.72 35.31,-10.72 7.25,0 14.06,0.87 20.41,2.72 6.37,1.84 12.43,4.62 18.12,8.37l-13.15 22.66c-4.82,-3.06 -9.29,-5.28 -13.57,-6.72 -4.22,-1.41 -8.59,-2.13 -13.06,-2.13 -5.28,0 -9.47,1.04 -12.59,2.97 -3.13,2 -4.72,4.57 -4.72,7.69 0,3.44 1.44,6 4.28,7.63 2.91,1.65 8.37,3.28 16.47,4.97 13.78,2.81 23.75,7.21 29.78,13.15 6.06,5.94 9.13,14.03 9.13,24.25 0,12.16 -4.6,21.88 -13.76,29.28 -9.15,7.35 -21.31,11 -36.37,11 -8.25,0 -16.09,-1.06 -23.59,-3.12 -7.47,-2.1 -14.85,-5.38 -22.07,-9.82l0.01 0.01z"/>
   <path id="_6_58" class="fil8" d="M9389.72 2209.86l14.41 -23.44c4.03,3.12 8.81,5.78 14.37,7.94 5.5,2.18 11.63,3.28 18.34,3.28 5.13,0 9.32,-0.94 12.57,-2.82 3.22,-1.87 4.84,-4.71 4.84,-8.5 0,-3.12 -1.25,-5.59 -3.81,-7.4 -2.5,-1.78 -7.13,-3.44 -13.94,-4.88 -14.87,-3.19 -25.53,-7.65 -32.03,-13.4 -6.47,-5.69 -9.72,-13.75 -9.72,-24.13 0,-12.03 4.75,-21.66 14.34,-28.84 9.57,-7.19 21.35,-10.72 35.32,-10.72 7.25,0 14.06,0.87 20.4,2.72 6.38,1.84 12.44,4.62 18.13,8.37l-13.16 22.66c-4.81,-3.06 -9.28,-5.28 -13.56,-6.72 -4.22,-1.41 -8.6,-2.13 -13.07,-2.13 -5.28,0 -9.46,1.04 -12.59,2.97 -3.12,2 -4.72,4.57 -4.72,7.69 0,3.44 1.44,6 4.28,7.63 2.91,1.65 8.38,3.28 16.47,4.97 13.78,2.81 23.75,7.21 29.78,13.15 6.07,5.94 9.13,14.03 9.13,24.25 0,12.16 -4.59,21.88 -13.75,29.28 -9.16,7.35 -21.31,11 -36.38,11 -8.25,0 -16.09,-1.06 -23.59,-3.12 -7.47,-2.1 -14.84,-5.38 -22.06,-9.82l0 0.01z"/>
   <path id="_7_59" class="fil8" d="M9564.91 2222.79c-19.78,0 -35.32,-5.59 -46.69,-16.78 -11.38,-11.25 -17.06,-26.4 -17.06,-45.56 0.06,-19.9 5.97,-35.5 17.72,-46.72 11.78,-11.22 27.65,-16.78 47.75,-16.78 19.75,0 35.21,5.56 46.4,16.75 11.16,11.16 16.75,26.06 16.75,44.69 0,19.84 -5.78,35.5 -17.37,47.06 -11.6,11.56 -27.44,17.34 -47.5,17.34zm1.25 -26.87c9.34,0 16.31,-3.09 21,-9.28 4.68,-6.19 7.03,-15.38 7.03,-27.6 0,-11.56 -2.38,-20.34 -7.1,-26.25 -4.71,-5.9 -11.75,-8.87 -21.18,-8.87 -9.22,0 -16.41,3.19 -21.47,9.5 -5.13,6.34 -7.69,15.19 -7.69,26.56 0,11.91 2.5,20.88 7.44,26.88 4.97,6.06 12.28,9.06 21.96,9.06l0.01 0z"/>
   <path id="_8_60" class="fil8" d="M9729.78 2129.08c-1.53,-0.38 -3.03,-0.66 -4.59,-0.85 -1.56,-0.18 -3.38,-0.28 -5.31,-0.28 -9.6,0 -16.79,3 -21.63,9.06 -4.84,6.1 -7.25,14.51 -7.25,25.25l0 57.69 -35 0 0 -120.03 35 0 0 22.41 0.47 0c2.87,-8.16 7,-14.28 12.31,-18.44 5.32,-4.09 11.75,-6.16 19.41,-6.16 1.78,0 3.56,0.16 5.22,0.38 1.69,0.28 3.5,0.59 5.4,0.97l-4.03 30 0 0z"/>
   <path id="text7195_19" class="fil5" d="M8913.09 2810.2l-35.37 0 0 -99c0,-5.19 0.12,-10.69 0.34,-16.56 0.25,-5.81 0.6,-11.94 1.03,-18.34l-0.9 0c-0.97,4.93 -1.88,9.21 -2.69,12.75 -0.78,3.56 -1.56,6.37 -2.34,8.53l-39.69 112.62 -28.75 0 -40.28 -111.5c-0.56,-1.53 -1.25,-4.12 -2.13,-7.87 -0.87,-3.72 -1.9,-8.57 -3.03,-14.53l-1.03 0c0.53,7.71 0.91,15.06 1.16,22.09 0.22,7 0.34,13.59 0.34,19.81l0 92 -32.37 0 0 -164.12 52.28 0 34.65 98.4c1.38,3.69 2.53,7.28 3.44,10.82 0.94,3.56 1.72,7.12 2.44,10.71l0.66 0c1.15,-4.09 2.25,-8 3.31,-11.68 1.09,-3.63 2.19,-7 3.31,-10.07l34.81 -98.18 50.82 0 0 164.12 -0.01 0z"/>
   <path id="_1_61" class="fil5" d="M9056.34 2759.95l-79.06 0c0.59,9.31 3.63,16.25 9.03,20.81 5.44,4.6 12.94,6.88 22.53,6.88 3.44,0 8.16,-1 14.22,-3.03 6.03,-2.03 11.91,-5.16 17.75,-9.41l15.31 20.22c-8.09,6.09 -16.37,10.59 -24.9,13.41 -8.5,2.81 -17.81,4.22 -27.97,4.22 -19.22,0 -34.13,-5.35 -44.75,-16.13 -10.59,-10.75 -15.94,-25.75 -16.03,-44.97 0,-19.22 5.62,-34.84 16.87,-46.81 11.25,-11.97 25.54,-17.97 42.79,-17.97 16.53,0 29.71,5.06 39.53,15.16 9.81,10.12 14.68,24.62 14.68,43.56l0 14.06 0 0zm-32.62 -21.87c0,-9.53 -1.81,-16.41 -5.53,-20.66 -3.72,-4.22 -9.16,-6.34 -16.28,-6.34 -6.35,0 -11.82,2.43 -16.38,7.28 -4.56,4.84 -7.37,11.4 -8.37,19.72l46.56 0z"/>
   <path id="_2_62" class="fil5" d="M9268.97 2810.2l-34.88 0 0 -68.56c0,-9.31 -1.68,-16.22 -5,-20.72 -3.34,-4.47 -8.37,-6.75 -15.15,-6.75 -6.35,0 -11.53,2.75 -15.6,8.25 -4.03,5.5 -6.06,12.31 -6.06,20.47l0 67.31 -35 0 0 -69.47c0,-8.94 -1.69,-15.59 -5,-20 -3.31,-4.37 -8.25,-6.56 -14.81,-6.56 -6.62,0 -11.94,2.63 -15.87,7.84 -4.01,5.22 -6,12.32 -6,21.22l0 66.97 -35 0 0 -120.06 35 0 0 18.75 0.46 0c3.91,-6.56 9.29,-11.81 16.1,-15.78 6.81,-3.97 14.34,-5.94 22.59,-5.94 8.47,0 15.63,1.88 21.41,5.72 5.81,3.81 10.22,9.44 13.28,16.94 4.56,-7.57 10.22,-13.22 16.94,-16.97 6.68,-3.82 14.5,-5.69 23.34,-5.69 13.12,0 22.97,4.03 29.47,12.13 6.53,8.09 9.78,20.18 9.78,36.28l0 74.62 0 0z"/>
   <path id="_3_63" class="fil5" d="M9356.97 2813.04c-19.75,0 -35.31,-5.59 -46.69,-16.81 -11.34,-11.25 -17.06,-26.4 -17.06,-45.53 0.09,-19.94 5.97,-35.5 17.75,-46.72 11.75,-11.22 27.66,-16.81 47.72,-16.81 19.78,0 35.25,5.59 46.4,16.78 11.19,11.16 16.75,26.03 16.75,44.69 0,19.84 -5.78,35.5 -17.37,47.06 -11.59,11.56 -27.41,17.34 -47.5,17.34l0 0zm1.25 -26.87c9.34,0 16.34,-3.09 21.03,-9.31 4.69,-6.16 7.03,-15.35 7.03,-27.57 0,-11.56 -2.4,-20.34 -7.12,-26.25 -4.72,-5.9 -11.75,-8.87 -21.16,-8.87 -9.22,0 -16.41,3.16 -21.5,9.5 -5.12,6.31 -7.69,15.19 -7.69,26.56 0,11.91 2.5,20.85 7.47,26.88 4.94,6.06 12.25,9.06 21.94,9.06z"/>
   <path id="_4_64" class="fil5" d="M9521.84 2719.33c-1.5,-0.38 -3.03,-0.66 -4.59,-0.85 -1.56,-0.22 -3.38,-0.28 -5.31,-0.28 -9.56,0 -16.75,3 -21.6,9.06 -4.84,6.1 -7.28,14.51 -7.28,25.22l0 57.72 -35 0 0 -120.06 35 0 0 22.44 0.47 0c2.91,-8.16 7,-14.31 12.31,-18.44 5.32,-4.09 11.75,-6.19 19.41,-6.19 1.81,0 3.56,0.16 5.25,0.41 1.66,0.28 3.47,0.59 5.38,0.97l-4.04 30 0 0z"/>
   <path id="_5_65" class="fil5" d="M9666.5 2690.14l-53.87 142.03c-4.13,10.91 -10.25,19.34 -18.38,25.28 -8.12,5.94 -17.87,8.91 -29.22,8.91 -3.59,0 -7.13,-0.19 -10.59,-0.63 -3.47,-0.37 -6.82,-1 -10,-1.87l6.06 -25.97c1.81,0.69 3.62,1.16 5.41,1.47 1.81,0.31 3.75,0.47 5.9,0.47 3.78,0 7.19,-0.97 10.13,-2.85 2.94,-1.9 5.31,-4.97 7.15,-9.18l7.57 -17.85 -48.57 -119.81 38.72 0 23.57 75.28c0.68,2.06 1.28,4.38 1.84,6.88 0.53,2.53 0.97,5.31 1.34,8.37l0.47 0c0.41,-2.19 0.88,-4.53 1.5,-7 0.63,-2.44 1.38,-5.09 2.32,-8l23.9 -75.53 34.75 0 0 0z"/>
   <polygon id="text7189_20" class="fil8" points="9067.19,1603.05 9031.38,1603.05 9031.38,1438.95 9067.19,1438.95 "/>
   <polygon id="_1_66" class="fil8" points="9195,1438.95 9115.12,1630.05 9083.97,1630.05 9163.53,1438.95 "/>
   <path id="_2_67" class="fil8" d="M9281.59 1605.89c-23.46,0 -42.59,-7.66 -57.37,-22.94 -14.75,-15.31 -22.16,-35.22 -22.16,-59.78 0,-25.94 7.5,-46.94 22.5,-62.94 14.97,-16.03 34.88,-24.03 59.69,-24.03 23.31,0 42.22,7.66 56.66,22.97 14.4,15.34 21.59,35.59 21.59,60.66 0,25.78 -7.44,46.62 -22.34,62.4 -14.91,15.78 -34.47,23.66 -58.57,23.66l0 0zm0.6 -30.91c13.12,0 23.5,-4.69 31.15,-14.06 7.69,-9.38 11.53,-22.37 11.53,-39 0,-17.34 -3.75,-30.84 -11.15,-40.47 -7.44,-9.66 -17.63,-14.47 -30.53,-14.47 -13.25,0 -23.82,4.97 -31.66,14.85 -7.91,9.93 -11.81,23.06 -11.81,39.37 0,16.56 3.9,29.69 11.72,39.35 7.81,9.65 18.09,14.43 30.75,14.43l0 0z"/>
  </g>
  <g id="_2901440012048">
   <g>
    <polygon id="rect7201_68" class="fil1" points="2567.76,2345 4325.1,2345 4325.1,481.34 2567.76,481.34 "/>
    <polygon id="_1_69" class="fil0 str0" points="2567.76,2345 4325.1,2345 4325.1,481.34 2567.76,481.34 "/>
   </g>
   <g>
    <path class="fil2" d="M3480.45 1693.9l-68.63 0.75 33.62 -62.71 35 61.96 0.01 0zm-38.35 60.5l-0.72 -65.46 9.38 -0.1 0.72 65.47 -9.38 0.09zm38.94 -5.81l-33.63 62.72 -35 -61.97 68.63 -0.75 0 0z"/>
   </g>
   <rect id="rect7187_70" class="fil3 str1" x="2655.63" y="1194.4" width="790.78" height="437.5"/>
   <rect class="fil4 str2" x="2655.63" y="1811.31" width="1581.59" height="437.5"/>
   <path id="text7195_71" class="fil5" d="M3162.6 2084.03l-35.37 0 0 -98.97c0,-5.19 0.09,-10.72 0.34,-16.56 0.22,-5.82 0.59,-11.97 1,-18.38l-0.87 0c-1.01,4.97 -1.88,9.22 -2.72,12.78 -0.78,3.56 -1.57,6.38 -2.35,8.53l-39.68 112.6 -28.75 0 -40.25 -111.47c-0.57,-1.53 -1.25,-4.16 -2.13,-7.91 -0.91,-3.69 -1.91,-8.53 -3.03,-14.53l-1.03 0c0.5,7.75 0.9,15.09 1.12,22.13 0.25,7 0.38,13.59 0.38,19.81l0 91.97 -32.41 0 0 -164.1 52.32 0 34.65 98.41c1.38,3.66 2.53,7.25 3.44,10.81 0.94,3.56 1.72,7.13 2.41,10.72l0.68 0c1.16,-4.13 2.25,-8.03 3.32,-11.69 1.09,-3.62 2.18,-7 3.31,-10.09l34.81 -98.16 50.81 0 0 164.1 0 0z"/>
   <path id="_1_72" class="fil5" d="M3305.85 2033.81l-79.06 0c0.59,9.28 3.62,16.25 9.03,20.81 5.41,4.56 12.91,6.88 22.53,6.88 3.44,0 8.16,-1 14.22,-3.03 6,-2.03 11.91,-5.16 17.72,-9.44l15.31 20.25c-8.06,6.09 -16.34,10.59 -24.87,13.41 -8.5,2.81 -17.82,4.22 -27.97,4.22 -19.22,0 -34.13,-5.38 -44.75,-16.16 -10.6,-10.72 -15.94,-25.72 -16.03,-44.94 0,-19.22 5.62,-34.84 16.87,-46.81 11.25,-12 25.5,-17.97 42.78,-17.97 16.53,0 29.72,5.03 39.53,15.16 9.82,10.12 14.69,24.62 14.69,43.56l0 14.06zm-32.62 -21.88c0,-9.53 -1.85,-16.4 -5.54,-20.65 -3.71,-4.22 -9.15,-6.35 -16.31,-6.35 -6.31,0 -11.78,2.44 -16.34,7.29 -4.59,4.84 -7.41,11.4 -8.38,19.71l46.57 0z"/>
   <path id="_2_73" class="fil5" d="M3518.48 2084.03l-34.91 0 0 -68.53c0,-9.32 -1.66,-16.22 -5,-20.72 -3.31,-4.5 -8.34,-6.75 -15.16,-6.75 -6.31,0 -11.5,2.72 -15.56,8.25 -4.03,5.5 -6.06,12.28 -6.06,20.47l0 67.28 -35 0 0 -69.44c0,-8.94 -1.69,-15.59 -5,-20 -3.31,-4.37 -8.25,-6.56 -14.81,-6.56 -6.63,0 -11.94,2.62 -15.91,7.84 -3.97,5.19 -5.97,12.32 -5.97,21.22l0 66.94 -35 0 0 -120.03 35 0 0 18.75 0.47 0c3.91,-6.56 9.25,-11.85 16.1,-15.78 6.81,-3.97 14.34,-5.94 22.59,-5.94 8.47,0 15.62,1.88 21.4,5.72 5.82,3.81 10.22,9.44 13.29,16.94 4.56,-7.57 10.22,-13.25 16.93,-17 6.69,-3.78 14.5,-5.66 23.35,-5.66 13.12,0 22.97,4.03 29.47,12.13 6.53,8.06 9.78,20.18 9.78,36.28l0 74.59 0 0z"/>
   <path id="_3_74" class="fil5" d="M3606.48 2086.9c-19.78,0 -35.32,-5.59 -46.69,-16.81 -11.38,-11.25 -17.06,-26.4 -17.06,-45.53 0.06,-19.94 5.97,-35.53 17.72,-46.72 11.78,-11.22 27.65,-16.81 47.74,-16.81 19.76,0 35.22,5.59 46.41,16.75 11.16,11.19 16.75,26.06 16.75,44.69 0,19.84 -5.78,35.53 -17.37,47.09 -11.6,11.56 -27.44,17.34 -47.5,17.34l0 0zm1.25 -26.87c9.34,0 16.31,-3.1 21,-9.31 4.68,-6.16 7.03,-15.35 7.03,-27.57 0,-11.56 -2.38,-20.37 -7.1,-26.25 -4.72,-5.9 -11.75,-8.87 -21.18,-8.87 -9.22,0 -16.41,3.15 -21.47,9.5 -5.13,6.31 -7.69,15.19 -7.69,26.56 0,11.91 2.5,20.84 7.44,26.88 4.97,6.03 12.28,9.06 21.96,9.06l0.01 0z"/>
   <path id="_4_75" class="fil5" d="M3771.35 1993.18c-1.53,-0.4 -3.03,-0.65 -4.59,-0.87 -1.56,-0.19 -3.38,-0.25 -5.31,-0.25 -9.6,0 -16.79,3 -21.63,9.06 -4.84,6.1 -7.25,14.47 -7.25,25.22l0 57.69 -35 0 0 -120.03 35 0 0 22.43 0.47 0c2.87,-8.18 7,-14.31 12.31,-18.43 5.32,-4.13 11.75,-6.19 19.41,-6.19 1.78,0 3.56,0.16 5.22,0.41 1.69,0.25 3.5,0.56 5.4,0.96l-4.03 30 0 0z"/>
   <path id="_5_76" class="fil5" d="M3916.01 1964l-53.88 142.03c-4.12,10.9 -10.28,19.34 -18.4,25.28 -8.13,5.94 -17.85,8.91 -29.22,8.91 -3.6,0 -7.1,-0.19 -10.57,-0.63 -3.49,-0.4 -6.81,-1.03 -10,-1.87l6.04 -25.97c1.84,0.68 3.65,1.15 5.43,1.47 1.82,0.31 3.75,0.47 5.91,0.47 3.78,0 7.19,-0.97 10.13,-2.85 2.9,-1.9 5.31,-4.97 7.12,-9.19l7.59 -17.84 -48.56 -119.81 38.72 0 23.56 75.28c0.69,2.06 1.29,4.37 1.82,6.87 0.56,2.53 1,5.32 1.37,8.35l0.47 0c0.41,-2.19 0.88,-4.53 1.5,-6.97 0.63,-2.44 1.34,-5.1 2.28,-8.03l23.91 -75.5 34.78 0 0 0z"/>
   <g>
    <path class="fil6" d="M3480.45 1077l-68.63 0.75 33.62 -62.72 35 61.97 0.01 0zm-38.35 60.5l-0.72 -65.47 9.38 -0.09 0.72 65.46 -9.38 0.1zm38.94 -5.81l-33.63 62.71 -35 -61.96 68.63 -0.75 0 0z"/>
   </g>
   <rect id="rect7187_0_77" class="fil7 str1" x="3446.45" y="1194.4" width="790.78" height="437.5"/>
   <path id="text7189_78" class="fil8" d="M2945.51 1439.53l0 54.25 -35.94 0 0.09 -164.09 57.13 0c20.44,0 35.81,4.46 46.09,13.4 10.31,8.91 15.47,22.25 15.47,40.03 0,16.88 -5.91,30.47 -17.69,40.88 -11.81,10.37 -27.5,15.53 -47.18,15.53l-17.97 0 0 0zm0 -82.16l0 54.82 14.87 0.12c10.03,0 17.63,-2.34 22.69,-7 5.09,-4.66 7.59,-11.63 7.5,-20.94 0,-8.97 -2.5,-15.75 -7.5,-20.22 -5,-4.53 -12.5,-6.78 -22.5,-6.78l-15.06 0z"/>
   <path id="_1_79" class="fil8" d="M3125.38 1402.93c-1.53,-0.4 -3.06,-0.65 -4.62,-0.87 -1.57,-0.19 -3.35,-0.25 -5.32,-0.25 -9.56,0 -16.75,3 -21.59,9.06 -4.84,6.1 -7.25,14.47 -7.25,25.22l0 57.69 -35 0 0 -120.03 35 0 0 22.43 0.47 0c2.87,-8.18 6.97,-14.31 12.28,-18.43 5.31,-4.1 11.78,-6.19 19.44,-6.19 1.78,0 3.53,0.16 5.22,0.41 1.69,0.28 3.47,0.56 5.4,0.96l-4.03 30z"/>
   <path id="_2_80" class="fil8" d="M3203.54 1496.65c-19.75,0 -35.31,-5.59 -46.69,-16.81 -11.34,-11.25 -17.06,-26.4 -17.06,-45.53 0.09,-19.94 5.97,-35.53 17.75,-46.72 11.75,-11.22 27.65,-16.81 47.72,-16.81 19.78,0 35.25,5.59 46.4,16.75 11.19,11.19 16.75,26.06 16.75,44.72 0,19.81 -5.78,35.5 -17.37,47.06 -11.59,11.56 -27.41,17.34 -47.5,17.34l0 0zm1.25 -26.87c9.34,0 16.34,-3.1 21.03,-9.31 4.69,-6.16 7.03,-15.35 7.03,-27.57 0,-11.56 -2.4,-20.34 -7.12,-26.25 -4.72,-5.9 -11.75,-8.87 -21.16,-8.87 -9.22,0 -16.41,3.15 -21.5,9.5 -5.12,6.31 -7.69,15.19 -7.69,26.56 0,11.91 2.5,20.84 7.47,26.88 4.94,6.03 12.25,9.06 21.94,9.06z"/>
   <path id="_3_81" class="fil8" d="M3390.29 1485.9c-6.09,3.75 -12.28,6.44 -18.6,8.16 -6.28,1.72 -13.12,2.59 -20.53,2.59 -20,0 -35.59,-5.56 -46.81,-16.65 -11.19,-11.1 -16.81,-25.53 -16.81,-43.31 0,-20.35 6,-36.44 18.03,-48.25 12,-11.79 27.94,-17.66 47.78,-17.66 7.31,0 13.78,0.72 19.37,2.16 5.63,1.43 11.22,3.75 16.79,6.87l-13.04 23.66c-3.59,-2.03 -7.12,-3.5 -10.56,-4.44 -3.44,-0.91 -7.19,-1.37 -11.19,-1.37 -9.93,0 -17.65,3.21 -23.25,9.62 -5.56,6.41 -8.37,15.41 -8.37,27.03 0,11.13 3.03,19.78 9,26.09 6,6.26 13.47,9.38 22.5,9.38 2.66,0 5.97,-0.56 9.97,-1.69 3.94,-1.09 7.97,-2.9 11.97,-5.44l13.75 23.25 0 0z"/>
   <path id="_4_82" class="fil8" d="M3518.82 1443.56l-79.06 0c0.59,9.31 3.62,16.25 9.03,20.81 5.4,4.56 12.9,6.88 22.53,6.88 3.43,0 8.15,-1 14.22,-3.03 6,-2.03 11.9,-5.16 17.72,-9.44l15.31 20.25c-8.06,6.09 -16.34,10.59 -24.88,13.41 -8.5,2.81 -17.81,4.22 -27.96,4.22 -19.22,0 -34.13,-5.35 -44.75,-16.13 -10.6,-10.75 -15.94,-25.75 -16.04,-44.97 0,-19.22 5.63,-34.84 16.88,-46.81 11.25,-12 25.5,-17.97 42.78,-17.97 16.53,0 29.72,5.03 39.53,15.15 9.82,10.13 14.69,24.63 14.69,43.57l0 14.06 0 0zm-32.62 -21.88c0,-9.53 -1.85,-16.4 -5.54,-20.65 -3.72,-4.22 -9.15,-6.35 -16.31,-6.35 -6.31,0 -11.78,2.44 -16.34,7.29 -4.6,4.84 -7.41,11.4 -8.38,19.71l46.57 0z"/>
   <path id="_5_83" class="fil8" d="M3531.85 1483.72l14.44 -23.44c4,3.12 8.81,5.78 14.37,7.94 5.51,2.18 11.63,3.28 18.35,3.28 5.12,0 9.31,-0.94 12.53,-2.82 3.25,-1.87 4.84,-4.75 4.84,-8.53 0,-3.12 -1.25,-5.59 -3.78,-7.37 -2.5,-1.78 -7.15,-3.44 -13.93,-4.88 -14.88,-3.22 -25.57,-7.65 -32.04,-13.4 -6.5,-5.72 -9.71,-13.75 -9.71,-24.16 0,-12.03 4.75,-21.62 14.31,-28.81 9.59,-7.19 21.37,-10.75 35.31,-10.75 7.28,0 14.06,0.9 20.44,2.75 6.37,1.81 12.44,4.59 18.12,8.34l-13.15 22.66c-4.82,-3.04 -9.32,-5.29 -13.57,-6.72 -4.21,-1.41 -8.59,-2.1 -13.09,-2.1 -5.25,0 -9.44,1 -12.56,2.97 -3.13,1.97 -4.72,4.56 -4.72,7.69 0,3.44 1.44,5.97 4.28,7.62 2.91,1.63 8.38,3.29 16.44,4.94 13.81,2.81 23.75,7.25 29.81,13.19 6.06,5.94 9.09,14 9.09,24.25 0,12.15 -4.56,21.87 -13.75,29.25 -9.12,7.34 -21.28,11.03 -36.34,11.03 -8.25,0 -16.09,-1.06 -23.59,-3.12 -7.47,-2.13 -14.85,-5.41 -22.1,-9.82l0 0.01z"/>
   <path id="_6_84" class="fil8" d="M3639.2 1483.72l14.43 -23.44c4,3.12 8.82,5.78 14.38,7.94 5.5,2.18 11.62,3.28 18.34,3.28 5.13,0 9.31,-0.94 12.53,-2.82 3.25,-1.87 4.85,-4.75 4.85,-8.53 0,-3.12 -1.25,-5.59 -3.78,-7.37 -2.5,-1.78 -7.16,-3.44 -13.94,-4.88 -14.88,-3.22 -25.56,-7.65 -32.03,-13.4 -6.5,-5.72 -9.72,-13.75 -9.72,-24.16 0,-12.03 4.75,-21.62 14.31,-28.81 9.6,-7.19 21.38,-10.75 35.31,-10.75 7.29,0 14.07,0.9 20.44,2.75 6.38,1.81 12.44,4.59 18.13,8.34l-13.16 22.66c-4.81,-3.04 -9.31,-5.29 -13.56,-6.72 -4.22,-1.41 -8.6,-2.1 -13.1,-2.1 -5.25,0 -9.43,1 -12.56,2.97 -3.12,1.97 -4.72,4.56 -4.72,7.69 0,3.44 1.44,5.97 4.28,7.62 2.91,1.63 8.38,3.29 16.44,4.94 13.82,2.81 23.75,7.25 29.81,13.19 6.07,5.94 9.1,14 9.1,24.25 0,12.15 -4.56,21.87 -13.75,29.25 -9.13,7.34 -21.28,11.03 -36.35,11.03 -8.25,0 -16.09,-1.06 -23.59,-3.12 -7.47,-2.13 -14.84,-5.41 -22.09,-9.82l0 0.01z"/>
   <path id="_7_85" class="fil8" d="M3814.41 1496.65c-19.78,0 -35.31,-5.59 -46.68,-16.81 -11.38,-11.25 -17.07,-26.4 -17.07,-45.53 0.07,-19.94 5.97,-35.53 17.72,-46.72 11.75,-11.22 27.66,-16.81 47.75,-16.81 19.75,0 35.22,5.59 46.41,16.75 11.16,11.19 16.75,26.06 16.75,44.72 0,19.81 -5.78,35.5 -17.38,47.06 -11.62,11.56 -27.43,17.34 -47.5,17.34l0 0zm1.25 -26.87c9.32,0 16.32,-3.1 21,-9.31 4.69,-6.16 7.03,-15.35 7.03,-27.57 0,-11.56 -2.37,-20.34 -7.09,-26.25 -4.75,-5.9 -11.78,-8.87 -21.19,-8.87 -9.22,0 -16.4,3.15 -21.47,9.5 -5.12,6.31 -7.71,15.19 -7.71,26.56 0,11.91 2.5,20.84 7.47,26.88 4.96,6.03 12.28,9.06 21.96,9.06z"/>
   <path id="_8_86" class="fil8" d="M3979.29 1402.93c-1.53,-0.4 -3.06,-0.65 -4.63,-0.87 -1.56,-0.19 -3.34,-0.25 -5.31,-0.25 -9.56,0 -16.75,3 -21.59,9.06 -4.85,6.1 -7.25,14.47 -7.25,25.22l0 57.69 -35 0 0 -120.03 35 0 0 22.43 0.47 0c2.87,-8.18 6.96,-14.31 12.28,-18.43 5.31,-4.1 11.78,-6.19 19.43,-6.19 1.79,0 3.54,0.16 5.22,0.41 1.69,0.28 3.47,0.56 5.41,0.96l-4.03 30z"/>
   <g>
    <polygon class="fil9" points="2655.63,577.53 2655.63,1015.03 4237.23,1015.03 4237.23,577.53 "/>
    <path id="_1_87" class="fil10" d="M2650.95 1015.03l0 -437.5 9.37 0 0 437.5 -4.69 4.69 -4.68 -4.69zm4.68 4.69l-4.69 0 0 -4.69 4.69 4.69zm1581.6 0l-1581.6 0 0 -9.38 1581.6 0 4.71 4.69 -4.71 4.69zm4.71 -4.69l0 4.69 -4.71 0 4.71 -4.69zm0 -437.5l0 437.5 -9.4 0 0 -437.5 4.69 -4.69 4.71 4.69zm-4.71 -4.69l4.71 0 0 4.69 -4.71 -4.69zm-1581.6 0l1581.6 0 0 9.38 -1581.6 0 -4.69 -4.69 4.69 -4.69zm-4.68 4.69l0 -4.69 4.68 0 -4.68 4.69z"/>
   </g>
   <polygon id="text7189_1_88" class="fil8" points="3316.7,876.9 3280.88,876.9 3280.88,712.78 3316.7,712.78 "/>
   <polygon id="_1_89" class="fil8" points="3444.51,712.78 3364.63,903.87 3333.48,903.87 3413.01,712.78 "/>
   <path id="_2_90" class="fil8" d="M3531.1 879.75c-23.47,0 -42.62,-7.66 -57.37,-22.94 -14.79,-15.31 -22.16,-35.22 -22.16,-59.81 0,-25.94 7.5,-46.91 22.5,-62.91 14.97,-16.03 34.88,-24.03 59.69,-24.03 23.31,0 42.22,7.66 56.62,22.97 14.44,15.34 21.63,35.59 21.63,60.66 0,25.78 -7.44,46.59 -22.35,62.37 -14.93,15.78 -34.47,23.69 -58.56,23.69l0 0zm0.59 -30.91c13.13,0 23.51,-4.69 31.16,-14.06 7.66,-9.38 11.53,-22.38 11.53,-39.03 0,-17.35 -3.75,-30.81 -11.19,-40.47 -7.4,-9.63 -17.59,-14.44 -30.49,-14.44 -13.29,0 -23.82,4.97 -31.66,14.84 -7.91,9.91 -11.81,23.04 -11.81,39.38 0,16.56 3.9,29.69 11.72,39.34 7.81,9.63 18.09,14.44 30.75,14.44l-0.01 0z"/>
  </g>
  <g>
   <path class="fil11" d="M4241.94 796.28l236.32 92.76 0 0 -6.55 2.33 -6.41 2.45 -6.26 2.6 -6.13 2.73 -5.99 2.87 -5.85 3.01 -5.71 3.14 -5.58 3.28 -5.43 3.42 -5.29 3.56 -5.16 3.69 -5.02 3.83 -4.87 3.97 -4.74 4.11 -4.6 4.24 -4.46 4.38 -4.32 4.51 -4.19 4.66 -4.04 4.79 -3.9 4.93 -3.77 5.06 -3.63 5.2 -3.48 5.34 -3.35 5.48 -3.21 5.61 -3.07 5.76 -2.93 5.89 -2.8 6.02 -2.65 6.16 -2.51 6.3 -2.38 6.44 -2.24 6.58 -95.8 -235.1zm4297.74 4266.21l-4225.99 -4171.96 23.42 -23.72 4225.99 4171.96 -23.42 23.72zm95.17 70.52l-236.32 -92.76 6.55 -2.32 6.41 -2.46 6.26 -2.6 6.13 -2.73 5.99 -2.87 5.85 -3.01 5.71 -3.14 5.58 -3.28 5.43 -3.42 5.29 -3.56 5.16 -3.69 5.02 -3.83 4.87 -3.97 4.74 -4.1 4.6 -4.24 4.46 -4.38 4.32 -4.52 4.19 -4.65 4.04 -4.8 3.9 -4.92 3.77 -5.07 3.63 -5.2 3.48 -5.34 3.35 -5.48 3.21 -5.61 3.07 -5.75 2.93 -5.89 2.8 -6.03 2.65 -6.16 2.51 -6.3 2.38 -6.44 2.24 -6.57 0 0 95.8 235.09z"/>
  </g>
  <g>
   <path class="fil12" d="M8401.44 1522.42l-149.49 205.18 0 0 -0.59 -6.92 -0.76 -6.82 -0.92 -6.72 -1.1 -6.62 -1.26 -6.52 -1.43 -6.42 -1.6 -6.32 -1.76 -6.22 -1.94 -6.12 -2.1 -6.02 -2.27 -5.93 -2.44 -5.82 -2.6 -5.72 -2.78 -5.62 -2.94 -5.52 -3.11 -5.43 -3.28 -5.32 -3.44 -5.22 -3.61 -5.13 -3.78 -5.02 -3.95 -4.92 -4.12 -4.83 -4.29 -4.72 -4.45 -4.62 -4.62 -4.53 -4.79 -4.42 -4.95 -4.33 -5.13 -4.22 -5.29 -4.13 -5.46 -4.02 -5.63 -3.93 -5.79 -3.83 251.67 -33.25zm-4694.03 2770.6l4584.71 -2725.01 17.03 28.65 -4584.71 2725.02 -17.03 -28.66zm-92.29 74.24l149.49 -205.17 0.59 6.91 0.76 6.82 0.92 6.72 1.1 6.62 1.26 6.52 1.43 6.42 1.6 6.33 1.77 6.22 1.93 6.12 2.1 6.02 2.27 5.92 2.44 5.82 2.61 5.72 2.77 5.62 2.94 5.53 3.11 5.42 3.28 5.32 3.44 5.22 3.62 5.13 3.78 5.02 3.95 4.93 4.11 4.82 4.29 4.72 4.45 4.63 4.62 4.52 4.79 4.43 4.95 4.32 5.13 4.23 5.29 4.12 5.46 4.03 5.63 3.92 5.79 3.83 0 0 -251.67 33.25z"/>
  </g>
  <g>
   <path class="fil13" d="M4232.54 796.28l167.89 190.41 0 0 -6.89 -0.92 -6.82 -0.74 -6.76 -0.55 -6.7 -0.37 -6.64 -0.18 -6.58 0.01 -6.51 0.19 -6.46 0.37 -6.39 0.56 -6.34 0.75 -6.27 0.93 -6.21 1.12 -6.15 1.3 -6.09 1.49 -6.03 1.67 -5.97 1.86 -5.9 2.05 -5.85 2.23 -5.79 2.42 -5.72 2.6 -5.66 2.79 -5.6 2.97 -5.54 3.16 -5.48 3.34 -5.42 3.53 -5.36 3.72 -5.3 3.9 -5.23 4.08 -5.18 4.27 -5.11 4.46 -5.05 4.64 -4.99 4.83 22.1 -252.89zm1727.04 5304.88l-1706.24 -5188.28 31.67 -10.41 1706.24 5188.28 -31.67 10.41zm52.47 106.19l-167.89 -190.41 6.88 0.92 6.82 0.74 6.76 0.55 6.71 0.37 6.63 0.18 6.58 0 6.52 -0.19 6.45 -0.38 6.4 -0.56 6.33 -0.75 6.28 -0.93 6.21 -1.12 6.15 -1.3 6.09 -1.49 6.03 -1.67 5.96 -1.86 5.91 -2.05 5.85 -2.23 5.78 -2.42 5.72 -2.6 5.67 -2.78 5.6 -2.98 5.54 -3.16 5.48 -3.34 5.42 -3.53 5.35 -3.71 5.3 -3.9 5.24 -4.09 5.17 -4.27 5.11 -4.46 5.06 -4.64 4.99 -4.83 0 0 -22.1 252.89z"/>
  </g>
  <g>
   <path class="fil13" d="M2650.95 798.88l-233.34 99.99 0 0 3.03 -6.25 2.83 -6.25 2.64 -6.25 2.44 -6.25 2.25 -6.25 2.05 -6.25 1.85 -6.24 1.66 -6.26 1.47 -6.25 1.27 -6.24 1.07 -6.26 0.88 -6.25 0.68 -6.24 0.49 -6.26 0.3 -6.24 0.09 -6.25 -0.09 -6.26 -0.3 -6.24 -0.49 -6.25 -0.68 -6.25 -0.88 -6.25 -1.07 -6.25 -1.27 -6.25 -1.47 -6.25 -1.66 -6.25 -1.85 -6.25 -2.05 -6.25 -2.25 -6.25 -2.44 -6.25 -2.64 -6.25 -2.83 -6.25 -3.03 -6.25 233.34 100zm-1116.05 -16.67l998.78 0 0 33.33 -998.78 0 -16.67 -16.66 16.67 -16.67zm-16.67 16.67l0 -16.67 16.67 0 -16.67 16.67zm0 3568.38l0 -3568.38 33.34 0 0 3568.38 -16.67 16.67 -16.67 -16.67zm16.67 16.67l-16.67 0 0 -16.67 16.67 16.67zm381.37 0l-381.37 0 0 -33.33 381.37 0 0 33.33zm117.26 -16.67l-233.33 100 3.03 -6.25 2.83 -6.25 2.64 -6.25 2.44 -6.25 2.24 -6.25 2.05 -6.25 1.86 -6.25 1.66 -6.25 1.46 -6.25 1.27 -6.25 1.08 -6.25 0.88 -6.25 0.68 -6.25 0.49 -6.25 0.29 -6.25 0.1 -6.25 -0.1 -6.25 -0.29 -6.25 -0.49 -6.25 -0.68 -6.25 -0.88 -6.25 -1.08 -6.25 -1.27 -6.25 -1.46 -6.25 -1.66 -6.25 -1.86 -6.25 -2.05 -6.25 -2.24 -6.25 -2.44 -6.25 -2.64 -6.25 -2.83 -6.25 -3.03 -6.25 0 0 233.33 100z"/>
  </g>
  <g>
   <path class="fil13" d="M7647.24 6430.77l61.72 -246.23 0 0 3.14 6.19 3.26 6.04 3.38 5.88 3.49 5.73 3.62 5.57 3.73 5.42 3.85 5.26 3.97 5.11 4.08 4.95 4.21 4.79 4.32 4.64 4.44 4.49 4.56 4.32 4.68 4.18 4.8 4.02 4.91 3.86 5.03 3.71 5.15 3.55 5.27 3.39 5.39 3.25 5.51 3.08 5.62 2.93 5.74 2.78 5.86 2.62 5.98 2.46 6.1 2.31 6.21 2.15 6.34 2 6.45 1.84 6.57 1.69 6.69 1.53 6.81 1.37 -220.88 125.12zm929.85 -1194.35l-845.58 1111.13 -26.52 -20.19 845.58 -1111.12 26.52 20.18zm57.76 -103.41l-61.73 246.24 -3.14 -6.19 -3.26 -6.04 -3.38 -5.88 -3.49 -5.73 -3.62 -5.57 -3.73 -5.42 -3.85 -5.26 -3.97 -5.11 -4.08 -4.95 -4.21 -4.79 -4.32 -4.64 -4.44 -4.49 -4.56 -4.33 -4.68 -4.17 -4.79 -4.02 -4.92 -3.86 -5.03 -3.71 -5.15 -3.55 -5.27 -3.4 -5.39 -3.24 -5.51 -3.08 -5.62 -2.93 -5.74 -2.78 -5.86 -2.62 -5.98 -2.46 -6.1 -2.31 -6.21 -2.15 -6.34 -2 -6.45 -1.84 -6.57 -1.69 -6.69 -1.53 -6.81 -1.38 0 0 220.89 -125.12z"/>
  </g>
  <g>
   <path class="fil14" d="M3615.12 4367.26l245.92 -63.01 0 0 -3.95 5.72 -3.76 5.74 -3.57 5.77 -3.37 5.8 -3.17 5.83 -2.99 5.86 -2.79 5.89 -2.6 5.92 -2.41 5.95 -2.21 5.99 -2.02 6.01 -1.83 6.04 -1.64 6.07 -1.44 6.1 -1.25 6.13 -1.05 6.16 -0.86 6.19 -0.67 6.22 -0.48 6.25 -0.28 6.29 -0.09 6.31 0.1 6.34 0.29 6.37 0.49 6.4 0.68 6.43 0.88 6.46 1.06 6.49 1.27 6.52 1.45 6.55 1.65 6.58 1.83 6.61 2.04 6.64 -215.23 -134.62zm4891.92 776.55l-4778.6 -742.08 5.12 -32.94 4778.59 742.08 -5.11 32.94zm118.43 1.52l-245.91 63.01 3.95 -5.71 3.75 -5.74 3.57 -5.77 3.37 -5.8 3.18 -5.84 2.98 -5.86 2.8 -5.89 2.6 -5.92 2.4 -5.95 2.22 -5.98 2.02 -6.01 1.82 -6.04 1.64 -6.07 1.44 -6.1 1.25 -6.14 1.06 -6.16 0.86 -6.19 0.67 -6.22 0.47 -6.25 0.29 -6.28 0.09 -6.31 -0.1 -6.34 -0.3 -6.37 -0.49 -6.4 -0.68 -6.43 -0.87 -6.47 -1.07 -6.49 -1.26 -6.52 -1.46 -6.55 -1.64 -6.58 -1.84 -6.61 -2.03 -6.64 0 0 215.22 134.62z"/>
  </g>
 </g>
</svg>
