<?xml version="1.0" encoding="UTF-8"?>
<!DOCTYPE svg PUBLIC "-//W3C//DTD SVG 1.1//EN" "http://www.w3.org/Graphics/SVG/1.1/DTD/svg11.dtd">
<!-- Creator: CorelDRAW -->
<svg xmlns="http://www.w3.org/2000/svg" xml:space="preserve" width="3300px" height="1700px" version="1.1" style="shape-rendering:geometricPrecision; text-rendering:geometricPrecision; image-rendering:optimizeQuality; fill-rule:evenodd; clip-rule:evenodd"
viewBox="0 0 3300 1700"
 xmlns:xlink="http://www.w3.org/1999/xlink"
 xmlns:xodm="http://www.corel.com/coreldraw/odm/2003">
 <defs>
  <style type="text/css">
   <![CDATA[
    .str1 {stroke:black;stroke-width:2;stroke-miterlimit:22.9256;stroke-opacity:0.850980}
    .str0 {stroke:black;stroke-width:8;stroke-miterlimit:22.9256}
    .str2 {stroke:black;stroke-width:2;stroke-miterlimit:22.9256}
    .fil0 {fill:none}
    .fil5 {fill:none}
    .fil2 {fill:black}
    .fil4 {fill:#00C85F}
    .fil1 {fill:#333333}
    .fil11 {fill:#00C85F;fill-rule:nonzero}
    .fil12 {fill:#E6E6E6;fill-rule:nonzero}
    .fil9 {fill:#FF6600;fill-rule:nonzero}
    .fil10 {fill:#FFC000;fill-rule:nonzero}
    .fil6 {fill:black;fill-rule:nonzero;fill-opacity:0.850980}
    .fil7 {fill:#FF6600;fill-rule:nonzero;fill-opacity:0.850980}
    .fil8 {fill:#FFC000;fill-rule:nonzero;fill-opacity:0.850980}
    .fil3 {fill:white;fill-rule:nonzero;fill-opacity:0.850980}
   ]]>
  </style>
 </defs>
 <g id="Capa_x0020_1">
  <metadata id="CorelCorpID_0Corel-Layer"/>
  <rect class="fil0" width="3300" height="1700"/>
  <rect class="fil1 str0" x="329.92" y="500" width="900" height="700"/>
  <polygon class="fil2" points="329.92,1130.28 504.38,1130.28 576.11,1200 329.92,1200 "/>
  <path class="fil3" d="M393.56 1179.27c-2.13,1.03 -4.91,1.54 -8.34,1.54 -4.47,0 -7.99,-1.31 -10.56,-3.94 -2.57,-2.63 -3.84,-6.14 -3.84,-10.52 0,-4.67 1.43,-8.45 4.31,-11.36 2.89,-2.9 6.63,-4.35 11.23,-4.35 2.84,0 5.25,0.36 7.2,1.08l0 6.33c-1.95,-1.17 -4.18,-1.75 -6.68,-1.75 -2.73,0 -4.95,0.86 -6.63,2.58 -1.68,1.72 -2.52,4.06 -2.52,7 0,2.82 0.79,5.07 2.38,6.75 1.59,1.67 3.73,2.51 6.41,2.51 2.57,0 4.91,-0.63 7.04,-1.88l0 6.01zm10.88 1.04l-6.42 0 0 -30.85 6.42 0 0 30.85zm8.67 -24.14c-1.09,0 -1.98,-0.32 -2.66,-0.96 -0.7,-0.65 -1.04,-1.43 -1.04,-2.37 0,-0.96 0.34,-1.75 1.04,-2.36 0.68,-0.61 1.57,-0.92 2.66,-0.92 1.1,0 1.99,0.31 2.68,0.92 0.68,0.61 1.02,1.4 1.02,2.36 0,0.97 -0.34,1.78 -1.02,2.4 -0.69,0.62 -1.58,0.93 -2.68,0.93zm3.17 24.14l-6.42 0 0 -20.84 6.42 0 0 20.84zm24.13 -8.59l-13.59 0c0.22,3.02 2.13,4.54 5.72,4.54 2.29,0 4.3,-0.54 6.04,-1.63l0 4.64c-1.92,1.03 -4.42,1.54 -7.51,1.54 -3.36,0 -5.97,-0.93 -7.83,-2.8 -1.86,-1.86 -2.78,-4.46 -2.78,-7.79 0,-3.46 0.99,-6.21 3.01,-8.23 2.01,-2.02 4.47,-3.02 7.4,-3.02 3.04,0 5.39,0.9 7.05,2.7 1.66,1.8 2.49,4.25 2.49,7.34l0 2.71zm-5.96 -3.95c0,-2.98 -1.2,-4.47 -3.62,-4.47 -1.03,0 -1.92,0.42 -2.67,1.28 -0.76,0.85 -1.21,1.92 -1.38,3.19l7.67 0zm29.91 12.54l-6.41 0 0 -11.58c0,-3.23 -1.15,-4.84 -3.46,-4.84 -1.11,0 -2.03,0.42 -2.74,1.28 -0.73,0.85 -1.09,1.94 -1.09,3.25l0 11.89 -6.42 0 0 -20.84 6.42 0 0 3.3 0.09 0c1.53,-2.54 3.76,-3.8 6.69,-3.8 4.61,0 6.92,2.86 6.92,8.58l0 12.76zm17.68 -0.25c-0.95,0.5 -2.38,0.75 -4.29,0.75 -4.53,0 -6.8,-2.35 -6.8,-7.05l0 -9.54 -3.38 0 0 -4.75 3.38 0 0 -4.49 6.41 -1.83 0 6.32 4.68 0 0 4.75 -4.68 0 0 8.42c0,2.17 0.86,3.25 2.58,3.25 0.68,0 1.38,-0.2 2.1,-0.59l0 4.76zm22.18 -8.34l-13.59 0c0.21,3.02 2.12,4.54 5.71,4.54 2.3,0 4.31,-0.54 6.05,-1.63l0 4.64c-1.93,1.03 -4.43,1.54 -7.51,1.54 -3.36,0 -5.97,-0.93 -7.84,-2.8 -1.85,-1.86 -2.78,-4.46 -2.78,-7.79 0,-3.46 1,-6.21 3.01,-8.23 2.01,-2.02 4.48,-3.02 7.41,-3.02 3.03,0 5.39,0.9 7.05,2.7 1.66,1.8 2.49,4.25 2.49,7.34l0 2.71zm-5.96 -3.95c0,-2.98 -1.21,-4.47 -3.62,-4.47 -1.03,0 -1.93,0.42 -2.68,1.28 -0.76,0.85 -1.21,1.92 -1.37,3.19l7.67 0z"/>
  <g>
   <polygon class="fil4" points="852.73,740.6 1082.73,740.6 1082.73,970.61 852.73,970.61 "/>
   <polygon id="_1" class="fil5 str1" points="852.73,740.6 1082.73,740.6 1082.73,970.61 852.73,970.61 "/>
  </g>
  <path class="fil6" d="M922.26 867.72l0 -5.86c1.06,0.89 2.22,1.56 3.46,2 1.25,0.45 2.5,0.67 3.77,0.67 0.75,0 1.4,-0.07 1.95,-0.2 0.56,-0.13 1.02,-0.32 1.4,-0.56 0.37,-0.24 0.64,-0.52 0.83,-0.84 0.18,-0.32 0.27,-0.67 0.27,-1.05 0,-0.52 -0.14,-0.97 -0.44,-1.37 -0.29,-0.41 -0.69,-0.78 -1.2,-1.12 -0.5,-0.34 -1.1,-0.68 -1.8,-0.99 -0.7,-0.32 -1.45,-0.64 -2.25,-0.97 -2.05,-0.85 -3.58,-1.9 -4.59,-3.13 -1.01,-1.24 -1.51,-2.72 -1.51,-4.47 0,-1.37 0.27,-2.54 0.82,-3.52 0.55,-0.99 1.3,-1.8 2.25,-2.43 0.95,-0.63 2.04,-1.1 3.28,-1.4 1.25,-0.3 2.57,-0.45 3.96,-0.45 1.37,0 2.58,0.09 3.64,0.25 1.05,0.16 2.02,0.42 2.92,0.76l0 5.48c-0.45,-0.31 -0.92,-0.58 -1.44,-0.81 -0.52,-0.23 -1.06,-0.43 -1.61,-0.58 -0.54,-0.15 -1.09,-0.26 -1.64,-0.34 -0.54,-0.07 -1.05,-0.11 -1.54,-0.11 -0.67,0 -1.28,0.07 -1.83,0.19 -0.55,0.13 -1.01,0.31 -1.39,0.55 -0.38,0.23 -0.67,0.5 -0.89,0.83 -0.2,0.32 -0.3,0.68 -0.3,1.08 0,0.45 0.11,0.84 0.34,1.18 0.23,0.35 0.56,0.69 1,1 0.42,0.31 0.94,0.61 1.55,0.91 0.61,0.3 1.3,0.61 2.07,0.93 1.05,0.43 1.99,0.9 2.83,1.4 0.83,0.49 1.55,1.05 2.15,1.67 0.6,0.63 1.05,1.34 1.37,2.14 0.32,0.79 0.48,1.72 0.48,2.79 0,1.46 -0.28,2.69 -0.84,3.69 -0.55,0.99 -1.3,1.8 -2.26,2.41 -0.95,0.62 -2.05,1.06 -3.32,1.33 -1.27,0.27 -2.6,0.4 -4,0.4 -1.44,0 -2.81,-0.12 -4.11,-0.36 -1.3,-0.24 -2.43,-0.61 -3.38,-1.1zm40.67 -20.44l-7.5 0 0 21.45 -5.93 0 0 -21.45 -7.45 0 0 -4.81 20.88 0 0 4.81zm24.93 10.08c0,7.88 -3.67,11.82 -11.02,11.82 -7.13,0 -10.69,-3.85 -10.69,-11.55l0 -15.16 5.93 0 0 15.23c0,4.25 1.67,6.38 4.98,6.38 3.26,0 4.89,-2.05 4.89,-6.16l0 -15.45 5.91 0 0 14.89zm5.71 11.37l0 -26.26 9.57 0c2.93,0 5.18,0.54 6.75,1.61 1.58,1.07 2.37,2.59 2.37,4.54 0,1.42 -0.49,2.66 -1.44,3.72 -0.96,1.06 -2.18,1.8 -3.68,2.21l0 0.08c1.87,0.23 3.36,0.92 4.48,2.07 1.12,1.15 1.68,2.54 1.68,4.19 0,2.41 -0.86,4.31 -2.58,5.72 -1.73,1.41 -4.08,2.12 -7.05,2.12l-10.1 0zm5.92 -21.9l0 6.22 2.6 0c1.22,0 2.18,-0.29 2.88,-0.89 0.71,-0.59 1.06,-1.4 1.06,-2.44 0,-1.93 -1.44,-2.89 -4.32,-2.89l-2.22 0zm0 10.62l0 6.92 3.21 0c1.36,0 2.44,-0.32 3.21,-0.96 0.78,-0.63 1.16,-1.5 1.16,-2.6 0,-1.05 -0.38,-1.86 -1.14,-2.46 -0.77,-0.6 -1.83,-0.9 -3.2,-0.9l-3.24 0z"/>
  <g>
   <polygon class="fil4" points="477.12,740.6 707.12,740.6 707.12,970.61 477.12,970.61 "/>
   <polygon id="_1_0" class="fil5 str1" points="477.12,740.6 707.12,740.6 707.12,970.61 477.12,970.61 "/>
  </g>
  <path class="fil6" d="M580.98 868.73l-6.8 0 -4.08 -6.76c-0.31,-0.51 -0.6,-0.97 -0.88,-1.37 -0.28,-0.4 -0.56,-0.75 -0.85,-1.03 -0.29,-0.29 -0.59,-0.51 -0.9,-0.67 -0.31,-0.15 -0.65,-0.22 -1.01,-0.22l-1.6 0 0 10.05 -5.91 0 0 -26.26 9.37 0c6.38,0 9.56,2.38 9.56,7.14 0,0.92 -0.14,1.76 -0.42,2.54 -0.28,0.77 -0.68,1.47 -1.19,2.1 -0.51,0.61 -1.13,1.15 -1.86,1.6 -0.73,0.46 -1.53,0.81 -2.43,1.07l0 0.07c0.4,0.12 0.77,0.32 1.14,0.59 0.37,0.28 0.72,0.6 1.06,0.97 0.35,0.36 0.67,0.76 0.98,1.18 0.32,0.42 0.6,0.83 0.85,1.24l4.97 7.76zm-16.12 -21.83l0 7.31 2.57 0c1.27,0 2.28,-0.37 3.05,-1.1 0.78,-0.74 1.18,-1.67 1.18,-2.76 0,-2.3 -1.38,-3.45 -4.13,-3.45l-2.67 0zm24.48 12.78l0 9.05 -5.91 0 0 -26.26 9.26 0c6.62,0 9.93,2.79 9.93,8.37 0,2.64 -0.95,4.77 -2.85,6.4 -1.9,1.63 -4.43,2.44 -7.61,2.44l-2.82 0zm0 -12.67l0 8.19 2.33 0c3.15,0 4.72,-1.39 4.72,-4.14 0,-2.7 -1.57,-4.05 -4.72,-4.05l-2.33 0zm35.95 20.79c-1.92,0.92 -4.42,1.38 -7.51,1.38 -4.02,0 -7.19,-1.18 -9.5,-3.55 -2.31,-2.37 -3.46,-5.52 -3.46,-9.46 0,-4.2 1.29,-7.61 3.89,-10.22 2.59,-2.62 5.96,-3.92 10.1,-3.92 2.56,0 4.72,0.32 6.48,0.97l0 5.7c-1.76,-1.05 -3.76,-1.58 -6.01,-1.58 -2.46,0 -4.46,0.78 -5.97,2.33 -1.51,1.55 -2.27,3.65 -2.27,6.3 0,2.53 0.72,4.56 2.15,6.07 1.42,1.5 3.35,2.26 5.77,2.26 2.3,0 4.41,-0.56 6.33,-1.69l0 5.41z"/>
  <path class="fil7" d="M733.18 1175.84l-6.79 0 -4.08 -6.75c-0.31,-0.52 -0.6,-0.97 -0.88,-1.38 -0.28,-0.4 -0.56,-0.74 -0.85,-1.03 -0.29,-0.29 -0.59,-0.51 -0.9,-0.66 -0.31,-0.15 -0.65,-0.23 -1.01,-0.23l-1.6 0 0 10.05 -5.92 0 0 -26.25 9.38 0c6.37,0 9.56,2.38 9.56,7.13 0,0.92 -0.14,1.77 -0.42,2.54 -0.29,0.78 -0.68,1.48 -1.19,2.1 -0.51,0.62 -1.13,1.16 -1.86,1.61 -0.73,0.45 -1.53,0.8 -2.43,1.06l0 0.08c0.39,0.12 0.77,0.31 1.14,0.59 0.37,0.27 0.72,0.59 1.06,0.96 0.35,0.37 0.67,0.76 0.98,1.18 0.31,0.42 0.6,0.83 0.85,1.24l4.96 7.76zm-16.11 -21.82l0 7.3 2.56 0c1.27,0 2.29,-0.36 3.06,-1.1 0.78,-0.74 1.18,-1.66 1.18,-2.76 0,-2.3 -1.38,-3.44 -4.13,-3.44l-2.67 0zm33.91 14.1l-12.23 0c0.2,2.72 1.92,4.08 5.15,4.08 2.06,0 3.87,-0.49 5.43,-1.46l0 4.17c-1.73,0.93 -3.98,1.39 -6.75,1.39 -3.03,0 -5.38,-0.84 -7.05,-2.52 -1.67,-1.67 -2.51,-4.02 -2.51,-7.02 0,-3.11 0.9,-5.58 2.71,-7.4 1.81,-1.82 4.03,-2.72 6.67,-2.72 2.73,0 4.85,0.81 6.34,2.43 1.49,1.62 2.24,3.83 2.24,6.61l0 2.44zm-5.36 -3.56c0,-2.68 -1.09,-4.02 -3.26,-4.02 -0.93,0 -1.73,0.38 -2.41,1.15 -0.68,0.77 -1.08,1.73 -1.23,2.87l6.9 0zm20.14 11.06c-0.86,0.45 -2.15,0.68 -3.86,0.68 -4.08,0 -6.12,-2.12 -6.12,-6.35l0 -8.59 -3.04 0 0 -4.27 3.04 0 0 -4.04 5.77 -1.65 0 5.69 4.21 0 0 4.27 -4.21 0 0 7.58c0,1.95 0.77,2.93 2.32,2.93 0.61,0 1.24,-0.18 1.89,-0.53l0 4.28zm12.05 0.68c-3.13,0 -5.58,-0.88 -7.37,-2.63 -1.79,-1.75 -2.68,-4.13 -2.68,-7.13 0,-3.1 0.92,-5.53 2.78,-7.28 1.86,-1.75 4.37,-2.62 7.52,-2.62 3.12,0 5.56,0.87 7.33,2.62 1.77,1.75 2.66,4.07 2.66,6.95 0,3.11 -0.92,5.58 -2.74,7.38 -1.83,1.81 -4.33,2.71 -7.5,2.71zm0.15 -15.23c-1.37,0 -2.43,0.47 -3.19,1.4 -0.76,0.95 -1.14,2.28 -1.14,4 0,3.6 1.46,5.4 4.37,5.4 2.76,0 4.15,-1.85 4.15,-5.55 0,-3.5 -1.4,-5.25 -4.19,-5.25zm26.07 1.24c-0.7,-0.38 -1.51,-0.57 -2.44,-0.57 -1.25,0 -2.23,0.47 -2.95,1.38 -0.7,0.93 -1.06,2.18 -1.06,3.77l0 8.95 -5.78 0 0 -18.75 5.78 0 0 3.48 0.08 0c0.92,-2.54 2.56,-3.81 4.94,-3.81 0.61,0 1.09,0.08 1.43,0.22l0 5.33zm20.91 13.53l-5.77 0 0 -10.42c0,-2.9 -1.04,-4.35 -3.11,-4.35 -1,0 -1.83,0.38 -2.47,1.15 -0.65,0.77 -0.98,1.75 -0.98,2.93l0 10.69 -5.78 0 0 -18.75 5.78 0 0 2.97 0.08 0c1.38,-2.29 3.38,-3.42 6.02,-3.42 4.15,0 6.23,2.57 6.23,7.72l0 11.48zm13.51 0.46c-3.13,0 -5.58,-0.88 -7.37,-2.63 -1.79,-1.75 -2.68,-4.13 -2.68,-7.13 0,-3.1 0.92,-5.53 2.78,-7.28 1.86,-1.75 4.37,-2.62 7.52,-2.62 3.12,0 5.56,0.87 7.33,2.62 1.77,1.75 2.66,4.07 2.66,6.95 0,3.11 -0.92,5.58 -2.74,7.38 -1.83,1.81 -4.33,2.71 -7.5,2.71zm0.15 -15.23c-1.37,0 -2.43,0.47 -3.19,1.4 -0.76,0.95 -1.14,2.28 -1.14,4 0,3.6 1.46,5.4 4.37,5.4 2.76,0 4.15,-1.85 4.15,-5.55 0,-3.5 -1.4,-5.25 -4.19,-5.25z"/>
  <path class="fil8" d="M687.38 542.28l0 9.05 -5.92 0 0 -26.26 9.27 0c6.62,0 9.93,2.79 9.93,8.37 0,2.64 -0.95,4.77 -2.85,6.4 -1.9,1.62 -4.44,2.44 -7.61,2.44l-2.82 0zm0 -12.67l0 8.19 2.33 0c3.15,0 4.72,-1.39 4.72,-4.14 0,-2.7 -1.57,-4.05 -4.72,-4.05l-2.33 0zm31.22 21.72l-5.48 0 0 -2.7 -0.07 0c-1.26,2.1 -3.12,3.15 -5.59,3.15 -1.82,0 -3.25,-0.51 -4.29,-1.54 -1.05,-1.03 -1.56,-2.41 -1.56,-4.13 0,-3.64 2.15,-5.74 6.46,-6.3l5.09 -0.68c0,-2.05 -1.11,-3.07 -3.34,-3.07 -2.23,0 -4.35,0.66 -6.36,1.99l0 -4.35c0.8,-0.42 1.9,-0.79 3.3,-1.11 1.4,-0.31 2.67,-0.47 3.82,-0.47 5.34,0 8.02,2.67 8.02,8l0 11.21zm-5.44 -7.62l0 -1.26 -3.4 0.43c-1.89,0.25 -2.82,1.1 -2.82,2.55 0,0.66 0.22,1.2 0.68,1.62 0.46,0.42 1.08,0.63 1.86,0.63 1.09,0 1.97,-0.37 2.66,-1.12 0.68,-0.75 1.02,-1.7 1.02,-2.85zm22.25 -5.91c-0.7,-0.39 -1.51,-0.57 -2.44,-0.57 -1.25,0 -2.23,0.46 -2.95,1.38 -0.7,0.92 -1.06,2.17 -1.06,3.76l0 8.96 -5.78 0 0 -18.75 5.78 0 0 3.48 0.08 0c0.91,-2.55 2.56,-3.81 4.94,-3.81 0.61,0 1.09,0.07 1.43,0.21l0 5.34zm18.29 13.53l-5.47 0 0 -2.7 -0.08 0c-1.25,2.1 -3.11,3.15 -5.58,3.15 -1.82,0 -3.25,-0.51 -4.3,-1.54 -1.04,-1.03 -1.56,-2.41 -1.56,-4.13 0,-3.64 2.16,-5.74 6.46,-6.3l5.1 -0.68c0,-2.05 -1.12,-3.07 -3.34,-3.07 -2.23,0 -4.36,0.66 -6.37,1.99l0 -4.35c0.81,-0.42 1.91,-0.79 3.31,-1.11 1.39,-0.31 2.67,-0.47 3.81,-0.47 5.35,0 8.02,2.67 8.02,8l0 11.21zm-5.43 -7.62l0 -1.26 -3.41 0.43c-1.88,0.25 -2.82,1.1 -2.82,2.55 0,0.66 0.23,1.2 0.68,1.62 0.47,0.42 1.08,0.63 1.87,0.63 1.08,0 1.96,-0.37 2.65,-1.12 0.68,-0.75 1.03,-1.7 1.03,-2.85zm3.71 -20.01l-5.73 5.91 -4.18 0 4.77 -5.91 5.14 0zm36.07 27.63l-5.77 0 0 -10.7c0,-2.72 -1,-4.08 -3,-4.08 -0.95,0 -1.72,0.41 -2.32,1.23 -0.6,0.81 -0.9,1.83 -0.9,3.05l0 10.5 -5.78 0 0 -10.81c0,-2.64 -0.99,-3.97 -2.95,-3.97 -0.99,0 -1.78,0.39 -2.37,1.17 -0.59,0.78 -0.89,1.84 -0.89,3.19l0 10.42 -5.79 0 0 -18.75 5.79 0 0 2.93 0.07 0c0.6,-1 1.44,-1.82 2.52,-2.45 1.08,-0.63 2.26,-0.94 3.54,-0.94 2.65,0 4.47,1.16 5.44,3.49 1.43,-2.33 3.53,-3.49 6.3,-3.49 4.07,0 6.11,2.51 6.11,7.54l0 11.67zm21.43 -7.73l-12.23 0c0.19,2.72 1.91,4.08 5.14,4.08 2.06,0 3.87,-0.49 5.44,-1.46l0 4.18c-1.73,0.92 -3.98,1.38 -6.76,1.38 -3.02,0 -5.37,-0.84 -7.05,-2.52 -1.67,-1.67 -2.5,-4.02 -2.5,-7.02 0,-3.11 0.89,-5.58 2.71,-7.4 1.8,-1.81 4.02,-2.72 6.66,-2.72 2.73,0 4.85,0.81 6.34,2.43 1.5,1.63 2.25,3.83 2.25,6.61l0 2.44zm-5.37 -3.55c0,-2.69 -1.08,-4.03 -3.26,-4.03 -0.92,0 -1.73,0.38 -2.4,1.15 -0.69,0.77 -1.09,1.73 -1.24,2.88l6.9 0zm20.14 11.06c-0.86,0.45 -2.14,0.67 -3.86,0.67 -4.08,0 -6.12,-2.12 -6.12,-6.35l0 -8.58 -3.04 0 0 -4.27 3.04 0 0 -4.05 5.77 -1.65 0 5.7 4.21 0 0 4.27 -4.21 0 0 7.58c0,1.95 0.77,2.92 2.32,2.92 0.62,0 1.25,-0.17 1.89,-0.53l0 4.29zm15.49 -13.31c-0.69,-0.39 -1.51,-0.57 -2.43,-0.57 -1.26,0 -2.24,0.46 -2.95,1.38 -0.71,0.92 -1.07,2.17 -1.07,3.76l0 8.96 -5.78 0 0 -18.75 5.78 0 0 3.48 0.08 0c0.92,-2.55 2.56,-3.81 4.94,-3.81 0.62,0 1.09,0.07 1.43,0.21l0 5.34zm11.48 13.98c-3.13,0 -5.58,-0.87 -7.37,-2.62 -1.79,-1.75 -2.68,-4.13 -2.68,-7.13 0,-3.1 0.92,-5.54 2.78,-7.28 1.86,-1.75 4.37,-2.63 7.53,-2.63 3.11,0 5.55,0.88 7.32,2.63 1.77,1.74 2.66,4.06 2.66,6.95 0,3.11 -0.92,5.57 -2.74,7.38 -1.83,1.8 -4.33,2.7 -7.5,2.7zm0.15 -15.23c-1.37,0 -2.43,0.47 -3.19,1.41 -0.75,0.94 -1.14,2.27 -1.14,3.99 0,3.6 1.46,5.4 4.37,5.4 2.77,0 4.15,-1.85 4.15,-5.54 0,-3.51 -1.4,-5.26 -4.19,-5.26zm12.61 14.28l0 -4.69c0.96,0.58 1.91,1 2.85,1.29 0.94,0.28 1.84,0.42 2.68,0.42 1.03,0 1.84,-0.14 2.43,-0.42 0.59,-0.29 0.88,-0.71 0.88,-1.29 0,-0.36 -0.13,-0.67 -0.4,-0.91 -0.26,-0.25 -0.61,-0.46 -1.03,-0.64 -0.42,-0.18 -0.88,-0.35 -1.38,-0.49 -0.5,-0.15 -0.98,-0.32 -1.45,-0.5 -0.74,-0.28 -1.4,-0.59 -1.97,-0.91 -0.56,-0.32 -1.04,-0.69 -1.43,-1.13 -0.38,-0.42 -0.67,-0.91 -0.87,-1.48 -0.2,-0.56 -0.31,-1.22 -0.31,-1.99 0,-1.05 0.23,-1.96 0.69,-2.71 0.46,-0.76 1.07,-1.38 1.83,-1.86 0.76,-0.48 1.64,-0.84 2.62,-1.06 0.98,-0.23 2,-0.34 3.07,-0.34 0.83,0 1.67,0.06 2.52,0.19 0.86,0.13 1.7,0.32 2.53,0.56l0 4.47c-0.74,-0.43 -1.52,-0.75 -2.35,-0.96 -0.84,-0.22 -1.66,-0.32 -2.47,-0.32 -0.38,0 -0.73,0.03 -1.06,0.1 -0.34,0.06 -0.64,0.16 -0.9,0.29 -0.25,0.13 -0.45,0.29 -0.6,0.49 -0.15,0.21 -0.22,0.44 -0.22,0.69 0,0.34 0.11,0.63 0.33,0.88 0.22,0.24 0.5,0.45 0.86,0.63 0.36,0.18 0.75,0.34 1.18,0.47 0.43,0.15 0.86,0.29 1.3,0.44 0.76,0.26 1.46,0.56 2.08,0.88 0.62,0.32 1.16,0.68 1.6,1.11 0.45,0.43 0.79,0.93 1.03,1.5 0.24,0.58 0.35,1.26 0.35,2.06 0,1.11 -0.23,2.06 -0.72,2.85 -0.48,0.78 -1.12,1.42 -1.92,1.91 -0.8,0.5 -1.72,0.86 -2.77,1.09 -1.04,0.22 -2.12,0.33 -3.25,0.33 -2.06,0 -3.97,-0.32 -5.73,-0.95z"/>
  <g>
   <path class="fil9" d="M642.13 983.53l15.01 35.01 0 0 -0.94 -0.46 -0.94 -0.42 -0.94 -0.4 -0.94 -0.36 -0.93 -0.34 -0.94 -0.31 -0.94 -0.28 -0.94 -0.24 -0.93 -0.22 -0.94 -0.19 -0.94 -0.17 -0.94 -0.13 -0.93 -0.1 -0.94 -0.07 -0.94 -0.05 -0.94 -0.01 -0.94 0.01 -0.93 0.05 -0.94 0.07 -0.94 0.1 -0.94 0.13 -0.93 0.17 -0.94 0.19 -0.94 0.22 -0.94 0.24 -0.93 0.28 -0.94 0.31 -0.94 0.34 -0.94 0.36 -0.93 0.4 -0.94 0.42 -0.94 0.46 15 -35.01zm137.79 128.11l0 5.01 0 0 -7.19 -0.15 -7.1 -0.45 -7 -0.73 -6.89 -1.01 -6.77 -1.28 -6.64 -1.54 -6.5 -1.81 -6.36 -2.05 -6.2 -2.31 -6.04 -2.53 -5.87 -2.77 -5.69 -2.99 -5.5 -3.21 -5.3 -3.41 -5.09 -3.62 -4.88 -3.82 -4.65 -4 -4.41 -4.18 -4.18 -4.36 -3.92 -4.52 -3.67 -4.69 -3.39 -4.84 -3.12 -4.99 -2.82 -5.13 -2.53 -5.26 -2.22 -5.38 -1.9 -5.5 -1.58 -5.61 -1.25 -5.72 -0.9 -5.8 -0.54 -5.9 -0.19 -5.96 5 0 0.18 5.66 0.52 5.59 0.85 5.5 1.18 5.42 1.5 5.32 1.81 5.23 2.11 5.12 2.4 5 2.7 4.89 2.97 4.76 3.24 4.62 3.5 4.49 3.76 4.33 4.01 4.18 4.24 4.02 4.47 3.85 4.7 3.67 4.91 3.49 5.11 3.29 5.3 3.1 5.5 2.89 5.67 2.67 5.84 2.46 6.01 2.22 6.16 1.99 6.3 1.75 6.43 1.5 6.57 1.24 6.68 0.98 6.79 0.71 6.9 0.43 6.98 0.14 0 0zm135.29 -110.51l5 0 -0.18 5.96 -0.55 5.9 -0.9 5.8 -1.24 5.72 -1.58 5.61 -1.91 5.5 -2.22 5.38 -2.52 5.26 -2.83 5.13 -3.11 4.99 -3.4 4.84 -3.66 4.69 -3.92 4.52 -4.18 4.36 -4.42 4.18 -4.65 4 -4.88 3.82 -5.09 3.62 -5.3 3.41 -5.5 3.21 -5.68 2.99 -5.87 2.77 -6.04 2.53 -6.2 2.31 -6.36 2.05 -6.5 1.81 -6.65 1.54 -6.76 1.28 -6.89 1.01 -7 0.73 -7.1 0.45 -7.2 0.15 0 -5.01 6.99 -0.14 6.89 -0.43 6.8 -0.71 6.68 -0.98 6.56 -1.24 6.44 -1.5 6.3 -1.75 6.16 -1.99 6 -2.22 5.84 -2.46 5.68 -2.67 5.49 -2.89 5.31 -3.1 5.11 -3.29 4.91 -3.49 4.69 -3.67 4.47 -3.85 4.25 -4.02 4 -4.18 3.76 -4.33 3.51 -4.49 3.24 -4.62 2.97 -4.76 2.69 -4.89 2.41 -5 2.11 -5.12 1.81 -5.23 1.5 -5.32 1.18 -5.42 0.85 -5.5 0.52 -5.59 0.17 -5.66z"/>
  </g>
  <g>
   <path class="fil10" d="M917.71 717.84l-15 -35.01 0 0 0.94 0.45 0.94 0.43 0.93 0.39 0.94 0.37 0.94 0.34 0.94 0.31 0.93 0.27 0.94 0.25 0.94 0.22 0.94 0.19 0.93 0.16 0.94 0.14 0.94 0.1 0.94 0.07 0.93 0.05 0.94 0.01 0.94 -0.01 0.94 -0.05 0.94 -0.07 0.93 -0.1 0.94 -0.14 0.94 -0.16 0.94 -0.19 0.93 -0.22 0.94 -0.25 0.94 -0.27 0.94 -0.31 0.93 -0.34 0.94 -0.37 0.94 -0.39 0.94 -0.43 0.93 -0.45 -15 35.01zm-137.79 -128.12l0 -5 0 0 7.2 0.15 7.1 0.45 7 0.73 6.89 1 6.76 1.29 6.65 1.54 6.5 1.81 6.36 2.05 6.2 2.3 6.04 2.54 5.87 2.77 5.68 2.99 5.5 3.21 5.3 3.41 5.09 3.62 4.88 3.81 4.65 4.01 4.42 4.18 4.18 4.36 3.92 4.52 3.66 4.69 3.4 4.84 3.11 4.99 2.83 5.12 2.52 5.27 2.22 5.38 1.91 5.5 1.58 5.61 1.24 5.71 0.9 5.81 0.55 5.89 0.18 5.97 -5 0 -0.17 -5.66 -0.52 -5.59 -0.85 -5.5 -1.18 -5.42 -1.5 -5.32 -1.81 -5.23 -2.11 -5.12 -2.41 -5 -2.69 -4.89 -2.97 -4.76 -3.24 -4.62 -3.51 -4.49 -3.76 -4.33 -4 -4.19 -4.25 -4.01 -4.47 -3.85 -4.69 -3.67 -4.91 -3.49 -5.11 -3.29 -5.31 -3.1 -5.49 -2.89 -5.68 -2.67 -5.84 -2.46 -6 -2.22 -6.16 -2 -6.3 -1.74 -6.44 -1.5 -6.56 -1.25 -6.68 -0.97 -6.8 -0.71 -6.89 -0.43 -6.99 -0.15 0 0zm-135.29 110.52l-5 0 0.19 -5.97 0.54 -5.89 0.9 -5.81 1.25 -5.71 1.58 -5.61 1.9 -5.5 2.22 -5.38 2.53 -5.27 2.82 -5.12 3.12 -4.99 3.39 -4.84 3.67 -4.69 3.92 -4.52 4.18 -4.36 4.41 -4.18 4.65 -4.01 4.88 -3.81 5.09 -3.62 5.3 -3.41 5.5 -3.21 5.69 -2.99 5.87 -2.77 6.04 -2.54 6.2 -2.3 6.36 -2.05 6.5 -1.81 6.64 -1.54 6.77 -1.29 6.89 -1 7 -0.73 7.1 -0.45 7.19 -0.15 0 5 -6.98 0.15 -6.9 0.43 -6.79 0.71 -6.68 0.97 -6.57 1.25 -6.43 1.5 -6.3 1.74 -6.16 2 -6.01 2.22 -5.84 2.46 -5.67 2.67 -5.5 2.89 -5.3 3.1 -5.11 3.29 -4.91 3.49 -4.7 3.67 -4.47 3.85 -4.24 4.01 -4.01 4.19 -3.76 4.33 -3.5 4.49 -3.24 4.62 -2.97 4.76 -2.7 4.89 -2.4 5 -2.11 5.12 -1.81 5.23 -1.5 5.32 -1.18 5.42 -0.85 5.5 -0.52 5.59 -0.18 5.66z"/>
  </g>
  <rect class="fil1 str0" x="2070.08" y="113.37" width="900" height="700"/>
  <polygon class="fil2" points="2070.08,743.65 2266.57,743.65 2347.36,813.37 2070.08,813.37 "/>
  <path class="fil3" d="M2101.45 792.56l0 -6.51c1.19,0.99 2.47,1.73 3.85,2.23 1.38,0.49 2.78,0.74 4.19,0.74 0.83,0 1.55,-0.08 2.17,-0.22 0.61,-0.16 1.13,-0.36 1.55,-0.63 0.41,-0.26 0.72,-0.58 0.92,-0.93 0.21,-0.36 0.3,-0.75 0.3,-1.17 0,-0.57 -0.16,-1.08 -0.48,-1.52 -0.33,-0.46 -0.77,-0.87 -1.34,-1.25 -0.56,-0.38 -1.23,-0.75 -2,-1.09 -0.77,-0.36 -1.61,-0.72 -2.5,-1.09 -2.28,-0.94 -3.98,-2.1 -5.1,-3.48 -1.12,-1.36 -1.67,-3.02 -1.67,-4.96 0,-1.52 0.29,-2.82 0.91,-3.91 0.61,-1.1 1.44,-2 2.49,-2.7 1.05,-0.7 2.27,-1.23 3.65,-1.56 1.38,-0.33 2.85,-0.5 4.4,-0.5 1.52,0 2.87,0.1 4.04,0.28 1.17,0.18 2.25,0.46 3.24,0.85l0 6.08c-0.49,-0.34 -1.02,-0.64 -1.59,-0.9 -0.58,-0.25 -1.18,-0.47 -1.79,-0.64 -0.6,-0.17 -1.21,-0.29 -1.82,-0.38 -0.6,-0.07 -1.17,-0.12 -1.71,-0.12 -0.75,0 -1.43,0.07 -2.04,0.21 -0.61,0.15 -1.12,0.35 -1.55,0.61 -0.41,0.25 -0.74,0.56 -0.98,0.92 -0.23,0.36 -0.34,0.76 -0.34,1.21 0,0.49 0.13,0.93 0.39,1.31 0.25,0.39 0.62,0.76 1.1,1.11 0.47,0.34 1.05,0.68 1.73,1.01 0.67,0.33 1.44,0.67 2.3,1.03 1.16,0.48 2.21,1 3.14,1.55 0.93,0.55 1.73,1.18 2.38,1.86 0.67,0.7 1.18,1.49 1.53,2.38 0.36,0.88 0.53,1.92 0.53,3.1 0,1.63 -0.3,2.99 -0.92,4.1 -0.62,1.1 -1.45,2 -2.52,2.68 -1.05,0.69 -2.28,1.18 -3.68,1.48 -1.41,0.3 -2.89,0.44 -4.46,0.44 -1.59,0 -3.11,-0.13 -4.56,-0.4 -1.44,-0.27 -2.7,-0.68 -3.76,-1.22zm42.79 -7.47l-13.59 0c0.21,3.02 2.12,4.54 5.71,4.54 2.3,0 4.31,-0.54 6.05,-1.63l0 4.64c-1.93,1.03 -4.43,1.54 -7.51,1.54 -3.36,0 -5.97,-0.93 -7.83,-2.79 -1.86,-1.87 -2.79,-4.47 -2.79,-7.8 0,-3.46 1,-6.2 3.01,-8.23 2.01,-2.02 4.48,-3.02 7.41,-3.02 3.03,0 5.39,0.9 7.05,2.7 1.66,1.8 2.49,4.26 2.49,7.35l0 2.7zm-5.96 -3.95c0,-2.98 -1.21,-4.47 -3.62,-4.47 -1.03,0 -1.93,0.42 -2.68,1.28 -0.75,0.85 -1.21,1.92 -1.37,3.19l7.67 0zm23.38 -2.5c-0.78,-0.42 -1.68,-0.63 -2.71,-0.63 -1.4,0 -2.49,0.52 -3.28,1.54 -0.78,1.02 -1.18,2.41 -1.18,4.18l0 9.95 -6.42 0 0 -20.84 6.42 0 0 3.87 0.08 0c1.02,-2.82 2.85,-4.23 5.5,-4.23 0.68,0 1.2,0.08 1.59,0.24l0 5.92zm24.49 -5.8l-7.75 20.84 -7.33 0 -7.38 -20.84 6.88 0 3.61 12.85c0.41,1.45 0.65,2.68 0.72,3.7l0.08 0c0.09,-0.97 0.35,-2.16 0.75,-3.59l3.7 -12.96 6.72 0zm6 -3.29c-1.08,0 -1.97,-0.32 -2.66,-0.97 -0.69,-0.65 -1.04,-1.43 -1.04,-2.37 0,-0.96 0.35,-1.75 1.04,-2.36 0.69,-0.61 1.58,-0.92 2.66,-0.92 1.1,0 1.99,0.31 2.68,0.92 0.68,0.61 1.03,1.4 1.03,2.36 0,0.97 -0.35,1.78 -1.03,2.4 -0.69,0.62 -1.58,0.94 -2.68,0.94zm3.17 24.13l-6.42 0 0 -20.84 6.42 0 0 20.84zm25.8 0l-6.43 0 0 -2.87 -0.07 0c-1.47,2.25 -3.62,3.37 -6.46,3.37 -2.6,0 -4.7,-0.91 -6.28,-2.75 -1.59,-1.84 -2.38,-4.41 -2.38,-7.7 0,-3.45 0.87,-6.21 2.62,-8.28 1.75,-2.08 4.04,-3.11 6.88,-3.11 2.68,0 4.55,0.96 5.62,2.89l0.07 0 0 -12.39 6.43 0 0 30.84zm-6.3 -10.13l0 -1.57c0,-1.36 -0.4,-2.48 -1.18,-3.38 -0.79,-0.89 -1.82,-1.34 -3.07,-1.34 -1.43,0 -2.54,0.56 -3.34,1.67 -0.8,1.13 -1.21,2.66 -1.21,4.62 0,1.83 0.39,3.24 1.16,4.22 0.78,1 1.85,1.49 3.22,1.49 1.31,0 2.37,-0.52 3.19,-1.56 0.82,-1.05 1.23,-2.43 1.23,-4.15zm21.64 10.63c-3.47,0 -6.2,-0.97 -8.18,-2.91 -1.99,-1.95 -2.98,-4.59 -2.98,-7.93 0,-3.44 1.02,-6.14 3.09,-8.09 2.06,-1.94 4.85,-2.91 8.36,-2.91 3.46,0 6.17,0.97 8.14,2.91 1.96,1.95 2.95,4.52 2.95,7.73 0,3.46 -1.02,6.19 -3.04,8.2 -2.03,2.01 -4.81,3 -8.34,3zm0.17 -16.92c-1.52,0 -2.7,0.52 -3.54,1.56 -0.84,1.05 -1.27,2.53 -1.27,4.44 0,4 1.62,6 4.85,6 3.08,0 4.62,-2.05 4.62,-6.16 0,-3.89 -1.56,-5.84 -4.66,-5.84zm28.97 1.38c-0.78,-0.42 -1.68,-0.63 -2.71,-0.63 -1.39,0 -2.48,0.52 -3.27,1.54 -0.79,1.02 -1.18,2.41 -1.18,4.18l0 9.95 -6.43 0 0 -20.84 6.43 0 0 3.87 0.08 0c1.02,-2.82 2.85,-4.23 5.49,-4.23 0.68,0 1.21,0.08 1.59,0.24l0 5.92z"/>
  <g>
   <polygon class="fil4" points="2592.88,353.98 2822.88,353.98 2822.88,583.98 2592.88,583.98 "/>
   <polygon id="_1_1" class="fil5 str1" points="2592.88,353.98 2822.88,353.98 2822.88,583.98 2592.88,583.98 "/>
  </g>
  <path class="fil6" d="M2696.77 482.11l-6.79 0 -4.09 -6.76c-0.3,-0.51 -0.6,-0.97 -0.88,-1.37 -0.28,-0.4 -0.56,-0.75 -0.85,-1.03 -0.28,-0.29 -0.58,-0.51 -0.9,-0.67 -0.31,-0.15 -0.65,-0.22 -1.01,-0.22l-1.59 0 0 10.05 -5.92 0 0 -26.26 9.37 0c6.38,0 9.57,2.38 9.57,7.14 0,0.92 -0.15,1.76 -0.43,2.54 -0.28,0.77 -0.67,1.47 -1.19,2.1 -0.51,0.61 -1.13,1.15 -1.85,1.6 -0.73,0.46 -1.54,0.81 -2.43,1.07l0 0.07c0.39,0.12 0.77,0.32 1.13,0.59 0.37,0.28 0.72,0.6 1.07,0.97 0.34,0.36 0.67,0.76 0.98,1.18 0.31,0.42 0.59,0.83 0.85,1.24l4.96 7.76zm-16.11 -21.83l0 7.31 2.56 0c1.27,0 2.29,-0.37 3.06,-1.1 0.78,-0.74 1.17,-1.67 1.17,-2.76 0,-2.3 -1.37,-3.45 -4.12,-3.45l-2.67 0zm48.48 21.83l-5.84 0 0 -15.71c0,-1.7 0.08,-3.57 0.22,-5.62l-0.14 0c-0.31,1.61 -0.59,2.77 -0.83,3.48l-6.15 17.85 -4.84 0 -6.26 -17.67c-0.17,-0.48 -0.44,-1.7 -0.82,-3.66l-0.17 0c0.16,2.58 0.24,4.85 0.24,6.81l0 14.52 -5.33 0 0 -26.26 8.66 0 5.37 15.56c0.43,1.25 0.74,2.5 0.93,3.76l0.11 0c0.33,-1.46 0.68,-2.72 1.05,-3.79l5.36 -15.53 8.44 0 0 26.26zm11.89 0l-5.92 0 0 -26.26 5.92 0 0 26.26z"/>
  <g>
   <polygon class="fil4" points="2217.27,353.98 2447.27,353.98 2447.27,583.98 2217.27,583.98 "/>
   <polygon id="_1_2" class="fil5 str1" points="2217.27,353.98 2447.27,353.98 2447.27,583.98 2217.27,583.98 "/>
  </g>
  <path class="fil6" d="M2243.01 481.1l0 -5.87c1.06,0.9 2.22,1.56 3.46,2.01 1.25,0.44 2.51,0.67 3.77,0.67 0.75,0 1.4,-0.07 1.95,-0.2 0.56,-0.14 1.02,-0.32 1.4,-0.56 0.37,-0.24 0.65,-0.52 0.83,-0.84 0.19,-0.33 0.27,-0.68 0.27,-1.06 0,-0.51 -0.14,-0.97 -0.43,-1.37 -0.3,-0.4 -0.7,-0.78 -1.2,-1.12 -0.51,-0.34 -1.11,-0.67 -1.81,-0.98 -0.69,-0.32 -1.44,-0.65 -2.25,-0.98 -2.05,-0.85 -3.58,-1.89 -4.59,-3.13 -1,-1.23 -1.5,-2.72 -1.5,-4.46 0,-1.37 0.26,-2.55 0.82,-3.53 0.55,-0.98 1.3,-1.79 2.24,-2.43 0.95,-0.63 2.04,-1.1 3.29,-1.4 1.24,-0.3 2.56,-0.45 3.95,-0.45 1.37,0 2.58,0.09 3.64,0.25 1.05,0.16 2.03,0.42 2.92,0.76l0 5.48c-0.44,-0.31 -0.92,-0.58 -1.44,-0.81 -0.52,-0.23 -1.06,-0.42 -1.6,-0.58 -0.55,-0.15 -1.1,-0.26 -1.64,-0.34 -0.55,-0.06 -1.06,-0.1 -1.55,-0.1 -0.67,0 -1.28,0.06 -1.83,0.19 -0.55,0.13 -1.01,0.31 -1.39,0.54 -0.38,0.23 -0.67,0.51 -0.88,0.83 -0.21,0.32 -0.31,0.69 -0.31,1.09 0,0.44 0.11,0.84 0.34,1.18 0.24,0.35 0.57,0.68 1,0.99 0.42,0.31 0.94,0.62 1.55,0.92 0.61,0.3 1.31,0.6 2.07,0.92 1.05,0.44 1.99,0.91 2.83,1.4 0.84,0.49 1.55,1.06 2.15,1.68 0.6,0.62 1.05,1.33 1.37,2.13 0.32,0.8 0.48,1.73 0.48,2.79 0,1.47 -0.28,2.69 -0.83,3.69 -0.56,1 -1.31,1.8 -2.26,2.42 -0.95,0.61 -2.06,1.06 -3.32,1.33 -1.27,0.27 -2.6,0.4 -4.01,0.4 -1.44,0 -2.81,-0.12 -4.11,-0.37 -1.3,-0.24 -2.43,-0.61 -3.38,-1.09zm44.06 1l-7.48 0 -7.65 -11.4c-0.15,-0.22 -0.38,-0.71 -0.7,-1.45l-0.08 0 0 12.85 -5.92 0 0 -26.25 5.92 0 0 12.41 0.08 0c0.15,-0.35 0.4,-0.83 0.74,-1.46l7.25 -10.95 7.05 0 -9.15 12.52 9.94 13.73zm18.26 0l-15.75 0 0 -26.25 15.14 0 0 4.81 -9.23 0 0 5.84 8.59 0 0 4.8 -8.59 0 0 6 9.84 0 0 4.8zm19.84 0l-15.64 0 0 -26.25 5.92 0 0 21.45 9.72 0 0 4.8zm19.28 0l-15.75 0 0 -26.25 15.14 0 0 4.81 -9.22 0 0 5.84 8.59 0 0 4.8 -8.59 0 0 6 9.83 0 0 4.8zm22.98 -21.44l-7.49 0 0 21.44 -5.93 0 0 -21.44 -7.45 0 0 -4.81 20.87 0 0 4.81zm13.24 21.9c-3.76,0 -6.82,-1.23 -9.19,-3.67 -2.37,-2.45 -3.55,-5.64 -3.55,-9.57 0,-4.15 1.2,-7.51 3.6,-10.07 2.41,-2.56 5.59,-3.85 9.56,-3.85 3.75,0 6.78,1.23 9.09,3.68 2.31,2.46 3.47,5.7 3.47,9.71 0,4.12 -1.2,7.46 -3.6,9.98 -2.39,2.52 -5.52,3.79 -9.38,3.79zm0.26 -22.06c-2.08,0 -3.73,0.77 -4.95,2.33 -1.22,1.56 -1.83,3.61 -1.83,6.18 0,2.6 0.61,4.65 1.83,6.17 1.22,1.52 2.82,2.27 4.8,2.27 2.04,0 3.65,-0.74 4.85,-2.2 1.2,-1.48 1.8,-3.52 1.8,-6.13 0,-2.72 -0.59,-4.84 -1.74,-6.36 -1.16,-1.51 -2.75,-2.26 -4.76,-2.26zm40.7 21.6l-5.97 0 -10.82 -16.5c-0.63,-0.96 -1.08,-1.69 -1.32,-2.17l-0.07 0c0.09,0.92 0.14,2.34 0.14,4.24l0 14.43 -5.58 0 0 -26.25 6.37 0 10.42 15.98c0.48,0.72 0.91,1.43 1.32,2.14l0.07 0c-0.1,-0.61 -0.15,-1.81 -0.15,-3.61l0 -14.51 5.59 0 0 26.25z"/>
  <path class="fil7" d="M2473.34 789.22l-6.79 0 -4.09 -6.76c-0.3,-0.51 -0.6,-0.97 -0.88,-1.37 -0.28,-0.4 -0.56,-0.75 -0.85,-1.04 -0.29,-0.28 -0.59,-0.5 -0.9,-0.66 -0.31,-0.15 -0.65,-0.22 -1.01,-0.22l-1.59 0 0 10.05 -5.92 0 0 -26.26 9.37 0c6.38,0 9.57,2.38 9.57,7.14 0,0.92 -0.15,1.76 -0.43,2.54 -0.28,0.77 -0.68,1.47 -1.19,2.1 -0.51,0.61 -1.13,1.15 -1.85,1.6 -0.73,0.46 -1.54,0.81 -2.44,1.06l0 0.08c0.4,0.12 0.77,0.32 1.14,0.59 0.37,0.28 0.72,0.6 1.07,0.97 0.34,0.36 0.66,0.76 0.98,1.18 0.31,0.42 0.59,0.83 0.85,1.23l4.96 7.77zm-16.11 -21.83l0 7.31 2.56 0c1.27,0 2.29,-0.37 3.05,-1.1 0.79,-0.75 1.18,-1.67 1.18,-2.76 0,-2.3 -1.37,-3.45 -4.12,-3.45l-2.67 0zm33.91 14.1l-12.23 0c0.19,2.72 1.91,4.08 5.14,4.08 2.06,0 3.88,-0.48 5.44,-1.46l0 4.18c-1.73,0.92 -3.98,1.38 -6.76,1.38 -3.02,0 -5.37,-0.83 -7.05,-2.52 -1.67,-1.67 -2.5,-4.01 -2.5,-7.01 0,-3.12 0.9,-5.59 2.71,-7.4 1.8,-1.82 4.02,-2.73 6.66,-2.73 2.73,0 4.85,0.81 6.35,2.43 1.49,1.63 2.24,3.83 2.24,6.61l0 2.44zm-5.36 -3.55c0,-2.69 -1.09,-4.03 -3.27,-4.03 -0.92,0 -1.73,0.38 -2.4,1.15 -0.68,0.77 -1.09,1.73 -1.24,2.88l6.91 0zm20.13 11.06c-0.85,0.45 -2.14,0.67 -3.86,0.67 -4.07,0 -6.12,-2.12 -6.12,-6.35l0 -8.58 -3.03 0 0 -4.27 3.03 0 0 -4.05 5.77 -1.65 0 5.7 4.21 0 0 4.27 -4.21 0 0 7.58c0,1.95 0.78,2.92 2.33,2.92 0.61,0 1.24,-0.17 1.88,-0.53l0 4.29zm12.05 0.67c-3.12,0 -5.58,-0.87 -7.36,-2.62 -1.79,-1.75 -2.69,-4.13 -2.69,-7.13 0,-3.1 0.93,-5.53 2.78,-7.28 1.86,-1.75 4.37,-2.63 7.53,-2.63 3.11,0 5.56,0.88 7.32,2.63 1.77,1.75 2.66,4.06 2.66,6.95 0,3.11 -0.91,5.57 -2.74,7.38 -1.82,1.8 -4.32,2.7 -7.5,2.7zm0.15 -15.23c-1.36,0 -2.43,0.47 -3.18,1.41 -0.76,0.94 -1.14,2.27 -1.14,3.99 0,3.6 1.46,5.4 4.36,5.4 2.77,0 4.16,-1.85 4.16,-5.54 0,-3.51 -1.4,-5.26 -4.2,-5.26zm26.08 1.25c-0.7,-0.39 -1.51,-0.57 -2.44,-0.57 -1.25,0 -2.24,0.46 -2.95,1.38 -0.7,0.92 -1.06,2.17 -1.06,3.76l0 8.96 -5.78 0 0 -18.75 5.78 0 0 3.48 0.07 0c0.92,-2.55 2.57,-3.81 4.95,-3.81 0.61,0 1.09,0.07 1.43,0.21l0 5.34zm20.91 13.53l-5.77 0 0 -10.42c0,-2.91 -1.04,-4.36 -3.12,-4.36 -1,0 -1.82,0.38 -2.47,1.15 -0.64,0.77 -0.97,1.75 -0.97,2.93l0 10.7 -5.78 0 0 -18.75 5.78 0 0 2.97 0.07 0c1.39,-2.29 3.39,-3.43 6.03,-3.43 4.15,0 6.23,2.58 6.23,7.73l0 11.48zm13.51 0.45c-3.13,0 -5.58,-0.87 -7.37,-2.62 -1.79,-1.75 -2.68,-4.13 -2.68,-7.13 0,-3.1 0.92,-5.53 2.78,-7.28 1.86,-1.75 4.37,-2.63 7.52,-2.63 3.12,0 5.56,0.88 7.33,2.63 1.77,1.75 2.65,4.06 2.65,6.95 0,3.11 -0.91,5.57 -2.73,7.38 -1.83,1.8 -4.33,2.7 -7.5,2.7zm0.15 -15.23c-1.37,0 -2.43,0.47 -3.19,1.41 -0.76,0.94 -1.14,2.27 -1.14,3.99 0,3.6 1.46,5.4 4.36,5.4 2.77,0 4.16,-1.85 4.16,-5.54 0,-3.51 -1.4,-5.26 -4.19,-5.26z"/>
  <path class="fil8" d="M2427.53 155.66l0 9.04 -5.91 0 0 -26.26 9.27 0c6.61,0 9.92,2.79 9.92,8.37 0,2.64 -0.95,4.77 -2.85,6.4 -1.9,1.63 -4.43,2.45 -7.61,2.45l-2.82 0zm0 -12.68l0 8.19 2.33 0c3.15,0 4.72,-1.38 4.72,-4.14 0,-2.7 -1.57,-4.05 -4.72,-4.05l-2.33 0zm31.22 21.72l-5.47 0 0 -2.69 -0.08 0c-1.25,2.1 -3.12,3.15 -5.58,3.15 -1.82,0 -3.25,-0.52 -4.3,-1.55 -1.04,-1.03 -1.56,-2.41 -1.56,-4.13 0,-3.64 2.16,-5.74 6.46,-6.3l5.1 -0.67c0,-2.05 -1.12,-3.08 -3.34,-3.08 -2.23,0 -4.36,0.66 -6.37,1.99l0 -4.35c0.81,-0.42 1.91,-0.78 3.31,-1.1 1.39,-0.32 2.66,-0.48 3.81,-0.48 5.35,0 8.02,2.67 8.02,8l0 11.21zm-5.43 -7.62l0 -1.26 -3.41 0.44c-1.88,0.24 -2.82,1.09 -2.82,2.55 0,0.65 0.23,1.2 0.68,1.61 0.46,0.42 1.08,0.64 1.86,0.64 1.09,0 1.97,-0.38 2.66,-1.13 0.68,-0.75 1.03,-1.7 1.03,-2.85zm22.25 -5.91c-0.7,-0.38 -1.52,-0.57 -2.44,-0.57 -1.26,0 -2.24,0.46 -2.95,1.38 -0.71,0.93 -1.06,2.18 -1.06,3.76l0 8.96 -5.79 0 0 -18.75 5.79 0 0 3.48 0.07 0c0.92,-2.54 2.56,-3.81 4.94,-3.81 0.62,0 1.09,0.07 1.44,0.22l0 5.33zm18.29 13.53l-5.48 0 0 -2.69 -0.07 0c-1.26,2.1 -3.12,3.15 -5.59,3.15 -1.82,0 -3.25,-0.52 -4.29,-1.55 -1.04,-1.03 -1.56,-2.41 -1.56,-4.13 0,-3.64 2.15,-5.74 6.46,-6.3l5.09 -0.67c0,-2.05 -1.11,-3.08 -3.34,-3.08 -2.23,0 -4.35,0.66 -6.36,1.99l0 -4.35c0.8,-0.42 1.9,-0.78 3.3,-1.1 1.4,-0.32 2.67,-0.48 3.82,-0.48 5.35,0 8.02,2.67 8.02,8l0 11.21zm-5.44 -7.62l0 -1.26 -3.4 0.44c-1.89,0.24 -2.82,1.09 -2.82,2.55 0,0.65 0.22,1.2 0.68,1.61 0.46,0.42 1.08,0.64 1.86,0.64 1.09,0 1.97,-0.38 2.66,-1.13 0.68,-0.75 1.02,-1.7 1.02,-2.85zm3.71 -20.01l-5.73 5.91 -4.17 0 4.76 -5.91 5.14 0zm36.08 27.63l-5.77 0 0 -10.69c0,-2.73 -1,-4.09 -3,-4.09 -0.95,0 -1.72,0.41 -2.32,1.23 -0.6,0.82 -0.9,1.84 -0.9,3.06l0 10.49 -5.79 0 0 -10.81c0,-2.64 -0.98,-3.97 -2.94,-3.97 -0.99,0 -1.79,0.39 -2.37,1.17 -0.6,0.78 -0.9,1.85 -0.9,3.19l0 10.42 -5.78 0 0 -18.75 5.78 0 0 2.93 0.08 0c0.6,-1 1.44,-1.82 2.52,-2.44 1.08,-0.63 2.26,-0.95 3.54,-0.95 2.65,0 4.46,1.17 5.44,3.5 1.43,-2.33 3.52,-3.5 6.3,-3.5 4.07,0 6.11,2.52 6.11,7.55l0 11.66zm21.43 -7.73l-12.24 0c0.2,2.72 1.92,4.09 5.15,4.09 2.06,0 3.87,-0.49 5.44,-1.47l0 4.18c-1.74,0.92 -3.99,1.39 -6.76,1.39 -3.03,0 -5.38,-0.84 -7.05,-2.52 -1.67,-1.68 -2.51,-4.02 -2.51,-7.02 0,-3.11 0.9,-5.58 2.72,-7.4 1.8,-1.82 4.02,-2.73 6.66,-2.73 2.73,0 4.85,0.82 6.34,2.43 1.5,1.63 2.25,3.84 2.25,6.62l0 2.43zm-5.37 -3.55c0,-2.68 -1.08,-4.03 -3.26,-4.03 -0.92,0 -1.73,0.38 -2.41,1.15 -0.68,0.77 -1.08,1.73 -1.23,2.88l6.9 0zm20.14 11.06c-0.86,0.45 -2.14,0.68 -3.86,0.68 -4.08,0 -6.12,-2.12 -6.12,-6.35l0 -8.59 -3.04 0 0 -4.27 3.04 0 0 -4.04 5.77 -1.65 0 5.69 4.21 0 0 4.27 -4.21 0 0 7.58c0,1.95 0.77,2.92 2.32,2.92 0.62,0 1.25,-0.17 1.89,-0.53l0 4.29zm15.49 -13.31c-0.7,-0.38 -1.51,-0.57 -2.43,-0.57 -1.26,0 -2.24,0.46 -2.95,1.38 -0.71,0.93 -1.07,2.18 -1.07,3.76l0 8.96 -5.78 0 0 -18.75 5.78 0 0 3.48 0.08 0c0.92,-2.54 2.56,-3.81 4.94,-3.81 0.62,0 1.09,0.07 1.43,0.22l0 5.33zm11.48 13.99c-3.12,0 -5.58,-0.88 -7.37,-2.63 -1.79,-1.75 -2.68,-4.13 -2.68,-7.13 0,-3.1 0.93,-5.53 2.78,-7.28 1.86,-1.75 4.37,-2.63 7.53,-2.63 3.11,0 5.55,0.88 7.32,2.63 1.77,1.75 2.66,4.07 2.66,6.95 0,3.11 -0.91,5.57 -2.74,7.38 -1.83,1.81 -4.32,2.71 -7.5,2.71zm0.15 -15.24c-1.37,0 -2.43,0.47 -3.19,1.41 -0.75,0.94 -1.13,2.28 -1.13,3.99 0,3.6 1.45,5.4 4.36,5.4 2.77,0 4.15,-1.85 4.15,-5.54 0,-3.51 -1.4,-5.26 -4.19,-5.26zm12.61 14.29l0 -4.69c0.96,0.57 1.91,1 2.85,1.28 0.95,0.28 1.84,0.42 2.68,0.42 1.03,0 1.84,-0.14 2.43,-0.42 0.59,-0.28 0.89,-0.71 0.89,-1.28 0,-0.37 -0.13,-0.68 -0.4,-0.92 -0.27,-0.24 -0.62,-0.46 -1.04,-0.64 -0.42,-0.18 -0.88,-0.35 -1.38,-0.49 -0.5,-0.15 -0.98,-0.31 -1.45,-0.5 -0.74,-0.28 -1.4,-0.58 -1.96,-0.9 -0.57,-0.33 -1.05,-0.7 -1.44,-1.13 -0.38,-0.43 -0.67,-0.92 -0.87,-1.48 -0.2,-0.57 -0.31,-1.23 -0.31,-2 0,-1.05 0.23,-1.95 0.69,-2.71 0.46,-0.76 1.07,-1.38 1.83,-1.86 0.76,-0.48 1.64,-0.83 2.62,-1.06 0.98,-0.22 2.01,-0.34 3.07,-0.34 0.83,0 1.67,0.07 2.52,0.2 0.86,0.12 1.7,0.31 2.54,0.55l0 4.47c-0.74,-0.43 -1.52,-0.75 -2.36,-0.96 -0.84,-0.21 -1.66,-0.32 -2.46,-0.32 -0.38,0 -0.74,0.03 -1.07,0.1 -0.34,0.06 -0.64,0.16 -0.9,0.3 -0.25,0.12 -0.45,0.28 -0.6,0.49 -0.15,0.2 -0.21,0.43 -0.21,0.69 0,0.33 0.1,0.63 0.32,0.87 0.23,0.24 0.51,0.46 0.86,0.63 0.36,0.18 0.75,0.34 1.18,0.48 0.44,0.14 0.87,0.29 1.3,0.43 0.77,0.27 1.46,0.56 2.09,0.88 0.61,0.32 1.15,0.69 1.6,1.12 0.44,0.42 0.78,0.92 1.02,1.5 0.24,0.57 0.36,1.25 0.36,2.05 0,1.11 -0.24,2.06 -0.73,2.85 -0.48,0.79 -1.12,1.42 -1.92,1.92 -0.8,0.49 -1.72,0.85 -2.77,1.08 -1.04,0.22 -2.12,0.34 -3.25,0.34 -2.06,0 -3.96,-0.32 -5.73,-0.95z"/>
  <g>
   <path id="flecha_roja" class="fil9" d="M2382.29 596.91l15 35 0 0 -0.94 -0.45 -0.94 -0.43 -0.93 -0.39 -0.94 -0.37 -0.94 -0.34 -0.94 -0.3 -0.93 -0.28 -0.94 -0.25 -0.94 -0.22 -0.94 -0.19 -0.94 -0.16 -0.93 -0.13 -0.94 -0.11 -0.94 -0.07 -0.94 -0.04 -0.93 -0.02 -0.94 0.02 -0.94 0.04 -0.94 0.07 -0.93 0.11 -0.94 0.13 -0.94 0.16 -0.94 0.19 -0.93 0.22 -0.94 0.25 -0.94 0.28 -0.94 0.3 -0.94 0.34 -0.93 0.37 -0.94 0.39 -0.94 0.43 -0.94 0.45 15.01 -35zm137.79 128.11l0 5 0 0 -7.2 -0.15 -7.1 -0.44 -7 -0.73 -6.89 -1.01 -6.77 -1.28 -6.64 -1.55 -6.5 -1.8 -6.36 -2.06 -6.2 -2.3 -6.04 -2.54 -5.87 -2.77 -5.69 -2.99 -5.49 -3.2 -5.3 -3.42 -5.09 -3.62 -4.88 -3.81 -4.65 -4 -4.42 -4.19 -4.18 -4.35 -3.92 -4.53 -3.67 -4.69 -3.39 -4.84 -3.11 -4.98 -2.83 -5.13 -2.53 -5.26 -2.22 -5.39 -1.9 -5.5 -1.58 -5.61 -1.24 -5.71 -0.9 -5.81 -0.55 -5.89 -0.18 -5.97 5 0 0.17 5.66 0.52 5.59 0.85 5.5 1.18 5.42 1.5 5.33 1.81 5.22 2.11 5.12 2.41 5.01 2.69 4.88 2.97 4.76 3.24 4.63 3.51 4.48 3.76 4.34 4 4.18 4.25 4.02 4.47 3.84 4.69 3.67 4.91 3.49 5.11 3.3 5.31 3.09 5.49 2.89 5.67 2.68 5.85 2.45 6 2.23 6.16 1.99 6.3 1.75 6.44 1.49 6.56 1.25 6.68 0.98 6.79 0.71 6.9 0.42 6.99 0.15 0 0zm135.29 -110.52l5 0 -0.19 5.97 -0.54 5.89 -0.9 5.81 -1.25 5.71 -1.58 5.61 -1.9 5.5 -2.22 5.39 -2.53 5.26 -2.83 5.13 -3.11 4.98 -3.39 4.84 -3.67 4.69 -3.92 4.53 -4.18 4.35 -4.41 4.19 -4.66 4 -4.87 3.81 -5.1 3.62 -5.29 3.42 -5.5 3.2 -5.69 2.99 -5.87 2.77 -6.04 2.54 -6.2 2.3 -6.36 2.06 -6.5 1.8 -6.64 1.55 -6.77 1.28 -6.89 1.01 -7 0.73 -7.1 0.44 -7.19 0.15 0 -5 6.98 -0.15 6.9 -0.42 6.79 -0.71 6.68 -0.98 6.57 -1.25 6.43 -1.49 6.3 -1.75 6.16 -1.99 6.01 -2.23 5.84 -2.45 5.67 -2.68 5.49 -2.89 5.31 -3.09 5.11 -3.3 4.91 -3.49 4.69 -3.67 4.48 -3.84 4.24 -4.02 4 -4.18 3.76 -4.34 3.51 -4.48 3.24 -4.63 2.97 -4.76 2.7 -4.88 2.4 -5.01 2.11 -5.12 1.81 -5.22 1.5 -5.33 1.18 -5.42 0.85 -5.5 0.52 -5.59 0.18 -5.66z"/>
  </g>
  <g>
   <path id="flecha_amarilla" class="fil10" d="M2657.87 331.21l-15.01 -35.01 0 0 0.94 0.46 0.94 0.42 0.94 0.4 0.93 0.36 0.94 0.34 0.94 0.31 0.94 0.28 0.93 0.25 0.94 0.22 0.94 0.19 0.94 0.16 0.93 0.13 0.94 0.1 0.94 0.08 0.94 0.04 0.94 0.01 0.93 -0.01 0.94 -0.04 0.94 -0.08 0.94 -0.1 0.93 -0.13 0.94 -0.16 0.94 -0.19 0.94 -0.22 0.94 -0.25 0.93 -0.28 0.94 -0.31 0.94 -0.34 0.94 -0.36 0.93 -0.4 0.94 -0.42 0.94 -0.46 -15 35.01zm-137.79 -128.11l0 -5 0 0 7.19 0.15 7.1 0.44 7 0.73 6.89 1.01 6.77 1.28 6.64 1.55 6.5 1.8 6.36 2.06 6.2 2.3 6.04 2.53 5.87 2.77 5.69 2.99 5.5 3.21 5.29 3.42 5.1 3.61 4.87 3.82 4.66 4 4.41 4.18 4.18 4.36 3.92 4.53 3.67 4.68 3.39 4.85 3.11 4.98 2.83 5.13 2.53 5.26 2.22 5.38 1.9 5.5 1.58 5.61 1.25 5.72 0.9 5.81 0.54 5.89 0.19 5.97 -5 0 -0.18 -5.67 -0.52 -5.58 -0.85 -5.51 -1.18 -5.42 -1.5 -5.32 -1.81 -5.23 -2.11 -5.11 -2.4 -5.01 -2.7 -4.89 -2.97 -4.75 -3.24 -4.63 -3.51 -4.48 -3.76 -4.34 -4 -4.18 -4.24 -4.02 -4.48 -3.85 -4.69 -3.67 -4.91 -3.48 -5.11 -3.3 -5.31 -3.09 -5.49 -2.89 -5.67 -2.68 -5.84 -2.45 -6.01 -2.23 -6.16 -1.99 -6.3 -1.75 -6.43 -1.5 -6.57 -1.24 -6.68 -0.98 -6.79 -0.71 -6.9 -0.43 -6.98 -0.14 0 0zm-135.29 110.52l-5 0 0.18 -5.97 0.55 -5.89 0.9 -5.81 1.24 -5.72 1.58 -5.61 1.9 -5.5 2.22 -5.38 2.53 -5.26 2.83 -5.13 3.11 -4.98 3.39 -4.85 3.67 -4.68 3.92 -4.53 4.18 -4.36 4.42 -4.18 4.65 -4 4.88 -3.82 5.09 -3.61 5.3 -3.42 5.49 -3.21 5.69 -2.99 5.87 -2.77 6.04 -2.53 6.2 -2.3 6.36 -2.06 6.5 -1.8 6.64 -1.55 6.77 -1.28 6.89 -1.01 7 -0.73 7.1 -0.44 7.2 -0.15 0 5 -6.99 0.14 -6.9 0.43 -6.79 0.71 -6.68 0.98 -6.56 1.24 -6.44 1.5 -6.3 1.75 -6.16 1.99 -6 2.23 -5.85 2.45 -5.67 2.68 -5.49 2.89 -5.31 3.09 -5.11 3.3 -4.91 3.48 -4.69 3.67 -4.47 3.85 -4.25 4.02 -4 4.18 -3.76 4.34 -3.51 4.48 -3.24 4.63 -2.97 4.75 -2.69 4.89 -2.41 5.01 -2.11 5.11 -1.81 5.23 -1.5 5.32 -1.18 5.42 -0.85 5.51 -0.52 5.58 -0.17 5.67z"/>
  </g>
  <rect class="fil1 str0" x="2070.08" y="886.62" width="900" height="700"/>
  <polygon class="fil2" points="2070.08,1516.9 2266.57,1516.9 2347.36,1586.62 2070.08,1586.62 "/>
  <path class="fil3" d="M2101.45 1565.81l0 -6.51c1.19,0.99 2.47,1.73 3.85,2.23 1.38,0.49 2.78,0.74 4.19,0.74 0.83,0 1.55,-0.08 2.17,-0.22 0.61,-0.15 1.13,-0.36 1.55,-0.63 0.41,-0.26 0.72,-0.57 0.92,-0.93 0.21,-0.36 0.3,-0.75 0.3,-1.17 0,-0.57 -0.16,-1.08 -0.48,-1.52 -0.33,-0.45 -0.77,-0.87 -1.34,-1.24 -0.56,-0.39 -1.23,-0.75 -2,-1.1 -0.77,-0.36 -1.61,-0.72 -2.5,-1.08 -2.28,-0.95 -3.98,-2.11 -5.1,-3.48 -1.12,-1.37 -1.67,-3.03 -1.67,-4.96 0,-1.52 0.29,-2.83 0.91,-3.92 0.61,-1.1 1.44,-1.99 2.49,-2.7 1.05,-0.7 2.27,-1.22 3.65,-1.56 1.38,-0.33 2.85,-0.5 4.4,-0.5 1.52,0 2.87,0.1 4.04,0.28 1.17,0.18 2.25,0.47 3.24,0.85l0 6.08c-0.49,-0.34 -1.02,-0.64 -1.59,-0.89 -0.58,-0.26 -1.18,-0.48 -1.79,-0.65 -0.6,-0.17 -1.21,-0.29 -1.82,-0.37 -0.6,-0.08 -1.17,-0.12 -1.71,-0.12 -0.75,0 -1.43,0.07 -2.04,0.21 -0.61,0.14 -1.12,0.34 -1.55,0.6 -0.41,0.26 -0.74,0.56 -0.98,0.92 -0.23,0.36 -0.34,0.77 -0.34,1.21 0,0.5 0.13,0.93 0.39,1.31 0.25,0.39 0.62,0.76 1.1,1.11 0.47,0.34 1.05,0.68 1.73,1.01 0.67,0.34 1.44,0.68 2.3,1.03 1.16,0.49 2.21,1.01 3.14,1.56 0.93,0.54 1.73,1.17 2.38,1.86 0.67,0.69 1.18,1.48 1.53,2.37 0.36,0.88 0.53,1.92 0.53,3.1 0,1.63 -0.3,2.99 -0.92,4.1 -0.62,1.11 -1.45,2 -2.52,2.68 -1.05,0.69 -2.28,1.18 -3.68,1.48 -1.41,0.3 -2.89,0.45 -4.46,0.45 -1.59,0 -3.11,-0.13 -4.56,-0.41 -1.44,-0.27 -2.7,-0.68 -3.76,-1.22zm42.79 -7.46l-13.59 0c0.21,3.02 2.12,4.53 5.71,4.53 2.3,0 4.31,-0.54 6.05,-1.62l0 4.64c-1.93,1.02 -4.43,1.54 -7.51,1.54 -3.36,0 -5.97,-0.93 -7.83,-2.8 -1.86,-1.86 -2.79,-4.47 -2.79,-7.8 0,-3.46 1,-6.2 3.01,-8.22 2.01,-2.02 4.48,-3.03 7.41,-3.03 3.03,0 5.39,0.9 7.05,2.7 1.66,1.81 2.49,4.26 2.49,7.35l0 2.71zm-5.96 -3.95c0,-2.98 -1.21,-4.48 -3.62,-4.48 -1.03,0 -1.93,0.43 -2.68,1.28 -0.75,0.86 -1.21,1.92 -1.37,3.2l7.67 0zm23.38 -2.5c-0.78,-0.43 -1.68,-0.64 -2.71,-0.64 -1.4,0 -2.49,0.52 -3.28,1.54 -0.78,1.03 -1.18,2.42 -1.18,4.18l0 9.95 -6.42 0 0 -20.83 6.42 0 0 3.87 0.08 0c1.02,-2.83 2.85,-4.24 5.5,-4.24 0.68,0 1.2,0.08 1.59,0.24l0 5.93zm24.49 -5.8l-7.75 20.83 -7.33 0 -7.38 -20.83 6.88 0 3.61 12.84c0.41,1.45 0.65,2.68 0.72,3.7l0.08 0c0.09,-0.97 0.35,-2.16 0.75,-3.58l3.7 -12.96 6.72 0zm6 -3.3c-1.08,0 -1.97,-0.32 -2.66,-0.97 -0.69,-0.64 -1.04,-1.43 -1.04,-2.36 0,-0.97 0.35,-1.76 1.04,-2.37 0.69,-0.61 1.58,-0.91 2.66,-0.91 1.1,0 1.99,0.3 2.68,0.91 0.68,0.61 1.03,1.4 1.03,2.37 0,0.97 -0.35,1.77 -1.03,2.4 -0.69,0.62 -1.58,0.93 -2.68,0.93zm3.17 24.13l-6.42 0 0 -20.83 6.42 0 0 20.83zm25.8 0l-6.43 0 0 -2.87 -0.07 0c-1.47,2.25 -3.62,3.38 -6.46,3.38 -2.6,0 -4.7,-0.92 -6.28,-2.76 -1.59,-1.83 -2.38,-4.4 -2.38,-7.7 0,-3.45 0.87,-6.2 2.62,-8.28 1.75,-2.07 4.04,-3.11 6.88,-3.11 2.68,0 4.55,0.96 5.62,2.89l0.07 0 0 -12.39 6.43 0 0 30.84zm-6.3 -10.13l0 -1.57c0,-1.36 -0.4,-2.48 -1.18,-3.38 -0.79,-0.89 -1.82,-1.34 -3.07,-1.34 -1.43,0 -2.54,0.56 -3.34,1.68 -0.8,1.12 -1.21,2.66 -1.21,4.61 0,1.83 0.39,3.24 1.16,4.23 0.78,0.99 1.85,1.48 3.22,1.48 1.31,0 2.37,-0.52 3.19,-1.56 0.82,-1.05 1.23,-2.43 1.23,-4.15zm21.64 10.64c-3.47,0 -6.2,-0.97 -8.18,-2.92 -1.99,-1.94 -2.98,-4.59 -2.98,-7.92 0,-3.45 1.02,-6.15 3.09,-8.09 2.06,-1.95 4.85,-2.92 8.36,-2.92 3.46,0 6.17,0.97 8.14,2.92 1.96,1.94 2.95,4.52 2.95,7.72 0,3.46 -1.02,6.19 -3.04,8.2 -2.03,2.01 -4.81,3.01 -8.34,3.01zm0.17 -16.93c-1.52,0 -2.7,0.52 -3.54,1.57 -0.84,1.04 -1.27,2.52 -1.27,4.43 0,4 1.62,6 4.85,6 3.08,0 4.62,-2.05 4.62,-6.16 0,-3.89 -1.56,-5.84 -4.66,-5.84zm28.97 1.39c-0.78,-0.43 -1.68,-0.64 -2.71,-0.64 -1.39,0 -2.48,0.52 -3.27,1.54 -0.79,1.03 -1.18,2.42 -1.18,4.18l0 9.95 -6.43 0 0 -20.83 6.43 0 0 3.87 0.08 0c1.02,-2.83 2.85,-4.24 5.49,-4.24 0.68,0 1.21,0.08 1.59,0.24l0 5.93z"/>
  <g>
   <polygon class="fil4" points="2592.88,1127.23 2822.88,1127.23 2822.88,1357.23 2592.88,1357.23 "/>
   <polygon id="_1_3" class="fil5 str1" points="2592.88,1127.23 2822.88,1127.23 2822.88,1357.23 2592.88,1357.23 "/>
  </g>
  <path class="fil6" d="M2696.77 1255.36l-6.79 0 -4.09 -6.76c-0.3,-0.51 -0.6,-0.96 -0.88,-1.37 -0.28,-0.4 -0.56,-0.74 -0.85,-1.03 -0.28,-0.29 -0.58,-0.51 -0.9,-0.66 -0.31,-0.15 -0.65,-0.23 -1.01,-0.23l-1.59 0 0 10.05 -5.92 0 0 -26.26 9.37 0c6.38,0 9.57,2.39 9.57,7.14 0,0.92 -0.15,1.77 -0.43,2.54 -0.28,0.77 -0.67,1.47 -1.19,2.1 -0.51,0.62 -1.13,1.16 -1.85,1.61 -0.73,0.45 -1.54,0.8 -2.43,1.06l0 0.07c0.39,0.13 0.77,0.32 1.13,0.6 0.37,0.27 0.72,0.59 1.07,0.96 0.34,0.37 0.67,0.76 0.98,1.18 0.31,0.42 0.59,0.83 0.85,1.24l4.96 7.76zm-16.11 -21.82l0 7.3 2.56 0c1.27,0 2.29,-0.37 3.06,-1.1 0.78,-0.74 1.17,-1.67 1.17,-2.76 0,-2.3 -1.37,-3.44 -4.12,-3.44l-2.67 0zm48.48 21.82l-5.84 0 0 -15.71c0,-1.7 0.08,-3.57 0.22,-5.62l-0.14 0c-0.31,1.61 -0.59,2.77 -0.83,3.48l-6.15 17.85 -4.84 0 -6.26 -17.67c-0.17,-0.47 -0.44,-1.7 -0.82,-3.66l-0.17 0c0.16,2.59 0.24,4.86 0.24,6.81l0 14.52 -5.33 0 0 -26.26 8.66 0 5.37 15.57c0.43,1.24 0.74,2.49 0.93,3.75l0.11 0c0.33,-1.45 0.68,-2.72 1.05,-3.79l5.36 -15.53 8.44 0 0 26.26zm11.89 0l-5.92 0 0 -26.26 5.92 0 0 26.26z"/>
  <g>
   <polygon class="fil4" points="2217.27,1127.23 2447.27,1127.23 2447.27,1357.23 2217.27,1357.23 "/>
   <polygon id="_1_4" class="fil5 str1" points="2217.27,1127.23 2447.27,1127.23 2447.27,1357.23 2217.27,1357.23 "/>
  </g>
  <path class="fil6" d="M2243.01 1254.35l0 -5.86c1.06,0.89 2.22,1.56 3.46,2 1.25,0.45 2.51,0.67 3.77,0.67 0.75,0 1.4,-0.07 1.95,-0.2 0.56,-0.14 1.02,-0.32 1.4,-0.56 0.37,-0.24 0.65,-0.52 0.83,-0.84 0.19,-0.32 0.27,-0.67 0.27,-1.06 0,-0.51 -0.14,-0.96 -0.43,-1.36 -0.3,-0.41 -0.7,-0.79 -1.2,-1.12 -0.51,-0.35 -1.11,-0.68 -1.81,-0.99 -0.69,-0.32 -1.44,-0.64 -2.25,-0.98 -2.05,-0.85 -3.58,-1.89 -4.59,-3.13 -1,-1.23 -1.5,-2.72 -1.5,-4.46 0,-1.37 0.26,-2.54 0.82,-3.52 0.55,-0.99 1.3,-1.8 2.24,-2.44 0.95,-0.63 2.04,-1.1 3.29,-1.4 1.24,-0.3 2.56,-0.45 3.95,-0.45 1.37,0 2.58,0.09 3.64,0.25 1.05,0.17 2.03,0.42 2.92,0.77l0 5.47c-0.44,-0.3 -0.92,-0.57 -1.44,-0.8 -0.52,-0.24 -1.06,-0.43 -1.6,-0.59 -0.55,-0.15 -1.1,-0.26 -1.64,-0.33 -0.55,-0.07 -1.06,-0.11 -1.55,-0.11 -0.67,0 -1.28,0.06 -1.83,0.19 -0.55,0.13 -1.01,0.31 -1.39,0.54 -0.38,0.23 -0.67,0.51 -0.88,0.83 -0.21,0.33 -0.31,0.69 -0.31,1.09 0,0.44 0.11,0.84 0.34,1.18 0.24,0.35 0.57,0.68 1,1 0.42,0.3 0.94,0.61 1.55,0.91 0.61,0.3 1.31,0.6 2.07,0.92 1.05,0.44 1.99,0.91 2.83,1.4 0.84,0.5 1.55,1.06 2.15,1.68 0.6,0.62 1.05,1.34 1.37,2.14 0.32,0.79 0.48,1.72 0.48,2.78 0,1.47 -0.28,2.7 -0.83,3.7 -0.56,0.99 -1.31,1.8 -2.26,2.41 -0.95,0.62 -2.06,1.06 -3.32,1.33 -1.27,0.27 -2.6,0.4 -4.01,0.4 -1.44,0 -2.81,-0.12 -4.11,-0.36 -1.3,-0.25 -2.43,-0.61 -3.38,-1.1zm44.06 1l-7.48 0 -7.65 -11.4c-0.15,-0.22 -0.38,-0.71 -0.7,-1.45l-0.08 0 0 12.85 -5.92 0 0 -26.25 5.92 0 0 12.41 0.08 0c0.15,-0.34 0.4,-0.83 0.74,-1.46l7.25 -10.95 7.05 0 -9.15 12.52 9.94 13.73zm18.26 0l-15.75 0 0 -26.25 15.14 0 0 4.81 -9.23 0 0 5.84 8.59 0 0 4.8 -8.59 0 0 6 9.84 0 0 4.8zm19.84 0l-15.64 0 0 -26.25 5.92 0 0 21.45 9.72 0 0 4.8zm19.28 0l-15.75 0 0 -26.25 15.14 0 0 4.81 -9.22 0 0 5.84 8.59 0 0 4.8 -8.59 0 0 6 9.83 0 0 4.8zm22.98 -21.44l-7.49 0 0 21.44 -5.93 0 0 -21.44 -7.45 0 0 -4.81 20.87 0 0 4.81zm13.24 21.9c-3.76,0 -6.82,-1.22 -9.19,-3.67 -2.37,-2.45 -3.55,-5.64 -3.55,-9.57 0,-4.15 1.2,-7.5 3.6,-10.07 2.41,-2.56 5.59,-3.85 9.56,-3.85 3.75,0 6.78,1.24 9.09,3.69 2.31,2.45 3.47,5.69 3.47,9.7 0,4.13 -1.2,7.46 -3.6,9.98 -2.39,2.53 -5.52,3.79 -9.38,3.79zm0.26 -22.06c-2.08,0 -3.73,0.77 -4.95,2.34 -1.22,1.55 -1.83,3.61 -1.83,6.17 0,2.6 0.61,4.66 1.83,6.18 1.22,1.51 2.82,2.26 4.8,2.26 2.04,0 3.65,-0.73 4.85,-2.2 1.2,-1.48 1.8,-3.51 1.8,-6.13 0,-2.72 -0.59,-4.84 -1.74,-6.35 -1.16,-1.52 -2.75,-2.27 -4.76,-2.27zm40.7 21.6l-5.97 0 -10.82 -16.5c-0.63,-0.96 -1.08,-1.68 -1.32,-2.17l-0.07 0c0.09,0.92 0.14,2.34 0.14,4.24l0 14.43 -5.58 0 0 -26.25 6.37 0 10.42 15.98c0.48,0.72 0.91,1.44 1.32,2.14l0.07 0c-0.1,-0.6 -0.15,-1.81 -0.15,-3.6l0 -14.52 5.59 0 0 26.25z"/>
  <path class="fil7" d="M2473.34 1562.47l-6.79 0 -4.09 -6.76c-0.3,-0.51 -0.6,-0.97 -0.88,-1.37 -0.28,-0.4 -0.56,-0.75 -0.85,-1.03 -0.29,-0.29 -0.59,-0.51 -0.9,-0.67 -0.31,-0.15 -0.65,-0.22 -1.01,-0.22l-1.59 0 0 10.05 -5.92 0 0 -26.26 9.37 0c6.38,0 9.57,2.38 9.57,7.14 0,0.92 -0.15,1.76 -0.43,2.54 -0.28,0.77 -0.68,1.47 -1.19,2.1 -0.51,0.62 -1.13,1.15 -1.85,1.6 -0.73,0.46 -1.54,0.81 -2.44,1.07l0 0.07c0.4,0.13 0.77,0.32 1.14,0.6 0.37,0.27 0.72,0.59 1.07,0.96 0.34,0.37 0.66,0.76 0.98,1.18 0.31,0.42 0.59,0.83 0.85,1.24l4.96 7.76zm-16.11 -21.83l0 7.31 2.56 0c1.27,0 2.29,-0.37 3.05,-1.1 0.79,-0.74 1.18,-1.67 1.18,-2.76 0,-2.3 -1.37,-3.45 -4.12,-3.45l-2.67 0zm33.91 14.1l-12.23 0c0.19,2.72 1.91,4.09 5.14,4.09 2.06,0 3.88,-0.49 5.44,-1.47l0 4.18c-1.73,0.92 -3.98,1.39 -6.76,1.39 -3.02,0 -5.37,-0.84 -7.05,-2.52 -1.67,-1.68 -2.5,-4.02 -2.5,-7.02 0,-3.11 0.9,-5.58 2.71,-7.4 1.8,-1.82 4.02,-2.73 6.66,-2.73 2.73,0 4.85,0.82 6.35,2.43 1.49,1.63 2.24,3.84 2.24,6.62l0 2.43zm-5.36 -3.55c0,-2.68 -1.09,-4.03 -3.27,-4.03 -0.92,0 -1.73,0.38 -2.4,1.15 -0.68,0.77 -1.09,1.73 -1.24,2.88l6.91 0zm20.13 11.06c-0.85,0.45 -2.14,0.68 -3.86,0.68 -4.07,0 -6.12,-2.12 -6.12,-6.35l0 -8.59 -3.03 0 0 -4.27 3.03 0 0 -4.04 5.77 -1.65 0 5.69 4.21 0 0 4.27 -4.21 0 0 7.58c0,1.95 0.78,2.92 2.33,2.92 0.61,0 1.24,-0.17 1.88,-0.53l0 4.29zm12.05 0.68c-3.12,0 -5.58,-0.88 -7.36,-2.63 -1.79,-1.75 -2.69,-4.13 -2.69,-7.13 0,-3.1 0.93,-5.53 2.78,-7.28 1.86,-1.75 4.37,-2.63 7.53,-2.63 3.11,0 5.56,0.88 7.32,2.63 1.77,1.75 2.66,4.07 2.66,6.95 0,3.11 -0.91,5.57 -2.74,7.38 -1.82,1.81 -4.32,2.71 -7.5,2.71zm0.15 -15.24c-1.36,0 -2.43,0.47 -3.18,1.41 -0.76,0.94 -1.14,2.28 -1.14,3.99 0,3.6 1.46,5.4 4.36,5.4 2.77,0 4.16,-1.85 4.16,-5.54 0,-3.51 -1.4,-5.26 -4.2,-5.26zm26.08 1.25c-0.7,-0.38 -1.51,-0.57 -2.44,-0.57 -1.25,0 -2.24,0.46 -2.95,1.38 -0.7,0.93 -1.06,2.18 -1.06,3.76l0 8.96 -5.78 0 0 -18.75 5.78 0 0 3.48 0.07 0c0.92,-2.54 2.57,-3.81 4.95,-3.81 0.61,0 1.09,0.07 1.43,0.22l0 5.33zm20.91 13.53l-5.77 0 0 -10.42c0,-2.91 -1.04,-4.36 -3.12,-4.36 -1,0 -1.82,0.39 -2.47,1.15 -0.64,0.77 -0.97,1.75 -0.97,2.94l0 10.69 -5.78 0 0 -18.75 5.78 0 0 2.97 0.07 0c1.39,-2.29 3.39,-3.43 6.03,-3.43 4.15,0 6.23,2.58 6.23,7.73l0 11.48zm13.51 0.46c-3.13,0 -5.58,-0.88 -7.37,-2.63 -1.79,-1.75 -2.68,-4.13 -2.68,-7.13 0,-3.1 0.92,-5.53 2.78,-7.28 1.86,-1.75 4.37,-2.63 7.52,-2.63 3.12,0 5.56,0.88 7.33,2.63 1.77,1.75 2.65,4.07 2.65,6.95 0,3.11 -0.91,5.57 -2.73,7.38 -1.83,1.81 -4.33,2.71 -7.5,2.71zm0.15 -15.24c-1.37,0 -2.43,0.47 -3.19,1.41 -0.76,0.94 -1.14,2.28 -1.14,3.99 0,3.6 1.46,5.4 4.36,5.4 2.77,0 4.16,-1.85 4.16,-5.54 0,-3.51 -1.4,-5.26 -4.19,-5.26z"/>
  <path class="fil8" d="M2427.53 928.91l0 9.04 -5.91 0 0 -26.25 9.27 0c6.61,0 9.92,2.78 9.92,8.37 0,2.63 -0.95,4.76 -2.85,6.4 -1.9,1.62 -4.43,2.44 -7.61,2.44l-2.82 0zm0 -12.68l0 8.19 2.33 0c3.15,0 4.72,-1.38 4.72,-4.14 0,-2.7 -1.57,-4.05 -4.72,-4.05l-2.33 0zm31.22 21.72l-5.47 0 0 -2.69 -0.08 0c-1.25,2.1 -3.12,3.15 -5.58,3.15 -1.82,0 -3.25,-0.51 -4.3,-1.54 -1.04,-1.04 -1.56,-2.42 -1.56,-4.14 0,-3.63 2.16,-5.73 6.46,-6.3l5.1 -0.67c0,-2.05 -1.12,-3.08 -3.34,-3.08 -2.23,0 -4.36,0.67 -6.37,2l0 -4.36c0.81,-0.42 1.91,-0.78 3.31,-1.1 1.39,-0.32 2.66,-0.47 3.81,-0.47 5.35,0 8.02,2.67 8.02,8l0 11.2zm-5.43 -7.62l0 -1.26 -3.41 0.44c-1.88,0.24 -2.82,1.09 -2.82,2.55 0,0.66 0.23,1.2 0.68,1.62 0.46,0.42 1.08,0.63 1.86,0.63 1.09,0 1.97,-0.38 2.66,-1.13 0.68,-0.75 1.03,-1.7 1.03,-2.85zm22.25 -5.91c-0.7,-0.38 -1.52,-0.57 -2.44,-0.57 -1.26,0 -2.24,0.47 -2.95,1.38 -0.71,0.93 -1.06,2.18 -1.06,3.77l0 8.95 -5.79 0 0 -18.75 5.79 0 0 3.48 0.07 0c0.92,-2.54 2.56,-3.81 4.94,-3.81 0.62,0 1.09,0.08 1.44,0.22l0 5.33zm18.29 13.53l-5.48 0 0 -2.69 -0.07 0c-1.26,2.1 -3.12,3.15 -5.59,3.15 -1.82,0 -3.25,-0.51 -4.29,-1.54 -1.04,-1.04 -1.56,-2.42 -1.56,-4.14 0,-3.63 2.15,-5.73 6.46,-6.3l5.09 -0.67c0,-2.05 -1.11,-3.08 -3.34,-3.08 -2.23,0 -4.35,0.67 -6.36,2l0 -4.36c0.8,-0.42 1.9,-0.78 3.3,-1.1 1.4,-0.32 2.67,-0.47 3.82,-0.47 5.35,0 8.02,2.67 8.02,8l0 11.2zm-5.44 -7.62l0 -1.26 -3.4 0.44c-1.89,0.24 -2.82,1.09 -2.82,2.55 0,0.66 0.22,1.2 0.68,1.62 0.46,0.42 1.08,0.63 1.86,0.63 1.09,0 1.97,-0.38 2.66,-1.13 0.68,-0.75 1.02,-1.7 1.02,-2.85zm3.71 -20.01l-5.73 5.91 -4.17 0 4.76 -5.91 5.14 0zm36.08 27.63l-5.77 0 0 -10.69c0,-2.73 -1,-4.08 -3,-4.08 -0.95,0 -1.72,0.4 -2.32,1.22 -0.6,0.82 -0.9,1.84 -0.9,3.06l0 10.49 -5.79 0 0 -10.8c0,-2.65 -0.98,-3.97 -2.94,-3.97 -0.99,0 -1.79,0.39 -2.37,1.17 -0.6,0.78 -0.9,1.84 -0.9,3.18l0 10.42 -5.78 0 0 -18.75 5.78 0 0 2.93 0.08 0c0.6,-1 1.44,-1.81 2.52,-2.44 1.08,-0.63 2.26,-0.94 3.54,-0.94 2.65,0 4.46,1.16 5.44,3.49 1.43,-2.33 3.52,-3.49 6.3,-3.49 4.07,0 6.11,2.51 6.11,7.54l0 11.66zm21.43 -7.72l-12.24 0c0.2,2.72 1.92,4.08 5.15,4.08 2.06,0 3.87,-0.49 5.44,-1.46l0 4.17c-1.74,0.93 -3.99,1.39 -6.76,1.39 -3.03,0 -5.38,-0.84 -7.05,-2.52 -1.67,-1.67 -2.51,-4.02 -2.51,-7.02 0,-3.11 0.9,-5.58 2.72,-7.4 1.8,-1.82 4.02,-2.72 6.66,-2.72 2.73,0 4.85,0.81 6.34,2.43 1.5,1.62 2.25,3.83 2.25,6.61l0 2.44zm-5.37 -3.56c0,-2.68 -1.08,-4.02 -3.26,-4.02 -0.92,0 -1.73,0.38 -2.41,1.15 -0.68,0.77 -1.08,1.73 -1.23,2.87l6.9 0zm20.14 11.06c-0.86,0.45 -2.14,0.68 -3.86,0.68 -4.08,0 -6.12,-2.12 -6.12,-6.35l0 -8.59 -3.04 0 0 -4.27 3.04 0 0 -4.04 5.77 -1.65 0 5.69 4.21 0 0 4.27 -4.21 0 0 7.58c0,1.95 0.77,2.93 2.32,2.93 0.62,0 1.25,-0.18 1.89,-0.53l0 4.28zm15.49 -13.31c-0.7,-0.38 -1.51,-0.57 -2.43,-0.57 -1.26,0 -2.24,0.47 -2.95,1.38 -0.71,0.93 -1.07,2.18 -1.07,3.77l0 8.95 -5.78 0 0 -18.75 5.78 0 0 3.48 0.08 0c0.92,-2.54 2.56,-3.81 4.94,-3.81 0.62,0 1.09,0.08 1.43,0.22l0 5.33zm11.48 13.99c-3.12,0 -5.58,-0.88 -7.37,-2.63 -1.79,-1.75 -2.68,-4.13 -2.68,-7.13 0,-3.1 0.93,-5.53 2.78,-7.28 1.86,-1.75 4.37,-2.62 7.53,-2.62 3.11,0 5.55,0.87 7.32,2.62 1.77,1.75 2.66,4.07 2.66,6.95 0,3.11 -0.91,5.58 -2.74,7.38 -1.83,1.81 -4.32,2.71 -7.5,2.71zm0.15 -15.23c-1.37,0 -2.43,0.47 -3.19,1.4 -0.75,0.95 -1.13,2.28 -1.13,4 0,3.6 1.45,5.4 4.36,5.4 2.77,0 4.15,-1.85 4.15,-5.55 0,-3.5 -1.4,-5.25 -4.19,-5.25zm12.61 14.28l0 -4.69c0.96,0.58 1.91,1 2.85,1.28 0.95,0.28 1.84,0.42 2.68,0.42 1.03,0 1.84,-0.14 2.43,-0.42 0.59,-0.28 0.89,-0.7 0.89,-1.28 0,-0.37 -0.13,-0.67 -0.4,-0.92 -0.27,-0.24 -0.62,-0.45 -1.04,-0.63 -0.42,-0.19 -0.88,-0.35 -1.38,-0.5 -0.5,-0.15 -0.98,-0.31 -1.45,-0.49 -0.74,-0.28 -1.4,-0.59 -1.96,-0.91 -0.57,-0.32 -1.05,-0.7 -1.44,-1.13 -0.38,-0.42 -0.67,-0.92 -0.87,-1.48 -0.2,-0.56 -0.31,-1.23 -0.31,-1.99 0,-1.05 0.23,-1.96 0.69,-2.72 0.46,-0.75 1.07,-1.37 1.83,-1.85 0.76,-0.48 1.64,-0.84 2.62,-1.07 0.98,-0.22 2.01,-0.33 3.07,-0.33 0.83,0 1.67,0.06 2.52,0.19 0.86,0.13 1.7,0.31 2.54,0.56l0 4.47c-0.74,-0.44 -1.52,-0.75 -2.36,-0.97 -0.84,-0.21 -1.66,-0.32 -2.46,-0.32 -0.38,0 -0.74,0.04 -1.07,0.1 -0.34,0.07 -0.64,0.17 -0.9,0.3 -0.25,0.12 -0.45,0.29 -0.6,0.49 -0.15,0.2 -0.21,0.43 -0.21,0.69 0,0.34 0.1,0.63 0.32,0.87 0.23,0.25 0.51,0.46 0.86,0.64 0.36,0.18 0.75,0.33 1.18,0.47 0.44,0.14 0.87,0.29 1.3,0.43 0.77,0.27 1.46,0.56 2.09,0.88 0.61,0.32 1.15,0.69 1.6,1.12 0.44,0.43 0.78,0.93 1.02,1.5 0.24,0.58 0.36,1.26 0.36,2.05 0,1.11 -0.24,2.06 -0.73,2.85 -0.48,0.79 -1.12,1.43 -1.92,1.92 -0.8,0.49 -1.72,0.86 -2.77,1.08 -1.04,0.23 -2.12,0.34 -3.25,0.34 -2.06,0 -3.96,-0.32 -5.73,-0.95z"/>
  <g>
   <path id="flecha_roja_5" class="fil9" d="M2382.29 1370.16l15 35.01 0 0 -0.94 -0.46 -0.94 -0.42 -0.93 -0.4 -0.94 -0.36 -0.94 -0.34 -0.94 -0.31 -0.93 -0.28 -0.94 -0.25 -0.94 -0.22 -0.94 -0.19 -0.94 -0.16 -0.93 -0.13 -0.94 -0.1 -0.94 -0.08 -0.94 -0.04 -0.93 -0.01 -0.94 0.01 -0.94 0.04 -0.94 0.08 -0.93 0.1 -0.94 0.13 -0.94 0.16 -0.94 0.19 -0.93 0.22 -0.94 0.25 -0.94 0.28 -0.94 0.31 -0.94 0.34 -0.93 0.36 -0.94 0.4 -0.94 0.42 -0.94 0.46 15.01 -35.01zm137.79 128.11l0 5 0 0 -7.2 -0.15 -7.1 -0.44 -7 -0.73 -6.89 -1.01 -6.77 -1.28 -6.64 -1.55 -6.5 -1.8 -6.36 -2.06 -6.2 -2.3 -6.04 -2.54 -5.87 -2.76 -5.69 -2.99 -5.49 -3.21 -5.3 -3.42 -5.09 -3.61 -4.88 -3.82 -4.65 -4 -4.42 -4.18 -4.18 -4.36 -3.92 -4.53 -3.67 -4.68 -3.39 -4.85 -3.11 -4.98 -2.83 -5.13 -2.53 -5.26 -2.22 -5.38 -1.9 -5.5 -1.58 -5.62 -1.24 -5.71 -0.9 -5.81 -0.55 -5.89 -0.18 -5.97 5 0 0.17 5.66 0.52 5.59 0.85 5.51 1.18 5.42 1.5 5.32 1.81 5.23 2.11 5.11 2.41 5.01 2.69 4.89 2.97 4.75 3.24 4.63 3.51 4.48 3.76 4.34 4 4.18 4.25 4.02 4.47 3.85 4.69 3.67 4.91 3.48 5.11 3.3 5.31 3.09 5.49 2.89 5.67 2.68 5.85 2.45 6 2.23 6.16 1.99 6.3 1.75 6.44 1.5 6.56 1.24 6.68 0.98 6.79 0.71 6.9 0.43 6.99 0.14 0 0zm135.29 -110.52l5 0 -0.19 5.97 -0.54 5.89 -0.9 5.81 -1.25 5.71 -1.58 5.62 -1.9 5.5 -2.22 5.38 -2.53 5.26 -2.83 5.13 -3.11 4.98 -3.39 4.85 -3.67 4.68 -3.92 4.53 -4.18 4.36 -4.41 4.18 -4.66 4 -4.87 3.82 -5.1 3.61 -5.29 3.42 -5.5 3.21 -5.69 2.99 -5.87 2.76 -6.04 2.54 -6.2 2.3 -6.36 2.06 -6.5 1.8 -6.64 1.55 -6.77 1.28 -6.89 1.01 -7 0.73 -7.1 0.44 -7.19 0.15 0 -5 6.98 -0.14 6.9 -0.43 6.79 -0.71 6.68 -0.98 6.57 -1.24 6.43 -1.5 6.3 -1.75 6.16 -1.99 6.01 -2.23 5.84 -2.45 5.67 -2.68 5.49 -2.89 5.31 -3.09 5.11 -3.3 4.91 -3.48 4.69 -3.67 4.48 -3.85 4.24 -4.02 4 -4.18 3.76 -4.34 3.51 -4.48 3.24 -4.63 2.97 -4.75 2.7 -4.89 2.4 -5.01 2.11 -5.11 1.81 -5.23 1.5 -5.32 1.18 -5.42 0.85 -5.51 0.52 -5.59 0.18 -5.66z"/>
  </g>
  <g>
   <path id="flecha_amarilla_6" class="fil10" d="M2657.87 1104.46l-15.01 -35 0 0 0.94 0.45 0.94 0.43 0.94 0.39 0.93 0.37 0.94 0.34 0.94 0.3 0.94 0.28 0.93 0.25 0.94 0.22 0.94 0.19 0.94 0.16 0.93 0.13 0.94 0.11 0.94 0.07 0.94 0.04 0.94 0.02 0.93 -0.02 0.94 -0.04 0.94 -0.07 0.94 -0.11 0.93 -0.13 0.94 -0.16 0.94 -0.19 0.94 -0.22 0.94 -0.25 0.93 -0.28 0.94 -0.3 0.94 -0.34 0.94 -0.37 0.93 -0.39 0.94 -0.43 0.94 -0.45 -15 35zm-137.79 -128.11l0 -5 0 0 7.19 0.15 7.1 0.44 7 0.73 6.89 1.01 6.77 1.28 6.64 1.55 6.5 1.8 6.36 2.06 6.2 2.3 6.04 2.54 5.87 2.77 5.69 2.99 5.5 3.2 5.29 3.42 5.1 3.62 4.87 3.81 4.66 4 4.41 4.19 4.18 4.35 3.92 4.53 3.67 4.69 3.39 4.84 3.11 4.98 2.83 5.13 2.53 5.26 2.22 5.39 1.9 5.5 1.58 5.61 1.25 5.71 0.9 5.81 0.54 5.89 0.19 5.97 -5 0 -0.18 -5.66 -0.52 -5.59 -0.85 -5.51 -1.18 -5.41 -1.5 -5.33 -1.81 -5.22 -2.11 -5.12 -2.4 -5.01 -2.7 -4.88 -2.97 -4.76 -3.24 -4.63 -3.51 -4.48 -3.76 -4.34 -4 -4.18 -4.24 -4.02 -4.48 -3.84 -4.69 -3.67 -4.91 -3.49 -5.11 -3.3 -5.31 -3.09 -5.49 -2.89 -5.67 -2.68 -5.84 -2.45 -6.01 -2.23 -6.16 -1.99 -6.3 -1.75 -6.43 -1.49 -6.57 -1.25 -6.68 -0.98 -6.79 -0.71 -6.9 -0.42 -6.98 -0.15 0 0zm-135.29 110.52l-5 0 0.18 -5.97 0.55 -5.89 0.9 -5.81 1.24 -5.71 1.58 -5.61 1.9 -5.5 2.22 -5.39 2.53 -5.26 2.83 -5.13 3.11 -4.98 3.39 -4.84 3.67 -4.69 3.92 -4.53 4.18 -4.35 4.42 -4.19 4.65 -4 4.88 -3.81 5.09 -3.62 5.3 -3.42 5.49 -3.2 5.69 -2.99 5.87 -2.77 6.04 -2.54 6.2 -2.3 6.36 -2.06 6.5 -1.8 6.64 -1.55 6.77 -1.28 6.89 -1.01 7 -0.73 7.1 -0.44 7.2 -0.15 0 5 -6.99 0.15 -6.9 0.42 -6.79 0.71 -6.68 0.98 -6.56 1.25 -6.44 1.49 -6.3 1.75 -6.16 1.99 -6 2.23 -5.85 2.45 -5.67 2.68 -5.49 2.89 -5.31 3.09 -5.11 3.3 -4.91 3.49 -4.69 3.67 -4.47 3.84 -4.25 4.02 -4 4.18 -3.76 4.34 -3.51 4.48 -3.24 4.63 -2.97 4.76 -2.69 4.88 -2.41 5.01 -2.11 5.12 -1.81 5.22 -1.5 5.33 -1.18 5.41 -0.85 5.51 -0.52 5.59 -0.17 5.66z"/>
  </g>
  <g>
   <path id="c1_conector_verde" class="fil11" d="M1082.73 854.03l29.4 -12.6 0 0 -0.38 0.79 -0.36 0.78 -0.33 0.79 -0.31 0.79 -0.28 0.79 -0.26 0.78 -0.24 0.79 -0.2 0.79 -0.19 0.79 -0.16 0.78 -0.13 0.79 -0.11 0.79 -0.09 0.79 -0.06 0.78 -0.04 0.79 -0.01 0.79 0.01 0.79 0.04 0.78 0.06 0.79 0.09 0.79 0.11 0.79 0.13 0.78 0.16 0.79 0.19 0.79 0.2 0.79 0.24 0.78 0.26 0.79 0.28 0.79 0.31 0.79 0.33 0.78 0.36 0.79 0.38 0.79 -29.4 -12.6zm359.1 1.56l-344.33 0 0 -3.13 344.33 0 0 3.13zm14.78 -1.56l-29.4 12.6 0.38 -0.79 0.36 -0.79 0.33 -0.78 0.31 -0.79 0.28 -0.79 0.26 -0.79 0.23 -0.78 0.21 -0.79 0.18 -0.79 0.16 -0.79 0.14 -0.78 0.11 -0.79 0.09 -0.79 0.06 -0.79 0.04 -0.78 0.01 -0.79 -0.01 -0.79 -0.04 -0.79 -0.06 -0.78 -0.09 -0.79 -0.11 -0.79 -0.14 -0.79 -0.16 -0.78 -0.18 -0.79 -0.21 -0.79 -0.23 -0.79 -0.26 -0.78 -0.28 -0.79 -0.31 -0.79 -0.33 -0.79 -0.36 -0.78 -0.38 -0.79 0 0 29.4 12.6z"/>
  </g>
  <g>
   <path id="s2_conector_verde" class="fil11" d="M1844.05 896.32l30.13 10.74 0 0 -0.82 0.32 -0.79 0.34 -0.78 0.35 -0.76 0.37 -0.74 0.38 -0.73 0.4 -0.71 0.42 -0.69 0.44 -0.67 0.45 -0.65 0.47 -0.63 0.48 -0.62 0.51 -0.6 0.52 -0.58 0.53 -0.56 0.55 -0.55 0.57 -0.52 0.59 -0.51 0.6 -0.49 0.62 -0.47 0.64 -0.46 0.65 -0.43 0.67 -0.42 0.69 -0.4 0.7 -0.38 0.72 -0.37 0.74 -0.34 0.75 -0.33 0.77 -0.31 0.79 -0.29 0.8 -0.28 0.82 -0.25 0.84 -13 -29.23zm361.32 337.02l-351.54 -325.83 2.12 -2.29 351.54 325.82 -2.12 2.3zm11.9 8.89l-30.13 -10.74 0.82 -0.32 0.79 -0.33 0.78 -0.36 0.76 -0.36 0.75 -0.39 0.72 -0.4 0.71 -0.42 0.69 -0.44 0.67 -0.45 0.65 -0.47 0.63 -0.48 0.62 -0.5 0.6 -0.52 0.58 -0.54 0.56 -0.55 0.55 -0.57 0.52 -0.59 0.51 -0.6 0.49 -0.62 0.47 -0.63 0.46 -0.66 0.43 -0.67 0.42 -0.68 0.4 -0.71 0.38 -0.72 0.37 -0.73 0.34 -0.76 0.33 -0.77 0.31 -0.78 0.29 -0.81 0.28 -0.82 0.25 -0.83 0 0 13 29.22z"/>
  </g>
  <g>
   <path id="s1_conector_verde" class="fil11" d="M2217.27 468.98l-13.41 29.04 0 0 -0.25 -0.84 -0.26 -0.83 -0.28 -0.8 -0.3 -0.8 -0.31 -0.77 -0.34 -0.76 -0.35 -0.74 -0.37 -0.73 -0.39 -0.7 -0.41 -0.7 -0.43 -0.67 -0.44 -0.66 -0.47 -0.64 -0.48 -0.63 -0.5 -0.61 -0.51 -0.59 -0.54 -0.58 -0.56 -0.56 -0.57 -0.54 -0.59 -0.53 -0.61 -0.51 -0.63 -0.5 -0.64 -0.47 -0.67 -0.47 -0.68 -0.44 -0.7 -0.43 -0.72 -0.41 -0.74 -0.4 -0.75 -0.38 -0.78 -0.36 -0.79 -0.35 -0.81 -0.33 30.28 -10.31zm-366.25 327.82l354.23 -319.09 2.09 2.32 -354.23 319.09 -2.09 -2.32zm-9.94 11.05l13.42 -29.04 0.24 0.84 0.26 0.82 0.28 0.81 0.3 0.79 0.32 0.77 0.33 0.76 0.35 0.74 0.38 0.73 0.39 0.71 0.4 0.69 0.43 0.68 0.45 0.65 0.46 0.65 0.48 0.62 0.5 0.61 0.52 0.6 0.53 0.57 0.56 0.56 0.57 0.55 0.59 0.52 0.61 0.52 0.63 0.49 0.64 0.48 0.67 0.46 0.68 0.45 0.7 0.42 0.72 0.42 0.74 0.39 0.75 0.38 0.78 0.36 0.79 0.35 0.81 0.33 0 0 -30.28 10.32z"/>
  </g>
  <path class="fil12 str2" d="M1486.09 825.22c-62.55,-36.4 -15.64,-97.07 31.27,-84.93 0,-36.4 78.18,-48.53 109.45,-12.14 0,-48.52 93.82,-48.52 93.82,0 46.91,-36.39 125.1,12.14 93.82,48.54 46.91,12.13 31.28,72.8 0,72.8 46.91,12.13 31.28,72.8 0,72.8 31.28,36.39 -46.91,84.92 -93.82,36.39 -15.63,48.53 -109.45,48.53 -109.45,0 -31.27,36.4 -93.82,24.27 -78.18,-12.13 -46.91,12.13 -78.19,-36.4 -46.91,-60.66 -31.28,0 -46.91,-60.67 0,-60.67z"/>
  <path class="fil6" d="M1565.84 860.62l-7.89 0 0 -35.01 7.89 0 0 35.01zm31.34 0l-7.69 0 0 -13.89c0,-3.88 -1.38,-5.81 -4.15,-5.81 -1.33,0 -2.43,0.51 -3.29,1.53 -0.87,1.03 -1.3,2.34 -1.3,3.91l0 14.26 -7.71 0 0 -25 7.71 0 0 3.96 0.1 0c1.84,-3.05 4.52,-4.57 8.03,-4.57 5.53,0 8.3,3.43 8.3,10.3l0 15.31zm21.22 -0.29c-1.14,0.6 -2.86,0.9 -5.15,0.9 -5.44,0 -8.16,-2.83 -8.16,-8.47l0 -11.45 -4.05 0 0 -5.69 4.05 0 0 -5.39 7.69 -2.2 0 7.59 5.62 0 0 5.69 -5.62 0 0 10.11c0,2.6 1.03,3.9 3.1,3.9 0.82,0 1.66,-0.23 2.52,-0.71l0 5.72zm26.61 -10.01l-16.3 0c0.25,3.62 2.55,5.44 6.85,5.44 2.75,0 5.17,-0.65 7.25,-1.95l0 5.57c-2.3,1.23 -5.3,1.85 -9,1.85 -4.04,0 -7.17,-1.12 -9.4,-3.36 -2.23,-2.23 -3.35,-5.36 -3.35,-9.36 0,-4.15 1.2,-7.44 3.62,-9.87 2.41,-2.42 5.37,-3.63 8.88,-3.63 3.65,0 6.47,1.08 8.46,3.24 1.99,2.17 2.99,5.11 2.99,8.82l0 3.25zm-7.15 -4.74c0,-3.58 -1.45,-5.37 -4.35,-5.37 -1.23,0 -2.3,0.51 -3.2,1.53 -0.91,1.03 -1.45,2.31 -1.65,3.84l9.2 0zm28.05 -3c-0.93,-0.51 -2.01,-0.76 -3.25,-0.76 -1.67,0 -2.98,0.62 -3.93,1.84 -0.94,1.23 -1.42,2.9 -1.42,5.02l0 11.94 -7.7 0 0 -25 7.7 0 0 4.64 0.1 0c1.23,-3.39 3.42,-5.08 6.6,-5.08 0.81,0 1.44,0.1 1.9,0.29l0 7.11zm27.88 18.04l-7.69 0 0 -13.89c0,-3.88 -1.39,-5.81 -4.15,-5.81 -1.34,0 -2.44,0.51 -3.3,1.53 -0.86,1.03 -1.3,2.34 -1.3,3.91l0 14.26 -7.7 0 0 -25 7.7 0 0 3.96 0.1 0c1.85,-3.05 4.52,-4.57 8.04,-4.57 5.53,0 8.3,3.43 8.3,10.3l0 15.31zm28.56 -10.3l-16.3 0c0.25,3.62 2.55,5.44 6.85,5.44 2.75,0 5.17,-0.65 7.25,-1.95l0 5.57c-2.31,1.23 -5.31,1.85 -9,1.85 -4.04,0 -7.17,-1.12 -9.4,-3.36 -2.23,-2.23 -3.35,-5.36 -3.35,-9.36 0,-4.15 1.2,-7.44 3.62,-9.87 2.41,-2.42 5.37,-3.63 8.88,-3.63 3.64,0 6.47,1.08 8.46,3.24 1.99,2.17 2.99,5.11 2.99,8.82l0 3.25zm-7.15 -4.74c0,-3.58 -1.45,-5.37 -4.35,-5.37 -1.23,0 -2.31,0.51 -3.21,1.53 -0.9,1.03 -1.44,2.31 -1.65,3.84l9.21 0zm26.85 14.75c-1.14,0.6 -2.86,0.9 -5.15,0.9 -5.43,0 -8.15,-2.83 -8.15,-8.47l0 -11.45 -4.05 0 0 -5.69 4.05 0 0 -5.39 7.69 -2.2 0 7.59 5.61 0 0 5.69 -5.61 0 0 10.11c0,2.6 1.03,3.9 3.1,3.9 0.81,0 1.66,-0.23 2.51,-0.71l0 5.72z"/>
 </g>
</svg>
